<?xml version="1.0" encoding="utf-8" standalone="no"?>
<!DOCTYPE svg PUBLIC "-//W3C//DTD SVG 1.1//EN"
  "http://www.w3.org/Graphics/SVG/1.1/DTD/svg11.dtd">
<!-- Created with matplotlib (http://matplotlib.org/) -->
<svg height="576pt" version="1.1" viewBox="0 0 576 576" width="576pt" xmlns="http://www.w3.org/2000/svg" xmlns:xlink="http://www.w3.org/1999/xlink">
 <defs>
  <style type="text/css">
*{stroke-linecap:butt;stroke-linejoin:round;}
  </style>
 </defs>
 <g id="figure_1">
  <g id="patch_1">
   <path d="
M0 576
L576 576
L576 0
L0 0
z
" style="fill:#ffffff;"/>
  </g>
  <g id="axes_1">
   <g id="patch_2">
    <path clip-path="url(#p93b53bbf5d)" d="
M113.807 99.4909
L120.091 118.342
L114.226 118.342
L114.226 476.509
L113.388 476.509
L113.388 118.342
L107.523 118.342
z
" style="fill:#00d4ff;stroke:#00d4ff;"/>
   </g>
   <g id="patch_3">
    <path clip-path="url(#p93b53bbf5d)" d="
M458.454 298.473
L445.27 313.34
L442.338 308.261
L132.156 487.345
L131.737 486.619
L441.919 307.535
L438.986 302.456
z
" style="fill:#ff4700;stroke:#ff4700;"/>
   </g>
   <g id="patch_4">
    <path clip-path="url(#p93b53bbf5d)" d="
M113.807 476.509
L107.523 457.658
L113.388 457.658
L113.388 99.4909
L114.226 99.4909
L114.226 457.658
L120.091 457.658
z
" style="fill:#00d4ff;stroke:#00d4ff;"/>
   </g>
   <g id="patch_5">
    <path clip-path="url(#p93b53bbf5d)" d="
M458.454 277.527
L438.986 273.544
L441.919 268.465
L131.737 89.381
L132.156 88.6554
L442.338 267.739
L445.27 262.66
z
" style="fill:#ffe600;stroke:#ffe600;"/>
   </g>
   <g id="patch_6">
    <path clip-path="url(#p93b53bbf5d)" d="
M131.946 486.982
L145.13 472.115
L148.062 477.194
L458.244 298.11
L458.663 298.836
L148.481 477.919
L151.414 482.998
z
" style="fill:#ff4700;stroke:#ff4700;"/>
   </g>
   <g id="patch_7">
    <path clip-path="url(#p93b53bbf5d)" d="
M131.946 89.0182
L151.414 93.0018
L148.481 98.0809
L458.663 277.164
L458.244 277.89
L148.062 98.8064
L145.13 103.885
z
" style="fill:#ffe600;stroke:#ffe600;"/>
   </g>
   <g id="line2d_1">
    <defs>
     <path d="
M0 12.5
C3.31504 12.5 6.49475 11.1829 8.83883 8.83883
C11.1829 6.49475 12.5 3.31504 12.5 0
C12.5 -3.31504 11.1829 -6.49475 8.83883 -8.83883
C6.49475 -11.1829 3.31504 -12.5 0 -12.5
C-3.31504 -12.5 -6.49475 -11.1829 -8.83883 -8.83883
C-11.1829 -6.49475 -12.5 -3.31504 -12.5 0
C-12.5 3.31504 -11.1829 6.49475 -8.83883 8.83883
C-6.49475 11.1829 -3.31504 12.5 0 12.5
z
" id="mbbc2cff4b8" style="stroke:#000000;stroke-width:1.5;"/>
    </defs>
    <g clip-path="url(#p93b53bbf5d)">
     <use style="fill:#ffffff;stroke:#000000;stroke-width:1.5;" x="113.807042698" xlink:href="#mbbc2cff4b8" y="497.454545455"/>
    </g>
   </g>
   <g id="line2d_2">
    <g clip-path="url(#p93b53bbf5d)">
     <use style="fill:#ffffff;stroke:#000000;stroke-width:1.5;" x="113.807042698" xlink:href="#mbbc2cff4b8" y="78.5454545455"/>
    </g>
   </g>
   <g id="line2d_3">
    <g clip-path="url(#p93b53bbf5d)">
     <use style="fill:#ffffff;stroke:#000000;stroke-width:1.5;" x="476.592957302" xlink:href="#mbbc2cff4b8" y="288.0"/>
    </g>
   </g>
   <g id="text_1">
    <!-- 1 -->
    <defs>
     <path d="
M12.4062 8.29688
L28.5156 8.29688
L28.5156 63.9219
L10.9844 60.4062
L10.9844 69.3906
L28.4219 72.9062
L38.2812 72.9062
L38.2812 8.29688
L54.3906 8.29688
L54.3906 0
L12.4062 0
z
" id="DejaVuSans-31"/>
    </defs>
    <g transform="translate(109.900480198 502.421420455)scale(0.18 -0.18)">
     <use xlink:href="#DejaVuSans-31"/>
    </g>
   </g>
   <g id="text_2">
    <!-- 2 -->
    <defs>
     <path d="
M19.1875 8.29688
L53.6094 8.29688
L53.6094 0
L7.32812 0
L7.32812 8.29688
Q12.9375 14.1094 22.625 23.8906
Q32.3281 33.6875 34.8125 36.5312
Q39.5469 41.8438 41.4219 45.5312
Q43.3125 49.2188 43.3125 52.7812
Q43.3125 58.5938 39.2344 62.25
Q35.1562 65.9219 28.6094 65.9219
Q23.9688 65.9219 18.8125 64.3125
Q13.6719 62.7031 7.8125 59.4219
L7.8125 69.3906
Q13.7656 71.7812 18.9375 73
Q24.125 74.2188 28.4219 74.2188
Q39.75 74.2188 46.4844 68.5469
Q53.2188 62.8906 53.2188 53.4219
Q53.2188 48.9219 51.5312 44.8906
Q49.8594 40.875 45.4062 35.4062
Q44.1875 33.9844 37.6406 27.2188
Q31.1094 20.4531 19.1875 8.29688" id="DejaVuSans-32"/>
    </defs>
    <g transform="translate(109.641730198 83.5123295455)scale(0.18 -0.18)">
     <use xlink:href="#DejaVuSans-32"/>
    </g>
   </g>
   <g id="text_3">
    <!-- 3 -->
    <defs>
     <path d="
M40.5781 39.3125
Q47.6562 37.7969 51.625 33
Q55.6094 28.2188 55.6094 21.1875
Q55.6094 10.4062 48.1875 4.48438
Q40.7656 -1.42188 27.0938 -1.42188
Q22.5156 -1.42188 17.6562 -0.515625
Q12.7969 0.390625 7.625 2.20312
L7.625 11.7188
Q11.7188 9.32812 16.5938 8.10938
Q21.4844 6.89062 26.8125 6.89062
Q36.0781 6.89062 40.9375 10.5469
Q45.7969 14.2031 45.7969 21.1875
Q45.7969 27.6406 41.2812 31.2656
Q36.7656 34.9062 28.7188 34.9062
L20.2188 34.9062
L20.2188 43.0156
L29.1094 43.0156
Q36.375 43.0156 40.2344 45.9219
Q44.0938 48.8281 44.0938 54.2969
Q44.0938 59.9062 40.1094 62.9062
Q36.1406 65.9219 28.7188 65.9219
Q24.6562 65.9219 20.0156 65.0312
Q15.375 64.1562 9.8125 62.3125
L9.8125 71.0938
Q15.4375 72.6562 20.3438 73.4375
Q25.25 74.2188 29.5938 74.2188
Q40.8281 74.2188 47.3594 69.1094
Q53.9062 64.0156 53.9062 55.3281
Q53.9062 49.2656 50.4375 45.0938
Q46.9688 40.9219 40.5781 39.3125" id="DejaVuSans-33"/>
    </defs>
    <g transform="translate(472.274363552 292.966875)scale(0.18 -0.18)">
     <use xlink:href="#DejaVuSans-33"/>
    </g>
   </g>
  </g>
 </g>
 <defs>
  <clipPath id="p93b53bbf5d">
   <rect height="460.8" width="399.064506064" x="95.6677469681" y="57.6"/>
  </clipPath>
 </defs>
</svg>
