<?xml version="1.0" encoding="utf-8" standalone="no"?>
<!DOCTYPE svg PUBLIC "-//W3C//DTD SVG 1.1//EN"
  "http://www.w3.org/Graphics/SVG/1.1/DTD/svg11.dtd">
<!-- Created with matplotlib (http://matplotlib.org/) -->
<svg height="576pt" version="1.1" viewBox="0 0 576 576" width="576pt" xmlns="http://www.w3.org/2000/svg" xmlns:xlink="http://www.w3.org/1999/xlink">
 <defs>
  <style type="text/css">
*{stroke-linecap:butt;stroke-linejoin:round;}
  </style>
 </defs>
 <g id="figure_1">
  <g id="patch_1">
   <path d="
M0 576
L576 576
L576 0
L0 0
z
" style="fill:#ffffff;"/>
  </g>
  <g id="axes_1">
   <g id="patch_2">
    <path clip-path="url(#pf0faae2f5b)" d="
M309.548 476.561
L318.157 459.344
L322.174 463.361
L483.474 302.061
L484.048 302.635
L322.748 463.935
L326.765 467.953
z
" style="fill:#0028ff;stroke:#0028ff;"/>
   </g>
   <g id="patch_3">
    <path clip-path="url(#pf0faae2f5b)" d="
M112.582 288
L130.844 281.913
L130.844 287.594
L477.818 287.594
L477.818 288.406
L130.844 288.406
L130.844 294.087
z
" style="fill:#ff4700;stroke:#ff4700;"/>
   </g>
   <g id="patch_4">
    <path clip-path="url(#pf0faae2f5b)" d="
M309.548 99.4387
L326.765 108.047
L322.748 112.065
L484.048 273.365
L483.474 273.939
L322.174 112.639
L318.157 116.656
z
" style="fill:#ffe600;stroke:#ffe600;"/>
   </g>
   <g id="patch_5">
    <path clip-path="url(#pf0faae2f5b)" d="
M483.761 302.348
L475.153 319.565
L471.135 315.548
L309.835 476.848
L309.261 476.274
L470.561 314.974
L466.544 310.957
z
" style="fill:#0028ff;stroke:#0028ff;"/>
   </g>
   <g id="patch_6">
    <path clip-path="url(#pf0faae2f5b)" d="
M106.639 302.348
L123.856 310.957
L119.839 314.974
L281.139 476.274
L280.565 476.848
L119.265 315.548
L115.247 319.565
z
" style="fill:#00d4ff;stroke:#00d4ff;"/>
   </g>
   <g id="patch_7">
    <path clip-path="url(#pf0faae2f5b)" d="
M295.2 105.382
L301.287 123.644
L295.606 123.644
L295.606 470.618
L294.794 470.618
L294.794 123.644
L289.113 123.644
z
" style="fill:#0080ff;stroke:#0080ff;"/>
   </g>
   <g id="patch_8">
    <path clip-path="url(#pf0faae2f5b)" d="
M477.818 288
L459.556 294.087
L459.556 288.406
L112.582 288.406
L112.582 287.594
L459.556 287.594
L459.556 281.913
z
" style="fill:#ff4700;stroke:#ff4700;"/>
   </g>
   <g id="patch_9">
    <path clip-path="url(#pf0faae2f5b)" d="
M280.852 476.561
L263.635 467.953
L267.652 463.935
L106.352 302.635
L106.926 302.061
L268.226 463.361
L272.243 459.344
z
" style="fill:#00d4ff;stroke:#00d4ff;"/>
   </g>
   <g id="patch_10">
    <path clip-path="url(#pf0faae2f5b)" d="
M280.852 99.4387
L272.243 116.656
L268.226 112.639
L106.926 273.939
L106.352 273.365
L267.652 112.065
L263.635 108.047
z
" style="fill:#7dff7a;stroke:#7dff7a;"/>
   </g>
   <g id="patch_11">
    <path clip-path="url(#pf0faae2f5b)" d="
M483.761 273.652
L466.544 265.043
L470.561 261.026
L309.261 99.7257
L309.835 99.1518
L471.135 260.452
L475.153 256.435
z
" style="fill:#ffe600;stroke:#ffe600;"/>
   </g>
   <g id="patch_12">
    <path clip-path="url(#pf0faae2f5b)" d="
M295.2 470.618
L289.113 452.356
L294.794 452.356
L294.794 105.382
L295.606 105.382
L295.606 452.356
L301.287 452.356
z
" style="fill:#0080ff;stroke:#0080ff;"/>
   </g>
   <g id="patch_13">
    <path clip-path="url(#pf0faae2f5b)" d="
M106.639 273.652
L115.247 256.435
L119.265 260.452
L280.565 99.1518
L281.139 99.7257
L119.839 261.026
L123.856 265.043
z
" style="fill:#7dff7a;stroke:#7dff7a;"/>
   </g>
   <g id="line2d_1">
    <defs>
     <path d="
M0 12.5
C3.31504 12.5 6.49475 11.1829 8.83883 8.83883
C11.1829 6.49475 12.5 3.31504 12.5 0
C12.5 -3.31504 11.1829 -6.49475 8.83883 -8.83883
C6.49475 -11.1829 3.31504 -12.5 0 -12.5
C-3.31504 -12.5 -6.49475 -11.1829 -8.83883 -8.83883
C-11.1829 -6.49475 -12.5 -3.31504 -12.5 0
C-12.5 3.31504 -11.1829 6.49475 -8.83883 8.83883
C-6.49475 11.1829 -3.31504 12.5 0 12.5
z
" id="mbbc2cff4b8" style="stroke:#000000;stroke-width:1.5;"/>
    </defs>
    <g clip-path="url(#pf0faae2f5b)">
     <use style="fill:#ffffff;stroke:#000000;stroke-width:1.5;" x="498.109090909" xlink:href="#mbbc2cff4b8" y="288.0"/>
    </g>
   </g>
   <g id="line2d_2">
    <g clip-path="url(#pf0faae2f5b)">
     <use style="fill:#ffffff;stroke:#000000;stroke-width:1.5;" x="295.2" xlink:href="#mbbc2cff4b8" y="490.909090909"/>
    </g>
   </g>
   <g id="line2d_3">
    <g clip-path="url(#pf0faae2f5b)">
     <use style="fill:#ffffff;stroke:#000000;stroke-width:1.5;" x="92.2909090909" xlink:href="#mbbc2cff4b8" y="288.0"/>
    </g>
   </g>
   <g id="line2d_4">
    <g clip-path="url(#pf0faae2f5b)">
     <use style="fill:#ffffff;stroke:#000000;stroke-width:1.5;" x="295.2" xlink:href="#mbbc2cff4b8" y="85.0909090909"/>
    </g>
   </g>
   <g id="text_1">
    <!-- 1 -->
    <defs>
     <path d="
M12.4062 8.29688
L28.5156 8.29688
L28.5156 63.9219
L10.9844 60.4062
L10.9844 69.3906
L28.4219 72.9062
L38.2812 72.9062
L38.2812 8.29688
L54.3906 8.29688
L54.3906 0
L12.4062 0
z
" id="DejaVuSans-31"/>
    </defs>
    <g transform="translate(494.202528409 292.966875)scale(0.18 -0.18)">
     <use xlink:href="#DejaVuSans-31"/>
    </g>
   </g>
   <g id="text_2">
    <!-- 2 -->
    <defs>
     <path d="
M19.1875 8.29688
L53.6094 8.29688
L53.6094 0
L7.32812 0
L7.32812 8.29688
Q12.9375 14.1094 22.625 23.8906
Q32.3281 33.6875 34.8125 36.5312
Q39.5469 41.8438 41.4219 45.5312
Q43.3125 49.2188 43.3125 52.7812
Q43.3125 58.5938 39.2344 62.25
Q35.1562 65.9219 28.6094 65.9219
Q23.9688 65.9219 18.8125 64.3125
Q13.6719 62.7031 7.8125 59.4219
L7.8125 69.3906
Q13.7656 71.7812 18.9375 73
Q24.125 74.2188 28.4219 74.2188
Q39.75 74.2188 46.4844 68.5469
Q53.2188 62.8906 53.2188 53.4219
Q53.2188 48.9219 51.5312 44.8906
Q49.8594 40.875 45.4062 35.4062
Q44.1875 33.9844 37.6406 27.2188
Q31.1094 20.4531 19.1875 8.29688" id="DejaVuSans-32"/>
    </defs>
    <g transform="translate(291.0346875 495.875965909)scale(0.18 -0.18)">
     <use xlink:href="#DejaVuSans-32"/>
    </g>
   </g>
   <g id="text_3">
    <!-- 3 -->
    <defs>
     <path d="
M40.5781 39.3125
Q47.6562 37.7969 51.625 33
Q55.6094 28.2188 55.6094 21.1875
Q55.6094 10.4062 48.1875 4.48438
Q40.7656 -1.42188 27.0938 -1.42188
Q22.5156 -1.42188 17.6562 -0.515625
Q12.7969 0.390625 7.625 2.20312
L7.625 11.7188
Q11.7188 9.32812 16.5938 8.10938
Q21.4844 6.89062 26.8125 6.89062
Q36.0781 6.89062 40.9375 10.5469
Q45.7969 14.2031 45.7969 21.1875
Q45.7969 27.6406 41.2812 31.2656
Q36.7656 34.9062 28.7188 34.9062
L20.2188 34.9062
L20.2188 43.0156
L29.1094 43.0156
Q36.375 43.0156 40.2344 45.9219
Q44.0938 48.8281 44.0938 54.2969
Q44.0938 59.9062 40.1094 62.9062
Q36.1406 65.9219 28.7188 65.9219
Q24.6562 65.9219 20.0156 65.0312
Q15.375 64.1562 9.8125 62.3125
L9.8125 71.0938
Q15.4375 72.6562 20.3438 73.4375
Q25.25 74.2188 29.5938 74.2188
Q40.8281 74.2188 47.3594 69.1094
Q53.9062 64.0156 53.9062 55.3281
Q53.9062 49.2656 50.4375 45.0938
Q46.9688 40.9219 40.5781 39.3125" id="DejaVuSans-33"/>
    </defs>
    <g transform="translate(87.9723153409 292.966875)scale(0.18 -0.18)">
     <use xlink:href="#DejaVuSans-33"/>
    </g>
   </g>
   <g id="text_4">
    <!-- 4 -->
    <defs>
     <path d="
M37.7969 64.3125
L12.8906 25.3906
L37.7969 25.3906
z

M35.2031 72.9062
L47.6094 72.9062
L47.6094 25.3906
L58.0156 25.3906
L58.0156 17.1875
L47.6094 17.1875
L47.6094 0
L37.7969 0
L37.7969 17.1875
L4.89062 17.1875
L4.89062 26.7031
z
" id="DejaVuSans-34"/>
    </defs>
    <g transform="translate(290.41875 90.0577840909)scale(0.18 -0.18)">
     <use xlink:href="#DejaVuSans-34"/>
    </g>
   </g>
  </g>
 </g>
 <defs>
  <clipPath id="pf0faae2f5b">
   <rect height="446.4" width="446.4" x="72.0" y="64.8"/>
  </clipPath>
 </defs>
</svg>
