<?xml version="1.0" encoding="utf-8" standalone="no"?>
<!DOCTYPE svg PUBLIC "-//W3C//DTD SVG 1.1//EN"
  "http://www.w3.org/Graphics/SVG/1.1/DTD/svg11.dtd">
<!-- Created with matplotlib (http://matplotlib.org/) -->
<svg height="432pt" version="1.1" viewBox="0 0 432 432" width="432pt" xmlns="http://www.w3.org/2000/svg" xmlns:xlink="http://www.w3.org/1999/xlink">
 <defs>
  <style type="text/css">
*{stroke-linecap:butt;stroke-linejoin:round;stroke-miterlimit:100000;}
  </style>
 </defs>
 <g id="figure_1">
  <g id="patch_1">
   <path d="M 0 432 
L 432 432 
L 432 0 
L 0 0 
z
" style="fill:#ffffff;"/>
  </g>
  <g id="axes_1">
   <g id="patch_2">
    <path clip-path="url(#p216fa228ba)" d="M 364.262623 199.858681 
L 355.442842 192.037728 
L 358.509693 190.267081 
L 306.648691 100.441191 
L 306.971517 100.254807 
L 358.832519 190.080697 
L 361.89937 188.31005 
z
" style="fill:#ff6800;stroke:#ff6800;stroke-linejoin:miter;"/>
   </g>
   <g id="patch_3">
    <path clip-path="url(#p216fa228ba)" d="M 297.490909 329.15493 
L 293.763231 317.971896 
L 297.304525 317.971896 
L 297.304525 102.84507 
L 297.677293 102.84507 
L 297.677293 317.971896 
L 301.218587 317.971896 
z
" style="fill:#ceff29;stroke:#ceff29;stroke-linejoin:miter;"/>
   </g>
   <g id="patch_4">
    <path clip-path="url(#p216fa228ba)" d="M 154.628286 331.652001 
L 156.991539 320.103371 
L 160.05839 321.874018 
L 288.010301 100.254807 
L 288.333127 100.441191 
L 160.381216 322.060402 
L 163.448067 323.831049 
z
" style="fill:#0cf4eb;stroke:#0cf4eb;stroke-linejoin:miter;"/>
   </g>
   <g id="patch_5">
    <path clip-path="url(#p216fa228ba)" d="M 85.359501 206.680805 
L 93.180454 197.861024 
L 94.951101 200.927875 
L 281.256398 93.364461 
L 281.442782 93.687288 
L 95.137485 201.250701 
L 96.908132 204.317552 
z
" style="fill:#006cff;stroke:#006cff;stroke-linejoin:miter;"/>
   </g>
   <g id="patch_6">
    <path clip-path="url(#p216fa228ba)" d="M 163.947481 84.206679 
L 175.130515 80.479001 
L 175.130515 84.020296 
L 278.852519 84.020296 
L 278.852519 84.393063 
L 175.130515 84.393063 
L 175.130515 87.934357 
z
" style="fill:#ff2900;stroke:#ff2900;stroke-linejoin:miter;"/>
   </g>
   <g id="patch_7">
    <path clip-path="url(#p216fa228ba)" d="M 306.810104 100.347999 
L 315.629885 108.168951 
L 312.563034 109.939598 
L 364.424036 199.765489 
L 364.10121 199.951873 
L 312.240208 110.125982 
L 309.173357 111.896629 
z
" style="fill:#ff6800;stroke:#ff6800;stroke-linejoin:miter;"/>
   </g>
   <g id="patch_8">
    <path clip-path="url(#p216fa228ba)" d="M 306.810104 331.652001 
L 309.173357 320.103371 
L 312.240208 321.874018 
L 364.10121 232.048127 
L 364.424036 232.234511 
L 312.563034 322.060402 
L 315.629885 323.831049 
z
" style="fill:#ebff0c;stroke:#ebff0c;stroke-linejoin:miter;"/>
   </g>
   <g id="patch_9">
    <path clip-path="url(#p216fa228ba)" d="M 161.45041 338.474125 
L 169.271363 329.654345 
L 171.04201 332.721195 
L 357.347307 225.157782 
L 357.533691 225.480608 
L 171.228394 333.044022 
L 172.999041 336.110872 
z
" style="fill:#0000cd;stroke:#0000cd;stroke-linejoin:miter;"/>
   </g>
   <g id="patch_10">
    <path clip-path="url(#p216fa228ba)" d="M 87.856572 216 
L 99.039606 212.272322 
L 99.039606 215.813616 
L 354.943428 215.813616 
L 354.943428 216.186384 
L 99.039606 216.186384 
L 99.039606 219.727678 
z
" style="fill:#29ffce;stroke:#29ffce;stroke-linejoin:miter;"/>
   </g>
   <g id="patch_11">
    <path clip-path="url(#p216fa228ba)" d="M 161.45041 93.525875 
L 172.999041 95.889128 
L 171.228394 98.955978 
L 357.533691 206.519392 
L 357.347307 206.842218 
L 171.04201 99.278805 
L 169.271363 102.345655 
z
" style="fill:#ffe600;stroke:#ffe600;stroke-linejoin:miter;"/>
   </g>
   <g id="patch_12">
    <path clip-path="url(#p216fa228ba)" d="M 297.490909 102.84507 
L 301.218587 114.028104 
L 297.677293 114.028104 
L 297.677293 329.15493 
L 297.304525 329.15493 
L 297.304525 114.028104 
L 293.763231 114.028104 
z
" style="fill:#ceff29;stroke:#ceff29;stroke-linejoin:miter;"/>
   </g>
   <g id="patch_13">
    <path clip-path="url(#p216fa228ba)" d="M 364.262623 232.141319 
L 361.89937 243.68995 
L 358.832519 241.919303 
L 306.971517 331.745193 
L 306.648691 331.558809 
L 358.509693 241.732919 
L 355.442842 239.962272 
z
" style="fill:#ebff0c;stroke:#ebff0c;stroke-linejoin:miter;"/>
   </g>
   <g id="patch_14">
    <path clip-path="url(#p216fa228ba)" d="M 163.947481 347.793321 
L 175.130515 344.065643 
L 175.130515 347.606937 
L 278.852519 347.606937 
L 278.852519 347.979704 
L 175.130515 347.979704 
L 175.130515 351.520999 
z
" style="fill:#0028ff;stroke:#0028ff;stroke-linejoin:miter;"/>
   </g>
   <g id="patch_15">
    <path clip-path="url(#p216fa228ba)" d="M 85.359501 225.319195 
L 96.908132 227.682448 
L 95.137485 230.749299 
L 281.442782 338.312712 
L 281.256398 338.635539 
L 94.951101 231.072125 
L 93.180454 234.138976 
z
" style="fill:#0008ff;stroke:#0008ff;stroke-linejoin:miter;"/>
   </g>
   <g id="patch_16">
    <path clip-path="url(#p216fa228ba)" d="M 154.628286 100.347999 
L 163.448067 108.168951 
L 160.381216 109.939598 
L 288.333127 331.558809 
L 288.010301 331.745193 
L 160.05839 110.125982 
L 156.991539 111.896629 
z
" style="fill:#ff4700;stroke:#ff4700;stroke-linejoin:miter;"/>
   </g>
   <g id="patch_17">
    <path clip-path="url(#p216fa228ba)" d="M 288.171714 100.347999 
L 285.808461 111.896629 
L 282.74161 110.125982 
L 154.789699 331.745193 
L 154.466873 331.558809 
L 282.418784 109.939598 
L 279.351933 108.168951 
z
" style="fill:#0cf4eb;stroke:#0cf4eb;stroke-linejoin:miter;"/>
   </g>
   <g id="patch_18">
    <path clip-path="url(#p216fa228ba)" d="M 357.440499 225.319195 
L 349.619546 234.138976 
L 347.848899 231.072125 
L 161.543602 338.635539 
L 161.357218 338.312712 
L 347.662515 230.749299 
L 345.891868 227.682448 
z
" style="fill:#0000cd;stroke:#0000cd;stroke-linejoin:miter;"/>
   </g>
   <g id="patch_19">
    <path clip-path="url(#p216fa228ba)" d="M 278.852519 347.793321 
L 267.669485 351.520999 
L 267.669485 347.979704 
L 163.947481 347.979704 
L 163.947481 347.606937 
L 267.669485 347.606937 
L 267.669485 344.065643 
z
" style="fill:#0028ff;stroke:#0028ff;stroke-linejoin:miter;"/>
   </g>
   <g id="patch_20">
    <path clip-path="url(#p216fa228ba)" d="M 78.537377 232.141319 
L 87.357158 239.962272 
L 84.290307 241.732919 
L 136.151309 331.558809 
L 135.828483 331.745193 
L 83.967481 241.919303 
L 80.90063 243.68995 
z
" style="fill:#0000f1;stroke:#0000f1;stroke-linejoin:miter;"/>
   </g>
   <g id="patch_21">
    <path clip-path="url(#p216fa228ba)" d="M 145.309091 102.84507 
L 149.036769 114.028104 
L 145.495475 114.028104 
L 145.495475 329.15493 
L 145.122707 329.15493 
L 145.122707 114.028104 
L 141.581413 114.028104 
z
" style="fill:#0090ff;stroke:#0090ff;stroke-linejoin:miter;"/>
   </g>
   <g id="patch_22">
    <path clip-path="url(#p216fa228ba)" d="M 281.34959 93.525875 
L 273.528637 102.345655 
L 271.75799 99.278805 
L 85.452693 206.842218 
L 85.266309 206.519392 
L 271.571606 98.955978 
L 269.800959 95.889128 
z
" style="fill:#006cff;stroke:#006cff;stroke-linejoin:miter;"/>
   </g>
   <g id="patch_23">
    <path clip-path="url(#p216fa228ba)" d="M 354.943428 216 
L 343.760394 219.727678 
L 343.760394 216.186384 
L 87.856572 216.186384 
L 87.856572 215.813616 
L 343.760394 215.813616 
L 343.760394 212.272322 
z
" style="fill:#29ffce;stroke:#29ffce;stroke-linejoin:miter;"/>
   </g>
   <g id="patch_24">
    <path clip-path="url(#p216fa228ba)" d="M 281.34959 338.474125 
L 269.800959 336.110872 
L 271.571606 333.044022 
L 85.266309 225.480608 
L 85.452693 225.157782 
L 271.75799 332.721195 
L 273.528637 329.654345 
z
" style="fill:#0008ff;stroke:#0008ff;stroke-linejoin:miter;"/>
   </g>
   <g id="patch_25">
    <path clip-path="url(#p216fa228ba)" d="M 135.989896 331.652001 
L 127.170115 323.831049 
L 130.236966 322.060402 
L 78.375964 232.234511 
L 78.69879 232.048127 
L 130.559792 321.874018 
L 133.626643 320.103371 
z
" style="fill:#0000f1;stroke:#0000f1;stroke-linejoin:miter;"/>
   </g>
   <g id="patch_26">
    <path clip-path="url(#p216fa228ba)" d="M 135.989896 100.347999 
L 133.626643 111.896629 
L 130.559792 110.125982 
L 78.69879 199.951873 
L 78.375964 199.765489 
L 130.236966 109.939598 
L 127.170115 108.168951 
z
" style="fill:#60ff97;stroke:#60ff97;stroke-linejoin:miter;"/>
   </g>
   <g id="patch_27">
    <path clip-path="url(#p216fa228ba)" d="M 278.852519 84.206679 
L 267.669485 87.934357 
L 267.669485 84.393063 
L 163.947481 84.393063 
L 163.947481 84.020296 
L 267.669485 84.020296 
L 267.669485 80.479001 
z
" style="fill:#ff2900;stroke:#ff2900;stroke-linejoin:miter;"/>
   </g>
   <g id="patch_28">
    <path clip-path="url(#p216fa228ba)" d="M 357.440499 206.680805 
L 345.891868 204.317552 
L 347.662515 201.250701 
L 161.357218 93.687288 
L 161.543602 93.364461 
L 347.848899 200.927875 
L 349.619546 197.861024 
z
" style="fill:#ffe600;stroke:#ffe600;stroke-linejoin:miter;"/>
   </g>
   <g id="patch_29">
    <path clip-path="url(#p216fa228ba)" d="M 288.171714 331.652001 
L 279.351933 323.831049 
L 282.418784 322.060402 
L 154.466873 100.441191 
L 154.789699 100.254807 
L 282.74161 321.874018 
L 285.808461 320.103371 
z
" style="fill:#ff4700;stroke:#ff4700;stroke-linejoin:miter;"/>
   </g>
   <g id="patch_30">
    <path clip-path="url(#p216fa228ba)" d="M 145.309091 329.15493 
L 141.581413 317.971896 
L 145.122707 317.971896 
L 145.122707 102.84507 
L 145.495475 102.84507 
L 145.495475 317.971896 
L 149.036769 317.971896 
z
" style="fill:#0090ff;stroke:#0090ff;stroke-linejoin:miter;"/>
   </g>
   <g id="patch_31">
    <path clip-path="url(#p216fa228ba)" d="M 78.537377 199.858681 
L 80.90063 188.31005 
L 83.967481 190.080697 
L 135.828483 100.254807 
L 136.151309 100.441191 
L 84.290307 190.267081 
L 87.357158 192.037728 
z
" style="fill:#60ff97;stroke:#60ff97;stroke-linejoin:miter;"/>
   </g>
   <g id="line2d_1">
    <defs>
     <path d="M 0 12.5 
C 3.315039 12.5 6.494748 11.182921 8.838835 8.838835 
C 11.182921 6.494748 12.5 3.315039 12.5 0 
C 12.5 -3.315039 11.182921 -6.494748 8.838835 -8.838835 
C 6.494748 -11.182921 3.315039 -12.5 0 -12.5 
C -3.315039 -12.5 -6.494748 -11.182921 -8.838835 -8.838835 
C -11.182921 -6.494748 -12.5 -3.315039 -12.5 0 
C -12.5 3.315039 -11.182921 6.494748 -8.838835 8.838835 
C -6.494748 11.182921 -3.315039 12.5 0 12.5 
z
" id="mdab4b7a5df" style="stroke:#000000;stroke-width:1.5;"/>
    </defs>
    <g clip-path="url(#p216fa228ba)">
     <use style="fill:#ffffff;stroke:#000000;stroke-width:1.5;" x="297.490909091" xlink:href="#mdab4b7a5df" y="84.2066794604"/>
    </g>
   </g>
   <g id="line2d_2">
    <g clip-path="url(#p216fa228ba)">
     <use style="fill:#ffffff;stroke:#000000;stroke-width:1.5;" x="373.581818182" xlink:href="#mdab4b7a5df" y="216.0"/>
    </g>
   </g>
   <g id="line2d_3">
    <g clip-path="url(#p216fa228ba)">
     <use style="fill:#ffffff;stroke:#000000;stroke-width:1.5;" x="297.490909091" xlink:href="#mdab4b7a5df" y="347.79332054"/>
    </g>
   </g>
   <g id="line2d_4">
    <g clip-path="url(#p216fa228ba)">
     <use style="fill:#ffffff;stroke:#000000;stroke-width:1.5;" x="145.309090909" xlink:href="#mdab4b7a5df" y="347.79332054"/>
    </g>
   </g>
   <g id="line2d_5">
    <g clip-path="url(#p216fa228ba)">
     <use style="fill:#ffffff;stroke:#000000;stroke-width:1.5;" x="69.2181818182" xlink:href="#mdab4b7a5df" y="216.0"/>
    </g>
   </g>
   <g id="line2d_6">
    <g clip-path="url(#p216fa228ba)">
     <use style="fill:#ffffff;stroke:#000000;stroke-width:1.5;" x="145.309090909" xlink:href="#mdab4b7a5df" y="84.2066794604"/>
    </g>
   </g>
   <g id="text_1">
    <!-- 1 -->
    <defs>
     <path d="M 12.40625 8.296875 
L 28.515625 8.296875 
L 28.515625 63.921875 
L 10.984375 60.40625 
L 10.984375 69.390625 
L 28.421875 72.90625 
L 38.28125 72.90625 
L 38.28125 8.296875 
L 54.390625 8.296875 
L 54.390625 0 
L 12.40625 0 
z
" id="BitstreamVeraSans-Roman-31"/>
    </defs>
    <g transform="translate(291.764659091 89.1735544604)scale(0.18 -0.18)">
     <use xlink:href="#BitstreamVeraSans-Roman-31"/>
    </g>
   </g>
   <g id="text_2">
    <!-- 2 -->
    <defs>
     <path d="M 19.1875 8.296875 
L 53.609375 8.296875 
L 53.609375 0 
L 7.328125 0 
L 7.328125 8.296875 
Q 12.9375 14.109375 22.625 23.890625 
Q 32.328125 33.6875 34.8125 36.53125 
Q 39.546875 41.84375 41.421875 45.53125 
Q 43.3125 49.21875 43.3125 52.78125 
Q 43.3125 58.59375 39.234375 62.25 
Q 35.15625 65.921875 28.609375 65.921875 
Q 23.96875 65.921875 18.8125 64.3125 
Q 13.671875 62.703125 7.8125 59.421875 
L 7.8125 69.390625 
Q 13.765625 71.78125 18.9375 73 
Q 24.125 74.21875 28.421875 74.21875 
Q 39.75 74.21875 46.484375 68.546875 
Q 53.21875 62.890625 53.21875 53.421875 
Q 53.21875 48.921875 51.53125 44.890625 
Q 49.859375 40.875 45.40625 35.40625 
Q 44.1875 33.984375 37.640625 27.21875 
Q 31.109375 20.453125 19.1875 8.296875 
" id="BitstreamVeraSans-Roman-32"/>
    </defs>
    <g transform="translate(367.855568182 220.966875)scale(0.18 -0.18)">
     <use xlink:href="#BitstreamVeraSans-Roman-32"/>
    </g>
   </g>
   <g id="text_3">
    <!-- 3 -->
    <defs>
     <path d="M 40.578125 39.3125 
Q 47.65625 37.796875 51.625 33 
Q 55.609375 28.21875 55.609375 21.1875 
Q 55.609375 10.40625 48.1875 4.484375 
Q 40.765625 -1.421875 27.09375 -1.421875 
Q 22.515625 -1.421875 17.65625 -0.515625 
Q 12.796875 0.390625 7.625 2.203125 
L 7.625 11.71875 
Q 11.71875 9.328125 16.59375 8.109375 
Q 21.484375 6.890625 26.8125 6.890625 
Q 36.078125 6.890625 40.9375 10.546875 
Q 45.796875 14.203125 45.796875 21.1875 
Q 45.796875 27.640625 41.28125 31.265625 
Q 36.765625 34.90625 28.71875 34.90625 
L 20.21875 34.90625 
L 20.21875 43.015625 
L 29.109375 43.015625 
Q 36.375 43.015625 40.234375 45.921875 
Q 44.09375 48.828125 44.09375 54.296875 
Q 44.09375 59.90625 40.109375 62.90625 
Q 36.140625 65.921875 28.71875 65.921875 
Q 24.65625 65.921875 20.015625 65.03125 
Q 15.375 64.15625 9.8125 62.3125 
L 9.8125 71.09375 
Q 15.4375 72.65625 20.34375 73.4375 
Q 25.25 74.21875 29.59375 74.21875 
Q 40.828125 74.21875 47.359375 69.109375 
Q 53.90625 64.015625 53.90625 55.328125 
Q 53.90625 49.265625 50.4375 45.09375 
Q 46.96875 40.921875 40.578125 39.3125 
" id="BitstreamVeraSans-Roman-33"/>
    </defs>
    <g transform="translate(291.764659091 352.76019554)scale(0.18 -0.18)">
     <use xlink:href="#BitstreamVeraSans-Roman-33"/>
    </g>
   </g>
   <g id="text_4">
    <!-- 4 -->
    <defs>
     <path d="M 37.796875 64.3125 
L 12.890625 25.390625 
L 37.796875 25.390625 
z
M 35.203125 72.90625 
L 47.609375 72.90625 
L 47.609375 25.390625 
L 58.015625 25.390625 
L 58.015625 17.1875 
L 47.609375 17.1875 
L 47.609375 0 
L 37.796875 0 
L 37.796875 17.1875 
L 4.890625 17.1875 
L 4.890625 26.703125 
z
" id="BitstreamVeraSans-Roman-34"/>
    </defs>
    <g transform="translate(139.582840909 352.76019554)scale(0.18 -0.18)">
     <use xlink:href="#BitstreamVeraSans-Roman-34"/>
    </g>
   </g>
   <g id="text_5">
    <!-- 5 -->
    <defs>
     <path d="M 10.796875 72.90625 
L 49.515625 72.90625 
L 49.515625 64.59375 
L 19.828125 64.59375 
L 19.828125 46.734375 
Q 21.96875 47.46875 24.109375 47.828125 
Q 26.265625 48.1875 28.421875 48.1875 
Q 40.625 48.1875 47.75 41.5 
Q 54.890625 34.8125 54.890625 23.390625 
Q 54.890625 11.625 47.5625 5.09375 
Q 40.234375 -1.421875 26.90625 -1.421875 
Q 22.3125 -1.421875 17.546875 -0.640625 
Q 12.796875 0.140625 7.71875 1.703125 
L 7.71875 11.625 
Q 12.109375 9.234375 16.796875 8.0625 
Q 21.484375 6.890625 26.703125 6.890625 
Q 35.15625 6.890625 40.078125 11.328125 
Q 45.015625 15.765625 45.015625 23.390625 
Q 45.015625 31 40.078125 35.4375 
Q 35.15625 39.890625 26.703125 39.890625 
Q 22.75 39.890625 18.8125 39.015625 
Q 14.890625 38.140625 10.796875 36.28125 
z
" id="BitstreamVeraSans-Roman-35"/>
    </defs>
    <g transform="translate(63.4919318182 220.966875)scale(0.18 -0.18)">
     <use xlink:href="#BitstreamVeraSans-Roman-35"/>
    </g>
   </g>
   <g id="text_6">
    <!-- 6 -->
    <defs>
     <path d="M 33.015625 40.375 
Q 26.375 40.375 22.484375 35.828125 
Q 18.609375 31.296875 18.609375 23.390625 
Q 18.609375 15.53125 22.484375 10.953125 
Q 26.375 6.390625 33.015625 6.390625 
Q 39.65625 6.390625 43.53125 10.953125 
Q 47.40625 15.53125 47.40625 23.390625 
Q 47.40625 31.296875 43.53125 35.828125 
Q 39.65625 40.375 33.015625 40.375 
M 52.59375 71.296875 
L 52.59375 62.3125 
Q 48.875 64.0625 45.09375 64.984375 
Q 41.3125 65.921875 37.59375 65.921875 
Q 27.828125 65.921875 22.671875 59.328125 
Q 17.53125 52.734375 16.796875 39.40625 
Q 19.671875 43.65625 24.015625 45.921875 
Q 28.375 48.1875 33.59375 48.1875 
Q 44.578125 48.1875 50.953125 41.515625 
Q 57.328125 34.859375 57.328125 23.390625 
Q 57.328125 12.15625 50.6875 5.359375 
Q 44.046875 -1.421875 33.015625 -1.421875 
Q 20.359375 -1.421875 13.671875 8.265625 
Q 6.984375 17.96875 6.984375 36.375 
Q 6.984375 53.65625 15.1875 63.9375 
Q 23.390625 74.21875 37.203125 74.21875 
Q 40.921875 74.21875 44.703125 73.484375 
Q 48.484375 72.75 52.59375 71.296875 
" id="BitstreamVeraSans-Roman-36"/>
    </defs>
    <g transform="translate(139.582840909 89.1735544604)scale(0.18 -0.18)">
     <use xlink:href="#BitstreamVeraSans-Roman-36"/>
    </g>
   </g>
  </g>
 </g>
 <defs>
  <clipPath id="p216fa228ba">
   <rect height="289.945305187" width="334.8" x="54.0" y="71.0273474065"/>
  </clipPath>
 </defs>
</svg>
