<?xml version="1.0" encoding="utf-8" standalone="no"?>
<!DOCTYPE svg PUBLIC "-//W3C//DTD SVG 1.1//EN"
  "http://www.w3.org/Graphics/SVG/1.1/DTD/svg11.dtd">
<!-- Created with matplotlib (http://matplotlib.org/) -->
<svg height="864pt" version="1.1" viewBox="0 0 864 864" width="864pt" xmlns="http://www.w3.org/2000/svg" xmlns:xlink="http://www.w3.org/1999/xlink">
 <defs>
  <style type="text/css">
*{stroke-linecap:butt;stroke-linejoin:round;stroke-miterlimit:100000;}
  </style>
 </defs>
 <g id="figure_1">
  <g id="patch_1">
   <path d="M 0 864 
L 864 864 
L 864 0 
L 0 0 
z
" style="fill:#ffffff;"/>
  </g>
  <g id="axes_1">
   <g id="patch_2">
    <path clip-path="url(#pa4c45be02e)" d="M 629.74696 422.380186 
L 632.563837 408.614808 
L 636.219366 410.725329 
L 709.143037 284.417825 
L 709.52783 284.639985 
L 636.604159 410.947489 
L 640.259688 413.05801 
z
" style="fill:#0000cd;stroke:#0000cd;stroke-linejoin:miter;"/>
   </g>
   <g id="patch_3">
    <path clip-path="url(#pa4c45be02e)" d="M 714.889436 577.982904 
L 710.446234 564.653299 
L 714.667276 564.653299 
L 714.667276 286.017096 
L 715.111596 286.017096 
L 715.111596 564.653299 
L 719.332638 564.653299 
z
" style="fill:#ff8600;stroke:#ff8600;stroke-linejoin:miter;"/>
   </g>
   <g id="patch_4">
    <path clip-path="url(#pa4c45be02e)" d="M 452.419814 426.445998 
L 461.74199 415.933269 
L 463.852511 419.588799 
L 705.158542 280.270697 
L 705.380702 280.65549 
L 464.074671 419.973591 
L 466.185192 423.629121 
z
" style="fill:#a40000;stroke:#a40000;stroke-linejoin:miter;"/>
   </g>
   <g id="patch_5">
    <path clip-path="url(#pa4c45be02e)" d="M 363.211526 274.909091 
L 376.541132 270.465889 
L 376.541132 274.686931 
L 703.781431 274.686931 
L 703.781431 275.131251 
L 376.541132 275.131251 
L 376.541132 279.352293 
z
" style="fill:#ff4700;stroke:#ff4700;stroke-linejoin:miter;"/>
   </g>
   <g id="patch_6">
    <path clip-path="url(#pa4c45be02e)" d="M 539.050481 579.471095 
L 541.867358 565.705717 
L 545.522888 567.816238 
L 709.143037 284.417825 
L 709.52783 284.639985 
L 545.90768 568.038398 
L 549.56321 570.148919 
z
" style="fill:#00b0ff;stroke:#00b0ff;stroke-linejoin:miter;"/>
   </g>
   <g id="patch_7">
    <path clip-path="url(#pa4c45be02e)" d="M 452.419814 123.372184 
L 466.185192 126.189061 
L 464.074671 129.844591 
L 705.380702 269.162692 
L 705.158542 269.547485 
L 463.852511 130.229383 
L 461.74199 133.884913 
z
" style="fill:#0028ff;stroke:#0028ff;stroke-linejoin:miter;"/>
   </g>
   <g id="patch_8">
    <path clip-path="url(#pa4c45be02e)" d="M 452.419814 426.445998 
L 461.74199 415.933269 
L 463.852511 419.588799 
L 705.158542 280.270697 
L 705.380702 280.65549 
L 464.074671 419.973591 
L 466.185192 423.629121 
z
" style="fill:#cd0000;stroke:#cd0000;stroke-linejoin:miter;"/>
   </g>
   <g id="patch_9">
    <path clip-path="url(#pa4c45be02e)" d="M 544.604483 274.909091 
L 557.934089 270.465889 
L 557.934089 274.686931 
L 703.781431 274.686931 
L 703.781431 275.131251 
L 557.934089 275.131251 
L 557.934089 279.352293 
z
" style="fill:#43ffb4;stroke:#43ffb4;stroke-linejoin:miter;"/>
   </g>
   <g id="line2d_1">
    <defs>
     <path d="M 0 12.5 
C 3.315039 12.5 6.494748 11.182921 8.838835 8.838835 
C 11.182921 6.494748 12.5 3.315039 12.5 0 
C 12.5 -3.315039 11.182921 -6.494748 8.838835 -8.838835 
C 6.494748 -11.182921 3.315039 -12.5 0 -12.5 
C -3.315039 -12.5 -6.494748 -11.182921 -8.838835 -8.838835 
C -11.182921 -6.494748 -12.5 -3.315039 -12.5 0 
C -12.5 3.315039 -11.182921 6.494748 -8.838835 8.838835 
C -6.494748 11.182921 -3.315039 12.5 0 12.5 
z
" id="mb1f27de907" style="stroke:#000000;stroke-width:1.5;"/>
    </defs>
    <g clip-path="url(#pa4c45be02e)">
     <use style="fill:#ffffff;stroke:#000000;stroke-width:1.5;" x="714.889435953" xlink:href="#mb1f27de907" y="274.909090909"/>
    </g>
   </g>
   <g id="line2d_2">
    <g clip-path="url(#pa4c45be02e)">
     <use style="fill:#ffffff;stroke:#000000;stroke-width:1.5;" x="624.192957302" xlink:href="#mb1f27de907" y="432.0"/>
    </g>
   </g>
   <g id="line2d_3">
    <g clip-path="url(#pa4c45be02e)">
     <use style="fill:#ffffff;stroke:#000000;stroke-width:1.5;" x="714.889435953" xlink:href="#mb1f27de907" y="589.090909091"/>
    </g>
   </g>
   <g id="line2d_4">
    <g clip-path="url(#pa4c45be02e)">
     <use style="fill:#ffffff;stroke:#000000;stroke-width:1.5;" x="442.8" xlink:href="#mb1f27de907" y="432.0"/>
    </g>
   </g>
   <g id="line2d_5">
    <g clip-path="url(#pa4c45be02e)">
     <use style="fill:#ffffff;stroke:#000000;stroke-width:1.5;" x="352.103521349" xlink:href="#mb1f27de907" y="274.909090909"/>
    </g>
   </g>
   <g id="line2d_6">
    <g clip-path="url(#pa4c45be02e)">
     <use style="fill:#ffffff;stroke:#000000;stroke-width:1.5;" x="533.496478651" xlink:href="#mb1f27de907" y="589.090909091"/>
    </g>
   </g>
   <g id="line2d_7">
    <g clip-path="url(#pa4c45be02e)">
     <use style="fill:#ffffff;stroke:#000000;stroke-width:1.5;" x="442.8" xlink:href="#mb1f27de907" y="746.181818182"/>
    </g>
   </g>
   <g id="line2d_8">
    <g clip-path="url(#pa4c45be02e)">
     <use style="fill:#ffffff;stroke:#000000;stroke-width:1.5;" x="442.8" xlink:href="#mb1f27de907" y="117.818181818"/>
    </g>
   </g>
   <g id="line2d_9">
    <g clip-path="url(#pa4c45be02e)">
     <use style="fill:#ffffff;stroke:#000000;stroke-width:1.5;" x="533.496478651" xlink:href="#mb1f27de907" y="274.909090909"/>
    </g>
   </g>
   <g id="line2d_10">
    <g clip-path="url(#pa4c45be02e)">
     <use style="fill:#ffffff;stroke:#000000;stroke-width:1.5;" x="352.103521349" xlink:href="#mb1f27de907" y="589.090909091"/>
    </g>
   </g>
   <g id="line2d_11">
    <g clip-path="url(#pa4c45be02e)">
     <use style="fill:#ffffff;stroke:#000000;stroke-width:1.5;" x="170.710564047" xlink:href="#mb1f27de907" y="589.090909091"/>
    </g>
   </g>
   <g id="line2d_12">
    <g clip-path="url(#pa4c45be02e)">
     <use style="fill:#ffffff;stroke:#000000;stroke-width:1.5;" x="261.407042698" xlink:href="#mb1f27de907" y="432.0"/>
    </g>
   </g>
   <g id="line2d_13">
    <g clip-path="url(#pa4c45be02e)">
     <use style="fill:#ffffff;stroke:#000000;stroke-width:1.5;" x="170.710564047" xlink:href="#mb1f27de907" y="274.909090909"/>
    </g>
   </g>
   <g id="text_1">
    <!-- 1 -->
    <defs>
     <path d="M 12.40625 8.296875 
L 28.515625 8.296875 
L 28.515625 63.921875 
L 10.984375 60.40625 
L 10.984375 69.390625 
L 28.421875 72.90625 
L 38.28125 72.90625 
L 38.28125 8.296875 
L 54.390625 8.296875 
L 54.390625 0 
L 12.40625 0 
z
" id="BitstreamVeraSans-Roman-31"/>
    </defs>
    <g transform="translate(712.026310953 277.392528409)scale(0.09 -0.09)">
     <use xlink:href="#BitstreamVeraSans-Roman-31"/>
    </g>
   </g>
   <g id="text_2">
    <!-- 2 -->
    <defs>
     <path d="M 19.1875 8.296875 
L 53.609375 8.296875 
L 53.609375 0 
L 7.328125 0 
L 7.328125 8.296875 
Q 12.9375 14.109375 22.625 23.890625 
Q 32.328125 33.6875 34.8125 36.53125 
Q 39.546875 41.84375 41.421875 45.53125 
Q 43.3125 49.21875 43.3125 52.78125 
Q 43.3125 58.59375 39.234375 62.25 
Q 35.15625 65.921875 28.609375 65.921875 
Q 23.96875 65.921875 18.8125 64.3125 
Q 13.671875 62.703125 7.8125 59.421875 
L 7.8125 69.390625 
Q 13.765625 71.78125 18.9375 73 
Q 24.125 74.21875 28.421875 74.21875 
Q 39.75 74.21875 46.484375 68.546875 
Q 53.21875 62.890625 53.21875 53.421875 
Q 53.21875 48.921875 51.53125 44.890625 
Q 49.859375 40.875 45.40625 35.40625 
Q 44.1875 33.984375 37.640625 27.21875 
Q 31.109375 20.453125 19.1875 8.296875 
" id="BitstreamVeraSans-Roman-32"/>
    </defs>
    <g transform="translate(621.329832302 434.4834375)scale(0.09 -0.09)">
     <use xlink:href="#BitstreamVeraSans-Roman-32"/>
    </g>
   </g>
   <g id="text_3">
    <!-- 3 -->
    <defs>
     <path d="M 40.578125 39.3125 
Q 47.65625 37.796875 51.625 33 
Q 55.609375 28.21875 55.609375 21.1875 
Q 55.609375 10.40625 48.1875 4.484375 
Q 40.765625 -1.421875 27.09375 -1.421875 
Q 22.515625 -1.421875 17.65625 -0.515625 
Q 12.796875 0.390625 7.625 2.203125 
L 7.625 11.71875 
Q 11.71875 9.328125 16.59375 8.109375 
Q 21.484375 6.890625 26.8125 6.890625 
Q 36.078125 6.890625 40.9375 10.546875 
Q 45.796875 14.203125 45.796875 21.1875 
Q 45.796875 27.640625 41.28125 31.265625 
Q 36.765625 34.90625 28.71875 34.90625 
L 20.21875 34.90625 
L 20.21875 43.015625 
L 29.109375 43.015625 
Q 36.375 43.015625 40.234375 45.921875 
Q 44.09375 48.828125 44.09375 54.296875 
Q 44.09375 59.90625 40.109375 62.90625 
Q 36.140625 65.921875 28.71875 65.921875 
Q 24.65625 65.921875 20.015625 65.03125 
Q 15.375 64.15625 9.8125 62.3125 
L 9.8125 71.09375 
Q 15.4375 72.65625 20.34375 73.4375 
Q 25.25 74.21875 29.59375 74.21875 
Q 40.828125 74.21875 47.359375 69.109375 
Q 53.90625 64.015625 53.90625 55.328125 
Q 53.90625 49.265625 50.4375 45.09375 
Q 46.96875 40.921875 40.578125 39.3125 
" id="BitstreamVeraSans-Roman-33"/>
    </defs>
    <g transform="translate(712.026310953 591.574346591)scale(0.09 -0.09)">
     <use xlink:href="#BitstreamVeraSans-Roman-33"/>
    </g>
   </g>
   <g id="text_4">
    <!-- 4,9,13 -->
    <defs>
     <path d="M 11.71875 12.40625 
L 22.015625 12.40625 
L 22.015625 4 
L 14.015625 -11.625 
L 7.71875 -11.625 
L 11.71875 4 
z
" id="BitstreamVeraSans-Roman-2c"/>
     <path d="M 10.984375 1.515625 
L 10.984375 10.5 
Q 14.703125 8.734375 18.5 7.8125 
Q 22.3125 6.890625 25.984375 6.890625 
Q 35.75 6.890625 40.890625 13.453125 
Q 46.046875 20.015625 46.78125 33.40625 
Q 43.953125 29.203125 39.59375 26.953125 
Q 35.25 24.703125 29.984375 24.703125 
Q 19.046875 24.703125 12.671875 31.3125 
Q 6.296875 37.9375 6.296875 49.421875 
Q 6.296875 60.640625 12.9375 67.421875 
Q 19.578125 74.21875 30.609375 74.21875 
Q 43.265625 74.21875 49.921875 64.515625 
Q 56.59375 54.828125 56.59375 36.375 
Q 56.59375 19.140625 48.40625 8.859375 
Q 40.234375 -1.421875 26.421875 -1.421875 
Q 22.703125 -1.421875 18.890625 -0.6875 
Q 15.09375 0.046875 10.984375 1.515625 
M 30.609375 32.421875 
Q 37.25 32.421875 41.125 36.953125 
Q 45.015625 41.5 45.015625 49.421875 
Q 45.015625 57.28125 41.125 61.84375 
Q 37.25 66.40625 30.609375 66.40625 
Q 23.96875 66.40625 20.09375 61.84375 
Q 16.21875 57.28125 16.21875 49.421875 
Q 16.21875 41.5 20.09375 36.953125 
Q 23.96875 32.421875 30.609375 32.421875 
" id="BitstreamVeraSans-Roman-39"/>
     <path d="M 37.796875 64.3125 
L 12.890625 25.390625 
L 37.796875 25.390625 
z
M 35.203125 72.90625 
L 47.609375 72.90625 
L 47.609375 25.390625 
L 58.015625 25.390625 
L 58.015625 17.1875 
L 47.609375 17.1875 
L 47.609375 0 
L 37.796875 0 
L 37.796875 17.1875 
L 4.890625 17.1875 
L 4.890625 26.703125 
z
" id="BitstreamVeraSans-Roman-34"/>
    </defs>
    <g transform="translate(438.0290625 432.8278125)scale(0.03 -0.03)">
     <use xlink:href="#BitstreamVeraSans-Roman-34"/>
     <use x="63.623046875" xlink:href="#BitstreamVeraSans-Roman-2c"/>
     <use x="95.41015625" xlink:href="#BitstreamVeraSans-Roman-39"/>
     <use x="159.033203125" xlink:href="#BitstreamVeraSans-Roman-2c"/>
     <use x="190.8203125" xlink:href="#BitstreamVeraSans-Roman-31"/>
     <use x="254.443359375" xlink:href="#BitstreamVeraSans-Roman-33"/>
    </g>
   </g>
   <g id="text_5">
    <!-- 5 -->
    <defs>
     <path d="M 10.796875 72.90625 
L 49.515625 72.90625 
L 49.515625 64.59375 
L 19.828125 64.59375 
L 19.828125 46.734375 
Q 21.96875 47.46875 24.109375 47.828125 
Q 26.265625 48.1875 28.421875 48.1875 
Q 40.625 48.1875 47.75 41.5 
Q 54.890625 34.8125 54.890625 23.390625 
Q 54.890625 11.625 47.5625 5.09375 
Q 40.234375 -1.421875 26.90625 -1.421875 
Q 22.3125 -1.421875 17.546875 -0.640625 
Q 12.796875 0.140625 7.71875 1.703125 
L 7.71875 11.625 
Q 12.109375 9.234375 16.796875 8.0625 
Q 21.484375 6.890625 26.703125 6.890625 
Q 35.15625 6.890625 40.078125 11.328125 
Q 45.015625 15.765625 45.015625 23.390625 
Q 45.015625 31 40.078125 35.4375 
Q 35.15625 39.890625 26.703125 39.890625 
Q 22.75 39.890625 18.8125 39.015625 
Q 14.890625 38.140625 10.796875 36.28125 
z
" id="BitstreamVeraSans-Roman-35"/>
    </defs>
    <g transform="translate(349.240396349 277.392528409)scale(0.09 -0.09)">
     <use xlink:href="#BitstreamVeraSans-Roman-35"/>
    </g>
   </g>
   <g id="text_6">
    <!-- 6 -->
    <defs>
     <path d="M 33.015625 40.375 
Q 26.375 40.375 22.484375 35.828125 
Q 18.609375 31.296875 18.609375 23.390625 
Q 18.609375 15.53125 22.484375 10.953125 
Q 26.375 6.390625 33.015625 6.390625 
Q 39.65625 6.390625 43.53125 10.953125 
Q 47.40625 15.53125 47.40625 23.390625 
Q 47.40625 31.296875 43.53125 35.828125 
Q 39.65625 40.375 33.015625 40.375 
M 52.59375 71.296875 
L 52.59375 62.3125 
Q 48.875 64.0625 45.09375 64.984375 
Q 41.3125 65.921875 37.59375 65.921875 
Q 27.828125 65.921875 22.671875 59.328125 
Q 17.53125 52.734375 16.796875 39.40625 
Q 19.671875 43.65625 24.015625 45.921875 
Q 28.375 48.1875 33.59375 48.1875 
Q 44.578125 48.1875 50.953125 41.515625 
Q 57.328125 34.859375 57.328125 23.390625 
Q 57.328125 12.15625 50.6875 5.359375 
Q 44.046875 -1.421875 33.015625 -1.421875 
Q 20.359375 -1.421875 13.671875 8.265625 
Q 6.984375 17.96875 6.984375 36.375 
Q 6.984375 53.65625 15.1875 63.9375 
Q 23.390625 74.21875 37.203125 74.21875 
Q 40.921875 74.21875 44.703125 73.484375 
Q 48.484375 72.75 52.59375 71.296875 
" id="BitstreamVeraSans-Roman-36"/>
    </defs>
    <g transform="translate(530.633353651 591.574346591)scale(0.09 -0.09)">
     <use xlink:href="#BitstreamVeraSans-Roman-36"/>
    </g>
   </g>
   <g id="text_7">
    <!-- 7 -->
    <defs>
     <path d="M 8.203125 72.90625 
L 55.078125 72.90625 
L 55.078125 68.703125 
L 28.609375 0 
L 18.3125 0 
L 43.21875 64.59375 
L 8.203125 64.59375 
z
" id="BitstreamVeraSans-Roman-37"/>
    </defs>
    <g transform="translate(439.936875 748.665255682)scale(0.09 -0.09)">
     <use xlink:href="#BitstreamVeraSans-Roman-37"/>
    </g>
   </g>
   <g id="text_8">
    <!-- 8 -->
    <defs>
     <path d="M 31.78125 34.625 
Q 24.75 34.625 20.71875 30.859375 
Q 16.703125 27.09375 16.703125 20.515625 
Q 16.703125 13.921875 20.71875 10.15625 
Q 24.75 6.390625 31.78125 6.390625 
Q 38.8125 6.390625 42.859375 10.171875 
Q 46.921875 13.96875 46.921875 20.515625 
Q 46.921875 27.09375 42.890625 30.859375 
Q 38.875 34.625 31.78125 34.625 
M 21.921875 38.8125 
Q 15.578125 40.375 12.03125 44.71875 
Q 8.5 49.078125 8.5 55.328125 
Q 8.5 64.0625 14.71875 69.140625 
Q 20.953125 74.21875 31.78125 74.21875 
Q 42.671875 74.21875 48.875 69.140625 
Q 55.078125 64.0625 55.078125 55.328125 
Q 55.078125 49.078125 51.53125 44.71875 
Q 48 40.375 41.703125 38.8125 
Q 48.828125 37.15625 52.796875 32.3125 
Q 56.78125 27.484375 56.78125 20.515625 
Q 56.78125 9.90625 50.3125 4.234375 
Q 43.84375 -1.421875 31.78125 -1.421875 
Q 19.734375 -1.421875 13.25 4.234375 
Q 6.78125 9.90625 6.78125 20.515625 
Q 6.78125 27.484375 10.78125 32.3125 
Q 14.796875 37.15625 21.921875 38.8125 
M 18.3125 54.390625 
Q 18.3125 48.734375 21.84375 45.5625 
Q 25.390625 42.390625 31.78125 42.390625 
Q 38.140625 42.390625 41.71875 45.5625 
Q 45.3125 48.734375 45.3125 54.390625 
Q 45.3125 60.0625 41.71875 63.234375 
Q 38.140625 66.40625 31.78125 66.40625 
Q 25.390625 66.40625 21.84375 63.234375 
Q 18.3125 60.0625 18.3125 54.390625 
" id="BitstreamVeraSans-Roman-38"/>
    </defs>
    <g transform="translate(439.936875 120.301619318)scale(0.09 -0.09)">
     <use xlink:href="#BitstreamVeraSans-Roman-38"/>
    </g>
   </g>
   <g id="text_9">
    <!-- 10 -->
    <defs>
     <path d="M 31.78125 66.40625 
Q 24.171875 66.40625 20.328125 58.90625 
Q 16.5 51.421875 16.5 36.375 
Q 16.5 21.390625 20.328125 13.890625 
Q 24.171875 6.390625 31.78125 6.390625 
Q 39.453125 6.390625 43.28125 13.890625 
Q 47.125 21.390625 47.125 36.375 
Q 47.125 51.421875 43.28125 58.90625 
Q 39.453125 66.40625 31.78125 66.40625 
M 31.78125 74.21875 
Q 44.046875 74.21875 50.515625 64.515625 
Q 56.984375 54.828125 56.984375 36.375 
Q 56.984375 17.96875 50.515625 8.265625 
Q 44.046875 -1.421875 31.78125 -1.421875 
Q 19.53125 -1.421875 13.0625 8.265625 
Q 6.59375 17.96875 6.59375 36.375 
Q 6.59375 54.828125 13.0625 64.515625 
Q 19.53125 74.21875 31.78125 74.21875 
" id="BitstreamVeraSans-Roman-30"/>
    </defs>
    <g transform="translate(527.770228651 277.392528409)scale(0.09 -0.09)">
     <use xlink:href="#BitstreamVeraSans-Roman-31"/>
     <use x="63.623046875" xlink:href="#BitstreamVeraSans-Roman-30"/>
    </g>
   </g>
   <g id="text_10">
    <!-- 11 -->
    <g transform="translate(346.377271349 591.574346591)scale(0.09 -0.09)">
     <use xlink:href="#BitstreamVeraSans-Roman-31"/>
     <use x="63.623046875" xlink:href="#BitstreamVeraSans-Roman-31"/>
    </g>
   </g>
   <g id="text_11">
    <!-- 12 -->
    <g transform="translate(164.984314047 591.574346591)scale(0.09 -0.09)">
     <use xlink:href="#BitstreamVeraSans-Roman-31"/>
     <use x="63.623046875" xlink:href="#BitstreamVeraSans-Roman-32"/>
    </g>
   </g>
   <g id="text_12">
    <!-- 14 -->
    <g transform="translate(255.680792698 434.4834375)scale(0.09 -0.09)">
     <use xlink:href="#BitstreamVeraSans-Roman-31"/>
     <use x="63.623046875" xlink:href="#BitstreamVeraSans-Roman-34"/>
    </g>
   </g>
   <g id="text_13">
    <!-- 15 -->
    <g transform="translate(164.984314047 277.392528409)scale(0.09 -0.09)">
     <use xlink:href="#BitstreamVeraSans-Roman-31"/>
     <use x="63.623046875" xlink:href="#BitstreamVeraSans-Roman-35"/>
    </g>
   </g>
  </g>
 </g>
 <defs>
  <clipPath id="pa4c45be02e">
   <rect height="691.2" width="598.596759096" x="143.501620452" y="86.4"/>
  </clipPath>
 </defs>
</svg>
