<?xml version="1.0" encoding="utf-8" standalone="no"?>
<!DOCTYPE svg PUBLIC "-//W3C//DTD SVG 1.1//EN"
  "http://www.w3.org/Graphics/SVG/1.1/DTD/svg11.dtd">
<!-- Created with matplotlib (http://matplotlib.org/) -->
<svg height="864pt" version="1.1" viewBox="0 0 864 864" width="864pt" xmlns="http://www.w3.org/2000/svg" xmlns:xlink="http://www.w3.org/1999/xlink">
 <defs>
  <style type="text/css">
*{stroke-linecap:butt;stroke-linejoin:round;stroke-miterlimit:100000;}
  </style>
 </defs>
 <g id="figure_1">
  <g id="patch_1">
   <path d="M 0 864 
L 864 864 
L 864 0 
L 0 0 
z
" style="fill:#ffffff;"/>
  </g>
  <g id="axes_1">
   <g id="patch_2">
    <path clip-path="url(#p08ec52710a)" d="M 629.74696 422.380186 
L 632.563837 408.614808 
L 636.219366 410.725329 
L 709.143037 284.417825 
L 709.52783 284.639985 
L 636.604159 410.947489 
L 640.259688 413.05801 
z
" style="fill:#0028ff;stroke:#0028ff;stroke-linejoin:miter;"/>
   </g>
   <g id="patch_3">
    <path clip-path="url(#p08ec52710a)" d="M 714.889436 577.982904 
L 710.446234 564.653299 
L 714.667276 564.653299 
L 714.667276 286.017096 
L 715.111596 286.017096 
L 715.111596 564.653299 
L 719.332638 564.653299 
z
" style="fill:#004cff;stroke:#004cff;stroke-linejoin:miter;"/>
   </g>
   <g id="patch_4">
    <path clip-path="url(#p08ec52710a)" d="M 452.419814 426.445998 
L 461.74199 415.933269 
L 463.852511 419.588799 
L 705.158542 280.270697 
L 705.380702 280.65549 
L 464.074671 419.973591 
L 466.185192 423.629121 
z
" style="fill:#ffe600;stroke:#ffe600;stroke-linejoin:miter;"/>
   </g>
   <g id="patch_5">
    <path clip-path="url(#p08ec52710a)" d="M 363.211526 274.909091 
L 376.541132 270.465889 
L 376.541132 274.686931 
L 703.781431 274.686931 
L 703.781431 275.131251 
L 376.541132 275.131251 
L 376.541132 279.352293 
z
" style="fill:#ff8600;stroke:#ff8600;stroke-linejoin:miter;"/>
   </g>
   <g id="patch_6">
    <path clip-path="url(#p08ec52710a)" d="M 539.050481 579.471095 
L 541.867358 565.705717 
L 545.522888 567.816238 
L 709.143037 284.417825 
L 709.52783 284.639985 
L 545.90768 568.038398 
L 549.56321 570.148919 
z
" style="fill:#a40000;stroke:#a40000;stroke-linejoin:miter;"/>
   </g>
   <g id="patch_7">
    <path clip-path="url(#p08ec52710a)" d="M 452.419814 123.372184 
L 466.185192 126.189061 
L 464.074671 129.844591 
L 705.380702 269.162692 
L 705.158542 269.547485 
L 463.852511 130.229383 
L 461.74199 133.884913 
z
" style="fill:#00b0ff;stroke:#00b0ff;stroke-linejoin:miter;"/>
   </g>
   <g id="patch_8">
    <path clip-path="url(#p08ec52710a)" d="M 452.419814 426.445998 
L 461.74199 415.933269 
L 463.852511 419.588799 
L 705.158542 280.270697 
L 705.380702 280.65549 
L 464.074671 419.973591 
L 466.185192 423.629121 
z
" style="fill:#0000a4;stroke:#0000a4;stroke-linejoin:miter;"/>
   </g>
   <g id="patch_9">
    <path clip-path="url(#p08ec52710a)" d="M 544.604483 274.909091 
L 557.934089 270.465889 
L 557.934089 274.686931 
L 703.781431 274.686931 
L 703.781431 275.131251 
L 557.934089 275.131251 
L 557.934089 279.352293 
z
" style="fill:#43ffb4;stroke:#43ffb4;stroke-linejoin:miter;"/>
   </g>
   <g id="patch_10">
    <path clip-path="url(#p08ec52710a)" d="M 709.335434 284.528905 
L 706.518556 298.294283 
L 702.863027 296.183762 
L 629.939356 422.491266 
L 629.554563 422.269106 
L 702.478234 295.961602 
L 698.822705 293.851081 
z
" style="fill:#0028ff;stroke:#0028ff;stroke-linejoin:miter;"/>
   </g>
   <g id="patch_11">
    <path clip-path="url(#p08ec52710a)" d="M 709.335434 579.471095 
L 698.822705 570.148919 
L 702.478234 568.038398 
L 629.554563 441.730894 
L 629.939356 441.508734 
L 702.863027 567.816238 
L 706.518556 565.705717 
z
" style="fill:#0000f1;stroke:#0000f1;stroke-linejoin:miter;"/>
   </g>
   <g id="patch_12">
    <path clip-path="url(#p08ec52710a)" d="M 453.908005 432 
L 467.23761 427.556798 
L 467.23761 431.77784 
L 613.084953 431.77784 
L 613.084953 432.22216 
L 467.23761 432.22216 
L 467.23761 436.443202 
z
" style="fill:#0008ff;stroke:#0008ff;stroke-linejoin:miter;"/>
   </g>
   <g id="patch_13">
    <path clip-path="url(#p08ec52710a)" d="M 361.723336 280.463093 
L 375.488714 283.27997 
L 373.378193 286.9355 
L 614.684223 426.253601 
L 614.462063 426.638394 
L 373.156033 287.320292 
L 371.045512 290.975822 
z
" style="fill:#29ffce;stroke:#29ffce;stroke-linejoin:miter;"/>
   </g>
   <g id="patch_14">
    <path clip-path="url(#p08ec52710a)" d="M 448.354002 736.562004 
L 451.170879 722.796626 
L 454.826409 724.907147 
L 618.446559 441.508734 
L 618.831351 441.730894 
L 455.211201 725.129307 
L 458.866731 727.239828 
z
" style="fill:#a40000;stroke:#a40000;stroke-linejoin:miter;"/>
   </g>
   <g id="patch_15">
    <path clip-path="url(#p08ec52710a)" d="M 448.354002 127.437996 
L 458.866731 136.760172 
L 455.211201 138.870693 
L 618.831351 422.269106 
L 618.446559 422.491266 
L 454.826409 139.092853 
L 451.170879 141.203374 
z
" style="fill:#cd0000;stroke:#cd0000;stroke-linejoin:miter;"/>
   </g>
   <g id="patch_16">
    <path clip-path="url(#p08ec52710a)" d="M 361.723336 583.536907 
L 371.045512 573.024178 
L 373.156033 576.679708 
L 614.462063 437.361606 
L 614.684223 437.746399 
L 373.378193 577.0645 
L 375.488714 580.72003 
z
" style="fill:#0000a4;stroke:#0000a4;stroke-linejoin:miter;"/>
   </g>
   <g id="patch_17">
    <path clip-path="url(#p08ec52710a)" d="M 453.908005 432 
L 467.23761 427.556798 
L 467.23761 431.77784 
L 613.084953 431.77784 
L 613.084953 432.22216 
L 467.23761 432.22216 
L 467.23761 436.443202 
z
" style="fill:#43ffb4;stroke:#43ffb4;stroke-linejoin:miter;"/>
   </g>
   <g id="patch_18">
    <path clip-path="url(#p08ec52710a)" d="M 714.889436 286.017096 
L 719.332638 299.346701 
L 715.111596 299.346701 
L 715.111596 577.982904 
L 714.667276 577.982904 
L 714.667276 299.346701 
L 710.446234 299.346701 
z
" style="fill:#004cff;stroke:#004cff;stroke-linejoin:miter;"/>
   </g>
   <g id="patch_19">
    <path clip-path="url(#p08ec52710a)" d="M 629.74696 441.619814 
L 640.259688 450.94199 
L 636.604159 453.052511 
L 709.52783 579.360015 
L 709.143037 579.582175 
L 636.219366 453.274671 
L 632.563837 455.385192 
z
" style="fill:#0000f1;stroke:#0000f1;stroke-linejoin:miter;"/>
   </g>
   <g id="patch_20">
    <path clip-path="url(#p08ec52710a)" d="M 544.604483 589.090909 
L 557.934089 584.647707 
L 557.934089 588.868749 
L 703.781431 588.868749 
L 703.781431 589.313069 
L 557.934089 589.313069 
L 557.934089 593.534111 
z
" style="fill:#0008ff;stroke:#0008ff;stroke-linejoin:miter;"/>
   </g>
   <g id="patch_21">
    <path clip-path="url(#p08ec52710a)" d="M 452.419814 740.627816 
L 461.74199 730.115087 
L 463.852511 733.770617 
L 705.158542 594.452515 
L 705.380702 594.837308 
L 464.074671 734.155409 
L 466.185192 737.810939 
z
" style="fill:#ffe600;stroke:#ffe600;stroke-linejoin:miter;"/>
   </g>
   <g id="patch_22">
    <path clip-path="url(#p08ec52710a)" d="M 452.419814 437.554002 
L 466.185192 440.370879 
L 464.074671 444.026409 
L 705.380702 583.34451 
L 705.158542 583.729303 
L 463.852511 444.411201 
L 461.74199 448.066731 
z
" style="fill:#29ffce;stroke:#29ffce;stroke-linejoin:miter;"/>
   </g>
   <g id="patch_23">
    <path clip-path="url(#p08ec52710a)" d="M 539.050481 284.528905 
L 549.56321 293.851081 
L 545.90768 295.961602 
L 709.52783 579.360015 
L 709.143037 579.582175 
L 545.522888 296.183762 
L 541.867358 298.294283 
z
" style="fill:#cd0000;stroke:#cd0000;stroke-linejoin:miter;"/>
   </g>
   <g id="patch_24">
    <path clip-path="url(#p08ec52710a)" d="M 363.211526 589.090909 
L 376.541132 584.647707 
L 376.541132 588.868749 
L 703.781431 588.868749 
L 703.781431 589.313069 
L 376.541132 589.313069 
L 376.541132 593.534111 
z
" style="fill:#ff8600;stroke:#ff8600;stroke-linejoin:miter;"/>
   </g>
   <g id="patch_25">
    <path clip-path="url(#p08ec52710a)" d="M 452.419814 437.554002 
L 466.185192 440.370879 
L 464.074671 444.026409 
L 705.380702 583.34451 
L 705.158542 583.729303 
L 463.852511 444.411201 
L 461.74199 448.066731 
z
" style="fill:#00b0ff;stroke:#00b0ff;stroke-linejoin:miter;"/>
   </g>
   <g id="patch_26">
    <path clip-path="url(#p08ec52710a)" d="M 705.269622 280.463093 
L 695.947446 290.975822 
L 693.836925 287.320292 
L 452.530894 426.638394 
L 452.308734 426.253601 
L 693.614765 286.9355 
L 691.504244 283.27997 
z
" style="fill:#ffe600;stroke:#ffe600;stroke-linejoin:miter;"/>
   </g>
   <g id="patch_27">
    <path clip-path="url(#p08ec52710a)" d="M 613.084953 432 
L 599.755347 436.443202 
L 599.755347 432.22216 
L 453.908005 432.22216 
L 453.908005 431.77784 
L 599.755347 431.77784 
L 599.755347 427.556798 
z
" style="fill:#0008ff;stroke:#0008ff;stroke-linejoin:miter;"/>
   </g>
   <g id="patch_28">
    <path clip-path="url(#p08ec52710a)" d="M 357.657524 284.528905 
L 368.170252 293.851081 
L 364.514723 295.961602 
L 437.438394 422.269106 
L 437.053601 422.491266 
L 364.12993 296.183762 
L 360.474401 298.294283 
z
" style="fill:#ceff29;stroke:#ceff29;stroke-linejoin:miter;"/>
   </g>
   <g id="patch_29">
    <path clip-path="url(#p08ec52710a)" d="M 527.942476 579.471095 
L 517.429748 570.148919 
L 521.085277 568.038398 
L 448.161606 441.730894 
L 448.546399 441.508734 
L 521.47007 567.816238 
L 525.125599 565.705717 
z
" style="fill:#0000f1;stroke:#0000f1;stroke-linejoin:miter;"/>
   </g>
   <g id="patch_30">
    <path clip-path="url(#p08ec52710a)" d="M 442.8 735.073813 
L 438.356798 721.744208 
L 442.57784 721.744208 
L 442.57784 443.108005 
L 443.02216 443.108005 
L 443.02216 721.744208 
L 447.243202 721.744208 
z
" style="fill:#004cff;stroke:#004cff;stroke-linejoin:miter;"/>
   </g>
   <g id="patch_31">
    <path clip-path="url(#p08ec52710a)" d="M 442.8 128.926187 
L 447.243202 142.255792 
L 443.02216 142.255792 
L 443.02216 420.891995 
L 442.57784 420.891995 
L 442.57784 142.255792 
L 438.356798 142.255792 
z
" style="fill:#000080;stroke:#000080;stroke-linejoin:miter;"/>
   </g>
   <g id="patch_32">
    <path clip-path="url(#p08ec52710a)" d="M 180.330378 583.536907 
L 189.652554 573.024178 
L 191.763075 576.679708 
L 433.069106 437.361606 
L 433.291266 437.746399 
L 191.985235 577.0645 
L 194.095756 580.72003 
z
" style="fill:#0000a4;stroke:#0000a4;stroke-linejoin:miter;"/>
   </g>
   <g id="patch_33">
    <path clip-path="url(#p08ec52710a)" d="M 272.515047 432 
L 285.844653 427.556798 
L 285.844653 431.77784 
L 431.691995 431.77784 
L 431.691995 432.22216 
L 285.844653 432.22216 
L 285.844653 436.443202 
z
" style="fill:#43ffb4;stroke:#43ffb4;stroke-linejoin:miter;"/>
   </g>
   <g id="patch_34">
    <path clip-path="url(#p08ec52710a)" d="M 703.781431 274.909091 
L 690.451826 279.352293 
L 690.451826 275.131251 
L 363.211526 275.131251 
L 363.211526 274.686931 
L 690.451826 274.686931 
L 690.451826 270.465889 
z
" style="fill:#ff8600;stroke:#ff8600;stroke-linejoin:miter;"/>
   </g>
   <g id="patch_35">
    <path clip-path="url(#p08ec52710a)" d="M 614.573143 426.445998 
L 600.807765 423.629121 
L 602.918286 419.973591 
L 361.612256 280.65549 
L 361.834416 280.270697 
L 603.140446 419.588799 
L 605.250967 415.933269 
z
" style="fill:#29ffce;stroke:#29ffce;stroke-linejoin:miter;"/>
   </g>
   <g id="patch_36">
    <path clip-path="url(#p08ec52710a)" d="M 437.245998 422.380186 
L 426.733269 413.05801 
L 430.388799 410.947489 
L 357.465127 284.639985 
L 357.84992 284.417825 
L 430.773591 410.725329 
L 434.429121 408.614808 
z
" style="fill:#ceff29;stroke:#ceff29;stroke-linejoin:miter;"/>
   </g>
   <g id="patch_37">
    <path clip-path="url(#p08ec52710a)" d="M 437.245998 127.437996 
L 434.429121 141.203374 
L 430.773591 139.092853 
L 357.84992 265.400357 
L 357.465127 265.178197 
L 430.388799 138.870693 
L 426.733269 136.760172 
z
" style="fill:#0cf4eb;stroke:#0cf4eb;stroke-linejoin:miter;"/>
   </g>
   <g id="patch_38">
    <path clip-path="url(#p08ec52710a)" d="M 437.245998 422.380186 
L 426.733269 413.05801 
L 430.388799 410.947489 
L 357.465127 284.639985 
L 357.84992 284.417825 
L 430.773591 410.725329 
L 434.429121 408.614808 
z
" style="fill:#0000f1;stroke:#0000f1;stroke-linejoin:miter;"/>
   </g>
   <g id="patch_39">
    <path clip-path="url(#p08ec52710a)" d="M 352.103521 577.982904 
L 347.660319 564.653299 
L 351.881361 564.653299 
L 351.881361 286.017096 
L 352.325681 286.017096 
L 352.325681 564.653299 
L 356.546723 564.653299 
z
" style="fill:#004cff;stroke:#004cff;stroke-linejoin:miter;"/>
   </g>
   <g id="patch_40">
    <path clip-path="url(#p08ec52710a)" d="M 176.264566 579.471095 
L 179.081444 565.705717 
L 182.736973 567.816238 
L 346.357123 284.417825 
L 346.741915 284.639985 
L 183.121766 568.038398 
L 186.777295 570.148919 
z
" style="fill:#a40000;stroke:#a40000;stroke-linejoin:miter;"/>
   </g>
   <g id="patch_41">
    <path clip-path="url(#p08ec52710a)" d="M 181.818569 274.909091 
L 195.148174 270.465889 
L 195.148174 274.686931 
L 340.995517 274.686931 
L 340.995517 275.131251 
L 195.148174 275.131251 
L 195.148174 279.352293 
z
" style="fill:#43ffb4;stroke:#43ffb4;stroke-linejoin:miter;"/>
   </g>
   <g id="patch_42">
    <path clip-path="url(#p08ec52710a)" d="M 709.335434 284.528905 
L 706.518556 298.294283 
L 702.863027 296.183762 
L 539.242877 579.582175 
L 538.858085 579.360015 
L 702.478234 295.961602 
L 698.822705 293.851081 
z
" style="fill:#a40000;stroke:#a40000;stroke-linejoin:miter;"/>
   </g>
   <g id="patch_43">
    <path clip-path="url(#p08ec52710a)" d="M 703.781431 589.090909 
L 690.451826 593.534111 
L 690.451826 589.313069 
L 544.604483 589.313069 
L 544.604483 588.868749 
L 690.451826 588.868749 
L 690.451826 584.647707 
z
" style="fill:#0008ff;stroke:#0008ff;stroke-linejoin:miter;"/>
   </g>
   <g id="patch_44">
    <path clip-path="url(#p08ec52710a)" d="M 448.354002 441.619814 
L 458.866731 450.94199 
L 455.211201 453.052511 
L 528.134873 579.360015 
L 527.75008 579.582175 
L 454.826409 453.274671 
L 451.170879 455.385192 
z
" style="fill:#0000f1;stroke:#0000f1;stroke-linejoin:miter;"/>
   </g>
   <g id="patch_45">
    <path clip-path="url(#p08ec52710a)" d="M 448.354002 736.562004 
L 451.170879 722.796626 
L 454.826409 724.907147 
L 527.75008 598.599643 
L 528.134873 598.821803 
L 455.211201 725.129307 
L 458.866731 727.239828 
z
" style="fill:#0028ff;stroke:#0028ff;stroke-linejoin:miter;"/>
   </g>
   <g id="patch_46">
    <path clip-path="url(#p08ec52710a)" d="M 448.354002 441.619814 
L 458.866731 450.94199 
L 455.211201 453.052511 
L 528.134873 579.360015 
L 527.75008 579.582175 
L 454.826409 453.274671 
L 451.170879 455.385192 
z
" style="fill:#ceff29;stroke:#ceff29;stroke-linejoin:miter;"/>
   </g>
   <g id="patch_47">
    <path clip-path="url(#p08ec52710a)" d="M 533.496479 286.017096 
L 537.939681 299.346701 
L 533.718639 299.346701 
L 533.718639 577.982904 
L 533.274319 577.982904 
L 533.274319 299.346701 
L 529.053277 299.346701 
z
" style="fill:#000080;stroke:#000080;stroke-linejoin:miter;"/>
   </g>
   <g id="patch_48">
    <path clip-path="url(#p08ec52710a)" d="M 181.818569 589.090909 
L 195.148174 584.647707 
L 195.148174 588.868749 
L 522.388474 588.868749 
L 522.388474 589.313069 
L 195.148174 589.313069 
L 195.148174 593.534111 
z
" style="fill:#ff8600;stroke:#ff8600;stroke-linejoin:miter;"/>
   </g>
   <g id="patch_49">
    <path clip-path="url(#p08ec52710a)" d="M 271.026857 437.554002 
L 284.792235 440.370879 
L 282.681714 444.026409 
L 523.987744 583.34451 
L 523.765584 583.729303 
L 282.459554 444.411201 
L 280.349033 448.066731 
z
" style="fill:#00b0ff;stroke:#00b0ff;stroke-linejoin:miter;"/>
   </g>
   <g id="patch_50">
    <path clip-path="url(#p08ec52710a)" d="M 618.638955 441.619814 
L 615.822078 455.385192 
L 612.166548 453.274671 
L 448.546399 736.673084 
L 448.161606 736.450924 
L 611.781756 453.052511 
L 608.126226 450.94199 
z
" style="fill:#a40000;stroke:#a40000;stroke-linejoin:miter;"/>
   </g>
   <g id="patch_51">
    <path clip-path="url(#p08ec52710a)" d="M 705.269622 594.644911 
L 695.947446 605.15764 
L 693.836925 601.502111 
L 452.530894 740.820212 
L 452.308734 740.43542 
L 693.614765 601.117318 
L 691.504244 597.461789 
z
" style="fill:#ffe600;stroke:#ffe600;stroke-linejoin:miter;"/>
   </g>
   <g id="patch_52">
    <path clip-path="url(#p08ec52710a)" d="M 442.8 443.108005 
L 447.243202 456.43761 
L 443.02216 456.43761 
L 443.02216 735.073813 
L 442.57784 735.073813 
L 442.57784 456.43761 
L 438.356798 456.43761 
z
" style="fill:#004cff;stroke:#004cff;stroke-linejoin:miter;"/>
   </g>
   <g id="patch_53">
    <path clip-path="url(#p08ec52710a)" d="M 527.942476 598.710723 
L 525.125599 612.476101 
L 521.47007 610.365581 
L 448.546399 736.673084 
L 448.161606 736.450924 
L 521.085277 610.14342 
L 517.429748 608.0329 
z
" style="fill:#0028ff;stroke:#0028ff;stroke-linejoin:miter;"/>
   </g>
   <g id="patch_54">
    <path clip-path="url(#p08ec52710a)" d="M 357.657524 598.710723 
L 368.170252 608.0329 
L 364.514723 610.14342 
L 437.438394 736.450924 
L 437.053601 736.673084 
L 364.12993 610.365581 
L 360.474401 612.476101 
z
" style="fill:#ceff29;stroke:#ceff29;stroke-linejoin:miter;"/>
   </g>
   <g id="patch_55">
    <path clip-path="url(#p08ec52710a)" d="M 180.330378 594.644911 
L 194.095756 597.461789 
L 191.985235 601.117318 
L 433.291266 740.43542 
L 433.069106 740.820212 
L 191.763075 601.502111 
L 189.652554 605.15764 
z
" style="fill:#29ffce;stroke:#29ffce;stroke-linejoin:miter;"/>
   </g>
   <g id="patch_56">
    <path clip-path="url(#p08ec52710a)" d="M 442.8 443.108005 
L 447.243202 456.43761 
L 443.02216 456.43761 
L 443.02216 735.073813 
L 442.57784 735.073813 
L 442.57784 456.43761 
L 438.356798 456.43761 
z
" style="fill:#000080;stroke:#000080;stroke-linejoin:miter;"/>
   </g>
   <g id="patch_57">
    <path clip-path="url(#p08ec52710a)" d="M 266.961045 441.619814 
L 277.473774 450.94199 
L 273.818244 453.052511 
L 437.438394 736.450924 
L 437.053601 736.673084 
L 273.433452 453.274671 
L 269.777922 455.385192 
z
" style="fill:#cd0000;stroke:#cd0000;stroke-linejoin:miter;"/>
   </g>
   <g id="patch_58">
    <path clip-path="url(#p08ec52710a)" d="M 705.269622 269.355089 
L 691.504244 266.538211 
L 693.614765 262.882682 
L 452.308734 123.56458 
L 452.530894 123.179788 
L 693.836925 262.497889 
L 695.947446 258.84236 
z
" style="fill:#00b0ff;stroke:#00b0ff;stroke-linejoin:miter;"/>
   </g>
   <g id="patch_59">
    <path clip-path="url(#p08ec52710a)" d="M 618.638955 422.380186 
L 608.126226 413.05801 
L 611.781756 410.947489 
L 448.161606 127.549076 
L 448.546399 127.326916 
L 612.166548 410.725329 
L 615.822078 408.614808 
z
" style="fill:#cd0000;stroke:#cd0000;stroke-linejoin:miter;"/>
   </g>
   <g id="patch_60">
    <path clip-path="url(#p08ec52710a)" d="M 442.8 420.891995 
L 438.356798 407.56239 
L 442.57784 407.56239 
L 442.57784 128.926187 
L 443.02216 128.926187 
L 443.02216 407.56239 
L 447.243202 407.56239 
z
" style="fill:#000080;stroke:#000080;stroke-linejoin:miter;"/>
   </g>
   <g id="patch_61">
    <path clip-path="url(#p08ec52710a)" d="M 357.657524 265.289277 
L 360.474401 251.523899 
L 364.12993 253.634419 
L 437.053601 127.326916 
L 437.438394 127.549076 
L 364.514723 253.85658 
L 368.170252 255.9671 
z
" style="fill:#0cf4eb;stroke:#0cf4eb;stroke-linejoin:miter;"/>
   </g>
   <g id="patch_62">
    <path clip-path="url(#p08ec52710a)" d="M 527.942476 265.289277 
L 517.429748 255.9671 
L 521.085277 253.85658 
L 448.161606 127.549076 
L 448.546399 127.326916 
L 521.47007 253.634419 
L 525.125599 251.523899 
z
" style="fill:#0000f1;stroke:#0000f1;stroke-linejoin:miter;"/>
   </g>
   <g id="patch_63">
    <path clip-path="url(#p08ec52710a)" d="M 442.8 420.891995 
L 438.356798 407.56239 
L 442.57784 407.56239 
L 442.57784 128.926187 
L 443.02216 128.926187 
L 443.02216 407.56239 
L 447.243202 407.56239 
z
" style="fill:#004cff;stroke:#004cff;stroke-linejoin:miter;"/>
   </g>
   <g id="patch_64">
    <path clip-path="url(#p08ec52710a)" d="M 266.961045 422.380186 
L 269.777922 408.614808 
L 273.433452 410.725329 
L 437.053601 127.326916 
L 437.438394 127.549076 
L 273.818244 410.947489 
L 277.473774 413.05801 
z
" style="fill:#a40000;stroke:#a40000;stroke-linejoin:miter;"/>
   </g>
   <g id="patch_65">
    <path clip-path="url(#p08ec52710a)" d="M 180.330378 269.355089 
L 189.652554 258.84236 
L 191.763075 262.497889 
L 433.069106 123.179788 
L 433.291266 123.56458 
L 191.985235 262.882682 
L 194.095756 266.538211 
z
" style="fill:#0000a4;stroke:#0000a4;stroke-linejoin:miter;"/>
   </g>
   <g id="patch_66">
    <path clip-path="url(#p08ec52710a)" d="M 705.269622 280.463093 
L 695.947446 290.975822 
L 693.836925 287.320292 
L 452.530894 426.638394 
L 452.308734 426.253601 
L 693.614765 286.9355 
L 691.504244 283.27997 
z
" style="fill:#0000a4;stroke:#0000a4;stroke-linejoin:miter;"/>
   </g>
   <g id="patch_67">
    <path clip-path="url(#p08ec52710a)" d="M 705.269622 583.536907 
L 691.504244 580.72003 
L 693.614765 577.0645 
L 452.308734 437.746399 
L 452.530894 437.361606 
L 693.836925 576.679708 
L 695.947446 573.024178 
z
" style="fill:#29ffce;stroke:#29ffce;stroke-linejoin:miter;"/>
   </g>
   <g id="patch_68">
    <path clip-path="url(#p08ec52710a)" d="M 357.657524 284.528905 
L 368.170252 293.851081 
L 364.514723 295.961602 
L 437.438394 422.269106 
L 437.053601 422.491266 
L 364.12993 296.183762 
L 360.474401 298.294283 
z
" style="fill:#0000f1;stroke:#0000f1;stroke-linejoin:miter;"/>
   </g>
   <g id="patch_69">
    <path clip-path="url(#p08ec52710a)" d="M 527.942476 579.471095 
L 517.429748 570.148919 
L 521.085277 568.038398 
L 448.161606 441.730894 
L 448.546399 441.508734 
L 521.47007 567.816238 
L 525.125599 565.705717 
z
" style="fill:#ceff29;stroke:#ceff29;stroke-linejoin:miter;"/>
   </g>
   <g id="patch_70">
    <path clip-path="url(#p08ec52710a)" d="M 527.942476 284.528905 
L 525.125599 298.294283 
L 521.47007 296.183762 
L 448.546399 422.491266 
L 448.161606 422.269106 
L 521.085277 295.961602 
L 517.429748 293.851081 
z
" style="fill:#0cf4eb;stroke:#0cf4eb;stroke-linejoin:miter;"/>
   </g>
   <g id="patch_71">
    <path clip-path="url(#p08ec52710a)" d="M 357.657524 579.471095 
L 360.474401 565.705717 
L 364.12993 567.816238 
L 437.053601 441.508734 
L 437.438394 441.730894 
L 364.514723 568.038398 
L 368.170252 570.148919 
z
" style="fill:#0028ff;stroke:#0028ff;stroke-linejoin:miter;"/>
   </g>
   <g id="patch_72">
    <path clip-path="url(#p08ec52710a)" d="M 180.330378 583.536907 
L 189.652554 573.024178 
L 191.763075 576.679708 
L 433.069106 437.361606 
L 433.291266 437.746399 
L 191.985235 577.0645 
L 194.095756 580.72003 
z
" style="fill:#ffe600;stroke:#ffe600;stroke-linejoin:miter;"/>
   </g>
   <g id="patch_73">
    <path clip-path="url(#p08ec52710a)" d="M 180.330378 280.463093 
L 194.095756 283.27997 
L 191.985235 286.9355 
L 433.291266 426.253601 
L 433.069106 426.638394 
L 191.763075 287.320292 
L 189.652554 290.975822 
z
" style="fill:#00b0ff;stroke:#00b0ff;stroke-linejoin:miter;"/>
   </g>
   <g id="patch_74">
    <path clip-path="url(#p08ec52710a)" d="M 703.781431 274.909091 
L 690.451826 279.352293 
L 690.451826 275.131251 
L 544.604483 275.131251 
L 544.604483 274.686931 
L 690.451826 274.686931 
L 690.451826 270.465889 
z
" style="fill:#43ffb4;stroke:#43ffb4;stroke-linejoin:miter;"/>
   </g>
   <g id="patch_75">
    <path clip-path="url(#p08ec52710a)" d="M 709.335434 579.471095 
L 698.822705 570.148919 
L 702.478234 568.038398 
L 538.858085 284.639985 
L 539.242877 284.417825 
L 702.863027 567.816238 
L 706.518556 565.705717 
z
" style="fill:#cd0000;stroke:#cd0000;stroke-linejoin:miter;"/>
   </g>
   <g id="patch_76">
    <path clip-path="url(#p08ec52710a)" d="M 533.496479 577.982904 
L 529.053277 564.653299 
L 533.274319 564.653299 
L 533.274319 286.017096 
L 533.718639 286.017096 
L 533.718639 564.653299 
L 537.939681 564.653299 
z
" style="fill:#000080;stroke:#000080;stroke-linejoin:miter;"/>
   </g>
   <g id="patch_77">
    <path clip-path="url(#p08ec52710a)" d="M 448.354002 127.437996 
L 458.866731 136.760172 
L 455.211201 138.870693 
L 528.134873 265.178197 
L 527.75008 265.400357 
L 454.826409 139.092853 
L 451.170879 141.203374 
z
" style="fill:#0000f1;stroke:#0000f1;stroke-linejoin:miter;"/>
   </g>
   <g id="patch_78">
    <path clip-path="url(#p08ec52710a)" d="M 448.354002 422.380186 
L 451.170879 408.614808 
L 454.826409 410.725329 
L 527.75008 284.417825 
L 528.134873 284.639985 
L 455.211201 410.947489 
L 458.866731 413.05801 
z
" style="fill:#0cf4eb;stroke:#0cf4eb;stroke-linejoin:miter;"/>
   </g>
   <g id="patch_79">
    <path clip-path="url(#p08ec52710a)" d="M 448.354002 422.380186 
L 451.170879 408.614808 
L 454.826409 410.725329 
L 527.75008 284.417825 
L 528.134873 284.639985 
L 455.211201 410.947489 
L 458.866731 413.05801 
z
" style="fill:#0028ff;stroke:#0028ff;stroke-linejoin:miter;"/>
   </g>
   <g id="patch_80">
    <path clip-path="url(#p08ec52710a)" d="M 271.026857 426.445998 
L 280.349033 415.933269 
L 282.459554 419.588799 
L 523.765584 280.270697 
L 523.987744 280.65549 
L 282.681714 419.973591 
L 284.792235 423.629121 
z
" style="fill:#ffe600;stroke:#ffe600;stroke-linejoin:miter;"/>
   </g>
   <g id="patch_81">
    <path clip-path="url(#p08ec52710a)" d="M 181.818569 274.909091 
L 195.148174 270.465889 
L 195.148174 274.686931 
L 522.388474 274.686931 
L 522.388474 275.131251 
L 195.148174 275.131251 
L 195.148174 279.352293 
z
" style="fill:#ff8600;stroke:#ff8600;stroke-linejoin:miter;"/>
   </g>
   <g id="patch_82">
    <path clip-path="url(#p08ec52710a)" d="M 614.573143 437.554002 
L 605.250967 448.066731 
L 603.140446 444.411201 
L 361.834416 583.729303 
L 361.612256 583.34451 
L 602.918286 444.026409 
L 600.807765 440.370879 
z
" style="fill:#0000a4;stroke:#0000a4;stroke-linejoin:miter;"/>
   </g>
   <g id="patch_83">
    <path clip-path="url(#p08ec52710a)" d="M 703.781431 589.090909 
L 690.451826 593.534111 
L 690.451826 589.313069 
L 363.211526 589.313069 
L 363.211526 588.868749 
L 690.451826 588.868749 
L 690.451826 584.647707 
z
" style="fill:#ff8600;stroke:#ff8600;stroke-linejoin:miter;"/>
   </g>
   <g id="patch_84">
    <path clip-path="url(#p08ec52710a)" d="M 352.103521 286.017096 
L 356.546723 299.346701 
L 352.325681 299.346701 
L 352.325681 577.982904 
L 351.881361 577.982904 
L 351.881361 299.346701 
L 347.660319 299.346701 
z
" style="fill:#004cff;stroke:#004cff;stroke-linejoin:miter;"/>
   </g>
   <g id="patch_85">
    <path clip-path="url(#p08ec52710a)" d="M 437.245998 736.562004 
L 426.733269 727.239828 
L 430.388799 725.129307 
L 357.465127 598.821803 
L 357.84992 598.599643 
L 430.773591 724.907147 
L 434.429121 722.796626 
z
" style="fill:#ceff29;stroke:#ceff29;stroke-linejoin:miter;"/>
   </g>
   <g id="patch_86">
    <path clip-path="url(#p08ec52710a)" d="M 437.245998 441.619814 
L 434.429121 455.385192 
L 430.773591 453.274671 
L 357.84992 579.582175 
L 357.465127 579.360015 
L 430.388799 453.052511 
L 426.733269 450.94199 
z
" style="fill:#0028ff;stroke:#0028ff;stroke-linejoin:miter;"/>
   </g>
   <g id="patch_87">
    <path clip-path="url(#p08ec52710a)" d="M 181.818569 589.090909 
L 195.148174 584.647707 
L 195.148174 588.868749 
L 340.995517 588.868749 
L 340.995517 589.313069 
L 195.148174 589.313069 
L 195.148174 593.534111 
z
" style="fill:#0008ff;stroke:#0008ff;stroke-linejoin:miter;"/>
   </g>
   <g id="patch_88">
    <path clip-path="url(#p08ec52710a)" d="M 437.245998 441.619814 
L 434.429121 455.385192 
L 430.773591 453.274671 
L 357.84992 579.582175 
L 357.465127 579.360015 
L 430.388799 453.052511 
L 426.733269 450.94199 
z
" style="fill:#0cf4eb;stroke:#0cf4eb;stroke-linejoin:miter;"/>
   </g>
   <g id="patch_89">
    <path clip-path="url(#p08ec52710a)" d="M 176.264566 284.528905 
L 186.777295 293.851081 
L 183.121766 295.961602 
L 346.741915 579.360015 
L 346.357123 579.582175 
L 182.736973 296.183762 
L 179.081444 298.294283 
z
" style="fill:#cd0000;stroke:#cd0000;stroke-linejoin:miter;"/>
   </g>
   <g id="patch_90">
    <path clip-path="url(#p08ec52710a)" d="M 433.180186 437.554002 
L 423.85801 448.066731 
L 421.747489 444.411201 
L 180.441458 583.729303 
L 180.219298 583.34451 
L 421.525329 444.026409 
L 419.414808 440.370879 
z
" style="fill:#0000a4;stroke:#0000a4;stroke-linejoin:miter;"/>
   </g>
   <g id="patch_91">
    <path clip-path="url(#p08ec52710a)" d="M 346.549519 284.528905 
L 343.732642 298.294283 
L 340.077112 296.183762 
L 176.456963 579.582175 
L 176.07217 579.360015 
L 339.69232 295.961602 
L 336.03679 293.851081 
z
" style="fill:#a40000;stroke:#a40000;stroke-linejoin:miter;"/>
   </g>
   <g id="patch_92">
    <path clip-path="url(#p08ec52710a)" d="M 522.388474 589.090909 
L 509.058868 593.534111 
L 509.058868 589.313069 
L 181.818569 589.313069 
L 181.818569 588.868749 
L 509.058868 588.868749 
L 509.058868 584.647707 
z
" style="fill:#ff8600;stroke:#ff8600;stroke-linejoin:miter;"/>
   </g>
   <g id="patch_93">
    <path clip-path="url(#p08ec52710a)" d="M 433.180186 740.627816 
L 419.414808 737.810939 
L 421.525329 734.155409 
L 180.219298 594.837308 
L 180.441458 594.452515 
L 421.747489 733.770617 
L 423.85801 730.115087 
z
" style="fill:#29ffce;stroke:#29ffce;stroke-linejoin:miter;"/>
   </g>
   <g id="patch_94">
    <path clip-path="url(#p08ec52710a)" d="M 433.180186 437.554002 
L 423.85801 448.066731 
L 421.747489 444.411201 
L 180.441458 583.729303 
L 180.219298 583.34451 
L 421.525329 444.026409 
L 419.414808 440.370879 
z
" style="fill:#ffe600;stroke:#ffe600;stroke-linejoin:miter;"/>
   </g>
   <g id="patch_95">
    <path clip-path="url(#p08ec52710a)" d="M 340.995517 589.090909 
L 327.665911 593.534111 
L 327.665911 589.313069 
L 181.818569 589.313069 
L 181.818569 588.868749 
L 327.665911 588.868749 
L 327.665911 584.647707 
z
" style="fill:#0008ff;stroke:#0008ff;stroke-linejoin:miter;"/>
   </g>
   <g id="patch_96">
    <path clip-path="url(#p08ec52710a)" d="M 255.85304 441.619814 
L 253.036163 455.385192 
L 249.380634 453.274671 
L 176.456963 579.582175 
L 176.07217 579.360015 
L 248.995841 453.052511 
L 245.340312 450.94199 
z
" style="fill:#0cf4eb;stroke:#0cf4eb;stroke-linejoin:miter;"/>
   </g>
   <g id="patch_97">
    <path clip-path="url(#p08ec52710a)" d="M 170.710564 286.017096 
L 175.153766 299.346701 
L 170.932724 299.346701 
L 170.932724 577.982904 
L 170.488404 577.982904 
L 170.488404 299.346701 
L 166.267362 299.346701 
z
" style="fill:#000080;stroke:#000080;stroke-linejoin:miter;"/>
   </g>
   <g id="patch_98">
    <path clip-path="url(#p08ec52710a)" d="M 613.084953 432 
L 599.755347 436.443202 
L 599.755347 432.22216 
L 453.908005 432.22216 
L 453.908005 431.77784 
L 599.755347 431.77784 
L 599.755347 427.556798 
z
" style="fill:#43ffb4;stroke:#43ffb4;stroke-linejoin:miter;"/>
   </g>
   <g id="patch_99">
    <path clip-path="url(#p08ec52710a)" d="M 705.269622 583.536907 
L 691.504244 580.72003 
L 693.614765 577.0645 
L 452.308734 437.746399 
L 452.530894 437.361606 
L 693.836925 576.679708 
L 695.947446 573.024178 
z
" style="fill:#00b0ff;stroke:#00b0ff;stroke-linejoin:miter;"/>
   </g>
   <g id="patch_100">
    <path clip-path="url(#p08ec52710a)" d="M 442.8 735.073813 
L 438.356798 721.744208 
L 442.57784 721.744208 
L 442.57784 443.108005 
L 443.02216 443.108005 
L 443.02216 721.744208 
L 447.243202 721.744208 
z
" style="fill:#000080;stroke:#000080;stroke-linejoin:miter;"/>
   </g>
   <g id="patch_101">
    <path clip-path="url(#p08ec52710a)" d="M 442.8 128.926187 
L 447.243202 142.255792 
L 443.02216 142.255792 
L 443.02216 420.891995 
L 442.57784 420.891995 
L 442.57784 142.255792 
L 438.356798 142.255792 
z
" style="fill:#004cff;stroke:#004cff;stroke-linejoin:miter;"/>
   </g>
   <g id="patch_102">
    <path clip-path="url(#p08ec52710a)" d="M 527.942476 284.528905 
L 525.125599 298.294283 
L 521.47007 296.183762 
L 448.546399 422.491266 
L 448.161606 422.269106 
L 521.085277 295.961602 
L 517.429748 293.851081 
z
" style="fill:#0028ff;stroke:#0028ff;stroke-linejoin:miter;"/>
   </g>
   <g id="patch_103">
    <path clip-path="url(#p08ec52710a)" d="M 357.657524 579.471095 
L 360.474401 565.705717 
L 364.12993 567.816238 
L 437.053601 441.508734 
L 437.438394 441.730894 
L 364.514723 568.038398 
L 368.170252 570.148919 
z
" style="fill:#0cf4eb;stroke:#0cf4eb;stroke-linejoin:miter;"/>
   </g>
   <g id="patch_104">
    <path clip-path="url(#p08ec52710a)" d="M 272.515047 432 
L 285.844653 427.556798 
L 285.844653 431.77784 
L 431.691995 431.77784 
L 431.691995 432.22216 
L 285.844653 432.22216 
L 285.844653 436.443202 
z
" style="fill:#0008ff;stroke:#0008ff;stroke-linejoin:miter;"/>
   </g>
   <g id="patch_105">
    <path clip-path="url(#p08ec52710a)" d="M 180.330378 280.463093 
L 194.095756 283.27997 
L 191.985235 286.9355 
L 433.291266 426.253601 
L 433.069106 426.638394 
L 191.763075 287.320292 
L 189.652554 290.975822 
z
" style="fill:#29ffce;stroke:#29ffce;stroke-linejoin:miter;"/>
   </g>
   <g id="patch_106">
    <path clip-path="url(#p08ec52710a)" d="M 431.691995 432 
L 418.36239 436.443202 
L 418.36239 432.22216 
L 272.515047 432.22216 
L 272.515047 431.77784 
L 418.36239 431.77784 
L 418.36239 427.556798 
z
" style="fill:#43ffb4;stroke:#43ffb4;stroke-linejoin:miter;"/>
   </g>
   <g id="patch_107">
    <path clip-path="url(#p08ec52710a)" d="M 523.876664 583.536907 
L 510.111286 580.72003 
L 512.221807 577.0645 
L 270.915777 437.746399 
L 271.137937 437.361606 
L 512.443967 576.679708 
L 514.554488 573.024178 
z
" style="fill:#00b0ff;stroke:#00b0ff;stroke-linejoin:miter;"/>
   </g>
   <g id="patch_108">
    <path clip-path="url(#p08ec52710a)" d="M 437.245998 736.562004 
L 426.733269 727.239828 
L 430.388799 725.129307 
L 266.768649 441.730894 
L 267.153441 441.508734 
L 430.773591 724.907147 
L 434.429121 722.796626 
z
" style="fill:#cd0000;stroke:#cd0000;stroke-linejoin:miter;"/>
   </g>
   <g id="patch_109">
    <path clip-path="url(#p08ec52710a)" d="M 437.245998 127.437996 
L 434.429121 141.203374 
L 430.773591 139.092853 
L 267.153441 422.491266 
L 266.768649 422.269106 
L 430.388799 138.870693 
L 426.733269 136.760172 
z
" style="fill:#a40000;stroke:#a40000;stroke-linejoin:miter;"/>
   </g>
   <g id="patch_110">
    <path clip-path="url(#p08ec52710a)" d="M 523.876664 280.463093 
L 514.554488 290.975822 
L 512.443967 287.320292 
L 271.137937 426.638394 
L 270.915777 426.253601 
L 512.221807 286.9355 
L 510.111286 283.27997 
z
" style="fill:#ffe600;stroke:#ffe600;stroke-linejoin:miter;"/>
   </g>
   <g id="patch_111">
    <path clip-path="url(#p08ec52710a)" d="M 176.264566 579.471095 
L 179.081444 565.705717 
L 182.736973 567.816238 
L 255.660644 441.508734 
L 256.045437 441.730894 
L 183.121766 568.038398 
L 186.777295 570.148919 
z
" style="fill:#0cf4eb;stroke:#0cf4eb;stroke-linejoin:miter;"/>
   </g>
   <g id="patch_112">
    <path clip-path="url(#p08ec52710a)" d="M 431.691995 432 
L 418.36239 436.443202 
L 418.36239 432.22216 
L 272.515047 432.22216 
L 272.515047 431.77784 
L 418.36239 431.77784 
L 418.36239 427.556798 
z
" style="fill:#0008ff;stroke:#0008ff;stroke-linejoin:miter;"/>
   </g>
   <g id="patch_113">
    <path clip-path="url(#p08ec52710a)" d="M 176.264566 284.528905 
L 186.777295 293.851081 
L 183.121766 295.961602 
L 256.045437 422.269106 
L 255.660644 422.491266 
L 182.736973 296.183762 
L 179.081444 298.294283 
z
" style="fill:#ceff29;stroke:#ceff29;stroke-linejoin:miter;"/>
   </g>
   <g id="patch_114">
    <path clip-path="url(#p08ec52710a)" d="M 340.995517 274.909091 
L 327.665911 279.352293 
L 327.665911 275.131251 
L 181.818569 275.131251 
L 181.818569 274.686931 
L 327.665911 274.686931 
L 327.665911 270.465889 
z
" style="fill:#43ffb4;stroke:#43ffb4;stroke-linejoin:miter;"/>
   </g>
   <g id="patch_115">
    <path clip-path="url(#p08ec52710a)" d="M 433.180186 123.372184 
L 423.85801 133.884913 
L 421.747489 130.229383 
L 180.441458 269.547485 
L 180.219298 269.162692 
L 421.525329 129.844591 
L 419.414808 126.189061 
z
" style="fill:#0000a4;stroke:#0000a4;stroke-linejoin:miter;"/>
   </g>
   <g id="patch_116">
    <path clip-path="url(#p08ec52710a)" d="M 433.180186 426.445998 
L 419.414808 423.629121 
L 421.525329 419.973591 
L 180.219298 280.65549 
L 180.441458 280.270697 
L 421.747489 419.588799 
L 423.85801 415.933269 
z
" style="fill:#00b0ff;stroke:#00b0ff;stroke-linejoin:miter;"/>
   </g>
   <g id="patch_117">
    <path clip-path="url(#p08ec52710a)" d="M 522.388474 274.909091 
L 509.058868 279.352293 
L 509.058868 275.131251 
L 181.818569 275.131251 
L 181.818569 274.686931 
L 509.058868 274.686931 
L 509.058868 270.465889 
z
" style="fill:#ff8600;stroke:#ff8600;stroke-linejoin:miter;"/>
   </g>
   <g id="patch_118">
    <path clip-path="url(#p08ec52710a)" d="M 346.549519 579.471095 
L 336.03679 570.148919 
L 339.69232 568.038398 
L 176.07217 284.639985 
L 176.456963 284.417825 
L 340.077112 567.816238 
L 343.732642 565.705717 
z
" style="fill:#cd0000;stroke:#cd0000;stroke-linejoin:miter;"/>
   </g>
   <g id="patch_119">
    <path clip-path="url(#p08ec52710a)" d="M 170.710564 577.982904 
L 166.267362 564.653299 
L 170.488404 564.653299 
L 170.488404 286.017096 
L 170.932724 286.017096 
L 170.932724 564.653299 
L 175.153766 564.653299 
z
" style="fill:#000080;stroke:#000080;stroke-linejoin:miter;"/>
   </g>
   <g id="patch_120">
    <path clip-path="url(#p08ec52710a)" d="M 433.180186 426.445998 
L 419.414808 423.629121 
L 421.525329 419.973591 
L 180.219298 280.65549 
L 180.441458 280.270697 
L 421.747489 419.588799 
L 423.85801 415.933269 
z
" style="fill:#29ffce;stroke:#29ffce;stroke-linejoin:miter;"/>
   </g>
   <g id="patch_121">
    <path clip-path="url(#p08ec52710a)" d="M 255.85304 422.380186 
L 245.340312 413.05801 
L 248.995841 410.947489 
L 176.07217 284.639985 
L 176.456963 284.417825 
L 249.380634 410.725329 
L 253.036163 408.614808 
z
" style="fill:#ceff29;stroke:#ceff29;stroke-linejoin:miter;"/>
   </g>
   <g id="line2d_1">
    <defs>
     <path d="M 0 12.5 
C 3.315039 12.5 6.494748 11.182921 8.838835 8.838835 
C 11.182921 6.494748 12.5 3.315039 12.5 0 
C 12.5 -3.315039 11.182921 -6.494748 8.838835 -8.838835 
C 6.494748 -11.182921 3.315039 -12.5 0 -12.5 
C -3.315039 -12.5 -6.494748 -11.182921 -8.838835 -8.838835 
C -11.182921 -6.494748 -12.5 -3.315039 -12.5 0 
C -12.5 3.315039 -11.182921 6.494748 -8.838835 8.838835 
C -6.494748 11.182921 -3.315039 12.5 0 12.5 
z
" id="m6e437a73fe" style="stroke:#000000;stroke-width:1.5;"/>
    </defs>
    <g clip-path="url(#p08ec52710a)">
     <use style="fill:#ffffff;stroke:#000000;stroke-width:1.5;" x="714.889435953" xlink:href="#m6e437a73fe" y="274.909090909"/>
    </g>
   </g>
   <g id="line2d_2">
    <g clip-path="url(#p08ec52710a)">
     <use style="fill:#ffffff;stroke:#000000;stroke-width:1.5;" x="624.192957302" xlink:href="#m6e437a73fe" y="432.0"/>
    </g>
   </g>
   <g id="line2d_3">
    <g clip-path="url(#p08ec52710a)">
     <use style="fill:#ffffff;stroke:#000000;stroke-width:1.5;" x="714.889435953" xlink:href="#m6e437a73fe" y="589.090909091"/>
    </g>
   </g>
   <g id="line2d_4">
    <g clip-path="url(#p08ec52710a)">
     <use style="fill:#ffffff;stroke:#000000;stroke-width:1.5;" x="442.8" xlink:href="#m6e437a73fe" y="432.0"/>
    </g>
   </g>
   <g id="line2d_5">
    <g clip-path="url(#p08ec52710a)">
     <use style="fill:#ffffff;stroke:#000000;stroke-width:1.5;" x="352.103521349" xlink:href="#m6e437a73fe" y="274.909090909"/>
    </g>
   </g>
   <g id="line2d_6">
    <g clip-path="url(#p08ec52710a)">
     <use style="fill:#ffffff;stroke:#000000;stroke-width:1.5;" x="533.496478651" xlink:href="#m6e437a73fe" y="589.090909091"/>
    </g>
   </g>
   <g id="line2d_7">
    <g clip-path="url(#p08ec52710a)">
     <use style="fill:#ffffff;stroke:#000000;stroke-width:1.5;" x="442.8" xlink:href="#m6e437a73fe" y="746.181818182"/>
    </g>
   </g>
   <g id="line2d_8">
    <g clip-path="url(#p08ec52710a)">
     <use style="fill:#ffffff;stroke:#000000;stroke-width:1.5;" x="442.8" xlink:href="#m6e437a73fe" y="117.818181818"/>
    </g>
   </g>
   <g id="line2d_9">
    <g clip-path="url(#p08ec52710a)">
     <use style="fill:#ffffff;stroke:#000000;stroke-width:1.5;" x="533.496478651" xlink:href="#m6e437a73fe" y="274.909090909"/>
    </g>
   </g>
   <g id="line2d_10">
    <g clip-path="url(#p08ec52710a)">
     <use style="fill:#ffffff;stroke:#000000;stroke-width:1.5;" x="352.103521349" xlink:href="#m6e437a73fe" y="589.090909091"/>
    </g>
   </g>
   <g id="line2d_11">
    <g clip-path="url(#p08ec52710a)">
     <use style="fill:#ffffff;stroke:#000000;stroke-width:1.5;" x="170.710564047" xlink:href="#m6e437a73fe" y="589.090909091"/>
    </g>
   </g>
   <g id="line2d_12">
    <g clip-path="url(#p08ec52710a)">
     <use style="fill:#ffffff;stroke:#000000;stroke-width:1.5;" x="261.407042698" xlink:href="#m6e437a73fe" y="432.0"/>
    </g>
   </g>
   <g id="line2d_13">
    <g clip-path="url(#p08ec52710a)">
     <use style="fill:#ffffff;stroke:#000000;stroke-width:1.5;" x="170.710564047" xlink:href="#m6e437a73fe" y="274.909090909"/>
    </g>
   </g>
   <g id="text_1">
    <!-- 1 -->
    <defs>
     <path d="M 12.40625 8.296875 
L 28.515625 8.296875 
L 28.515625 63.921875 
L 10.984375 60.40625 
L 10.984375 69.390625 
L 28.421875 72.90625 
L 38.28125 72.90625 
L 38.28125 8.296875 
L 54.390625 8.296875 
L 54.390625 0 
L 12.40625 0 
z
" id="BitstreamVeraSans-Roman-31"/>
    </defs>
    <g transform="translate(712.026310953 277.392528409)scale(0.09 -0.09)">
     <use xlink:href="#BitstreamVeraSans-Roman-31"/>
    </g>
   </g>
   <g id="text_2">
    <!-- 2 -->
    <defs>
     <path d="M 19.1875 8.296875 
L 53.609375 8.296875 
L 53.609375 0 
L 7.328125 0 
L 7.328125 8.296875 
Q 12.9375 14.109375 22.625 23.890625 
Q 32.328125 33.6875 34.8125 36.53125 
Q 39.546875 41.84375 41.421875 45.53125 
Q 43.3125 49.21875 43.3125 52.78125 
Q 43.3125 58.59375 39.234375 62.25 
Q 35.15625 65.921875 28.609375 65.921875 
Q 23.96875 65.921875 18.8125 64.3125 
Q 13.671875 62.703125 7.8125 59.421875 
L 7.8125 69.390625 
Q 13.765625 71.78125 18.9375 73 
Q 24.125 74.21875 28.421875 74.21875 
Q 39.75 74.21875 46.484375 68.546875 
Q 53.21875 62.890625 53.21875 53.421875 
Q 53.21875 48.921875 51.53125 44.890625 
Q 49.859375 40.875 45.40625 35.40625 
Q 44.1875 33.984375 37.640625 27.21875 
Q 31.109375 20.453125 19.1875 8.296875 
" id="BitstreamVeraSans-Roman-32"/>
    </defs>
    <g transform="translate(621.329832302 434.4834375)scale(0.09 -0.09)">
     <use xlink:href="#BitstreamVeraSans-Roman-32"/>
    </g>
   </g>
   <g id="text_3">
    <!-- 3 -->
    <defs>
     <path d="M 40.578125 39.3125 
Q 47.65625 37.796875 51.625 33 
Q 55.609375 28.21875 55.609375 21.1875 
Q 55.609375 10.40625 48.1875 4.484375 
Q 40.765625 -1.421875 27.09375 -1.421875 
Q 22.515625 -1.421875 17.65625 -0.515625 
Q 12.796875 0.390625 7.625 2.203125 
L 7.625 11.71875 
Q 11.71875 9.328125 16.59375 8.109375 
Q 21.484375 6.890625 26.8125 6.890625 
Q 36.078125 6.890625 40.9375 10.546875 
Q 45.796875 14.203125 45.796875 21.1875 
Q 45.796875 27.640625 41.28125 31.265625 
Q 36.765625 34.90625 28.71875 34.90625 
L 20.21875 34.90625 
L 20.21875 43.015625 
L 29.109375 43.015625 
Q 36.375 43.015625 40.234375 45.921875 
Q 44.09375 48.828125 44.09375 54.296875 
Q 44.09375 59.90625 40.109375 62.90625 
Q 36.140625 65.921875 28.71875 65.921875 
Q 24.65625 65.921875 20.015625 65.03125 
Q 15.375 64.15625 9.8125 62.3125 
L 9.8125 71.09375 
Q 15.4375 72.65625 20.34375 73.4375 
Q 25.25 74.21875 29.59375 74.21875 
Q 40.828125 74.21875 47.359375 69.109375 
Q 53.90625 64.015625 53.90625 55.328125 
Q 53.90625 49.265625 50.4375 45.09375 
Q 46.96875 40.921875 40.578125 39.3125 
" id="BitstreamVeraSans-Roman-33"/>
    </defs>
    <g transform="translate(712.026310953 591.574346591)scale(0.09 -0.09)">
     <use xlink:href="#BitstreamVeraSans-Roman-33"/>
    </g>
   </g>
   <g id="text_4">
    <!-- 4,9,13 -->
    <defs>
     <path d="M 11.71875 12.40625 
L 22.015625 12.40625 
L 22.015625 4 
L 14.015625 -11.625 
L 7.71875 -11.625 
L 11.71875 4 
z
" id="BitstreamVeraSans-Roman-2c"/>
     <path d="M 10.984375 1.515625 
L 10.984375 10.5 
Q 14.703125 8.734375 18.5 7.8125 
Q 22.3125 6.890625 25.984375 6.890625 
Q 35.75 6.890625 40.890625 13.453125 
Q 46.046875 20.015625 46.78125 33.40625 
Q 43.953125 29.203125 39.59375 26.953125 
Q 35.25 24.703125 29.984375 24.703125 
Q 19.046875 24.703125 12.671875 31.3125 
Q 6.296875 37.9375 6.296875 49.421875 
Q 6.296875 60.640625 12.9375 67.421875 
Q 19.578125 74.21875 30.609375 74.21875 
Q 43.265625 74.21875 49.921875 64.515625 
Q 56.59375 54.828125 56.59375 36.375 
Q 56.59375 19.140625 48.40625 8.859375 
Q 40.234375 -1.421875 26.421875 -1.421875 
Q 22.703125 -1.421875 18.890625 -0.6875 
Q 15.09375 0.046875 10.984375 1.515625 
M 30.609375 32.421875 
Q 37.25 32.421875 41.125 36.953125 
Q 45.015625 41.5 45.015625 49.421875 
Q 45.015625 57.28125 41.125 61.84375 
Q 37.25 66.40625 30.609375 66.40625 
Q 23.96875 66.40625 20.09375 61.84375 
Q 16.21875 57.28125 16.21875 49.421875 
Q 16.21875 41.5 20.09375 36.953125 
Q 23.96875 32.421875 30.609375 32.421875 
" id="BitstreamVeraSans-Roman-39"/>
     <path d="M 37.796875 64.3125 
L 12.890625 25.390625 
L 37.796875 25.390625 
z
M 35.203125 72.90625 
L 47.609375 72.90625 
L 47.609375 25.390625 
L 58.015625 25.390625 
L 58.015625 17.1875 
L 47.609375 17.1875 
L 47.609375 0 
L 37.796875 0 
L 37.796875 17.1875 
L 4.890625 17.1875 
L 4.890625 26.703125 
z
" id="BitstreamVeraSans-Roman-34"/>
    </defs>
    <g transform="translate(438.0290625 432.8278125)scale(0.03 -0.03)">
     <use xlink:href="#BitstreamVeraSans-Roman-34"/>
     <use x="63.623046875" xlink:href="#BitstreamVeraSans-Roman-2c"/>
     <use x="95.41015625" xlink:href="#BitstreamVeraSans-Roman-39"/>
     <use x="159.033203125" xlink:href="#BitstreamVeraSans-Roman-2c"/>
     <use x="190.8203125" xlink:href="#BitstreamVeraSans-Roman-31"/>
     <use x="254.443359375" xlink:href="#BitstreamVeraSans-Roman-33"/>
    </g>
   </g>
   <g id="text_5">
    <!-- 5 -->
    <defs>
     <path d="M 10.796875 72.90625 
L 49.515625 72.90625 
L 49.515625 64.59375 
L 19.828125 64.59375 
L 19.828125 46.734375 
Q 21.96875 47.46875 24.109375 47.828125 
Q 26.265625 48.1875 28.421875 48.1875 
Q 40.625 48.1875 47.75 41.5 
Q 54.890625 34.8125 54.890625 23.390625 
Q 54.890625 11.625 47.5625 5.09375 
Q 40.234375 -1.421875 26.90625 -1.421875 
Q 22.3125 -1.421875 17.546875 -0.640625 
Q 12.796875 0.140625 7.71875 1.703125 
L 7.71875 11.625 
Q 12.109375 9.234375 16.796875 8.0625 
Q 21.484375 6.890625 26.703125 6.890625 
Q 35.15625 6.890625 40.078125 11.328125 
Q 45.015625 15.765625 45.015625 23.390625 
Q 45.015625 31 40.078125 35.4375 
Q 35.15625 39.890625 26.703125 39.890625 
Q 22.75 39.890625 18.8125 39.015625 
Q 14.890625 38.140625 10.796875 36.28125 
z
" id="BitstreamVeraSans-Roman-35"/>
    </defs>
    <g transform="translate(349.240396349 277.392528409)scale(0.09 -0.09)">
     <use xlink:href="#BitstreamVeraSans-Roman-35"/>
    </g>
   </g>
   <g id="text_6">
    <!-- 6 -->
    <defs>
     <path d="M 33.015625 40.375 
Q 26.375 40.375 22.484375 35.828125 
Q 18.609375 31.296875 18.609375 23.390625 
Q 18.609375 15.53125 22.484375 10.953125 
Q 26.375 6.390625 33.015625 6.390625 
Q 39.65625 6.390625 43.53125 10.953125 
Q 47.40625 15.53125 47.40625 23.390625 
Q 47.40625 31.296875 43.53125 35.828125 
Q 39.65625 40.375 33.015625 40.375 
M 52.59375 71.296875 
L 52.59375 62.3125 
Q 48.875 64.0625 45.09375 64.984375 
Q 41.3125 65.921875 37.59375 65.921875 
Q 27.828125 65.921875 22.671875 59.328125 
Q 17.53125 52.734375 16.796875 39.40625 
Q 19.671875 43.65625 24.015625 45.921875 
Q 28.375 48.1875 33.59375 48.1875 
Q 44.578125 48.1875 50.953125 41.515625 
Q 57.328125 34.859375 57.328125 23.390625 
Q 57.328125 12.15625 50.6875 5.359375 
Q 44.046875 -1.421875 33.015625 -1.421875 
Q 20.359375 -1.421875 13.671875 8.265625 
Q 6.984375 17.96875 6.984375 36.375 
Q 6.984375 53.65625 15.1875 63.9375 
Q 23.390625 74.21875 37.203125 74.21875 
Q 40.921875 74.21875 44.703125 73.484375 
Q 48.484375 72.75 52.59375 71.296875 
" id="BitstreamVeraSans-Roman-36"/>
    </defs>
    <g transform="translate(530.633353651 591.574346591)scale(0.09 -0.09)">
     <use xlink:href="#BitstreamVeraSans-Roman-36"/>
    </g>
   </g>
   <g id="text_7">
    <!-- 7 -->
    <defs>
     <path d="M 8.203125 72.90625 
L 55.078125 72.90625 
L 55.078125 68.703125 
L 28.609375 0 
L 18.3125 0 
L 43.21875 64.59375 
L 8.203125 64.59375 
z
" id="BitstreamVeraSans-Roman-37"/>
    </defs>
    <g transform="translate(439.936875 748.665255682)scale(0.09 -0.09)">
     <use xlink:href="#BitstreamVeraSans-Roman-37"/>
    </g>
   </g>
   <g id="text_8">
    <!-- 8 -->
    <defs>
     <path d="M 31.78125 34.625 
Q 24.75 34.625 20.71875 30.859375 
Q 16.703125 27.09375 16.703125 20.515625 
Q 16.703125 13.921875 20.71875 10.15625 
Q 24.75 6.390625 31.78125 6.390625 
Q 38.8125 6.390625 42.859375 10.171875 
Q 46.921875 13.96875 46.921875 20.515625 
Q 46.921875 27.09375 42.890625 30.859375 
Q 38.875 34.625 31.78125 34.625 
M 21.921875 38.8125 
Q 15.578125 40.375 12.03125 44.71875 
Q 8.5 49.078125 8.5 55.328125 
Q 8.5 64.0625 14.71875 69.140625 
Q 20.953125 74.21875 31.78125 74.21875 
Q 42.671875 74.21875 48.875 69.140625 
Q 55.078125 64.0625 55.078125 55.328125 
Q 55.078125 49.078125 51.53125 44.71875 
Q 48 40.375 41.703125 38.8125 
Q 48.828125 37.15625 52.796875 32.3125 
Q 56.78125 27.484375 56.78125 20.515625 
Q 56.78125 9.90625 50.3125 4.234375 
Q 43.84375 -1.421875 31.78125 -1.421875 
Q 19.734375 -1.421875 13.25 4.234375 
Q 6.78125 9.90625 6.78125 20.515625 
Q 6.78125 27.484375 10.78125 32.3125 
Q 14.796875 37.15625 21.921875 38.8125 
M 18.3125 54.390625 
Q 18.3125 48.734375 21.84375 45.5625 
Q 25.390625 42.390625 31.78125 42.390625 
Q 38.140625 42.390625 41.71875 45.5625 
Q 45.3125 48.734375 45.3125 54.390625 
Q 45.3125 60.0625 41.71875 63.234375 
Q 38.140625 66.40625 31.78125 66.40625 
Q 25.390625 66.40625 21.84375 63.234375 
Q 18.3125 60.0625 18.3125 54.390625 
" id="BitstreamVeraSans-Roman-38"/>
    </defs>
    <g transform="translate(439.936875 120.301619318)scale(0.09 -0.09)">
     <use xlink:href="#BitstreamVeraSans-Roman-38"/>
    </g>
   </g>
   <g id="text_9">
    <!-- 10 -->
    <defs>
     <path d="M 31.78125 66.40625 
Q 24.171875 66.40625 20.328125 58.90625 
Q 16.5 51.421875 16.5 36.375 
Q 16.5 21.390625 20.328125 13.890625 
Q 24.171875 6.390625 31.78125 6.390625 
Q 39.453125 6.390625 43.28125 13.890625 
Q 47.125 21.390625 47.125 36.375 
Q 47.125 51.421875 43.28125 58.90625 
Q 39.453125 66.40625 31.78125 66.40625 
M 31.78125 74.21875 
Q 44.046875 74.21875 50.515625 64.515625 
Q 56.984375 54.828125 56.984375 36.375 
Q 56.984375 17.96875 50.515625 8.265625 
Q 44.046875 -1.421875 31.78125 -1.421875 
Q 19.53125 -1.421875 13.0625 8.265625 
Q 6.59375 17.96875 6.59375 36.375 
Q 6.59375 54.828125 13.0625 64.515625 
Q 19.53125 74.21875 31.78125 74.21875 
" id="BitstreamVeraSans-Roman-30"/>
    </defs>
    <g transform="translate(527.770228651 277.392528409)scale(0.09 -0.09)">
     <use xlink:href="#BitstreamVeraSans-Roman-31"/>
     <use x="63.623046875" xlink:href="#BitstreamVeraSans-Roman-30"/>
    </g>
   </g>
   <g id="text_10">
    <!-- 11 -->
    <g transform="translate(346.377271349 591.574346591)scale(0.09 -0.09)">
     <use xlink:href="#BitstreamVeraSans-Roman-31"/>
     <use x="63.623046875" xlink:href="#BitstreamVeraSans-Roman-31"/>
    </g>
   </g>
   <g id="text_11">
    <!-- 12 -->
    <g transform="translate(164.984314047 591.574346591)scale(0.09 -0.09)">
     <use xlink:href="#BitstreamVeraSans-Roman-31"/>
     <use x="63.623046875" xlink:href="#BitstreamVeraSans-Roman-32"/>
    </g>
   </g>
   <g id="text_12">
    <!-- 14 -->
    <g transform="translate(255.680792698 434.4834375)scale(0.09 -0.09)">
     <use xlink:href="#BitstreamVeraSans-Roman-31"/>
     <use x="63.623046875" xlink:href="#BitstreamVeraSans-Roman-34"/>
    </g>
   </g>
   <g id="text_13">
    <!-- 15 -->
    <g transform="translate(164.984314047 277.392528409)scale(0.09 -0.09)">
     <use xlink:href="#BitstreamVeraSans-Roman-31"/>
     <use x="63.623046875" xlink:href="#BitstreamVeraSans-Roman-35"/>
    </g>
   </g>
  </g>
 </g>
 <defs>
  <clipPath id="p08ec52710a">
   <rect height="691.2" width="598.596759096" x="143.501620452" y="86.4"/>
  </clipPath>
 </defs>
</svg>
