<?xml version="1.0" encoding="utf-8" standalone="no"?>
<!DOCTYPE svg PUBLIC "-//W3C//DTD SVG 1.1//EN"
  "http://www.w3.org/Graphics/SVG/1.1/DTD/svg11.dtd">
<!-- Created with matplotlib (http://matplotlib.org/) -->
<svg height="864pt" version="1.1" viewBox="0 0 864 864" width="864pt" xmlns="http://www.w3.org/2000/svg" xmlns:xlink="http://www.w3.org/1999/xlink">
 <defs>
  <style type="text/css">
*{stroke-linecap:butt;stroke-linejoin:round;stroke-miterlimit:100000;}
  </style>
 </defs>
 <g id="figure_1">
  <g id="patch_1">
   <path d="M 0 864 
L 864 864 
L 864 0 
L 0 0 
z
" style="fill:#ffffff;"/>
  </g>
  <g id="axes_1">
   <g id="patch_2">
    <path clip-path="url(#pd128f60e6a)" d="M 604.301013 432 
L 615.484047 428.272322 
L 615.484047 431.813616 
L 737.844441 431.813616 
L 737.844441 432.186384 
L 615.484047 432.186384 
L 615.484047 435.727678 
z
" style="fill:#ff4700;stroke:#ff4700;stroke-linejoin:miter;"/>
   </g>
   <g id="patch_3">
    <path clip-path="url(#pd128f60e6a)" d="M 526.961569 559.133723 
L 534.782521 550.313942 
L 536.553168 553.380793 
L 738.999785 436.498184 
L 739.186169 436.821011 
L 536.739552 553.703619 
L 538.510199 556.77047 
z
" style="fill:#f10800;stroke:#f10800;stroke-linejoin:miter;"/>
   </g>
   <g id="patch_4">
    <path clip-path="url(#pd128f60e6a)" d="M 526.961569 304.866277 
L 538.510199 307.22953 
L 536.739552 310.296381 
L 739.186169 427.178989 
L 738.999785 427.501816 
L 536.553168 310.619207 
L 534.782521 313.686058 
z
" style="fill:#ff6800;stroke:#ff6800;stroke-linejoin:miter;"/>
   </g>
   <g id="patch_5">
    <path clip-path="url(#pd128f60e6a)" d="M 599.641416 176.484019 
L 608.461197 184.304971 
L 605.394346 186.075618 
L 742.665452 423.836148 
L 742.342626 424.022532 
L 605.07152 186.262002 
L 602.004669 188.032649 
z
" style="fill:#60ff97;stroke:#60ff97;stroke-linejoin:miter;"/>
   </g>
   <g id="patch_6">
    <path clip-path="url(#pd128f60e6a)" d="M 452.119195 432 
L 463.302229 428.272322 
L 463.302229 431.813616 
L 737.844441 431.813616 
L 737.844441 432.186384 
L 463.302229 432.186384 
L 463.302229 435.727678 
z
" style="fill:#0000cd;stroke:#0000cd;stroke-linejoin:miter;"/>
   </g>
   <g id="patch_7">
    <path clip-path="url(#pd128f60e6a)" d="M 599.641416 687.515981 
L 602.004669 675.967351 
L 605.07152 677.737998 
L 742.342626 439.977468 
L 742.665452 440.163852 
L 605.394346 677.924382 
L 608.461197 679.695029 
z
" style="fill:#0090ff;stroke:#0090ff;stroke-linejoin:miter;"/>
   </g>
   <g id="patch_8">
    <path clip-path="url(#pd128f60e6a)" d="M 526.961569 559.133723 
L 534.782521 550.313942 
L 536.553168 553.380793 
L 738.999785 436.498184 
L 739.186169 436.821011 
L 536.739552 553.703619 
L 538.510199 556.77047 
z
" style="fill:#43ffb4;stroke:#43ffb4;stroke-linejoin:miter;"/>
   </g>
   <g id="patch_9">
    <path clip-path="url(#pd128f60e6a)" d="M 526.961569 304.866277 
L 538.510199 307.22953 
L 536.739552 310.296381 
L 739.186169 427.178989 
L 738.999785 427.501816 
L 536.553168 310.619207 
L 534.782521 313.686058 
z
" style="fill:#0000a4;stroke:#0000a4;stroke-linejoin:miter;"/>
   </g>
   <g id="patch_10">
    <path clip-path="url(#pd128f60e6a)" d="M 604.301013 432 
L 615.484047 428.272322 
L 615.484047 431.813616 
L 737.844441 431.813616 
L 737.844441 432.186384 
L 615.484047 432.186384 
L 615.484047 435.727678 
z
" style="fill:#0028ff;stroke:#0028ff;stroke-linejoin:miter;"/>
   </g>
   <g id="patch_11">
    <path clip-path="url(#pd128f60e6a)" d="M 737.844441 432 
L 726.661407 435.727678 
L 726.661407 432.186384 
L 604.301013 432.186384 
L 604.301013 431.813616 
L 726.661407 431.813616 
L 726.661407 428.272322 
z
" style="fill:#ff4700;stroke:#ff4700;stroke-linejoin:miter;"/>
   </g>
   <g id="patch_12">
    <path clip-path="url(#pd128f60e6a)" d="M 523.550507 555.722661 
L 525.91376 544.17403 
L 528.98061 545.944677 
L 590.160807 439.977468 
L 590.483634 440.163852 
L 529.303437 546.131061 
L 532.370288 547.901708 
z
" style="fill:#ebff0c;stroke:#ebff0c;stroke-linejoin:miter;"/>
   </g>
   <g id="patch_13">
    <path clip-path="url(#pd128f60e6a)" d="M 523.550507 308.277339 
L 532.370288 316.098292 
L 529.303437 317.868939 
L 590.483634 423.836148 
L 590.160807 424.022532 
L 528.98061 318.055323 
L 525.91376 319.82597 
z
" style="fill:#ff2900;stroke:#ff2900;stroke-linejoin:miter;"/>
   </g>
   <g id="patch_14">
    <path clip-path="url(#pd128f60e6a)" d="M 594.981818 177.732554 
L 598.709496 188.915588 
L 595.168202 188.915588 
L 595.168202 422.680805 
L 594.795434 422.680805 
L 594.795434 188.915588 
L 591.25414 188.915588 
z
" style="fill:#ceff29;stroke:#ceff29;stroke-linejoin:miter;"/>
   </g>
   <g id="patch_15">
    <path clip-path="url(#pd128f60e6a)" d="M 594.981818 686.267446 
L 591.25414 675.084412 
L 594.795434 675.084412 
L 594.795434 441.319195 
L 595.168202 441.319195 
L 595.168202 675.084412 
L 598.709496 675.084412 
z
" style="fill:#97ff60;stroke:#97ff60;stroke-linejoin:miter;"/>
   </g>
   <g id="patch_16">
    <path clip-path="url(#pd128f60e6a)" d="M 299.937377 432 
L 311.120411 428.272322 
L 311.120411 431.813616 
L 585.662623 431.813616 
L 585.662623 432.186384 
L 311.120411 432.186384 
L 311.120411 435.727678 
z
" style="fill:#0000cd;stroke:#0000cd;stroke-linejoin:miter;"/>
   </g>
   <g id="patch_17">
    <path clip-path="url(#pd128f60e6a)" d="M 374.779751 304.866277 
L 386.328381 307.22953 
L 384.557734 310.296381 
L 587.00435 427.178989 
L 586.817967 427.501816 
L 384.37135 310.619207 
L 382.600703 313.686058 
z
" style="fill:#0000a4;stroke:#0000a4;stroke-linejoin:miter;"/>
   </g>
   <g id="patch_18">
    <path clip-path="url(#pd128f60e6a)" d="M 374.779751 559.133723 
L 382.600703 550.313942 
L 384.37135 553.380793 
L 586.817967 436.498184 
L 587.00435 436.821011 
L 384.557734 553.703619 
L 386.328381 556.77047 
z
" style="fill:#43ffb4;stroke:#43ffb4;stroke-linejoin:miter;"/>
   </g>
   <g id="patch_19">
    <path clip-path="url(#pd128f60e6a)" d="M 452.119195 432 
L 463.302229 428.272322 
L 463.302229 431.813616 
L 585.662623 431.813616 
L 585.662623 432.186384 
L 463.302229 432.186384 
L 463.302229 435.727678 
z
" style="fill:#0028ff;stroke:#0028ff;stroke-linejoin:miter;"/>
   </g>
   <g id="patch_20">
    <path clip-path="url(#pd128f60e6a)" d="M 739.092977 436.659598 
L 731.272024 445.479378 
L 729.501377 442.412528 
L 527.054761 559.295136 
L 526.868377 558.97231 
L 729.314993 442.089701 
L 727.544346 439.022851 
z
" style="fill:#f10800;stroke:#f10800;stroke-linejoin:miter;"/>
   </g>
   <g id="patch_21">
    <path clip-path="url(#pd128f60e6a)" d="M 590.322221 440.07066 
L 587.958967 451.61929 
L 584.892117 449.848643 
L 523.71192 555.815853 
L 523.389093 555.629469 
L 584.56929 449.662259 
L 581.50244 447.891612 
z
" style="fill:#ebff0c;stroke:#ebff0c;stroke-linejoin:miter;"/>
   </g>
   <g id="patch_22">
    <path clip-path="url(#pd128f60e6a)" d="M 447.459598 440.07066 
L 456.279378 447.891612 
L 453.212528 449.662259 
L 514.392725 555.629469 
L 514.069898 555.815853 
L 452.889701 449.848643 
L 449.822851 451.61929 
z
" style="fill:#ff2900;stroke:#ff2900;stroke-linejoin:miter;"/>
   </g>
   <g id="patch_23">
    <path clip-path="url(#pd128f60e6a)" d="M 590.322221 687.515981 
L 581.50244 679.695029 
L 584.56929 677.924382 
L 523.389093 571.957172 
L 523.71192 571.770788 
L 584.892117 677.737998 
L 587.958967 675.967351 
z
" style="fill:#0008ff;stroke:#0008ff;stroke-linejoin:miter;"/>
   </g>
   <g id="patch_24">
    <path clip-path="url(#pd128f60e6a)" d="M 298.688841 436.659598 
L 310.237472 439.022851 
L 308.466825 442.089701 
L 510.913441 558.97231 
L 510.727057 559.295136 
L 308.280441 442.412528 
L 306.509794 445.479378 
z
" style="fill:#ff6800;stroke:#ff6800;stroke-linejoin:miter;"/>
   </g>
   <g id="patch_25">
    <path clip-path="url(#pd128f60e6a)" d="M 518.890909 309.525875 
L 522.618587 320.708909 
L 519.077293 320.708909 
L 519.077293 554.474125 
L 518.704525 554.474125 
L 518.704525 320.708909 
L 515.163231 320.708909 
z
" style="fill:#ceff29;stroke:#ceff29;stroke-linejoin:miter;"/>
   </g>
   <g id="patch_26">
    <path clip-path="url(#pd128f60e6a)" d="M 371.368688 308.277339 
L 380.188469 316.098292 
L 377.121619 317.868939 
L 514.392725 555.629469 
L 514.069898 555.815853 
L 376.798792 318.055323 
L 373.731942 319.82597 
z
" style="fill:#60ff97;stroke:#60ff97;stroke-linejoin:miter;"/>
   </g>
   <g id="patch_27">
    <path clip-path="url(#pd128f60e6a)" d="M 298.688841 690.927044 
L 306.509794 682.107263 
L 308.280441 685.174113 
L 510.727057 568.291505 
L 510.913441 568.614331 
L 308.466825 685.49694 
L 310.237472 688.56379 
z
" style="fill:#43ffb4;stroke:#43ffb4;stroke-linejoin:miter;"/>
   </g>
   <g id="patch_28">
    <path clip-path="url(#pd128f60e6a)" d="M 376.028286 563.793321 
L 387.21132 560.065643 
L 387.21132 563.606937 
L 509.571714 563.606937 
L 509.571714 563.979704 
L 387.21132 563.979704 
L 387.21132 567.520999 
z
" style="fill:#0028ff;stroke:#0028ff;stroke-linejoin:miter;"/>
   </g>
   <g id="patch_29">
    <path clip-path="url(#pd128f60e6a)" d="M 739.092977 427.340402 
L 727.544346 424.977149 
L 729.314993 421.910299 
L 526.868377 305.02769 
L 527.054761 304.704864 
L 729.501377 421.587472 
L 731.272024 418.520622 
z
" style="fill:#ff6800;stroke:#ff6800;stroke-linejoin:miter;"/>
   </g>
   <g id="patch_30">
    <path clip-path="url(#pd128f60e6a)" d="M 590.322221 423.92934 
L 581.50244 416.108388 
L 584.56929 414.337741 
L 523.389093 308.370531 
L 523.71192 308.184147 
L 584.892117 414.151357 
L 587.958967 412.38071 
z
" style="fill:#ff2900;stroke:#ff2900;stroke-linejoin:miter;"/>
   </g>
   <g id="patch_31">
    <path clip-path="url(#pd128f60e6a)" d="M 590.322221 176.484019 
L 587.958967 188.032649 
L 584.892117 186.262002 
L 523.71192 292.229212 
L 523.389093 292.042828 
L 584.56929 186.075618 
L 581.50244 184.304971 
z
" style="fill:#0000f1;stroke:#0000f1;stroke-linejoin:miter;"/>
   </g>
   <g id="patch_32">
    <path clip-path="url(#pd128f60e6a)" d="M 447.459598 423.92934 
L 449.822851 412.38071 
L 452.889701 414.151357 
L 514.069898 308.184147 
L 514.392725 308.370531 
L 453.212528 414.337741 
L 456.279378 416.108388 
z
" style="fill:#ebff0c;stroke:#ebff0c;stroke-linejoin:miter;"/>
   </g>
   <g id="patch_33">
    <path clip-path="url(#pd128f60e6a)" d="M 298.688841 427.340402 
L 306.509794 418.520622 
L 308.280441 421.587472 
L 510.727057 304.704864 
L 510.913441 305.02769 
L 308.466825 421.910299 
L 310.237472 424.977149 
z
" style="fill:#f10800;stroke:#f10800;stroke-linejoin:miter;"/>
   </g>
   <g id="patch_34">
    <path clip-path="url(#pd128f60e6a)" d="M 518.890909 554.474125 
L 515.163231 543.291091 
L 518.704525 543.291091 
L 518.704525 309.525875 
L 519.077293 309.525875 
L 519.077293 543.291091 
L 522.618587 543.291091 
z
" style="fill:#97ff60;stroke:#97ff60;stroke-linejoin:miter;"/>
   </g>
   <g id="patch_35">
    <path clip-path="url(#pd128f60e6a)" d="M 371.368688 555.722661 
L 373.731942 544.17403 
L 376.798792 545.944677 
L 514.069898 308.184147 
L 514.392725 308.370531 
L 377.121619 546.131061 
L 380.188469 547.901708 
z
" style="fill:#0090ff;stroke:#0090ff;stroke-linejoin:miter;"/>
   </g>
   <g id="patch_36">
    <path clip-path="url(#pd128f60e6a)" d="M 298.688841 173.072956 
L 310.237472 175.43621 
L 308.466825 178.50306 
L 510.913441 295.385669 
L 510.727057 295.708495 
L 308.280441 178.825887 
L 306.509794 181.892737 
z
" style="fill:#0000a4;stroke:#0000a4;stroke-linejoin:miter;"/>
   </g>
   <g id="patch_37">
    <path clip-path="url(#pd128f60e6a)" d="M 376.028286 300.206679 
L 387.21132 296.479001 
L 387.21132 300.020296 
L 509.571714 300.020296 
L 509.571714 300.393063 
L 387.21132 300.393063 
L 387.21132 303.934357 
z
" style="fill:#0028ff;stroke:#0028ff;stroke-linejoin:miter;"/>
   </g>
   <g id="patch_38">
    <path clip-path="url(#pd128f60e6a)" d="M 742.504039 423.92934 
L 733.684258 416.108388 
L 736.751109 414.337741 
L 599.480003 176.577211 
L 599.802829 176.390827 
L 737.073935 414.151357 
L 740.140786 412.38071 
z
" style="fill:#60ff97;stroke:#60ff97;stroke-linejoin:miter;"/>
   </g>
   <g id="patch_39">
    <path clip-path="url(#pd128f60e6a)" d="M 594.981818 422.680805 
L 591.25414 411.497771 
L 594.795434 411.497771 
L 594.795434 177.732554 
L 595.168202 177.732554 
L 595.168202 411.497771 
L 598.709496 411.497771 
z
" style="fill:#ceff29;stroke:#ceff29;stroke-linejoin:miter;"/>
   </g>
   <g id="patch_40">
    <path clip-path="url(#pd128f60e6a)" d="M 523.550507 292.13602 
L 525.91376 280.587389 
L 528.98061 282.358036 
L 590.160807 176.390827 
L 590.483634 176.577211 
L 529.303437 282.54442 
L 532.370288 284.315067 
z
" style="fill:#0000f1;stroke:#0000f1;stroke-linejoin:miter;"/>
   </g>
   <g id="patch_41">
    <path clip-path="url(#pd128f60e6a)" d="M 523.550507 292.13602 
L 525.91376 280.587389 
L 528.98061 282.358036 
L 590.160807 176.390827 
L 590.483634 176.577211 
L 529.303437 282.54442 
L 532.370288 284.315067 
z
" style="fill:#ebff0c;stroke:#ebff0c;stroke-linejoin:miter;"/>
   </g>
   <g id="patch_42">
    <path clip-path="url(#pd128f60e6a)" d="M 594.981818 422.680805 
L 591.25414 411.497771 
L 594.795434 411.497771 
L 594.795434 177.732554 
L 595.168202 177.732554 
L 595.168202 411.497771 
L 598.709496 411.497771 
z
" style="fill:#97ff60;stroke:#97ff60;stroke-linejoin:miter;"/>
   </g>
   <g id="patch_43">
    <path clip-path="url(#pd128f60e6a)" d="M 374.779751 295.547082 
L 382.600703 286.727301 
L 384.37135 289.794152 
L 586.817967 172.911543 
L 587.00435 173.23437 
L 384.557734 290.116978 
L 386.328381 293.183829 
z
" style="fill:#f10800;stroke:#f10800;stroke-linejoin:miter;"/>
   </g>
   <g id="patch_44">
    <path clip-path="url(#pd128f60e6a)" d="M 299.937377 168.413359 
L 311.120411 164.685681 
L 311.120411 168.226975 
L 585.662623 168.226975 
L 585.662623 168.599743 
L 311.120411 168.599743 
L 311.120411 172.141037 
z
" style="fill:#0000cd;stroke:#0000cd;stroke-linejoin:miter;"/>
   </g>
   <g id="patch_45">
    <path clip-path="url(#pd128f60e6a)" d="M 447.459598 423.92934 
L 449.822851 412.38071 
L 452.889701 414.151357 
L 590.160807 176.390827 
L 590.483634 176.577211 
L 453.212528 414.337741 
L 456.279378 416.108388 
z
" style="fill:#0090ff;stroke:#0090ff;stroke-linejoin:miter;"/>
   </g>
   <g id="patch_46">
    <path clip-path="url(#pd128f60e6a)" d="M 374.779751 295.547082 
L 382.600703 286.727301 
L 384.37135 289.794152 
L 586.817967 172.911543 
L 587.00435 173.23437 
L 384.557734 290.116978 
L 386.328381 293.183829 
z
" style="fill:#43ffb4;stroke:#43ffb4;stroke-linejoin:miter;"/>
   </g>
   <g id="patch_47">
    <path clip-path="url(#pd128f60e6a)" d="M 737.844441 432 
L 726.661407 435.727678 
L 726.661407 432.186384 
L 452.119195 432.186384 
L 452.119195 431.813616 
L 726.661407 431.813616 
L 726.661407 428.272322 
z
" style="fill:#0000cd;stroke:#0000cd;stroke-linejoin:miter;"/>
   </g>
   <g id="patch_48">
    <path clip-path="url(#pd128f60e6a)" d="M 514.231312 555.722661 
L 505.411531 547.901708 
L 508.478381 546.131061 
L 447.298184 440.163852 
L 447.621011 439.977468 
L 508.801208 545.944677 
L 511.868058 544.17403 
z
" style="fill:#ff2900;stroke:#ff2900;stroke-linejoin:miter;"/>
   </g>
   <g id="patch_49">
    <path clip-path="url(#pd128f60e6a)" d="M 514.231312 308.277339 
L 511.868058 319.82597 
L 508.801208 318.055323 
L 447.621011 424.022532 
L 447.298184 423.836148 
L 508.478381 317.868939 
L 505.411531 316.098292 
z
" style="fill:#ebff0c;stroke:#ebff0c;stroke-linejoin:miter;"/>
   </g>
   <g id="patch_50">
    <path clip-path="url(#pd128f60e6a)" d="M 299.937377 432 
L 311.120411 428.272322 
L 311.120411 431.813616 
L 433.480805 431.813616 
L 433.480805 432.186384 
L 311.120411 432.186384 
L 311.120411 435.727678 
z
" style="fill:#ff4700;stroke:#ff4700;stroke-linejoin:miter;"/>
   </g>
   <g id="patch_51">
    <path clip-path="url(#pd128f60e6a)" d="M 514.231312 555.722661 
L 505.411531 547.901708 
L 508.478381 546.131061 
L 447.298184 440.163852 
L 447.621011 439.977468 
L 508.801208 545.944677 
L 511.868058 544.17403 
z
" style="fill:#0008ff;stroke:#0008ff;stroke-linejoin:miter;"/>
   </g>
   <g id="patch_52">
    <path clip-path="url(#pd128f60e6a)" d="M 514.231312 308.277339 
L 511.868058 319.82597 
L 508.801208 318.055323 
L 447.621011 424.022532 
L 447.298184 423.836148 
L 508.478381 317.868939 
L 505.411531 316.098292 
z
" style="fill:#0000f1;stroke:#0000f1;stroke-linejoin:miter;"/>
   </g>
   <g id="patch_53">
    <path clip-path="url(#pd128f60e6a)" d="M 295.277779 176.484019 
L 304.09756 184.304971 
L 301.03071 186.075618 
L 438.301816 423.836148 
L 437.978989 424.022532 
L 300.707883 186.262002 
L 297.641033 188.032649 
z
" style="fill:#60ff97;stroke:#60ff97;stroke-linejoin:miter;"/>
   </g>
   <g id="patch_54">
    <path clip-path="url(#pd128f60e6a)" d="M 295.277779 687.515981 
L 297.641033 675.967351 
L 300.707883 677.737998 
L 437.978989 439.977468 
L 438.301816 440.163852 
L 301.03071 677.924382 
L 304.09756 679.695029 
z
" style="fill:#0090ff;stroke:#0090ff;stroke-linejoin:miter;"/>
   </g>
   <g id="patch_55">
    <path clip-path="url(#pd128f60e6a)" d="M 299.937377 432 
L 311.120411 428.272322 
L 311.120411 431.813616 
L 433.480805 431.813616 
L 433.480805 432.186384 
L 311.120411 432.186384 
L 311.120411 435.727678 
z
" style="fill:#0028ff;stroke:#0028ff;stroke-linejoin:miter;"/>
   </g>
   <g id="patch_56">
    <path clip-path="url(#pd128f60e6a)" d="M 742.504039 440.07066 
L 740.140786 451.61929 
L 737.073935 449.848643 
L 599.802829 687.609173 
L 599.480003 687.422789 
L 736.751109 449.662259 
L 733.684258 447.891612 
z
" style="fill:#0090ff;stroke:#0090ff;stroke-linejoin:miter;"/>
   </g>
   <g id="patch_57">
    <path clip-path="url(#pd128f60e6a)" d="M 594.981818 441.319195 
L 598.709496 452.502229 
L 595.168202 452.502229 
L 595.168202 686.267446 
L 594.795434 686.267446 
L 594.795434 452.502229 
L 591.25414 452.502229 
z
" style="fill:#97ff60;stroke:#97ff60;stroke-linejoin:miter;"/>
   </g>
   <g id="patch_58">
    <path clip-path="url(#pd128f60e6a)" d="M 523.550507 571.86398 
L 532.370288 579.684933 
L 529.303437 581.45558 
L 590.483634 687.422789 
L 590.160807 687.609173 
L 528.98061 581.641964 
L 525.91376 583.412611 
z
" style="fill:#0008ff;stroke:#0008ff;stroke-linejoin:miter;"/>
   </g>
   <g id="patch_59">
    <path clip-path="url(#pd128f60e6a)" d="M 523.550507 571.86398 
L 532.370288 579.684933 
L 529.303437 581.45558 
L 590.483634 687.422789 
L 590.160807 687.609173 
L 528.98061 581.641964 
L 525.91376 583.412611 
z
" style="fill:#ff2900;stroke:#ff2900;stroke-linejoin:miter;"/>
   </g>
   <g id="patch_60">
    <path clip-path="url(#pd128f60e6a)" d="M 594.981818 441.319195 
L 598.709496 452.502229 
L 595.168202 452.502229 
L 595.168202 686.267446 
L 594.795434 686.267446 
L 594.795434 452.502229 
L 591.25414 452.502229 
z
" style="fill:#ceff29;stroke:#ceff29;stroke-linejoin:miter;"/>
   </g>
   <g id="patch_61">
    <path clip-path="url(#pd128f60e6a)" d="M 374.779751 568.452918 
L 386.328381 570.816171 
L 384.557734 573.883022 
L 587.00435 690.76563 
L 586.817967 691.088457 
L 384.37135 574.205848 
L 382.600703 577.272699 
z
" style="fill:#ff6800;stroke:#ff6800;stroke-linejoin:miter;"/>
   </g>
   <g id="patch_62">
    <path clip-path="url(#pd128f60e6a)" d="M 447.459598 440.07066 
L 456.279378 447.891612 
L 453.212528 449.662259 
L 590.483634 687.422789 
L 590.160807 687.609173 
L 452.889701 449.848643 
L 449.822851 451.61929 
z
" style="fill:#60ff97;stroke:#60ff97;stroke-linejoin:miter;"/>
   </g>
   <g id="patch_63">
    <path clip-path="url(#pd128f60e6a)" d="M 299.937377 695.586641 
L 311.120411 691.858963 
L 311.120411 695.400257 
L 585.662623 695.400257 
L 585.662623 695.773025 
L 311.120411 695.773025 
L 311.120411 699.314319 
z
" style="fill:#0000cd;stroke:#0000cd;stroke-linejoin:miter;"/>
   </g>
   <g id="patch_64">
    <path clip-path="url(#pd128f60e6a)" d="M 374.779751 568.452918 
L 386.328381 570.816171 
L 384.557734 573.883022 
L 587.00435 690.76563 
L 586.817967 691.088457 
L 384.37135 574.205848 
L 382.600703 577.272699 
z
" style="fill:#0000a4;stroke:#0000a4;stroke-linejoin:miter;"/>
   </g>
   <g id="patch_65">
    <path clip-path="url(#pd128f60e6a)" d="M 585.662623 432 
L 574.479589 435.727678 
L 574.479589 432.186384 
L 299.937377 432.186384 
L 299.937377 431.813616 
L 574.479589 431.813616 
L 574.479589 428.272322 
z
" style="fill:#0000cd;stroke:#0000cd;stroke-linejoin:miter;"/>
   </g>
   <g id="patch_66">
    <path clip-path="url(#pd128f60e6a)" d="M 510.820249 559.133723 
L 499.271619 556.77047 
L 501.042266 553.703619 
L 298.59565 436.821011 
L 298.782033 436.498184 
L 501.22865 553.380793 
L 502.999297 550.313942 
z
" style="fill:#ff6800;stroke:#ff6800;stroke-linejoin:miter;"/>
   </g>
   <g id="patch_67">
    <path clip-path="url(#pd128f60e6a)" d="M 510.820249 304.866277 
L 502.999297 313.686058 
L 501.22865 310.619207 
L 298.782033 427.501816 
L 298.59565 427.178989 
L 501.042266 310.296381 
L 499.271619 307.22953 
z
" style="fill:#f10800;stroke:#f10800;stroke-linejoin:miter;"/>
   </g>
   <g id="patch_68">
    <path clip-path="url(#pd128f60e6a)" d="M 433.480805 432 
L 422.297771 435.727678 
L 422.297771 432.186384 
L 299.937377 432.186384 
L 299.937377 431.813616 
L 422.297771 431.813616 
L 422.297771 428.272322 
z
" style="fill:#ff4700;stroke:#ff4700;stroke-linejoin:miter;"/>
   </g>
   <g id="patch_69">
    <path clip-path="url(#pd128f60e6a)" d="M 362.049493 308.277339 
L 359.68624 319.82597 
L 356.61939 318.055323 
L 295.439193 424.022532 
L 295.116366 423.836148 
L 356.296563 317.868939 
L 353.229712 316.098292 
z
" style="fill:#0000f1;stroke:#0000f1;stroke-linejoin:miter;"/>
   </g>
   <g id="patch_70">
    <path clip-path="url(#pd128f60e6a)" d="M 362.049493 555.722661 
L 353.229712 547.901708 
L 356.296563 546.131061 
L 295.116366 440.163852 
L 295.439193 439.977468 
L 356.61939 545.944677 
L 359.68624 544.17403 
z
" style="fill:#0008ff;stroke:#0008ff;stroke-linejoin:miter;"/>
   </g>
   <g id="patch_71">
    <path clip-path="url(#pd128f60e6a)" d="M 290.618182 177.732554 
L 294.34586 188.915588 
L 290.804566 188.915588 
L 290.804566 422.680805 
L 290.431798 422.680805 
L 290.431798 188.915588 
L 286.890504 188.915588 
z
" style="fill:#ceff29;stroke:#ceff29;stroke-linejoin:miter;"/>
   </g>
   <g id="patch_72">
    <path clip-path="url(#pd128f60e6a)" d="M 290.618182 686.267446 
L 286.890504 675.084412 
L 290.431798 675.084412 
L 290.431798 441.319195 
L 290.804566 441.319195 
L 290.804566 675.084412 
L 294.34586 675.084412 
z
" style="fill:#97ff60;stroke:#97ff60;stroke-linejoin:miter;"/>
   </g>
   <g id="patch_73">
    <path clip-path="url(#pd128f60e6a)" d="M 147.755559 432 
L 158.938593 428.272322 
L 158.938593 431.813616 
L 281.298987 431.813616 
L 281.298987 432.186384 
L 158.938593 432.186384 
L 158.938593 435.727678 
z
" style="fill:#0028ff;stroke:#0028ff;stroke-linejoin:miter;"/>
   </g>
   <g id="patch_74">
    <path clip-path="url(#pd128f60e6a)" d="M 739.092977 436.659598 
L 731.272024 445.479378 
L 729.501377 442.412528 
L 527.054761 559.295136 
L 526.868377 558.97231 
L 729.314993 442.089701 
L 727.544346 439.022851 
z
" style="fill:#43ffb4;stroke:#43ffb4;stroke-linejoin:miter;"/>
   </g>
   <g id="patch_75">
    <path clip-path="url(#pd128f60e6a)" d="M 518.890909 309.525875 
L 522.618587 320.708909 
L 519.077293 320.708909 
L 519.077293 554.474125 
L 518.704525 554.474125 
L 518.704525 320.708909 
L 515.163231 320.708909 
z
" style="fill:#97ff60;stroke:#97ff60;stroke-linejoin:miter;"/>
   </g>
   <g id="patch_76">
    <path clip-path="url(#pd128f60e6a)" d="M 447.459598 440.07066 
L 456.279378 447.891612 
L 453.212528 449.662259 
L 514.392725 555.629469 
L 514.069898 555.815853 
L 452.889701 449.848643 
L 449.822851 451.61929 
z
" style="fill:#0008ff;stroke:#0008ff;stroke-linejoin:miter;"/>
   </g>
   <g id="patch_77">
    <path clip-path="url(#pd128f60e6a)" d="M 590.322221 687.515981 
L 581.50244 679.695029 
L 584.56929 677.924382 
L 523.389093 571.957172 
L 523.71192 571.770788 
L 584.892117 677.737998 
L 587.958967 675.967351 
z
" style="fill:#ff2900;stroke:#ff2900;stroke-linejoin:miter;"/>
   </g>
   <g id="patch_78">
    <path clip-path="url(#pd128f60e6a)" d="M 590.322221 440.07066 
L 587.958967 451.61929 
L 584.892117 449.848643 
L 523.71192 555.815853 
L 523.389093 555.629469 
L 584.56929 449.662259 
L 581.50244 447.891612 
z
" style="fill:#0000f1;stroke:#0000f1;stroke-linejoin:miter;"/>
   </g>
   <g id="patch_79">
    <path clip-path="url(#pd128f60e6a)" d="M 376.028286 563.793321 
L 387.21132 560.065643 
L 387.21132 563.606937 
L 509.571714 563.606937 
L 509.571714 563.979704 
L 387.21132 563.979704 
L 387.21132 567.520999 
z
" style="fill:#ff4700;stroke:#ff4700;stroke-linejoin:miter;"/>
   </g>
   <g id="patch_80">
    <path clip-path="url(#pd128f60e6a)" d="M 298.688841 690.927044 
L 306.509794 682.107263 
L 308.280441 685.174113 
L 510.727057 568.291505 
L 510.913441 568.614331 
L 308.466825 685.49694 
L 310.237472 688.56379 
z
" style="fill:#f10800;stroke:#f10800;stroke-linejoin:miter;"/>
   </g>
   <g id="patch_81">
    <path clip-path="url(#pd128f60e6a)" d="M 371.368688 308.277339 
L 380.188469 316.098292 
L 377.121619 317.868939 
L 514.392725 555.629469 
L 514.069898 555.815853 
L 376.798792 318.055323 
L 373.731942 319.82597 
z
" style="fill:#60ff97;stroke:#60ff97;stroke-linejoin:miter;"/>
   </g>
   <g id="patch_82">
    <path clip-path="url(#pd128f60e6a)" d="M 298.688841 436.659598 
L 310.237472 439.022851 
L 308.466825 442.089701 
L 510.913441 558.97231 
L 510.727057 559.295136 
L 308.280441 442.412528 
L 306.509794 445.479378 
z
" style="fill:#0000a4;stroke:#0000a4;stroke-linejoin:miter;"/>
   </g>
   <g id="patch_83">
    <path clip-path="url(#pd128f60e6a)" d="M 739.092977 427.340402 
L 727.544346 424.977149 
L 729.314993 421.910299 
L 526.868377 305.02769 
L 527.054761 304.704864 
L 729.501377 421.587472 
L 731.272024 418.520622 
z
" style="fill:#0000a4;stroke:#0000a4;stroke-linejoin:miter;"/>
   </g>
   <g id="patch_84">
    <path clip-path="url(#pd128f60e6a)" d="M 518.890909 554.474125 
L 515.163231 543.291091 
L 518.704525 543.291091 
L 518.704525 309.525875 
L 519.077293 309.525875 
L 519.077293 543.291091 
L 522.618587 543.291091 
z
" style="fill:#ceff29;stroke:#ceff29;stroke-linejoin:miter;"/>
   </g>
   <g id="patch_85">
    <path clip-path="url(#pd128f60e6a)" d="M 590.322221 176.484019 
L 587.958967 188.032649 
L 584.892117 186.262002 
L 523.71192 292.229212 
L 523.389093 292.042828 
L 584.56929 186.075618 
L 581.50244 184.304971 
z
" style="fill:#ebff0c;stroke:#ebff0c;stroke-linejoin:miter;"/>
   </g>
   <g id="patch_86">
    <path clip-path="url(#pd128f60e6a)" d="M 447.459598 423.92934 
L 449.822851 412.38071 
L 452.889701 414.151357 
L 514.069898 308.184147 
L 514.392725 308.370531 
L 453.212528 414.337741 
L 456.279378 416.108388 
z
" style="fill:#0000f1;stroke:#0000f1;stroke-linejoin:miter;"/>
   </g>
   <g id="patch_87">
    <path clip-path="url(#pd128f60e6a)" d="M 590.322221 423.92934 
L 581.50244 416.108388 
L 584.56929 414.337741 
L 523.389093 308.370531 
L 523.71192 308.184147 
L 584.892117 414.151357 
L 587.958967 412.38071 
z
" style="fill:#0008ff;stroke:#0008ff;stroke-linejoin:miter;"/>
   </g>
   <g id="patch_88">
    <path clip-path="url(#pd128f60e6a)" d="M 376.028286 300.206679 
L 387.21132 296.479001 
L 387.21132 300.020296 
L 509.571714 300.020296 
L 509.571714 300.393063 
L 387.21132 300.393063 
L 387.21132 303.934357 
z
" style="fill:#ff4700;stroke:#ff4700;stroke-linejoin:miter;"/>
   </g>
   <g id="patch_89">
    <path clip-path="url(#pd128f60e6a)" d="M 298.688841 173.072956 
L 310.237472 175.43621 
L 308.466825 178.50306 
L 510.913441 295.385669 
L 510.727057 295.708495 
L 308.280441 178.825887 
L 306.509794 181.892737 
z
" style="fill:#ff6800;stroke:#ff6800;stroke-linejoin:miter;"/>
   </g>
   <g id="patch_90">
    <path clip-path="url(#pd128f60e6a)" d="M 371.368688 555.722661 
L 373.731942 544.17403 
L 376.798792 545.944677 
L 514.069898 308.184147 
L 514.392725 308.370531 
L 377.121619 546.131061 
L 380.188469 547.901708 
z
" style="fill:#0090ff;stroke:#0090ff;stroke-linejoin:miter;"/>
   </g>
   <g id="patch_91">
    <path clip-path="url(#pd128f60e6a)" d="M 298.688841 427.340402 
L 306.509794 418.520622 
L 308.280441 421.587472 
L 510.727057 304.704864 
L 510.913441 305.02769 
L 308.466825 421.910299 
L 310.237472 424.977149 
z
" style="fill:#43ffb4;stroke:#43ffb4;stroke-linejoin:miter;"/>
   </g>
   <g id="patch_92">
    <path clip-path="url(#pd128f60e6a)" d="M 737.844441 432 
L 726.661407 435.727678 
L 726.661407 432.186384 
L 604.301013 432.186384 
L 604.301013 431.813616 
L 726.661407 431.813616 
L 726.661407 428.272322 
z
" style="fill:#0028ff;stroke:#0028ff;stroke-linejoin:miter;"/>
   </g>
   <g id="patch_93">
    <path clip-path="url(#pd128f60e6a)" d="M 594.981818 177.732554 
L 598.709496 188.915588 
L 595.168202 188.915588 
L 595.168202 422.680805 
L 594.795434 422.680805 
L 594.795434 188.915588 
L 591.25414 188.915588 
z
" style="fill:#97ff60;stroke:#97ff60;stroke-linejoin:miter;"/>
   </g>
   <g id="patch_94">
    <path clip-path="url(#pd128f60e6a)" d="M 594.981818 686.267446 
L 591.25414 675.084412 
L 594.795434 675.084412 
L 594.795434 441.319195 
L 595.168202 441.319195 
L 595.168202 675.084412 
L 598.709496 675.084412 
z
" style="fill:#ceff29;stroke:#ceff29;stroke-linejoin:miter;"/>
   </g>
   <g id="patch_95">
    <path clip-path="url(#pd128f60e6a)" d="M 523.550507 555.722661 
L 525.91376 544.17403 
L 528.98061 545.944677 
L 590.160807 439.977468 
L 590.483634 440.163852 
L 529.303437 546.131061 
L 532.370288 547.901708 
z
" style="fill:#0000f1;stroke:#0000f1;stroke-linejoin:miter;"/>
   </g>
   <g id="patch_96">
    <path clip-path="url(#pd128f60e6a)" d="M 523.550507 308.277339 
L 532.370288 316.098292 
L 529.303437 317.868939 
L 590.483634 423.836148 
L 590.160807 424.022532 
L 528.98061 318.055323 
L 525.91376 319.82597 
z
" style="fill:#0008ff;stroke:#0008ff;stroke-linejoin:miter;"/>
   </g>
   <g id="patch_97">
    <path clip-path="url(#pd128f60e6a)" d="M 452.119195 432 
L 463.302229 428.272322 
L 463.302229 431.813616 
L 585.662623 431.813616 
L 585.662623 432.186384 
L 463.302229 432.186384 
L 463.302229 435.727678 
z
" style="fill:#ff4700;stroke:#ff4700;stroke-linejoin:miter;"/>
   </g>
   <g id="patch_98">
    <path clip-path="url(#pd128f60e6a)" d="M 374.779751 304.866277 
L 386.328381 307.22953 
L 384.557734 310.296381 
L 587.00435 427.178989 
L 586.817967 427.501816 
L 384.37135 310.619207 
L 382.600703 313.686058 
z
" style="fill:#ff6800;stroke:#ff6800;stroke-linejoin:miter;"/>
   </g>
   <g id="patch_99">
    <path clip-path="url(#pd128f60e6a)" d="M 374.779751 559.133723 
L 382.600703 550.313942 
L 384.37135 553.380793 
L 586.817967 436.498184 
L 587.00435 436.821011 
L 384.557734 553.703619 
L 386.328381 556.77047 
z
" style="fill:#f10800;stroke:#f10800;stroke-linejoin:miter;"/>
   </g>
   <g id="patch_100">
    <path clip-path="url(#pd128f60e6a)" d="M 299.937377 432 
L 311.120411 428.272322 
L 311.120411 431.813616 
L 585.662623 431.813616 
L 585.662623 432.186384 
L 311.120411 432.186384 
L 311.120411 435.727678 
z
" style="fill:#0000cd;stroke:#0000cd;stroke-linejoin:miter;"/>
   </g>
   <g id="patch_101">
    <path clip-path="url(#pd128f60e6a)" d="M 586.911159 427.340402 
L 575.362528 424.977149 
L 577.133175 421.910299 
L 374.686559 305.02769 
L 374.872943 304.704864 
L 577.319559 421.587472 
L 579.090206 418.520622 
z
" style="fill:#0000a4;stroke:#0000a4;stroke-linejoin:miter;"/>
   </g>
   <g id="patch_102">
    <path clip-path="url(#pd128f60e6a)" d="M 514.231312 555.722661 
L 505.411531 547.901708 
L 508.478381 546.131061 
L 371.207275 308.370531 
L 371.530102 308.184147 
L 508.801208 545.944677 
L 511.868058 544.17403 
z
" style="fill:#60ff97;stroke:#60ff97;stroke-linejoin:miter;"/>
   </g>
   <g id="patch_103">
    <path clip-path="url(#pd128f60e6a)" d="M 586.911159 173.072956 
L 579.090206 181.892737 
L 577.319559 178.825887 
L 374.872943 295.708495 
L 374.686559 295.385669 
L 577.133175 178.50306 
L 575.362528 175.43621 
z
" style="fill:#f10800;stroke:#f10800;stroke-linejoin:miter;"/>
   </g>
   <g id="patch_104">
    <path clip-path="url(#pd128f60e6a)" d="M 295.277779 423.92934 
L 297.641033 412.38071 
L 300.707883 414.151357 
L 361.88808 308.184147 
L 362.210907 308.370531 
L 301.03071 414.337741 
L 304.09756 416.108388 
z
" style="fill:#0000f1;stroke:#0000f1;stroke-linejoin:miter;"/>
   </g>
   <g id="patch_105">
    <path clip-path="url(#pd128f60e6a)" d="M 509.571714 300.206679 
L 498.38868 303.934357 
L 498.38868 300.393063 
L 376.028286 300.393063 
L 376.028286 300.020296 
L 498.38868 300.020296 
L 498.38868 296.479001 
z
" style="fill:#ff4700;stroke:#ff4700;stroke-linejoin:miter;"/>
   </g>
   <g id="patch_106">
    <path clip-path="url(#pd128f60e6a)" d="M 295.277779 176.484019 
L 304.09756 184.304971 
L 301.03071 186.075618 
L 362.210907 292.042828 
L 361.88808 292.229212 
L 300.707883 186.262002 
L 297.641033 188.032649 
z
" style="fill:#ff2900;stroke:#ff2900;stroke-linejoin:miter;"/>
   </g>
   <g id="patch_107">
    <path clip-path="url(#pd128f60e6a)" d="M 438.140402 423.92934 
L 429.320622 416.108388 
L 432.387472 414.337741 
L 371.207275 308.370531 
L 371.530102 308.184147 
L 432.710299 414.151357 
L 435.777149 412.38071 
z
" style="fill:#0008ff;stroke:#0008ff;stroke-linejoin:miter;"/>
   </g>
   <g id="patch_108">
    <path clip-path="url(#pd128f60e6a)" d="M 366.709091 554.474125 
L 362.981413 543.291091 
L 366.522707 543.291091 
L 366.522707 309.525875 
L 366.895475 309.525875 
L 366.895475 543.291091 
L 370.436769 543.291091 
z
" style="fill:#97ff60;stroke:#97ff60;stroke-linejoin:miter;"/>
   </g>
   <g id="patch_109">
    <path clip-path="url(#pd128f60e6a)" d="M 146.507023 427.340402 
L 154.327976 418.520622 
L 156.098623 421.587472 
L 358.545239 304.704864 
L 358.731623 305.02769 
L 156.285007 421.910299 
L 158.055654 424.977149 
z
" style="fill:#43ffb4;stroke:#43ffb4;stroke-linejoin:miter;"/>
   </g>
   <g id="patch_110">
    <path clip-path="url(#pd128f60e6a)" d="M 586.911159 436.659598 
L 579.090206 445.479378 
L 577.319559 442.412528 
L 374.872943 559.295136 
L 374.686559 558.97231 
L 577.133175 442.089701 
L 575.362528 439.022851 
z
" style="fill:#43ffb4;stroke:#43ffb4;stroke-linejoin:miter;"/>
   </g>
   <g id="patch_111">
    <path clip-path="url(#pd128f60e6a)" d="M 514.231312 308.277339 
L 511.868058 319.82597 
L 508.801208 318.055323 
L 371.530102 555.815853 
L 371.207275 555.629469 
L 508.478381 317.868939 
L 505.411531 316.098292 
z
" style="fill:#0090ff;stroke:#0090ff;stroke-linejoin:miter;"/>
   </g>
   <g id="patch_112">
    <path clip-path="url(#pd128f60e6a)" d="M 586.911159 690.927044 
L 575.362528 688.56379 
L 577.133175 685.49694 
L 374.686559 568.614331 
L 374.872943 568.291505 
L 577.319559 685.174113 
L 579.090206 682.107263 
z
" style="fill:#ff6800;stroke:#ff6800;stroke-linejoin:miter;"/>
   </g>
   <g id="patch_113">
    <path clip-path="url(#pd128f60e6a)" d="M 295.277779 440.07066 
L 304.09756 447.891612 
L 301.03071 449.662259 
L 362.210907 555.629469 
L 361.88808 555.815853 
L 300.707883 449.848643 
L 297.641033 451.61929 
z
" style="fill:#0008ff;stroke:#0008ff;stroke-linejoin:miter;"/>
   </g>
   <g id="patch_114">
    <path clip-path="url(#pd128f60e6a)" d="M 509.571714 563.793321 
L 498.38868 567.520999 
L 498.38868 563.979704 
L 376.028286 563.979704 
L 376.028286 563.606937 
L 498.38868 563.606937 
L 498.38868 560.065643 
z
" style="fill:#ff4700;stroke:#ff4700;stroke-linejoin:miter;"/>
   </g>
   <g id="patch_115">
    <path clip-path="url(#pd128f60e6a)" d="M 438.140402 440.07066 
L 435.777149 451.61929 
L 432.710299 449.848643 
L 371.530102 555.815853 
L 371.207275 555.629469 
L 432.387472 449.662259 
L 429.320622 447.891612 
z
" style="fill:#0000f1;stroke:#0000f1;stroke-linejoin:miter;"/>
   </g>
   <g id="patch_116">
    <path clip-path="url(#pd128f60e6a)" d="M 295.277779 687.515981 
L 297.641033 675.967351 
L 300.707883 677.737998 
L 361.88808 571.770788 
L 362.210907 571.957172 
L 301.03071 677.924382 
L 304.09756 679.695029 
z
" style="fill:#ebff0c;stroke:#ebff0c;stroke-linejoin:miter;"/>
   </g>
   <g id="patch_117">
    <path clip-path="url(#pd128f60e6a)" d="M 366.709091 309.525875 
L 370.436769 320.708909 
L 366.895475 320.708909 
L 366.895475 554.474125 
L 366.522707 554.474125 
L 366.522707 320.708909 
L 362.981413 320.708909 
z
" style="fill:#ceff29;stroke:#ceff29;stroke-linejoin:miter;"/>
   </g>
   <g id="patch_118">
    <path clip-path="url(#pd128f60e6a)" d="M 146.507023 436.659598 
L 158.055654 439.022851 
L 156.285007 442.089701 
L 358.731623 558.97231 
L 358.545239 559.295136 
L 156.098623 442.412528 
L 154.327976 445.479378 
z
" style="fill:#0000a4;stroke:#0000a4;stroke-linejoin:miter;"/>
   </g>
   <g id="patch_119">
    <path clip-path="url(#pd128f60e6a)" d="M 510.820249 295.547082 
L 499.271619 293.183829 
L 501.042266 290.116978 
L 298.59565 173.23437 
L 298.782033 172.911543 
L 501.22865 289.794152 
L 502.999297 286.727301 
z
" style="fill:#0000a4;stroke:#0000a4;stroke-linejoin:miter;"/>
   </g>
   <g id="patch_120">
    <path clip-path="url(#pd128f60e6a)" d="M 585.662623 168.413359 
L 574.479589 172.141037 
L 574.479589 168.599743 
L 299.937377 168.599743 
L 299.937377 168.226975 
L 574.479589 168.226975 
L 574.479589 164.685681 
z
" style="fill:#0000cd;stroke:#0000cd;stroke-linejoin:miter;"/>
   </g>
   <g id="patch_121">
    <path clip-path="url(#pd128f60e6a)" d="M 438.140402 423.92934 
L 429.320622 416.108388 
L 432.387472 414.337741 
L 295.116366 176.577211 
L 295.439193 176.390827 
L 432.710299 414.151357 
L 435.777149 412.38071 
z
" style="fill:#60ff97;stroke:#60ff97;stroke-linejoin:miter;"/>
   </g>
   <g id="patch_122">
    <path clip-path="url(#pd128f60e6a)" d="M 290.618182 422.680805 
L 286.890504 411.497771 
L 290.431798 411.497771 
L 290.431798 177.732554 
L 290.804566 177.732554 
L 290.804566 411.497771 
L 294.34586 411.497771 
z
" style="fill:#ceff29;stroke:#ceff29;stroke-linejoin:miter;"/>
   </g>
   <g id="patch_123">
    <path clip-path="url(#pd128f60e6a)" d="M 510.820249 295.547082 
L 499.271619 293.183829 
L 501.042266 290.116978 
L 298.59565 173.23437 
L 298.782033 172.911543 
L 501.22865 289.794152 
L 502.999297 286.727301 
z
" style="fill:#ff6800;stroke:#ff6800;stroke-linejoin:miter;"/>
   </g>
   <g id="patch_124">
    <path clip-path="url(#pd128f60e6a)" d="M 362.049493 292.13602 
L 353.229712 284.315067 
L 356.296563 282.54442 
L 295.116366 176.577211 
L 295.439193 176.390827 
L 356.61939 282.358036 
L 359.68624 280.587389 
z
" style="fill:#ff2900;stroke:#ff2900;stroke-linejoin:miter;"/>
   </g>
   <g id="patch_125">
    <path clip-path="url(#pd128f60e6a)" d="M 362.049493 292.13602 
L 353.229712 284.315067 
L 356.296563 282.54442 
L 295.116366 176.577211 
L 295.439193 176.390827 
L 356.61939 282.358036 
L 359.68624 280.587389 
z
" style="fill:#0008ff;stroke:#0008ff;stroke-linejoin:miter;"/>
   </g>
   <g id="patch_126">
    <path clip-path="url(#pd128f60e6a)" d="M 290.618182 422.680805 
L 286.890504 411.497771 
L 290.431798 411.497771 
L 290.431798 177.732554 
L 290.804566 177.732554 
L 290.804566 411.497771 
L 294.34586 411.497771 
z
" style="fill:#97ff60;stroke:#97ff60;stroke-linejoin:miter;"/>
   </g>
   <g id="patch_127">
    <path clip-path="url(#pd128f60e6a)" d="M 143.095961 423.92934 
L 145.459214 412.38071 
L 148.526065 414.151357 
L 285.797171 176.390827 
L 286.119997 176.577211 
L 148.848891 414.337741 
L 151.915742 416.108388 
z
" style="fill:#0090ff;stroke:#0090ff;stroke-linejoin:miter;"/>
   </g>
   <g id="patch_128">
    <path clip-path="url(#pd128f60e6a)" d="M 585.662623 432 
L 574.479589 435.727678 
L 574.479589 432.186384 
L 452.119195 432.186384 
L 452.119195 431.813616 
L 574.479589 431.813616 
L 574.479589 428.272322 
z
" style="fill:#0028ff;stroke:#0028ff;stroke-linejoin:miter;"/>
   </g>
   <g id="patch_129">
    <path clip-path="url(#pd128f60e6a)" d="M 590.322221 176.484019 
L 587.958967 188.032649 
L 584.892117 186.262002 
L 447.621011 424.022532 
L 447.298184 423.836148 
L 584.56929 186.075618 
L 581.50244 184.304971 
z
" style="fill:#0090ff;stroke:#0090ff;stroke-linejoin:miter;"/>
   </g>
   <g id="patch_130">
    <path clip-path="url(#pd128f60e6a)" d="M 590.322221 687.515981 
L 581.50244 679.695029 
L 584.56929 677.924382 
L 447.298184 440.163852 
L 447.621011 439.977468 
L 584.892117 677.737998 
L 587.958967 675.967351 
z
" style="fill:#60ff97;stroke:#60ff97;stroke-linejoin:miter;"/>
   </g>
   <g id="patch_131">
    <path clip-path="url(#pd128f60e6a)" d="M 585.662623 432 
L 574.479589 435.727678 
L 574.479589 432.186384 
L 452.119195 432.186384 
L 452.119195 431.813616 
L 574.479589 431.813616 
L 574.479589 428.272322 
z
" style="fill:#ff4700;stroke:#ff4700;stroke-linejoin:miter;"/>
   </g>
   <g id="patch_132">
    <path clip-path="url(#pd128f60e6a)" d="M 371.368688 308.277339 
L 380.188469 316.098292 
L 377.121619 317.868939 
L 438.301816 423.836148 
L 437.978989 424.022532 
L 376.798792 318.055323 
L 373.731942 319.82597 
z
" style="fill:#0008ff;stroke:#0008ff;stroke-linejoin:miter;"/>
   </g>
   <g id="patch_133">
    <path clip-path="url(#pd128f60e6a)" d="M 371.368688 555.722661 
L 373.731942 544.17403 
L 376.798792 545.944677 
L 437.978989 439.977468 
L 438.301816 440.163852 
L 377.121619 546.131061 
L 380.188469 547.901708 
z
" style="fill:#0000f1;stroke:#0000f1;stroke-linejoin:miter;"/>
   </g>
   <g id="patch_134">
    <path clip-path="url(#pd128f60e6a)" d="M 371.368688 308.277339 
L 380.188469 316.098292 
L 377.121619 317.868939 
L 438.301816 423.836148 
L 437.978989 424.022532 
L 376.798792 318.055323 
L 373.731942 319.82597 
z
" style="fill:#ff2900;stroke:#ff2900;stroke-linejoin:miter;"/>
   </g>
   <g id="patch_135">
    <path clip-path="url(#pd128f60e6a)" d="M 371.368688 555.722661 
L 373.731942 544.17403 
L 376.798792 545.944677 
L 437.978989 439.977468 
L 438.301816 440.163852 
L 377.121619 546.131061 
L 380.188469 547.901708 
z
" style="fill:#ebff0c;stroke:#ebff0c;stroke-linejoin:miter;"/>
   </g>
   <g id="patch_136">
    <path clip-path="url(#pd128f60e6a)" d="M 147.755559 432 
L 158.938593 428.272322 
L 158.938593 431.813616 
L 433.480805 431.813616 
L 433.480805 432.186384 
L 158.938593 432.186384 
L 158.938593 435.727678 
z
" style="fill:#0000cd;stroke:#0000cd;stroke-linejoin:miter;"/>
   </g>
   <g id="patch_137">
    <path clip-path="url(#pd128f60e6a)" d="M 510.820249 568.452918 
L 502.999297 577.272699 
L 501.22865 574.205848 
L 298.782033 691.088457 
L 298.59565 690.76563 
L 501.042266 573.883022 
L 499.271619 570.816171 
z
" style="fill:#43ffb4;stroke:#43ffb4;stroke-linejoin:miter;"/>
   </g>
   <g id="patch_138">
    <path clip-path="url(#pd128f60e6a)" d="M 438.140402 440.07066 
L 435.777149 451.61929 
L 432.710299 449.848643 
L 295.439193 687.609173 
L 295.116366 687.422789 
L 432.387472 449.662259 
L 429.320622 447.891612 
z
" style="fill:#0090ff;stroke:#0090ff;stroke-linejoin:miter;"/>
   </g>
   <g id="patch_139">
    <path clip-path="url(#pd128f60e6a)" d="M 585.662623 695.586641 
L 574.479589 699.314319 
L 574.479589 695.773025 
L 299.937377 695.773025 
L 299.937377 695.400257 
L 574.479589 695.400257 
L 574.479589 691.858963 
z
" style="fill:#0000cd;stroke:#0000cd;stroke-linejoin:miter;"/>
   </g>
   <g id="patch_140">
    <path clip-path="url(#pd128f60e6a)" d="M 290.618182 441.319195 
L 294.34586 452.502229 
L 290.804566 452.502229 
L 290.804566 686.267446 
L 290.431798 686.267446 
L 290.431798 452.502229 
L 286.890504 452.502229 
z
" style="fill:#97ff60;stroke:#97ff60;stroke-linejoin:miter;"/>
   </g>
   <g id="patch_141">
    <path clip-path="url(#pd128f60e6a)" d="M 510.820249 568.452918 
L 502.999297 577.272699 
L 501.22865 574.205848 
L 298.782033 691.088457 
L 298.59565 690.76563 
L 501.042266 573.883022 
L 499.271619 570.816171 
z
" style="fill:#f10800;stroke:#f10800;stroke-linejoin:miter;"/>
   </g>
   <g id="patch_142">
    <path clip-path="url(#pd128f60e6a)" d="M 362.049493 571.86398 
L 359.68624 583.412611 
L 356.61939 581.641964 
L 295.439193 687.609173 
L 295.116366 687.422789 
L 356.296563 581.45558 
L 353.229712 579.684933 
z
" style="fill:#ebff0c;stroke:#ebff0c;stroke-linejoin:miter;"/>
   </g>
   <g id="patch_143">
    <path clip-path="url(#pd128f60e6a)" d="M 362.049493 571.86398 
L 359.68624 583.412611 
L 356.61939 581.641964 
L 295.439193 687.609173 
L 295.116366 687.422789 
L 356.296563 581.45558 
L 353.229712 579.684933 
z
" style="fill:#0000f1;stroke:#0000f1;stroke-linejoin:miter;"/>
   </g>
   <g id="patch_144">
    <path clip-path="url(#pd128f60e6a)" d="M 290.618182 441.319195 
L 294.34586 452.502229 
L 290.804566 452.502229 
L 290.804566 686.267446 
L 290.431798 686.267446 
L 290.431798 452.502229 
L 286.890504 452.502229 
z
" style="fill:#ceff29;stroke:#ceff29;stroke-linejoin:miter;"/>
   </g>
   <g id="patch_145">
    <path clip-path="url(#pd128f60e6a)" d="M 143.095961 440.07066 
L 151.915742 447.891612 
L 148.848891 449.662259 
L 286.119997 687.422789 
L 285.797171 687.609173 
L 148.526065 449.848643 
L 145.459214 451.61929 
z
" style="fill:#60ff97;stroke:#60ff97;stroke-linejoin:miter;"/>
   </g>
   <g id="patch_146">
    <path clip-path="url(#pd128f60e6a)" d="M 509.571714 300.206679 
L 498.38868 303.934357 
L 498.38868 300.393063 
L 376.028286 300.393063 
L 376.028286 300.020296 
L 498.38868 300.020296 
L 498.38868 296.479001 
z
" style="fill:#0028ff;stroke:#0028ff;stroke-linejoin:miter;"/>
   </g>
   <g id="patch_147">
    <path clip-path="url(#pd128f60e6a)" d="M 586.911159 173.072956 
L 579.090206 181.892737 
L 577.319559 178.825887 
L 374.872943 295.708495 
L 374.686559 295.385669 
L 577.133175 178.50306 
L 575.362528 175.43621 
z
" style="fill:#43ffb4;stroke:#43ffb4;stroke-linejoin:miter;"/>
   </g>
   <g id="patch_148">
    <path clip-path="url(#pd128f60e6a)" d="M 514.231312 555.722661 
L 505.411531 547.901708 
L 508.478381 546.131061 
L 371.207275 308.370531 
L 371.530102 308.184147 
L 508.801208 545.944677 
L 511.868058 544.17403 
z
" style="fill:#60ff97;stroke:#60ff97;stroke-linejoin:miter;"/>
   </g>
   <g id="patch_149">
    <path clip-path="url(#pd128f60e6a)" d="M 586.911159 427.340402 
L 575.362528 424.977149 
L 577.133175 421.910299 
L 374.686559 305.02769 
L 374.872943 304.704864 
L 577.319559 421.587472 
L 579.090206 418.520622 
z
" style="fill:#ff6800;stroke:#ff6800;stroke-linejoin:miter;"/>
   </g>
   <g id="patch_150">
    <path clip-path="url(#pd128f60e6a)" d="M 366.709091 554.474125 
L 362.981413 543.291091 
L 366.522707 543.291091 
L 366.522707 309.525875 
L 366.895475 309.525875 
L 366.895475 543.291091 
L 370.436769 543.291091 
z
" style="fill:#ceff29;stroke:#ceff29;stroke-linejoin:miter;"/>
   </g>
   <g id="patch_151">
    <path clip-path="url(#pd128f60e6a)" d="M 295.277779 176.484019 
L 304.09756 184.304971 
L 301.03071 186.075618 
L 362.210907 292.042828 
L 361.88808 292.229212 
L 300.707883 186.262002 
L 297.641033 188.032649 
z
" style="fill:#0008ff;stroke:#0008ff;stroke-linejoin:miter;"/>
   </g>
   <g id="patch_152">
    <path clip-path="url(#pd128f60e6a)" d="M 438.140402 423.92934 
L 429.320622 416.108388 
L 432.387472 414.337741 
L 371.207275 308.370531 
L 371.530102 308.184147 
L 432.710299 414.151357 
L 435.777149 412.38071 
z
" style="fill:#ff2900;stroke:#ff2900;stroke-linejoin:miter;"/>
   </g>
   <g id="patch_153">
    <path clip-path="url(#pd128f60e6a)" d="M 295.277779 423.92934 
L 297.641033 412.38071 
L 300.707883 414.151357 
L 361.88808 308.184147 
L 362.210907 308.370531 
L 301.03071 414.337741 
L 304.09756 416.108388 
z
" style="fill:#ebff0c;stroke:#ebff0c;stroke-linejoin:miter;"/>
   </g>
   <g id="patch_154">
    <path clip-path="url(#pd128f60e6a)" d="M 146.507023 427.340402 
L 154.327976 418.520622 
L 156.098623 421.587472 
L 358.545239 304.704864 
L 358.731623 305.02769 
L 156.285007 421.910299 
L 158.055654 424.977149 
z
" style="fill:#f10800;stroke:#f10800;stroke-linejoin:miter;"/>
   </g>
   <g id="patch_155">
    <path clip-path="url(#pd128f60e6a)" d="M 509.571714 563.793321 
L 498.38868 567.520999 
L 498.38868 563.979704 
L 376.028286 563.979704 
L 376.028286 563.606937 
L 498.38868 563.606937 
L 498.38868 560.065643 
z
" style="fill:#0028ff;stroke:#0028ff;stroke-linejoin:miter;"/>
   </g>
   <g id="patch_156">
    <path clip-path="url(#pd128f60e6a)" d="M 586.911159 690.927044 
L 575.362528 688.56379 
L 577.133175 685.49694 
L 374.686559 568.614331 
L 374.872943 568.291505 
L 577.319559 685.174113 
L 579.090206 682.107263 
z
" style="fill:#0000a4;stroke:#0000a4;stroke-linejoin:miter;"/>
   </g>
   <g id="patch_157">
    <path clip-path="url(#pd128f60e6a)" d="M 514.231312 308.277339 
L 511.868058 319.82597 
L 508.801208 318.055323 
L 371.530102 555.815853 
L 371.207275 555.629469 
L 508.478381 317.868939 
L 505.411531 316.098292 
z
" style="fill:#0090ff;stroke:#0090ff;stroke-linejoin:miter;"/>
   </g>
   <g id="patch_158">
    <path clip-path="url(#pd128f60e6a)" d="M 586.911159 436.659598 
L 579.090206 445.479378 
L 577.319559 442.412528 
L 374.872943 559.295136 
L 374.686559 558.97231 
L 577.133175 442.089701 
L 575.362528 439.022851 
z
" style="fill:#f10800;stroke:#f10800;stroke-linejoin:miter;"/>
   </g>
   <g id="patch_159">
    <path clip-path="url(#pd128f60e6a)" d="M 366.709091 309.525875 
L 370.436769 320.708909 
L 366.895475 320.708909 
L 366.895475 554.474125 
L 366.522707 554.474125 
L 366.522707 320.708909 
L 362.981413 320.708909 
z
" style="fill:#97ff60;stroke:#97ff60;stroke-linejoin:miter;"/>
   </g>
   <g id="patch_160">
    <path clip-path="url(#pd128f60e6a)" d="M 438.140402 440.07066 
L 435.777149 451.61929 
L 432.710299 449.848643 
L 371.530102 555.815853 
L 371.207275 555.629469 
L 432.387472 449.662259 
L 429.320622 447.891612 
z
" style="fill:#ebff0c;stroke:#ebff0c;stroke-linejoin:miter;"/>
   </g>
   <g id="patch_161">
    <path clip-path="url(#pd128f60e6a)" d="M 295.277779 687.515981 
L 297.641033 675.967351 
L 300.707883 677.737998 
L 361.88808 571.770788 
L 362.210907 571.957172 
L 301.03071 677.924382 
L 304.09756 679.695029 
z
" style="fill:#0000f1;stroke:#0000f1;stroke-linejoin:miter;"/>
   </g>
   <g id="patch_162">
    <path clip-path="url(#pd128f60e6a)" d="M 295.277779 440.07066 
L 304.09756 447.891612 
L 301.03071 449.662259 
L 362.210907 555.629469 
L 361.88808 555.815853 
L 300.707883 449.848643 
L 297.641033 451.61929 
z
" style="fill:#ff2900;stroke:#ff2900;stroke-linejoin:miter;"/>
   </g>
   <g id="patch_163">
    <path clip-path="url(#pd128f60e6a)" d="M 146.507023 436.659598 
L 158.055654 439.022851 
L 156.285007 442.089701 
L 358.731623 558.97231 
L 358.545239 559.295136 
L 156.098623 442.412528 
L 154.327976 445.479378 
z
" style="fill:#ff6800;stroke:#ff6800;stroke-linejoin:miter;"/>
   </g>
   <g id="patch_164">
    <path clip-path="url(#pd128f60e6a)" d="M 433.480805 432 
L 422.297771 435.727678 
L 422.297771 432.186384 
L 299.937377 432.186384 
L 299.937377 431.813616 
L 422.297771 431.813616 
L 422.297771 428.272322 
z
" style="fill:#0028ff;stroke:#0028ff;stroke-linejoin:miter;"/>
   </g>
   <g id="patch_165">
    <path clip-path="url(#pd128f60e6a)" d="M 510.820249 559.133723 
L 499.271619 556.77047 
L 501.042266 553.703619 
L 298.59565 436.821011 
L 298.782033 436.498184 
L 501.22865 553.380793 
L 502.999297 550.313942 
z
" style="fill:#0000a4;stroke:#0000a4;stroke-linejoin:miter;"/>
   </g>
   <g id="patch_166">
    <path clip-path="url(#pd128f60e6a)" d="M 510.820249 304.866277 
L 502.999297 313.686058 
L 501.22865 310.619207 
L 298.782033 427.501816 
L 298.59565 427.178989 
L 501.042266 310.296381 
L 499.271619 307.22953 
z
" style="fill:#43ffb4;stroke:#43ffb4;stroke-linejoin:miter;"/>
   </g>
   <g id="patch_167">
    <path clip-path="url(#pd128f60e6a)" d="M 585.662623 432 
L 574.479589 435.727678 
L 574.479589 432.186384 
L 299.937377 432.186384 
L 299.937377 431.813616 
L 574.479589 431.813616 
L 574.479589 428.272322 
z
" style="fill:#0000cd;stroke:#0000cd;stroke-linejoin:miter;"/>
   </g>
   <g id="patch_168">
    <path clip-path="url(#pd128f60e6a)" d="M 290.618182 177.732554 
L 294.34586 188.915588 
L 290.804566 188.915588 
L 290.804566 422.680805 
L 290.431798 422.680805 
L 290.431798 188.915588 
L 286.890504 188.915588 
z
" style="fill:#97ff60;stroke:#97ff60;stroke-linejoin:miter;"/>
   </g>
   <g id="patch_169">
    <path clip-path="url(#pd128f60e6a)" d="M 290.618182 686.267446 
L 286.890504 675.084412 
L 290.431798 675.084412 
L 290.431798 441.319195 
L 290.804566 441.319195 
L 290.804566 675.084412 
L 294.34586 675.084412 
z
" style="fill:#ceff29;stroke:#ceff29;stroke-linejoin:miter;"/>
   </g>
   <g id="patch_170">
    <path clip-path="url(#pd128f60e6a)" d="M 362.049493 308.277339 
L 359.68624 319.82597 
L 356.61939 318.055323 
L 295.439193 424.022532 
L 295.116366 423.836148 
L 356.296563 317.868939 
L 353.229712 316.098292 
z
" style="fill:#ebff0c;stroke:#ebff0c;stroke-linejoin:miter;"/>
   </g>
   <g id="patch_171">
    <path clip-path="url(#pd128f60e6a)" d="M 362.049493 555.722661 
L 353.229712 547.901708 
L 356.296563 546.131061 
L 295.116366 440.163852 
L 295.439193 439.977468 
L 356.61939 545.944677 
L 359.68624 544.17403 
z
" style="fill:#ff2900;stroke:#ff2900;stroke-linejoin:miter;"/>
   </g>
   <g id="patch_172">
    <path clip-path="url(#pd128f60e6a)" d="M 147.755559 432 
L 158.938593 428.272322 
L 158.938593 431.813616 
L 281.298987 431.813616 
L 281.298987 432.186384 
L 158.938593 432.186384 
L 158.938593 435.727678 
z
" style="fill:#ff4700;stroke:#ff4700;stroke-linejoin:miter;"/>
   </g>
   <g id="patch_173">
    <path clip-path="url(#pd128f60e6a)" d="M 281.298987 432 
L 270.115953 435.727678 
L 270.115953 432.186384 
L 147.755559 432.186384 
L 147.755559 431.813616 
L 270.115953 431.813616 
L 270.115953 428.272322 
z
" style="fill:#0028ff;stroke:#0028ff;stroke-linejoin:miter;"/>
   </g>
   <g id="patch_174">
    <path clip-path="url(#pd128f60e6a)" d="M 358.638431 304.866277 
L 350.817479 313.686058 
L 349.046832 310.619207 
L 146.600215 427.501816 
L 146.413831 427.178989 
L 348.860448 310.296381 
L 347.089801 307.22953 
z
" style="fill:#43ffb4;stroke:#43ffb4;stroke-linejoin:miter;"/>
   </g>
   <g id="patch_175">
    <path clip-path="url(#pd128f60e6a)" d="M 358.638431 559.133723 
L 347.089801 556.77047 
L 348.860448 553.703619 
L 146.413831 436.821011 
L 146.600215 436.498184 
L 349.046832 553.380793 
L 350.817479 550.313942 
z
" style="fill:#0000a4;stroke:#0000a4;stroke-linejoin:miter;"/>
   </g>
   <g id="patch_176">
    <path clip-path="url(#pd128f60e6a)" d="M 285.958584 176.484019 
L 283.595331 188.032649 
L 280.52848 186.262002 
L 143.257374 424.022532 
L 142.934548 423.836148 
L 280.205654 186.075618 
L 277.138803 184.304971 
z
" style="fill:#0090ff;stroke:#0090ff;stroke-linejoin:miter;"/>
   </g>
   <g id="patch_177">
    <path clip-path="url(#pd128f60e6a)" d="M 433.480805 432 
L 422.297771 435.727678 
L 422.297771 432.186384 
L 147.755559 432.186384 
L 147.755559 431.813616 
L 422.297771 431.813616 
L 422.297771 428.272322 
z
" style="fill:#0000cd;stroke:#0000cd;stroke-linejoin:miter;"/>
   </g>
   <g id="patch_178">
    <path clip-path="url(#pd128f60e6a)" d="M 285.958584 687.515981 
L 277.138803 679.695029 
L 280.205654 677.924382 
L 142.934548 440.163852 
L 143.257374 439.977468 
L 280.52848 677.737998 
L 283.595331 675.967351 
z
" style="fill:#60ff97;stroke:#60ff97;stroke-linejoin:miter;"/>
   </g>
   <g id="patch_179">
    <path clip-path="url(#pd128f60e6a)" d="M 358.638431 304.866277 
L 350.817479 313.686058 
L 349.046832 310.619207 
L 146.600215 427.501816 
L 146.413831 427.178989 
L 348.860448 310.296381 
L 347.089801 307.22953 
z
" style="fill:#f10800;stroke:#f10800;stroke-linejoin:miter;"/>
   </g>
   <g id="patch_180">
    <path clip-path="url(#pd128f60e6a)" d="M 358.638431 559.133723 
L 347.089801 556.77047 
L 348.860448 553.703619 
L 146.413831 436.821011 
L 146.600215 436.498184 
L 349.046832 553.380793 
L 350.817479 550.313942 
z
" style="fill:#ff6800;stroke:#ff6800;stroke-linejoin:miter;"/>
   </g>
   <g id="patch_181">
    <path clip-path="url(#pd128f60e6a)" d="M 281.298987 432 
L 270.115953 435.727678 
L 270.115953 432.186384 
L 147.755559 432.186384 
L 147.755559 431.813616 
L 270.115953 431.813616 
L 270.115953 428.272322 
z
" style="fill:#ff4700;stroke:#ff4700;stroke-linejoin:miter;"/>
   </g>
   <g id="line2d_1">
    <defs>
     <path d="M 0 12.5 
C 3.315039 12.5 6.494748 11.182921 8.838835 8.838835 
C 11.182921 6.494748 12.5 3.315039 12.5 0 
C 12.5 -3.315039 11.182921 -6.494748 8.838835 -8.838835 
C 6.494748 -11.182921 3.315039 -12.5 0 -12.5 
C -3.315039 -12.5 -6.494748 -11.182921 -8.838835 -8.838835 
C -11.182921 -6.494748 -12.5 -3.315039 -12.5 0 
C -12.5 3.315039 -11.182921 6.494748 -8.838835 8.838835 
C -6.494748 11.182921 -3.315039 12.5 0 12.5 
z
" id="m03317e0d8b" style="stroke:#000000;stroke-width:1.5;"/>
    </defs>
    <g clip-path="url(#pd128f60e6a)">
     <use style="fill:#ffffff;stroke:#000000;stroke-width:1.5;" x="747.163636364" xlink:href="#m03317e0d8b" y="432.0"/>
    </g>
   </g>
   <g id="line2d_2">
    <g clip-path="url(#pd128f60e6a)">
     <use style="fill:#ffffff;stroke:#000000;stroke-width:1.5;" x="594.981818182" xlink:href="#m03317e0d8b" y="432.0"/>
    </g>
   </g>
   <g id="line2d_3">
    <g clip-path="url(#pd128f60e6a)">
     <use style="fill:#ffffff;stroke:#000000;stroke-width:1.5;" x="518.890909091" xlink:href="#m03317e0d8b" y="563.79332054"/>
    </g>
   </g>
   <g id="line2d_4">
    <g clip-path="url(#pd128f60e6a)">
     <use style="fill:#ffffff;stroke:#000000;stroke-width:1.5;" x="518.890909091" xlink:href="#m03317e0d8b" y="300.20667946"/>
    </g>
   </g>
   <g id="line2d_5">
    <g clip-path="url(#pd128f60e6a)">
     <use style="fill:#ffffff;stroke:#000000;stroke-width:1.5;" x="594.981818182" xlink:href="#m03317e0d8b" y="168.413358921"/>
    </g>
   </g>
   <g id="line2d_6">
    <g clip-path="url(#pd128f60e6a)">
     <use style="fill:#ffffff;stroke:#000000;stroke-width:1.5;" x="442.8" xlink:href="#m03317e0d8b" y="432.0"/>
    </g>
   </g>
   <g id="line2d_7">
    <g clip-path="url(#pd128f60e6a)">
     <use style="fill:#ffffff;stroke:#000000;stroke-width:1.5;" x="594.981818182" xlink:href="#m03317e0d8b" y="695.586641079"/>
    </g>
   </g>
   <g id="line2d_8">
    <g clip-path="url(#pd128f60e6a)">
     <use style="fill:#ffffff;stroke:#000000;stroke-width:1.5;" x="290.618181818" xlink:href="#m03317e0d8b" y="432.0"/>
    </g>
   </g>
   <g id="line2d_9">
    <g clip-path="url(#pd128f60e6a)">
     <use style="fill:#ffffff;stroke:#000000;stroke-width:1.5;" x="366.709090909" xlink:href="#m03317e0d8b" y="300.20667946"/>
    </g>
   </g>
   <g id="line2d_10">
    <g clip-path="url(#pd128f60e6a)">
     <use style="fill:#ffffff;stroke:#000000;stroke-width:1.5;" x="366.709090909" xlink:href="#m03317e0d8b" y="563.79332054"/>
    </g>
   </g>
   <g id="line2d_11">
    <g clip-path="url(#pd128f60e6a)">
     <use style="fill:#ffffff;stroke:#000000;stroke-width:1.5;" x="290.618181818" xlink:href="#m03317e0d8b" y="168.413358921"/>
    </g>
   </g>
   <g id="line2d_12">
    <g clip-path="url(#pd128f60e6a)">
     <use style="fill:#ffffff;stroke:#000000;stroke-width:1.5;" x="290.618181818" xlink:href="#m03317e0d8b" y="695.586641079"/>
    </g>
   </g>
   <g id="line2d_13">
    <g clip-path="url(#pd128f60e6a)">
     <use style="fill:#ffffff;stroke:#000000;stroke-width:1.5;" x="138.436363636" xlink:href="#m03317e0d8b" y="432.0"/>
    </g>
   </g>
   <g id="text_1">
    <!-- 1 -->
    <defs>
     <path d="M 12.40625 8.296875 
L 28.515625 8.296875 
L 28.515625 63.921875 
L 10.984375 60.40625 
L 10.984375 69.390625 
L 28.421875 72.90625 
L 38.28125 72.90625 
L 38.28125 8.296875 
L 54.390625 8.296875 
L 54.390625 0 
L 12.40625 0 
z
" id="BitstreamVeraSans-Roman-31"/>
    </defs>
    <g transform="translate(744.300511364 434.4834375)scale(0.09 -0.09)">
     <use xlink:href="#BitstreamVeraSans-Roman-31"/>
    </g>
   </g>
   <g id="text_2">
    <!-- 2,11 -->
    <defs>
     <path d="M 19.1875 8.296875 
L 53.609375 8.296875 
L 53.609375 0 
L 7.328125 0 
L 7.328125 8.296875 
Q 12.9375 14.109375 22.625 23.890625 
Q 32.328125 33.6875 34.8125 36.53125 
Q 39.546875 41.84375 41.421875 45.53125 
Q 43.3125 49.21875 43.3125 52.78125 
Q 43.3125 58.59375 39.234375 62.25 
Q 35.15625 65.921875 28.609375 65.921875 
Q 23.96875 65.921875 18.8125 64.3125 
Q 13.671875 62.703125 7.8125 59.421875 
L 7.8125 69.390625 
Q 13.765625 71.78125 18.9375 73 
Q 24.125 74.21875 28.421875 74.21875 
Q 39.75 74.21875 46.484375 68.546875 
Q 53.21875 62.890625 53.21875 53.421875 
Q 53.21875 48.921875 51.53125 44.890625 
Q 49.859375 40.875 45.40625 35.40625 
Q 44.1875 33.984375 37.640625 27.21875 
Q 31.109375 20.453125 19.1875 8.296875 
" id="BitstreamVeraSans-Roman-32"/>
     <path d="M 11.71875 12.40625 
L 22.015625 12.40625 
L 22.015625 4 
L 14.015625 -11.625 
L 7.71875 -11.625 
L 11.71875 4 
z
" id="BitstreamVeraSans-Roman-2c"/>
    </defs>
    <g transform="translate(589.972052557 433.24171875)scale(0.045 -0.045)">
     <use xlink:href="#BitstreamVeraSans-Roman-32"/>
     <use x="63.623046875" xlink:href="#BitstreamVeraSans-Roman-2c"/>
     <use x="95.41015625" xlink:href="#BitstreamVeraSans-Roman-31"/>
     <use x="159.033203125" xlink:href="#BitstreamVeraSans-Roman-31"/>
    </g>
   </g>
   <g id="text_3">
    <!-- 3,9 -->
    <defs>
     <path d="M 40.578125 39.3125 
Q 47.65625 37.796875 51.625 33 
Q 55.609375 28.21875 55.609375 21.1875 
Q 55.609375 10.40625 48.1875 4.484375 
Q 40.765625 -1.421875 27.09375 -1.421875 
Q 22.515625 -1.421875 17.65625 -0.515625 
Q 12.796875 0.390625 7.625 2.203125 
L 7.625 11.71875 
Q 11.71875 9.328125 16.59375 8.109375 
Q 21.484375 6.890625 26.8125 6.890625 
Q 36.078125 6.890625 40.9375 10.546875 
Q 45.796875 14.203125 45.796875 21.1875 
Q 45.796875 27.640625 41.28125 31.265625 
Q 36.765625 34.90625 28.71875 34.90625 
L 20.21875 34.90625 
L 20.21875 43.015625 
L 29.109375 43.015625 
Q 36.375 43.015625 40.234375 45.921875 
Q 44.09375 48.828125 44.09375 54.296875 
Q 44.09375 59.90625 40.109375 62.90625 
Q 36.140625 65.921875 28.71875 65.921875 
Q 24.65625 65.921875 20.015625 65.03125 
Q 15.375 64.15625 9.8125 62.3125 
L 9.8125 71.09375 
Q 15.4375 72.65625 20.34375 73.4375 
Q 25.25 74.21875 29.59375 74.21875 
Q 40.828125 74.21875 47.359375 69.109375 
Q 53.90625 64.015625 53.90625 55.328125 
Q 53.90625 49.265625 50.4375 45.09375 
Q 46.96875 40.921875 40.578125 39.3125 
" id="BitstreamVeraSans-Roman-33"/>
     <path d="M 10.984375 1.515625 
L 10.984375 10.5 
Q 14.703125 8.734375 18.5 7.8125 
Q 22.3125 6.890625 25.984375 6.890625 
Q 35.75 6.890625 40.890625 13.453125 
Q 46.046875 20.015625 46.78125 33.40625 
Q 43.953125 29.203125 39.59375 26.953125 
Q 35.25 24.703125 29.984375 24.703125 
Q 19.046875 24.703125 12.671875 31.3125 
Q 6.296875 37.9375 6.296875 49.421875 
Q 6.296875 60.640625 12.9375 67.421875 
Q 19.578125 74.21875 30.609375 74.21875 
Q 43.265625 74.21875 49.921875 64.515625 
Q 56.59375 54.828125 56.59375 36.375 
Q 56.59375 19.140625 48.40625 8.859375 
Q 40.234375 -1.421875 26.421875 -1.421875 
Q 22.703125 -1.421875 18.890625 -0.6875 
Q 15.09375 0.046875 10.984375 1.515625 
M 30.609375 32.421875 
Q 37.25 32.421875 41.125 36.953125 
Q 45.015625 41.5 45.015625 49.421875 
Q 45.015625 57.28125 41.125 61.84375 
Q 37.25 66.40625 30.609375 66.40625 
Q 23.96875 66.40625 20.09375 61.84375 
Q 16.21875 57.28125 16.21875 49.421875 
Q 16.21875 41.5 20.09375 36.953125 
Q 23.96875 32.421875 30.609375 32.421875 
" id="BitstreamVeraSans-Roman-39"/>
    </defs>
    <g transform="translate(515.312705966 565.03503929)scale(0.045 -0.045)">
     <use xlink:href="#BitstreamVeraSans-Roman-33"/>
     <use x="63.623046875" xlink:href="#BitstreamVeraSans-Roman-2c"/>
     <use x="95.41015625" xlink:href="#BitstreamVeraSans-Roman-39"/>
    </g>
   </g>
   <g id="text_4">
    <!-- 4,10 -->
    <defs>
     <path d="M 31.78125 66.40625 
Q 24.171875 66.40625 20.328125 58.90625 
Q 16.5 51.421875 16.5 36.375 
Q 16.5 21.390625 20.328125 13.890625 
Q 24.171875 6.390625 31.78125 6.390625 
Q 39.453125 6.390625 43.28125 13.890625 
Q 47.125 21.390625 47.125 36.375 
Q 47.125 51.421875 43.28125 58.90625 
Q 39.453125 66.40625 31.78125 66.40625 
M 31.78125 74.21875 
Q 44.046875 74.21875 50.515625 64.515625 
Q 56.984375 54.828125 56.984375 36.375 
Q 56.984375 17.96875 50.515625 8.265625 
Q 44.046875 -1.421875 31.78125 -1.421875 
Q 19.53125 -1.421875 13.0625 8.265625 
Q 6.59375 17.96875 6.59375 36.375 
Q 6.59375 54.828125 13.0625 64.515625 
Q 19.53125 74.21875 31.78125 74.21875 
" id="BitstreamVeraSans-Roman-30"/>
     <path d="M 37.796875 64.3125 
L 12.890625 25.390625 
L 37.796875 25.390625 
z
M 35.203125 72.90625 
L 47.609375 72.90625 
L 47.609375 25.390625 
L 58.015625 25.390625 
L 58.015625 17.1875 
L 47.609375 17.1875 
L 47.609375 0 
L 37.796875 0 
L 37.796875 17.1875 
L 4.890625 17.1875 
L 4.890625 26.703125 
z
" id="BitstreamVeraSans-Roman-34"/>
    </defs>
    <g transform="translate(513.881143466 301.44839821)scale(0.045 -0.045)">
     <use xlink:href="#BitstreamVeraSans-Roman-34"/>
     <use x="63.623046875" xlink:href="#BitstreamVeraSans-Roman-2c"/>
     <use x="95.41015625" xlink:href="#BitstreamVeraSans-Roman-31"/>
     <use x="159.033203125" xlink:href="#BitstreamVeraSans-Roman-30"/>
    </g>
   </g>
   <g id="text_5">
    <!-- 5 -->
    <defs>
     <path d="M 10.796875 72.90625 
L 49.515625 72.90625 
L 49.515625 64.59375 
L 19.828125 64.59375 
L 19.828125 46.734375 
Q 21.96875 47.46875 24.109375 47.828125 
Q 26.265625 48.1875 28.421875 48.1875 
Q 40.625 48.1875 47.75 41.5 
Q 54.890625 34.8125 54.890625 23.390625 
Q 54.890625 11.625 47.5625 5.09375 
Q 40.234375 -1.421875 26.90625 -1.421875 
Q 22.3125 -1.421875 17.546875 -0.640625 
Q 12.796875 0.140625 7.71875 1.703125 
L 7.71875 11.625 
Q 12.109375 9.234375 16.796875 8.0625 
Q 21.484375 6.890625 26.703125 6.890625 
Q 35.15625 6.890625 40.078125 11.328125 
Q 45.015625 15.765625 45.015625 23.390625 
Q 45.015625 31 40.078125 35.4375 
Q 35.15625 39.890625 26.703125 39.890625 
Q 22.75 39.890625 18.8125 39.015625 
Q 14.890625 38.140625 10.796875 36.28125 
z
" id="BitstreamVeraSans-Roman-35"/>
    </defs>
    <g transform="translate(592.118693182 170.896796421)scale(0.09 -0.09)">
     <use xlink:href="#BitstreamVeraSans-Roman-35"/>
    </g>
   </g>
   <g id="text_6">
    <!-- 6,15 -->
    <defs>
     <path d="M 33.015625 40.375 
Q 26.375 40.375 22.484375 35.828125 
Q 18.609375 31.296875 18.609375 23.390625 
Q 18.609375 15.53125 22.484375 10.953125 
Q 26.375 6.390625 33.015625 6.390625 
Q 39.65625 6.390625 43.53125 10.953125 
Q 47.40625 15.53125 47.40625 23.390625 
Q 47.40625 31.296875 43.53125 35.828125 
Q 39.65625 40.375 33.015625 40.375 
M 52.59375 71.296875 
L 52.59375 62.3125 
Q 48.875 64.0625 45.09375 64.984375 
Q 41.3125 65.921875 37.59375 65.921875 
Q 27.828125 65.921875 22.671875 59.328125 
Q 17.53125 52.734375 16.796875 39.40625 
Q 19.671875 43.65625 24.015625 45.921875 
Q 28.375 48.1875 33.59375 48.1875 
Q 44.578125 48.1875 50.953125 41.515625 
Q 57.328125 34.859375 57.328125 23.390625 
Q 57.328125 12.15625 50.6875 5.359375 
Q 44.046875 -1.421875 33.015625 -1.421875 
Q 20.359375 -1.421875 13.671875 8.265625 
Q 6.984375 17.96875 6.984375 36.375 
Q 6.984375 53.65625 15.1875 63.9375 
Q 23.390625 74.21875 37.203125 74.21875 
Q 40.921875 74.21875 44.703125 73.484375 
Q 48.484375 72.75 52.59375 71.296875 
" id="BitstreamVeraSans-Roman-36"/>
    </defs>
    <g transform="translate(437.790234375 433.24171875)scale(0.045 -0.045)">
     <use xlink:href="#BitstreamVeraSans-Roman-36"/>
     <use x="63.623046875" xlink:href="#BitstreamVeraSans-Roman-2c"/>
     <use x="95.41015625" xlink:href="#BitstreamVeraSans-Roman-31"/>
     <use x="159.033203125" xlink:href="#BitstreamVeraSans-Roman-35"/>
    </g>
   </g>
   <g id="text_7">
    <!-- 7 -->
    <defs>
     <path d="M 8.203125 72.90625 
L 55.078125 72.90625 
L 55.078125 68.703125 
L 28.609375 0 
L 18.3125 0 
L 43.21875 64.59375 
L 8.203125 64.59375 
z
" id="BitstreamVeraSans-Roman-37"/>
    </defs>
    <g transform="translate(592.118693182 698.070078579)scale(0.09 -0.09)">
     <use xlink:href="#BitstreamVeraSans-Roman-37"/>
    </g>
   </g>
   <g id="text_8">
    <!-- 8,19 -->
    <defs>
     <path d="M 31.78125 34.625 
Q 24.75 34.625 20.71875 30.859375 
Q 16.703125 27.09375 16.703125 20.515625 
Q 16.703125 13.921875 20.71875 10.15625 
Q 24.75 6.390625 31.78125 6.390625 
Q 38.8125 6.390625 42.859375 10.171875 
Q 46.921875 13.96875 46.921875 20.515625 
Q 46.921875 27.09375 42.890625 30.859375 
Q 38.875 34.625 31.78125 34.625 
M 21.921875 38.8125 
Q 15.578125 40.375 12.03125 44.71875 
Q 8.5 49.078125 8.5 55.328125 
Q 8.5 64.0625 14.71875 69.140625 
Q 20.953125 74.21875 31.78125 74.21875 
Q 42.671875 74.21875 48.875 69.140625 
Q 55.078125 64.0625 55.078125 55.328125 
Q 55.078125 49.078125 51.53125 44.71875 
Q 48 40.375 41.703125 38.8125 
Q 48.828125 37.15625 52.796875 32.3125 
Q 56.78125 27.484375 56.78125 20.515625 
Q 56.78125 9.90625 50.3125 4.234375 
Q 43.84375 -1.421875 31.78125 -1.421875 
Q 19.734375 -1.421875 13.25 4.234375 
Q 6.78125 9.90625 6.78125 20.515625 
Q 6.78125 27.484375 10.78125 32.3125 
Q 14.796875 37.15625 21.921875 38.8125 
M 18.3125 54.390625 
Q 18.3125 48.734375 21.84375 45.5625 
Q 25.390625 42.390625 31.78125 42.390625 
Q 38.140625 42.390625 41.71875 45.5625 
Q 45.3125 48.734375 45.3125 54.390625 
Q 45.3125 60.0625 41.71875 63.234375 
Q 38.140625 66.40625 31.78125 66.40625 
Q 25.390625 66.40625 21.84375 63.234375 
Q 18.3125 60.0625 18.3125 54.390625 
" id="BitstreamVeraSans-Roman-38"/>
    </defs>
    <g transform="translate(285.608416193 433.24171875)scale(0.045 -0.045)">
     <use xlink:href="#BitstreamVeraSans-Roman-38"/>
     <use x="63.623046875" xlink:href="#BitstreamVeraSans-Roman-2c"/>
     <use x="95.41015625" xlink:href="#BitstreamVeraSans-Roman-31"/>
     <use x="159.033203125" xlink:href="#BitstreamVeraSans-Roman-39"/>
    </g>
   </g>
   <g id="text_9">
    <!-- 12,17 -->
    <g transform="translate(360.267762784 301.44839821)scale(0.045 -0.045)">
     <use xlink:href="#BitstreamVeraSans-Roman-31"/>
     <use x="63.623046875" xlink:href="#BitstreamVeraSans-Roman-32"/>
     <use x="127.24609375" xlink:href="#BitstreamVeraSans-Roman-2c"/>
     <use x="159.033203125" xlink:href="#BitstreamVeraSans-Roman-31"/>
     <use x="222.65625" xlink:href="#BitstreamVeraSans-Roman-37"/>
    </g>
   </g>
   <g id="text_10">
    <!-- 13,18 -->
    <g transform="translate(360.267762784 565.03503929)scale(0.045 -0.045)">
     <use xlink:href="#BitstreamVeraSans-Roman-31"/>
     <use x="63.623046875" xlink:href="#BitstreamVeraSans-Roman-33"/>
     <use x="127.24609375" xlink:href="#BitstreamVeraSans-Roman-2c"/>
     <use x="159.033203125" xlink:href="#BitstreamVeraSans-Roman-31"/>
     <use x="222.65625" xlink:href="#BitstreamVeraSans-Roman-38"/>
    </g>
   </g>
   <g id="text_11">
    <!-- 14 -->
    <g transform="translate(284.891931818 170.896796421)scale(0.09 -0.09)">
     <use xlink:href="#BitstreamVeraSans-Roman-31"/>
     <use x="63.623046875" xlink:href="#BitstreamVeraSans-Roman-34"/>
    </g>
   </g>
   <g id="text_12">
    <!-- 16 -->
    <g transform="translate(284.891931818 698.070078579)scale(0.09 -0.09)">
     <use xlink:href="#BitstreamVeraSans-Roman-31"/>
     <use x="63.623046875" xlink:href="#BitstreamVeraSans-Roman-36"/>
    </g>
   </g>
   <g id="text_13">
    <!-- 20 -->
    <g transform="translate(132.710113636 434.4834375)scale(0.09 -0.09)">
     <use xlink:href="#BitstreamVeraSans-Roman-32"/>
     <use x="63.623046875" xlink:href="#BitstreamVeraSans-Roman-30"/>
    </g>
   </g>
  </g>
 </g>
 <defs>
  <clipPath id="pd128f60e6a">
   <rect height="579.890610374" width="669.6" x="108.0" y="142.054694813"/>
  </clipPath>
 </defs>
</svg>
