<?xml version="1.0" encoding="utf-8" standalone="no"?>
<!DOCTYPE svg PUBLIC "-//W3C//DTD SVG 1.1//EN"
  "http://www.w3.org/Graphics/SVG/1.1/DTD/svg11.dtd">
<!-- Created with matplotlib (http://matplotlib.org/) -->
<svg height="432pt" version="1.1" viewBox="0 0 432 432" width="432pt" xmlns="http://www.w3.org/2000/svg" xmlns:xlink="http://www.w3.org/1999/xlink">
 <defs>
  <style type="text/css">
*{stroke-linecap:butt;stroke-linejoin:round;stroke-miterlimit:100000;}
  </style>
 </defs>
 <g id="figure_1">
  <g id="patch_1">
   <path d="M 0 432 
L 432 432 
L 432 0 
L 0 0 
z
" style="fill:#ffffff;"/>
  </g>
  <g id="axes_1">
   <g id="patch_2">
    <path clip-path="url(#p3c53c35f22)" d="M 229.009091 360.572727 
L 232.052727 354.485455 
L 233.498455 355.931182 
L 365.896636 223.533 
L 366.048818 223.685182 
L 233.650636 356.083364 
L 235.096364 357.529091 
z
" style="fill:#000080;stroke:#000080;stroke-linejoin:miter;"/>
   </g>
   <g id="patch_3">
    <path clip-path="url(#p3c53c35f22)" d="M 232.16088 216 
L 238.617407 213.847824 
L 238.617407 215.892391 
L 362.820939 215.892391 
L 362.820939 216.107609 
L 238.617407 216.107609 
L 238.617407 218.152176 
z
" style="fill:#00d4ff;stroke:#00d4ff;stroke-linejoin:miter;"/>
   </g>
   <g id="patch_4">
    <path clip-path="url(#p3c53c35f22)" d="M 232.16088 216 
L 238.617407 213.847824 
L 238.617407 215.892391 
L 362.820939 215.892391 
L 362.820939 216.107609 
L 238.617407 216.107609 
L 238.617407 218.152176 
z
" style="fill:#df0000;stroke:#df0000;stroke-linejoin:miter;"/>
   </g>
   <g id="patch_5">
    <path clip-path="url(#p3c53c35f22)" d="M 229.009091 71.427273 
L 235.096364 74.470909 
L 233.650636 75.916636 
L 366.048818 208.314818 
L 365.896636 208.467 
L 233.498455 76.068818 
L 232.052727 77.514545 
z
" style="fill:#0000df;stroke:#0000df;stroke-linejoin:miter;"/>
   </g>
   <g id="patch_6">
    <path clip-path="url(#p3c53c35f22)" d="M 365.972727 223.609091 
L 362.929091 229.696364 
L 361.483364 228.250636 
L 229.085182 360.648818 
L 228.933 360.496636 
L 361.331182 228.098455 
L 359.885455 226.652727 
z
" style="fill:#000080;stroke:#000080;stroke-linejoin:miter;"/>
   </g>
   <g id="patch_7">
    <path clip-path="url(#p3c53c35f22)" d="M 221.4 226.76088 
L 223.552176 233.217407 
L 221.507609 233.217407 
L 221.507609 357.420939 
L 221.292391 357.420939 
L 221.292391 233.217407 
L 219.247824 233.217407 
z
" style="fill:#ff9400;stroke:#ff9400;stroke-linejoin:miter;"/>
   </g>
   <g id="patch_8">
    <path clip-path="url(#p3c53c35f22)" d="M 221.4 226.76088 
L 223.552176 233.217407 
L 221.507609 233.217407 
L 221.507609 357.420939 
L 221.292391 357.420939 
L 221.292391 233.217407 
L 219.247824 233.217407 
z
" style="fill:#ffe600;stroke:#ffe600;stroke-linejoin:miter;"/>
   </g>
   <g id="patch_9">
    <path clip-path="url(#p3c53c35f22)" d="M 76.827273 223.609091 
L 82.914545 226.652727 
L 81.468818 228.098455 
L 213.867 360.496636 
L 213.714818 360.648818 
L 81.316636 228.250636 
L 79.870909 229.696364 
z
" style="fill:#0000df;stroke:#0000df;stroke-linejoin:miter;"/>
   </g>
   <g id="patch_10">
    <path clip-path="url(#p3c53c35f22)" d="M 362.820939 216 
L 356.364411 218.152176 
L 356.364411 216.107609 
L 232.16088 216.107609 
L 232.16088 215.892391 
L 356.364411 215.892391 
L 356.364411 213.847824 
z
" style="fill:#00d4ff;stroke:#00d4ff;stroke-linejoin:miter;"/>
   </g>
   <g id="patch_11">
    <path clip-path="url(#p3c53c35f22)" d="M 221.4 357.420939 
L 219.247824 350.964411 
L 221.292391 350.964411 
L 221.292391 226.76088 
L 221.507609 226.76088 
L 221.507609 350.964411 
L 223.552176 350.964411 
z
" style="fill:#ff9400;stroke:#ff9400;stroke-linejoin:miter;"/>
   </g>
   <g id="patch_12">
    <path clip-path="url(#p3c53c35f22)" d="M 221.4 74.579061 
L 223.552176 81.035589 
L 221.507609 81.035589 
L 221.507609 205.23912 
L 221.292391 205.23912 
L 221.292391 81.035589 
L 219.247824 81.035589 
z
" style="fill:#ffe600;stroke:#ffe600;stroke-linejoin:miter;"/>
   </g>
   <g id="patch_13">
    <path clip-path="url(#p3c53c35f22)" d="M 79.979061 216 
L 86.435589 213.847824 
L 86.435589 215.892391 
L 210.63912 215.892391 
L 210.63912 216.107609 
L 86.435589 216.107609 
L 86.435589 218.152176 
z
" style="fill:#df0000;stroke:#df0000;stroke-linejoin:miter;"/>
   </g>
   <g id="patch_14">
    <path clip-path="url(#p3c53c35f22)" d="M 362.820939 216 
L 356.364411 218.152176 
L 356.364411 216.107609 
L 232.16088 216.107609 
L 232.16088 215.892391 
L 356.364411 215.892391 
L 356.364411 213.847824 
z
" style="fill:#df0000;stroke:#df0000;stroke-linejoin:miter;"/>
   </g>
   <g id="patch_15">
    <path clip-path="url(#p3c53c35f22)" d="M 221.4 357.420939 
L 219.247824 350.964411 
L 221.292391 350.964411 
L 221.292391 226.76088 
L 221.507609 226.76088 
L 221.507609 350.964411 
L 223.552176 350.964411 
z
" style="fill:#ffe600;stroke:#ffe600;stroke-linejoin:miter;"/>
   </g>
   <g id="patch_16">
    <path clip-path="url(#p3c53c35f22)" d="M 221.4 74.579061 
L 223.552176 81.035589 
L 221.507609 81.035589 
L 221.507609 205.23912 
L 221.292391 205.23912 
L 221.292391 81.035589 
L 219.247824 81.035589 
z
" style="fill:#ff9400;stroke:#ff9400;stroke-linejoin:miter;"/>
   </g>
   <g id="patch_17">
    <path clip-path="url(#p3c53c35f22)" d="M 79.979061 216 
L 86.435589 213.847824 
L 86.435589 215.892391 
L 210.63912 215.892391 
L 210.63912 216.107609 
L 86.435589 216.107609 
L 86.435589 218.152176 
z
" style="fill:#00d4ff;stroke:#00d4ff;stroke-linejoin:miter;"/>
   </g>
   <g id="patch_18">
    <path clip-path="url(#p3c53c35f22)" d="M 365.972727 208.390909 
L 359.885455 205.347273 
L 361.331182 203.901545 
L 228.933 71.503364 
L 229.085182 71.351182 
L 361.483364 203.749364 
L 362.929091 202.303636 
z
" style="fill:#0000df;stroke:#0000df;stroke-linejoin:miter;"/>
   </g>
   <g id="patch_19">
    <path clip-path="url(#p3c53c35f22)" d="M 221.4 205.23912 
L 219.247824 198.782593 
L 221.292391 198.782593 
L 221.292391 74.579061 
L 221.507609 74.579061 
L 221.507609 198.782593 
L 223.552176 198.782593 
z
" style="fill:#ffe600;stroke:#ffe600;stroke-linejoin:miter;"/>
   </g>
   <g id="patch_20">
    <path clip-path="url(#p3c53c35f22)" d="M 221.4 205.23912 
L 219.247824 198.782593 
L 221.292391 198.782593 
L 221.292391 74.579061 
L 221.507609 74.579061 
L 221.507609 198.782593 
L 223.552176 198.782593 
z
" style="fill:#ff9400;stroke:#ff9400;stroke-linejoin:miter;"/>
   </g>
   <g id="patch_21">
    <path clip-path="url(#p3c53c35f22)" d="M 76.827273 208.390909 
L 79.870909 202.303636 
L 81.316636 203.749364 
L 213.714818 71.351182 
L 213.867 71.503364 
L 81.468818 203.901545 
L 82.914545 205.347273 
z
" style="fill:#000080;stroke:#000080;stroke-linejoin:miter;"/>
   </g>
   <g id="patch_22">
    <path clip-path="url(#p3c53c35f22)" d="M 213.790909 360.572727 
L 207.703636 357.529091 
L 209.149364 356.083364 
L 76.751182 223.685182 
L 76.903364 223.533 
L 209.301545 355.931182 
L 210.747273 354.485455 
z
" style="fill:#0000df;stroke:#0000df;stroke-linejoin:miter;"/>
   </g>
   <g id="patch_23">
    <path clip-path="url(#p3c53c35f22)" d="M 210.63912 216 
L 204.182593 218.152176 
L 204.182593 216.107609 
L 79.979061 216.107609 
L 79.979061 215.892391 
L 204.182593 215.892391 
L 204.182593 213.847824 
z
" style="fill:#df0000;stroke:#df0000;stroke-linejoin:miter;"/>
   </g>
   <g id="patch_24">
    <path clip-path="url(#p3c53c35f22)" d="M 210.63912 216 
L 204.182593 218.152176 
L 204.182593 216.107609 
L 79.979061 216.107609 
L 79.979061 215.892391 
L 204.182593 215.892391 
L 204.182593 213.847824 
z
" style="fill:#00d4ff;stroke:#00d4ff;stroke-linejoin:miter;"/>
   </g>
   <g id="patch_25">
    <path clip-path="url(#p3c53c35f22)" d="M 213.790909 71.427273 
L 210.747273 77.514545 
L 209.301545 76.068818 
L 76.903364 208.467 
L 76.751182 208.314818 
L 209.149364 75.916636 
L 207.703636 74.470909 
z
" style="fill:#000080;stroke:#000080;stroke-linejoin:miter;"/>
   </g>
   <g id="line2d_1">
    <defs>
     <path d="M 0 12.5 
C 3.315039 12.5 6.494748 11.182921 8.838835 8.838835 
C 11.182921 6.494748 12.5 3.315039 12.5 0 
C 12.5 -3.315039 11.182921 -6.494748 8.838835 -8.838835 
C 6.494748 -11.182921 3.315039 -12.5 0 -12.5 
C -3.315039 -12.5 -6.494748 -11.182921 -8.838835 -8.838835 
C -11.182921 -6.494748 -12.5 -3.315039 -12.5 0 
C -12.5 3.315039 -11.182921 6.494748 -8.838835 8.838835 
C -6.494748 11.182921 -3.315039 12.5 0 12.5 
z
" id="m81b65a1186" style="stroke:#000000;stroke-width:1.5;"/>
    </defs>
    <g clip-path="url(#p3c53c35f22)">
     <use style="fill:#ffffff;stroke:#000000;stroke-width:1.5;" x="373.581818182" xlink:href="#m81b65a1186" y="216.0"/>
    </g>
   </g>
   <g id="line2d_2">
    <g clip-path="url(#p3c53c35f22)">
     <use style="fill:#ffffff;stroke:#000000;stroke-width:1.5;" x="221.4" xlink:href="#m81b65a1186" y="368.181818182"/>
    </g>
   </g>
   <g id="line2d_3">
    <g clip-path="url(#p3c53c35f22)">
     <use style="fill:#ffffff;stroke:#000000;stroke-width:1.5;" x="221.4" xlink:href="#m81b65a1186" y="216.0"/>
    </g>
   </g>
   <g id="line2d_4">
    <g clip-path="url(#p3c53c35f22)">
     <use style="fill:#ffffff;stroke:#000000;stroke-width:1.5;" x="221.4" xlink:href="#m81b65a1186" y="63.8181818182"/>
    </g>
   </g>
   <g id="line2d_5">
    <g clip-path="url(#p3c53c35f22)">
     <use style="fill:#ffffff;stroke:#000000;stroke-width:1.5;" x="69.2181818182" xlink:href="#m81b65a1186" y="216.0"/>
    </g>
   </g>
   <g id="text_1">
    <!-- 1 -->
    <defs>
     <path d="M 12.40625 8.296875 
L 28.515625 8.296875 
L 28.515625 63.921875 
L 10.984375 60.40625 
L 10.984375 69.390625 
L 28.421875 72.90625 
L 38.28125 72.90625 
L 38.28125 8.296875 
L 54.390625 8.296875 
L 54.390625 0 
L 12.40625 0 
z
" id="BitstreamVeraSans-Roman-31"/>
    </defs>
    <g transform="translate(367.855568182 220.966875)scale(0.18 -0.18)">
     <use xlink:href="#BitstreamVeraSans-Roman-31"/>
    </g>
   </g>
   <g id="text_2">
    <!-- 2 -->
    <defs>
     <path d="M 19.1875 8.296875 
L 53.609375 8.296875 
L 53.609375 0 
L 7.328125 0 
L 7.328125 8.296875 
Q 12.9375 14.109375 22.625 23.890625 
Q 32.328125 33.6875 34.8125 36.53125 
Q 39.546875 41.84375 41.421875 45.53125 
Q 43.3125 49.21875 43.3125 52.78125 
Q 43.3125 58.59375 39.234375 62.25 
Q 35.15625 65.921875 28.609375 65.921875 
Q 23.96875 65.921875 18.8125 64.3125 
Q 13.671875 62.703125 7.8125 59.421875 
L 7.8125 69.390625 
Q 13.765625 71.78125 18.9375 73 
Q 24.125 74.21875 28.421875 74.21875 
Q 39.75 74.21875 46.484375 68.546875 
Q 53.21875 62.890625 53.21875 53.421875 
Q 53.21875 48.921875 51.53125 44.890625 
Q 49.859375 40.875 45.40625 35.40625 
Q 44.1875 33.984375 37.640625 27.21875 
Q 31.109375 20.453125 19.1875 8.296875 
" id="BitstreamVeraSans-Roman-32"/>
    </defs>
    <g transform="translate(215.67375 373.148693182)scale(0.18 -0.18)">
     <use xlink:href="#BitstreamVeraSans-Roman-32"/>
    </g>
   </g>
   <g id="text_3">
    <!-- 3,4 -->
    <defs>
     <path d="M 40.578125 39.3125 
Q 47.65625 37.796875 51.625 33 
Q 55.609375 28.21875 55.609375 21.1875 
Q 55.609375 10.40625 48.1875 4.484375 
Q 40.765625 -1.421875 27.09375 -1.421875 
Q 22.515625 -1.421875 17.65625 -0.515625 
Q 12.796875 0.390625 7.625 2.203125 
L 7.625 11.71875 
Q 11.71875 9.328125 16.59375 8.109375 
Q 21.484375 6.890625 26.8125 6.890625 
Q 36.078125 6.890625 40.9375 10.546875 
Q 45.796875 14.203125 45.796875 21.1875 
Q 45.796875 27.640625 41.28125 31.265625 
Q 36.765625 34.90625 28.71875 34.90625 
L 20.21875 34.90625 
L 20.21875 43.015625 
L 29.109375 43.015625 
Q 36.375 43.015625 40.234375 45.921875 
Q 44.09375 48.828125 44.09375 54.296875 
Q 44.09375 59.90625 40.109375 62.90625 
Q 36.140625 65.921875 28.71875 65.921875 
Q 24.65625 65.921875 20.015625 65.03125 
Q 15.375 64.15625 9.8125 62.3125 
L 9.8125 71.09375 
Q 15.4375 72.65625 20.34375 73.4375 
Q 25.25 74.21875 29.59375 74.21875 
Q 40.828125 74.21875 47.359375 69.109375 
Q 53.90625 64.015625 53.90625 55.328125 
Q 53.90625 49.265625 50.4375 45.09375 
Q 46.96875 40.921875 40.578125 39.3125 
" id="BitstreamVeraSans-Roman-33"/>
     <path d="M 11.71875 12.40625 
L 22.015625 12.40625 
L 22.015625 4 
L 14.015625 -11.625 
L 7.71875 -11.625 
L 11.71875 4 
z
" id="BitstreamVeraSans-Roman-2c"/>
     <path d="M 37.796875 64.3125 
L 12.890625 25.390625 
L 37.796875 25.390625 
z
M 35.203125 72.90625 
L 47.609375 72.90625 
L 47.609375 25.390625 
L 58.015625 25.390625 
L 58.015625 17.1875 
L 47.609375 17.1875 
L 47.609375 0 
L 37.796875 0 
L 37.796875 17.1875 
L 4.890625 17.1875 
L 4.890625 26.703125 
z
" id="BitstreamVeraSans-Roman-34"/>
    </defs>
    <g transform="translate(214.24359375 218.4834375)scale(0.09 -0.09)">
     <use xlink:href="#BitstreamVeraSans-Roman-33"/>
     <use x="63.623046875" xlink:href="#BitstreamVeraSans-Roman-2c"/>
     <use x="95.41015625" xlink:href="#BitstreamVeraSans-Roman-34"/>
    </g>
   </g>
   <g id="text_4">
    <!-- 5 -->
    <defs>
     <path d="M 10.796875 72.90625 
L 49.515625 72.90625 
L 49.515625 64.59375 
L 19.828125 64.59375 
L 19.828125 46.734375 
Q 21.96875 47.46875 24.109375 47.828125 
Q 26.265625 48.1875 28.421875 48.1875 
Q 40.625 48.1875 47.75 41.5 
Q 54.890625 34.8125 54.890625 23.390625 
Q 54.890625 11.625 47.5625 5.09375 
Q 40.234375 -1.421875 26.90625 -1.421875 
Q 22.3125 -1.421875 17.546875 -0.640625 
Q 12.796875 0.140625 7.71875 1.703125 
L 7.71875 11.625 
Q 12.109375 9.234375 16.796875 8.0625 
Q 21.484375 6.890625 26.703125 6.890625 
Q 35.15625 6.890625 40.078125 11.328125 
Q 45.015625 15.765625 45.015625 23.390625 
Q 45.015625 31 40.078125 35.4375 
Q 35.15625 39.890625 26.703125 39.890625 
Q 22.75 39.890625 18.8125 39.015625 
Q 14.890625 38.140625 10.796875 36.28125 
z
" id="BitstreamVeraSans-Roman-35"/>
    </defs>
    <g transform="translate(215.67375 68.7850568182)scale(0.18 -0.18)">
     <use xlink:href="#BitstreamVeraSans-Roman-35"/>
    </g>
   </g>
   <g id="text_5">
    <!-- 6 -->
    <defs>
     <path d="M 33.015625 40.375 
Q 26.375 40.375 22.484375 35.828125 
Q 18.609375 31.296875 18.609375 23.390625 
Q 18.609375 15.53125 22.484375 10.953125 
Q 26.375 6.390625 33.015625 6.390625 
Q 39.65625 6.390625 43.53125 10.953125 
Q 47.40625 15.53125 47.40625 23.390625 
Q 47.40625 31.296875 43.53125 35.828125 
Q 39.65625 40.375 33.015625 40.375 
M 52.59375 71.296875 
L 52.59375 62.3125 
Q 48.875 64.0625 45.09375 64.984375 
Q 41.3125 65.921875 37.59375 65.921875 
Q 27.828125 65.921875 22.671875 59.328125 
Q 17.53125 52.734375 16.796875 39.40625 
Q 19.671875 43.65625 24.015625 45.921875 
Q 28.375 48.1875 33.59375 48.1875 
Q 44.578125 48.1875 50.953125 41.515625 
Q 57.328125 34.859375 57.328125 23.390625 
Q 57.328125 12.15625 50.6875 5.359375 
Q 44.046875 -1.421875 33.015625 -1.421875 
Q 20.359375 -1.421875 13.671875 8.265625 
Q 6.984375 17.96875 6.984375 36.375 
Q 6.984375 53.65625 15.1875 63.9375 
Q 23.390625 74.21875 37.203125 74.21875 
Q 40.921875 74.21875 44.703125 73.484375 
Q 48.484375 72.75 52.59375 71.296875 
" id="BitstreamVeraSans-Roman-36"/>
    </defs>
    <g transform="translate(63.4919318182 220.966875)scale(0.18 -0.18)">
     <use xlink:href="#BitstreamVeraSans-Roman-36"/>
    </g>
   </g>
  </g>
 </g>
 <defs>
  <clipPath id="p3c53c35f22">
   <rect height="334.8" width="334.8" x="54.0" y="48.6"/>
  </clipPath>
 </defs>
</svg>
