<?xml version="1.0" encoding="utf-8" standalone="no"?>
<!DOCTYPE svg PUBLIC "-//W3C//DTD SVG 1.1//EN"
  "http://www.w3.org/Graphics/SVG/1.1/DTD/svg11.dtd">
<!-- Created with matplotlib (http://matplotlib.org/) -->
<svg height="576pt" version="1.1" viewBox="0 0 576 576" width="576pt" xmlns="http://www.w3.org/2000/svg" xmlns:xlink="http://www.w3.org/1999/xlink">
 <defs>
  <style type="text/css">
*{stroke-linecap:butt;stroke-linejoin:round;}
  </style>
 </defs>
 <g id="figure_1">
  <g id="patch_1">
   <path d="
M0 576
L576 576
L576 0
L0 0
z
" style="fill:#ffffff;"/>
  </g>
  <g id="axes_1">
   <g id="patch_2">
    <path clip-path="url(#p43a4b114f2)" d="
M405.441 448.506
L408.783 432.174
L413.044 434.634
L489.019 303.042
L489.627 303.394
L413.653 434.986
L417.914 437.446
z
" style="fill:#ffe600;stroke:#ffe600;"/>
   </g>
   <g id="patch_3">
    <path clip-path="url(#p43a4b114f2)" d="
M208.964 454.938
L220.024 442.465
L222.484 446.726
L482.715 296.482
L483.067 297.091
L222.836 447.335
L225.296 451.596
z
" style="fill:#36ffc1;stroke:#36ffc1;"/>
   </g>
   <g id="patch_4">
    <path clip-path="url(#p43a4b114f2)" d="
M312.772 288
L328.588 282.728
L328.588 287.649
L480.537 287.649
L480.537 288.351
L328.588 288.351
L328.588 293.272
z
" style="fill:#7dff7a;stroke:#7dff7a;"/>
   </g>
   <g id="patch_5">
    <path clip-path="url(#p43a4b114f2)" d="
M312.772 288
L328.588 282.728
L328.588 287.649
L480.537 287.649
L480.537 288.351
L328.588 288.351
L328.588 293.272
z
" style="fill:#00d4ff;stroke:#00d4ff;"/>
   </g>
   <g id="patch_6">
    <path clip-path="url(#p43a4b114f2)" d="
M405.441 127.494
L417.914 138.554
L413.653 141.014
L489.627 272.606
L489.019 272.958
L413.044 141.366
L408.783 143.826
z
" style="fill:#0000df;stroke:#0000df;"/>
   </g>
   <g id="patch_7">
    <path clip-path="url(#p43a4b114f2)" d="
M208.964 121.062
L225.296 124.404
L222.836 128.665
L483.067 278.909
L482.715 279.518
L222.484 129.274
L220.024 133.535
z
" style="fill:#ffbd00;stroke:#ffbd00;"/>
   </g>
   <g id="patch_8">
    <path clip-path="url(#p43a4b114f2)" d="
M489.323 303.218
L485.981 319.55
L481.72 317.09
L405.745 448.682
L405.136 448.331
L481.111 316.739
L476.85 314.279
z
" style="fill:#ffe600;stroke:#ffe600;"/>
   </g>
   <g id="patch_9">
    <path clip-path="url(#p43a4b114f2)" d="
M211.318 463.724
L227.133 458.453
L227.133 463.373
L379.082 463.373
L379.082 464.076
L227.133 464.076
L227.133 468.996
z
" style="fill:#9dff5a;stroke:#9dff5a;"/>
   </g>
   <g id="patch_10">
    <path clip-path="url(#p43a4b114f2)" d="
M303.986 303.218
L316.459 314.279
L312.198 316.739
L388.173 448.331
L387.564 448.682
L311.589 317.09
L307.328 319.55
z
" style="fill:#ff4700;stroke:#ff4700;"/>
   </g>
   <g id="patch_11">
    <path clip-path="url(#p43a4b114f2)" d="
M303.986 303.218
L316.459 314.279
L312.198 316.739
L388.173 448.331
L387.564 448.682
L311.589 317.09
L307.328 319.55
z
" style="fill:#0000ff;stroke:#0000ff;"/>
   </g>
   <g id="patch_12">
    <path clip-path="url(#p43a4b114f2)" d="
M396.655 129.848
L401.926 145.663
L397.006 145.663
L397.006 446.152
L396.303 446.152
L396.303 145.663
L391.383 145.663
z
" style="fill:#000080;stroke:#000080;"/>
   </g>
   <g id="patch_13">
    <path clip-path="url(#p43a4b114f2)" d="
M107.509 296.786
L123.841 300.128
L121.381 304.389
L381.612 454.634
L381.261 455.243
L121.03 304.998
L118.57 309.259
z
" style="fill:#ffbd00;stroke:#ffbd00;"/>
   </g>
   <g id="patch_14">
    <path clip-path="url(#p43a4b114f2)" d="
M482.891 296.786
L471.83 309.259
L469.37 304.998
L209.139 455.243
L208.788 454.634
L469.019 304.389
L466.559 300.128
z
" style="fill:#36ffc1;stroke:#36ffc1;"/>
   </g>
   <g id="patch_15">
    <path clip-path="url(#p43a4b114f2)" d="
M379.082 463.724
L363.267 468.996
L363.267 464.076
L211.318 464.076
L211.318 463.373
L363.267 463.373
L363.267 458.453
z
" style="fill:#9dff5a;stroke:#9dff5a;"/>
   </g>
   <g id="patch_16">
    <path clip-path="url(#p43a4b114f2)" d="
M286.414 303.218
L283.072 319.55
L278.811 317.09
L202.836 448.682
L202.227 448.331
L278.202 316.739
L273.941 314.279
z
" style="fill:#c1ff36;stroke:#c1ff36;"/>
   </g>
   <g id="patch_17">
    <path clip-path="url(#p43a4b114f2)" d="
M286.414 303.218
L283.072 319.55
L278.811 317.09
L202.836 448.682
L202.227 448.331
L278.202 316.739
L273.941 314.279
z
" style="fill:#ad0000;stroke:#ad0000;"/>
   </g>
   <g id="patch_18">
    <path clip-path="url(#p43a4b114f2)" d="
M193.745 129.848
L199.017 145.663
L194.097 145.663
L194.097 446.152
L193.394 446.152
L193.394 145.663
L188.474 145.663
z
" style="fill:#000080;stroke:#000080;"/>
   </g>
   <g id="patch_19">
    <path clip-path="url(#p43a4b114f2)" d="
M101.077 303.218
L113.55 314.279
L109.289 316.739
L185.264 448.331
L184.655 448.682
L108.68 317.09
L104.419 319.55
z
" style="fill:#0000df;stroke:#0000df;"/>
   </g>
   <g id="patch_20">
    <path clip-path="url(#p43a4b114f2)" d="
M480.537 288
L464.721 293.272
L464.721 288.351
L312.772 288.351
L312.772 287.649
L464.721 287.649
L464.721 282.728
z
" style="fill:#7dff7a;stroke:#7dff7a;"/>
   </g>
   <g id="patch_21">
    <path clip-path="url(#p43a4b114f2)" d="
M387.868 448.506
L375.395 437.446
L379.656 434.986
L303.682 303.394
L304.291 303.042
L380.265 434.634
L384.526 432.174
z
" style="fill:#ff4700;stroke:#ff4700;"/>
   </g>
   <g id="patch_22">
    <path clip-path="url(#p43a4b114f2)" d="
M202.532 448.506
L205.874 432.174
L210.135 434.634
L286.109 303.042
L286.718 303.394
L210.744 434.986
L215.005 437.446
z
" style="fill:#c1ff36;stroke:#c1ff36;"/>
   </g>
   <g id="patch_23">
    <path clip-path="url(#p43a4b114f2)" d="
M387.868 127.494
L384.526 143.826
L380.265 141.366
L304.291 272.958
L303.682 272.606
L379.656 141.014
L375.395 138.554
z
" style="fill:#ad0000;stroke:#ad0000;"/>
   </g>
   <g id="patch_24">
    <path clip-path="url(#p43a4b114f2)" d="
M202.532 127.494
L215.005 138.554
L210.744 141.014
L286.718 272.606
L286.109 272.958
L210.135 141.366
L205.874 143.826
z
" style="fill:#0000ff;stroke:#0000ff;"/>
   </g>
   <g id="patch_25">
    <path clip-path="url(#p43a4b114f2)" d="
M109.863 288
L125.679 282.728
L125.679 287.649
L277.628 287.649
L277.628 288.351
L125.679 288.351
L125.679 293.272
z
" style="fill:#00d4ff;stroke:#00d4ff;"/>
   </g>
   <g id="patch_26">
    <path clip-path="url(#p43a4b114f2)" d="
M480.537 288
L464.721 293.272
L464.721 288.351
L312.772 288.351
L312.772 287.649
L464.721 287.649
L464.721 282.728
z
" style="fill:#00d4ff;stroke:#00d4ff;"/>
   </g>
   <g id="patch_27">
    <path clip-path="url(#p43a4b114f2)" d="
M387.868 448.506
L375.395 437.446
L379.656 434.986
L303.682 303.394
L304.291 303.042
L380.265 434.634
L384.526 432.174
z
" style="fill:#0000ff;stroke:#0000ff;"/>
   </g>
   <g id="patch_28">
    <path clip-path="url(#p43a4b114f2)" d="
M202.532 448.506
L205.874 432.174
L210.135 434.634
L286.109 303.042
L286.718 303.394
L210.744 434.986
L215.005 437.446
z
" style="fill:#ad0000;stroke:#ad0000;"/>
   </g>
   <g id="patch_29">
    <path clip-path="url(#p43a4b114f2)" d="
M387.868 127.494
L384.526 143.826
L380.265 141.366
L304.291 272.958
L303.682 272.606
L379.656 141.014
L375.395 138.554
z
" style="fill:#c1ff36;stroke:#c1ff36;"/>
   </g>
   <g id="patch_30">
    <path clip-path="url(#p43a4b114f2)" d="
M202.532 127.494
L215.005 138.554
L210.744 141.014
L286.718 272.606
L286.109 272.958
L210.135 141.366
L205.874 143.826
z
" style="fill:#ff4700;stroke:#ff4700;"/>
   </g>
   <g id="patch_31">
    <path clip-path="url(#p43a4b114f2)" d="
M109.863 288
L125.679 282.728
L125.679 287.649
L277.628 287.649
L277.628 288.351
L125.679 288.351
L125.679 293.272
z
" style="fill:#7dff7a;stroke:#7dff7a;"/>
   </g>
   <g id="patch_32">
    <path clip-path="url(#p43a4b114f2)" d="
M489.323 272.782
L476.85 261.721
L481.111 259.261
L405.136 127.669
L405.745 127.318
L481.72 258.91
L485.981 256.45
z
" style="fill:#0000df;stroke:#0000df;"/>
   </g>
   <g id="patch_33">
    <path clip-path="url(#p43a4b114f2)" d="
M396.655 446.152
L391.383 430.337
L396.303 430.337
L396.303 129.848
L397.006 129.848
L397.006 430.337
L401.926 430.337
z
" style="fill:#000080;stroke:#000080;"/>
   </g>
   <g id="patch_34">
    <path clip-path="url(#p43a4b114f2)" d="
M303.986 272.782
L307.328 256.45
L311.589 258.91
L387.564 127.318
L388.173 127.669
L312.198 259.261
L316.459 261.721
z
" style="fill:#ad0000;stroke:#ad0000;"/>
   </g>
   <g id="patch_35">
    <path clip-path="url(#p43a4b114f2)" d="
M303.986 272.782
L307.328 256.45
L311.589 258.91
L387.564 127.318
L388.173 127.669
L312.198 259.261
L316.459 261.721
z
" style="fill:#c1ff36;stroke:#c1ff36;"/>
   </g>
   <g id="patch_36">
    <path clip-path="url(#p43a4b114f2)" d="
M211.318 112.276
L227.133 107.004
L227.133 111.924
L379.082 111.924
L379.082 112.627
L227.133 112.627
L227.133 117.547
z
" style="fill:#9dff5a;stroke:#9dff5a;"/>
   </g>
   <g id="patch_37">
    <path clip-path="url(#p43a4b114f2)" d="
M107.509 279.214
L118.57 266.741
L121.03 271.002
L381.261 120.757
L381.612 121.366
L121.381 271.611
L123.841 275.872
z
" style="fill:#36ffc1;stroke:#36ffc1;"/>
   </g>
   <g id="patch_38">
    <path clip-path="url(#p43a4b114f2)" d="
M482.891 279.214
L466.559 275.872
L469.019 271.611
L208.788 121.366
L209.139 120.757
L469.37 271.002
L471.83 266.741
z
" style="fill:#ffbd00;stroke:#ffbd00;"/>
   </g>
   <g id="patch_39">
    <path clip-path="url(#p43a4b114f2)" d="
M193.745 446.152
L188.474 430.337
L193.394 430.337
L193.394 129.848
L194.097 129.848
L194.097 430.337
L199.017 430.337
z
" style="fill:#000080;stroke:#000080;"/>
   </g>
   <g id="patch_40">
    <path clip-path="url(#p43a4b114f2)" d="
M286.414 272.782
L273.941 261.721
L278.202 259.261
L202.227 127.669
L202.836 127.318
L278.811 258.91
L283.072 256.45
z
" style="fill:#0000ff;stroke:#0000ff;"/>
   </g>
   <g id="patch_41">
    <path clip-path="url(#p43a4b114f2)" d="
M286.414 272.782
L273.941 261.721
L278.202 259.261
L202.227 127.669
L202.836 127.318
L278.811 258.91
L283.072 256.45
z
" style="fill:#ff4700;stroke:#ff4700;"/>
   </g>
   <g id="patch_42">
    <path clip-path="url(#p43a4b114f2)" d="
M379.082 112.276
L363.267 117.547
L363.267 112.627
L211.318 112.627
L211.318 111.924
L363.267 111.924
L363.267 107.004
z
" style="fill:#9dff5a;stroke:#9dff5a;"/>
   </g>
   <g id="patch_43">
    <path clip-path="url(#p43a4b114f2)" d="
M101.077 272.782
L104.419 256.45
L108.68 258.91
L184.655 127.318
L185.264 127.669
L109.289 259.261
L113.55 261.721
z
" style="fill:#ffe600;stroke:#ffe600;"/>
   </g>
   <g id="patch_44">
    <path clip-path="url(#p43a4b114f2)" d="
M381.436 454.938
L365.104 451.596
L367.564 447.335
L107.333 297.091
L107.685 296.482
L367.916 446.726
L370.376 442.465
z
" style="fill:#ffbd00;stroke:#ffbd00;"/>
   </g>
   <g id="patch_45">
    <path clip-path="url(#p43a4b114f2)" d="
M184.959 448.506
L172.486 437.446
L176.747 434.986
L100.773 303.394
L101.381 303.042
L177.356 434.634
L181.617 432.174
z
" style="fill:#0000df;stroke:#0000df;"/>
   </g>
   <g id="patch_46">
    <path clip-path="url(#p43a4b114f2)" d="
M277.628 288
L261.812 293.272
L261.812 288.351
L109.863 288.351
L109.863 287.649
L261.812 287.649
L261.812 282.728
z
" style="fill:#00d4ff;stroke:#00d4ff;"/>
   </g>
   <g id="patch_47">
    <path clip-path="url(#p43a4b114f2)" d="
M277.628 288
L261.812 293.272
L261.812 288.351
L109.863 288.351
L109.863 287.649
L261.812 287.649
L261.812 282.728
z
" style="fill:#7dff7a;stroke:#7dff7a;"/>
   </g>
   <g id="patch_48">
    <path clip-path="url(#p43a4b114f2)" d="
M381.436 121.062
L370.376 133.535
L367.916 129.274
L107.685 279.518
L107.333 278.909
L367.564 128.665
L365.104 124.404
z
" style="fill:#36ffc1;stroke:#36ffc1;"/>
   </g>
   <g id="patch_49">
    <path clip-path="url(#p43a4b114f2)" d="
M184.959 127.494
L181.617 143.826
L177.356 141.366
L101.381 272.958
L100.773 272.606
L176.747 141.014
L172.486 138.554
z
" style="fill:#ffe600;stroke:#ffe600;"/>
   </g>
   <g id="line2d_1">
    <defs>
     <path d="
M0 12.5
C3.31504 12.5 6.49475 11.1829 8.83883 8.83883
C11.1829 6.49475 12.5 3.31504 12.5 0
C12.5 -3.31504 11.1829 -6.49475 8.83883 -8.83883
C6.49475 -11.1829 3.31504 -12.5 0 -12.5
C-3.31504 -12.5 -6.49475 -11.1829 -8.83883 -8.83883
C-11.1829 -6.49475 -12.5 -3.31504 -12.5 0
C-12.5 3.31504 -11.1829 6.49475 -8.83883 8.83883
C-6.49475 11.1829 -3.31504 12.5 0 12.5
z
" id="mbbc2cff4b8" style="stroke:#000000;stroke-width:1.5;"/>
    </defs>
    <g clip-path="url(#p43a4b114f2)">
     <use style="fill:#ffffff;stroke:#000000;stroke-width:1.5;" x="498.109090909" xlink:href="#mbbc2cff4b8" y="288.0"/>
    </g>
   </g>
   <g id="line2d_2">
    <g clip-path="url(#p43a4b114f2)">
     <use style="fill:#ffffff;stroke:#000000;stroke-width:1.5;" x="396.654545455" xlink:href="#mbbc2cff4b8" y="463.724427386"/>
    </g>
   </g>
   <g id="line2d_3">
    <g clip-path="url(#p43a4b114f2)">
     <use style="fill:#ffffff;stroke:#000000;stroke-width:1.5;" x="193.745454545" xlink:href="#mbbc2cff4b8" y="463.724427386"/>
    </g>
   </g>
   <g id="line2d_4">
    <g clip-path="url(#p43a4b114f2)">
     <use style="fill:#ffffff;stroke:#000000;stroke-width:1.5;" x="295.2" xlink:href="#mbbc2cff4b8" y="288.0"/>
    </g>
   </g>
   <g id="line2d_5">
    <g clip-path="url(#p43a4b114f2)">
     <use style="fill:#ffffff;stroke:#000000;stroke-width:1.5;" x="396.654545455" xlink:href="#mbbc2cff4b8" y="112.275572614"/>
    </g>
   </g>
   <g id="line2d_6">
    <g clip-path="url(#p43a4b114f2)">
     <use style="fill:#ffffff;stroke:#000000;stroke-width:1.5;" x="193.745454545" xlink:href="#mbbc2cff4b8" y="112.275572614"/>
    </g>
   </g>
   <g id="line2d_7">
    <g clip-path="url(#p43a4b114f2)">
     <use style="fill:#ffffff;stroke:#000000;stroke-width:1.5;" x="92.2909090909" xlink:href="#mbbc2cff4b8" y="288.0"/>
    </g>
   </g>
   <g id="text_1">
    <!-- 1 -->
    <defs>
     <path d="
M12.4062 8.29688
L28.5156 8.29688
L28.5156 63.9219
L10.9844 60.4062
L10.9844 69.3906
L28.4219 72.9062
L38.2812 72.9062
L38.2812 8.29688
L54.3906 8.29688
L54.3906 0
L12.4062 0
z
" id="DejaVuSans-31"/>
    </defs>
    <g transform="translate(494.202528409 292.966875)scale(0.18 -0.18)">
     <use xlink:href="#DejaVuSans-31"/>
    </g>
   </g>
   <g id="text_2">
    <!-- 2 -->
    <defs>
     <path d="
M19.1875 8.29688
L53.6094 8.29688
L53.6094 0
L7.32812 0
L7.32812 8.29688
Q12.9375 14.1094 22.625 23.8906
Q32.3281 33.6875 34.8125 36.5312
Q39.5469 41.8438 41.4219 45.5312
Q43.3125 49.2188 43.3125 52.7812
Q43.3125 58.5938 39.2344 62.25
Q35.1562 65.9219 28.6094 65.9219
Q23.9688 65.9219 18.8125 64.3125
Q13.6719 62.7031 7.8125 59.4219
L7.8125 69.3906
Q13.7656 71.7812 18.9375 73
Q24.125 74.2188 28.4219 74.2188
Q39.75 74.2188 46.4844 68.5469
Q53.2188 62.8906 53.2188 53.4219
Q53.2188 48.9219 51.5312 44.8906
Q49.8594 40.875 45.4062 35.4062
Q44.1875 33.9844 37.6406 27.2188
Q31.1094 20.4531 19.1875 8.29688" id="DejaVuSans-32"/>
    </defs>
    <g transform="translate(392.489232955 468.691302386)scale(0.18 -0.18)">
     <use xlink:href="#DejaVuSans-32"/>
    </g>
   </g>
   <g id="text_3">
    <!-- 3 -->
    <defs>
     <path d="
M40.5781 39.3125
Q47.6562 37.7969 51.625 33
Q55.6094 28.2188 55.6094 21.1875
Q55.6094 10.4062 48.1875 4.48438
Q40.7656 -1.42188 27.0938 -1.42188
Q22.5156 -1.42188 17.6562 -0.515625
Q12.7969 0.390625 7.625 2.20312
L7.625 11.7188
Q11.7188 9.32812 16.5938 8.10938
Q21.4844 6.89062 26.8125 6.89062
Q36.0781 6.89062 40.9375 10.5469
Q45.7969 14.2031 45.7969 21.1875
Q45.7969 27.6406 41.2812 31.2656
Q36.7656 34.9062 28.7188 34.9062
L20.2188 34.9062
L20.2188 43.0156
L29.1094 43.0156
Q36.375 43.0156 40.2344 45.9219
Q44.0938 48.8281 44.0938 54.2969
Q44.0938 59.9062 40.1094 62.9062
Q36.1406 65.9219 28.7188 65.9219
Q24.6562 65.9219 20.0156 65.0312
Q15.375 64.1562 9.8125 62.3125
L9.8125 71.0938
Q15.4375 72.6562 20.3438 73.4375
Q25.25 74.2188 29.5938 74.2188
Q40.8281 74.2188 47.3594 69.1094
Q53.9062 64.0156 53.9062 55.3281
Q53.9062 49.2656 50.4375 45.0938
Q46.9688 40.9219 40.5781 39.3125" id="DejaVuSans-33"/>
    </defs>
    <g transform="translate(189.426860795 468.691302386)scale(0.18 -0.18)">
     <use xlink:href="#DejaVuSans-33"/>
    </g>
   </g>
   <g id="text_4">
    <!-- 4,5 -->
    <defs>
     <path d="
M11.7188 12.4062
L22.0156 12.4062
L22.0156 4
L14.0156 -11.625
L7.71875 -11.625
L11.7188 4
z
" id="DejaVuSans-2c"/>
     <path d="
M10.7969 72.9062
L49.5156 72.9062
L49.5156 64.5938
L19.8281 64.5938
L19.8281 46.7344
Q21.9688 47.4688 24.1094 47.8281
Q26.2656 48.1875 28.4219 48.1875
Q40.625 48.1875 47.75 41.5
Q54.8906 34.8125 54.8906 23.3906
Q54.8906 11.625 47.5625 5.09375
Q40.2344 -1.42188 26.9062 -1.42188
Q22.3125 -1.42188 17.5469 -0.640625
Q12.7969 0.140625 7.71875 1.70312
L7.71875 11.625
Q12.1094 9.23438 16.7969 8.0625
Q21.4844 6.89062 26.7031 6.89062
Q35.1562 6.89062 40.0781 11.3281
Q45.0156 15.7656 45.0156 23.3906
Q45.0156 31 40.0781 35.4375
Q35.1562 39.8906 26.7031 39.8906
Q22.75 39.8906 18.8125 39.0156
Q14.8906 38.1406 10.7969 36.2812
z
" id="DejaVuSans-35"/>
     <path d="
M37.7969 64.3125
L12.8906 25.3906
L37.7969 25.3906
z

M35.2031 72.9062
L47.6094 72.9062
L47.6094 25.3906
L58.0156 25.3906
L58.0156 17.1875
L47.6094 17.1875
L47.6094 0
L37.7969 0
L37.7969 17.1875
L4.89062 17.1875
L4.89062 26.7031
z
" id="DejaVuSans-34"/>
    </defs>
    <g transform="translate(288.65671875 290.4834375)scale(0.09 -0.09)">
     <use xlink:href="#DejaVuSans-34"/>
     <use x="63.623046875" xlink:href="#DejaVuSans-2c"/>
     <use x="95.41015625" xlink:href="#DejaVuSans-35"/>
    </g>
   </g>
   <g id="text_5">
    <!-- 6 -->
    <defs>
     <path d="
M33.0156 40.375
Q26.375 40.375 22.4844 35.8281
Q18.6094 31.2969 18.6094 23.3906
Q18.6094 15.5312 22.4844 10.9531
Q26.375 6.39062 33.0156 6.39062
Q39.6562 6.39062 43.5312 10.9531
Q47.4062 15.5312 47.4062 23.3906
Q47.4062 31.2969 43.5312 35.8281
Q39.6562 40.375 33.0156 40.375
M52.5938 71.2969
L52.5938 62.3125
Q48.875 64.0625 45.0938 64.9844
Q41.3125 65.9219 37.5938 65.9219
Q27.8281 65.9219 22.6719 59.3281
Q17.5312 52.7344 16.7969 39.4062
Q19.6719 43.6562 24.0156 45.9219
Q28.375 48.1875 33.5938 48.1875
Q44.5781 48.1875 50.9531 41.5156
Q57.3281 34.8594 57.3281 23.3906
Q57.3281 12.1562 50.6875 5.35938
Q44.0469 -1.42188 33.0156 -1.42188
Q20.3594 -1.42188 13.6719 8.26562
Q6.98438 17.9688 6.98438 36.375
Q6.98438 53.6562 15.1875 63.9375
Q23.3906 74.2188 37.2031 74.2188
Q40.9219 74.2188 44.7031 73.4844
Q48.4844 72.75 52.5938 71.2969" id="DejaVuSans-36"/>
    </defs>
    <g transform="translate(392.123607955 117.242447614)scale(0.18 -0.18)">
     <use xlink:href="#DejaVuSans-36"/>
    </g>
   </g>
   <g id="text_6">
    <!-- 7 -->
    <defs>
     <path d="
M8.20312 72.9062
L55.0781 72.9062
L55.0781 68.7031
L28.6094 0
L18.3125 0
L43.2188 64.5938
L8.20312 64.5938
z
" id="DejaVuSans-37"/>
    </defs>
    <g transform="translate(189.526704545 117.242447614)scale(0.18 -0.18)">
     <use xlink:href="#DejaVuSans-37"/>
    </g>
   </g>
   <g id="text_7">
    <!-- 8 -->
    <defs>
     <path d="
M31.7812 34.625
Q24.75 34.625 20.7188 30.8594
Q16.7031 27.0938 16.7031 20.5156
Q16.7031 13.9219 20.7188 10.1562
Q24.75 6.39062 31.7812 6.39062
Q38.8125 6.39062 42.8594 10.1719
Q46.9219 13.9688 46.9219 20.5156
Q46.9219 27.0938 42.8906 30.8594
Q38.875 34.625 31.7812 34.625
M21.9219 38.8125
Q15.5781 40.375 12.0312 44.7188
Q8.5 49.0781 8.5 55.3281
Q8.5 64.0625 14.7188 69.1406
Q20.9531 74.2188 31.7812 74.2188
Q42.6719 74.2188 48.875 69.1406
Q55.0781 64.0625 55.0781 55.3281
Q55.0781 49.0781 51.5312 44.7188
Q48 40.375 41.7031 38.8125
Q48.8281 37.1562 52.7969 32.3125
Q56.7812 27.4844 56.7812 20.5156
Q56.7812 9.90625 50.3125 4.23438
Q43.8438 -1.42188 31.7812 -1.42188
Q19.7344 -1.42188 13.25 4.23438
Q6.78125 9.90625 6.78125 20.5156
Q6.78125 27.4844 10.7812 32.3125
Q14.7969 37.1562 21.9219 38.8125
M18.3125 54.3906
Q18.3125 48.7344 21.8438 45.5625
Q25.3906 42.3906 31.7812 42.3906
Q38.1406 42.3906 41.7188 45.5625
Q45.3125 48.7344 45.3125 54.3906
Q45.3125 60.0625 41.7188 63.2344
Q38.1406 66.4062 31.7812 66.4062
Q25.3906 66.4062 21.8438 63.2344
Q18.3125 60.0625 18.3125 54.3906" id="DejaVuSans-38"/>
    </defs>
    <g transform="translate(87.7909090909 292.966875)scale(0.18 -0.18)">
     <use xlink:href="#DejaVuSans-38"/>
    </g>
   </g>
  </g>
 </g>
 <defs>
  <clipPath id="p43a4b114f2">
   <rect height="386.593740249" width="446.4" x="72.0" y="94.7031298753"/>
  </clipPath>
 </defs>
</svg>
