<?xml version="1.0" encoding="utf-8" standalone="no"?>
<!DOCTYPE svg PUBLIC "-//W3C//DTD SVG 1.1//EN"
  "http://www.w3.org/Graphics/SVG/1.1/DTD/svg11.dtd">
<!-- Created with matplotlib (http://matplotlib.org/) -->
<svg height="864pt" version="1.1" viewBox="0 0 864 864" width="864pt" xmlns="http://www.w3.org/2000/svg" xmlns:xlink="http://www.w3.org/1999/xlink">
 <defs>
  <style type="text/css">
*{stroke-linecap:butt;stroke-linejoin:round;stroke-miterlimit:100000;}
  </style>
 </defs>
 <g id="figure_1">
  <g id="patch_1">
   <path d="M 0 864 
L 864 864 
L 864 0 
L 0 0 
z
" style="fill:#ffffff;"/>
  </g>
  <g id="axes_1">
   <g id="patch_2">
    <path clip-path="url(#p0588fde21b)" d="M 329.335609 127.636364 
L 344.464194 122.593502 
L 344.464194 127.384221 
L 556.264391 127.384221 
L 556.264391 127.888507 
L 344.464194 127.888507 
L 344.464194 132.679225 
z
" style="fill:#ff7e00;stroke:#ff7e00;stroke-linejoin:miter;"/>
   </g>
   <g id="patch_3">
    <path clip-path="url(#p0588fde21b)" d="M 399.49406 297.013849 
L 406.625744 282.750482 
L 410.013294 286.138032 
L 559.778649 136.372676 
L 560.135234 136.72926 
L 410.369878 286.494616 
L 413.757428 289.882166 
z
" style="fill:#0018ff;stroke:#0018ff;stroke-linejoin:miter;"/>
   </g>
   <g id="patch_4">
    <path clip-path="url(#p0588fde21b)" d="M 568.871546 367.172301 
L 563.828684 352.043716 
L 568.619403 352.043716 
L 568.619403 140.243518 
L 569.123689 140.243518 
L 569.123689 352.043716 
L 573.914408 352.043716 
z
" style="fill:#00ccff;stroke:#00ccff;stroke-linejoin:miter;"/>
   </g>
   <g id="patch_5">
    <path clip-path="url(#p0588fde21b)" d="M 150.083856 301.103905 
L 162.131027 290.655449 
L 163.964355 295.081496 
L 557.127563 132.227963 
L 557.320545 132.693863 
L 164.157337 295.547396 
L 165.990666 299.973443 
z
" style="fill:#7dff7a;stroke:#7dff7a;stroke-linejoin:miter;"/>
   </g>
   <g id="patch_6">
    <path clip-path="url(#p0588fde21b)" d="M 738.249032 297.013849 
L 723.985665 289.882166 
L 727.373214 286.494616 
L 577.607858 136.72926 
L 577.964443 136.372676 
L 727.729799 286.138032 
L 731.117348 282.750482 
z
" style="fill:#e4ff13;stroke:#e4ff13;stroke-linejoin:miter;"/>
   </g>
   <g id="patch_7">
    <path clip-path="url(#p0588fde21b)" d="M 325.643058 370.864851 
L 332.774742 356.601484 
L 336.162292 359.989034 
L 559.778649 136.372676 
L 560.135234 136.72926 
L 336.518876 360.345618 
L 339.906426 363.733168 
z
" style="fill:#29ffce;stroke:#29ffce;stroke-linejoin:miter;"/>
   </g>
   <g id="patch_8">
    <path clip-path="url(#p0588fde21b)" d="M 499.845093 294.280962 
L 500.975556 278.374152 
L 505.401603 280.20748 
L 563.814047 139.187365 
L 564.279947 139.380347 
L 505.867502 280.400462 
L 510.293549 282.233791 
z
" style="fill:#53ffa4;stroke:#53ffa4;stroke-linejoin:miter;"/>
   </g>
   <g id="patch_9">
    <path clip-path="url(#p0588fde21b)" d="M 395.404005 546.424054 
L 396.534467 530.517244 
L 400.960514 532.350572 
L 563.814047 139.187365 
L 564.279947 139.380347 
L 401.426414 532.543554 
L 405.852461 534.376883 
z
" style="fill:#0000f1;stroke:#0000f1;stroke-linejoin:miter;"/>
   </g>
   <g id="patch_10">
    <path clip-path="url(#p0588fde21b)" d="M 568.871546 471.61339 
L 563.828684 456.484804 
L 568.619403 456.484804 
L 568.619403 140.243518 
L 569.123689 140.243518 
L 569.123689 456.484804 
L 573.914408 456.484804 
z
" style="fill:#0000d6;stroke:#0000d6;stroke-linejoin:miter;"/>
   </g>
   <g id="patch_11">
    <path clip-path="url(#p0588fde21b)" d="M 742.339087 546.424054 
L 731.890631 534.376883 
L 736.316678 532.543554 
L 573.463145 139.380347 
L 573.929045 139.187365 
L 736.782578 532.350572 
L 741.208625 530.517244 
z
" style="fill:#004cff;stroke:#004cff;stroke-linejoin:miter;"/>
   </g>
   <g id="patch_12">
    <path clip-path="url(#p0588fde21b)" d="M 556.264391 127.636364 
L 541.135806 132.679225 
L 541.135806 127.888507 
L 329.335609 127.888507 
L 329.335609 127.384221 
L 541.135806 127.384221 
L 541.135806 122.593502 
z
" style="fill:#ff7e00;stroke:#ff7e00;stroke-linejoin:miter;"/>
   </g>
   <g id="patch_13">
    <path clip-path="url(#p0588fde21b)" d="M 385.754907 294.280962 
L 375.306451 282.233791 
L 379.732498 280.400462 
L 321.320053 139.380347 
L 321.785953 139.187365 
L 380.198397 280.20748 
L 384.624444 278.374152 
z
" style="fill:#ff1e00;stroke:#ff1e00;stroke-linejoin:miter;"/>
   </g>
   <g id="patch_14">
    <path clip-path="url(#p0588fde21b)" d="M 559.956942 370.864851 
L 545.693574 363.733168 
L 549.081124 360.345618 
L 325.464766 136.72926 
L 325.821351 136.372676 
L 549.437708 359.989034 
L 552.825258 356.601484 
z
" style="fill:#0000b6;stroke:#0000b6;stroke-linejoin:miter;"/>
   </g>
   <g id="patch_15">
    <path clip-path="url(#p0588fde21b)" d="M 147.350968 297.013849 
L 154.482652 282.750482 
L 157.870201 286.138032 
L 307.635557 136.372676 
L 307.992142 136.72926 
L 158.226786 286.494616 
L 161.614335 289.882166 
z
" style="fill:#f10800;stroke:#f10800;stroke-linejoin:miter;"/>
   </g>
   <g id="patch_16">
    <path clip-path="url(#p0588fde21b)" d="M 735.516144 301.103905 
L 719.609334 299.973443 
L 721.442663 295.547396 
L 328.279455 132.693863 
L 328.472437 132.227963 
L 721.635645 295.081496 
L 723.468973 290.655449 
z
" style="fill:#000080;stroke:#000080;stroke-linejoin:miter;"/>
   </g>
   <g id="patch_17">
    <path clip-path="url(#p0588fde21b)" d="M 316.728454 367.172301 
L 311.685592 352.043716 
L 316.476311 352.043716 
L 316.476311 140.243518 
L 316.980597 140.243518 
L 316.980597 352.043716 
L 321.771316 352.043716 
z
" style="fill:#ff4e00;stroke:#ff4e00;stroke-linejoin:miter;"/>
   </g>
   <g id="patch_18">
    <path clip-path="url(#p0588fde21b)" d="M 486.10594 297.013849 
L 471.842572 289.882166 
L 475.230122 286.494616 
L 325.464766 136.72926 
L 325.821351 136.372676 
L 475.586706 286.138032 
L 478.974256 282.750482 
z
" style="fill:#ffae00;stroke:#ffae00;stroke-linejoin:miter;"/>
   </g>
   <g id="patch_19">
    <path clip-path="url(#p0588fde21b)" d="M 143.260913 546.424054 
L 144.391375 530.517244 
L 148.817422 532.350572 
L 311.670955 139.187365 
L 312.136855 139.380347 
L 149.283322 532.543554 
L 153.709369 534.376883 
z
" style="fill:#0000f1;stroke:#0000f1;stroke-linejoin:miter;"/>
   </g>
   <g id="patch_20">
    <path clip-path="url(#p0588fde21b)" d="M 316.728454 471.61339 
L 311.685592 456.484804 
L 316.476311 456.484804 
L 316.476311 140.243518 
L 316.980597 140.243518 
L 316.980597 456.484804 
L 321.771316 456.484804 
z
" style="fill:#0000d6;stroke:#0000d6;stroke-linejoin:miter;"/>
   </g>
   <g id="patch_21">
    <path clip-path="url(#p0588fde21b)" d="M 490.195995 546.424054 
L 479.747539 534.376883 
L 484.173586 532.543554 
L 321.320053 139.380347 
L 321.785953 139.187365 
L 484.639486 532.350572 
L 489.065533 530.517244 
z
" style="fill:#004cff;stroke:#004cff;stroke-linejoin:miter;"/>
   </g>
   <g id="patch_22">
    <path clip-path="url(#p0588fde21b)" d="M 559.956942 136.550968 
L 552.825258 150.814335 
L 549.437708 147.426786 
L 399.672352 297.192142 
L 399.315768 296.835557 
L 549.081124 147.070201 
L 545.693574 143.682652 
z
" style="fill:#0018ff;stroke:#0018ff;stroke-linejoin:miter;"/>
   </g>
   <g id="patch_23">
    <path clip-path="url(#p0588fde21b)" d="M 321.553003 139.283856 
L 332.001459 151.331027 
L 327.575412 153.164355 
L 385.987856 294.184471 
L 385.521957 294.377453 
L 327.109512 153.357337 
L 322.683465 155.190666 
z
" style="fill:#ff1e00;stroke:#ff1e00;stroke-linejoin:miter;"/>
   </g>
   <g id="patch_24">
    <path clip-path="url(#p0588fde21b)" d="M 557.224054 374.954907 
L 541.317244 373.824444 
L 543.150572 369.398397 
L 402.130457 310.985953 
L 402.323439 310.520053 
L 543.343554 368.932498 
L 545.176883 364.506451 
z
" style="fill:#ffde00;stroke:#ffde00;stroke-linejoin:miter;"/>
   </g>
   <g id="patch_25">
    <path clip-path="url(#p0588fde21b)" d="M 151.043518 305.928454 
L 166.172104 300.885592 
L 166.172104 305.676311 
L 377.972301 305.676311 
L 377.972301 306.180597 
L 166.172104 306.180597 
L 166.172104 310.971316 
z
" style="fill:#ff3800;stroke:#ff3800;stroke-linejoin:miter;"/>
   </g>
   <g id="patch_26">
    <path clip-path="url(#p0588fde21b)" d="M 734.556482 305.928454 
L 719.427896 310.971316 
L 719.427896 306.180597 
L 403.18661 306.180597 
L 403.18661 305.676311 
L 719.427896 305.676311 
L 719.427896 300.885592 
z
" style="fill:#00e4f8;stroke:#00e4f8;stroke-linejoin:miter;"/>
   </g>
   <g id="patch_27">
    <path clip-path="url(#p0588fde21b)" d="M 390.579456 545.464391 
L 385.536594 530.335806 
L 390.327313 530.335806 
L 390.327313 318.535609 
L 390.831599 318.535609 
L 390.831599 530.335806 
L 395.622318 530.335806 
z
" style="fill:#ff4e00;stroke:#ff4e00;stroke-linejoin:miter;"/>
   </g>
   <g id="patch_28">
    <path clip-path="url(#p0588fde21b)" d="M 147.350968 549.156942 
L 154.482652 534.893574 
L 157.870201 538.281124 
L 381.486559 314.664766 
L 381.843143 315.021351 
L 158.226786 538.637708 
L 161.614335 542.025258 
z
" style="fill:#29ffce;stroke:#29ffce;stroke-linejoin:miter;"/>
   </g>
   <g id="patch_29">
    <path clip-path="url(#p0588fde21b)" d="M 559.956942 475.30594 
L 545.693574 468.174256 
L 549.081124 464.786706 
L 399.315768 315.021351 
L 399.672352 314.664766 
L 549.437708 464.430122 
L 552.825258 461.042572 
z
" style="fill:#ffae00;stroke:#ffae00;stroke-linejoin:miter;"/>
   </g>
   <g id="patch_30">
    <path clip-path="url(#p0588fde21b)" d="M 321.553003 472.573052 
L 322.683465 456.666242 
L 327.109512 458.499571 
L 385.521957 317.479455 
L 385.987856 317.672437 
L 327.575412 458.692553 
L 332.001459 460.525881 
z
" style="fill:#53ffa4;stroke:#53ffa4;stroke-linejoin:miter;"/>
   </g>
   <g id="patch_31">
    <path clip-path="url(#p0588fde21b)" d="M 564.046997 724.716144 
L 553.598541 712.668973 
L 558.024588 710.835645 
L 395.171055 317.672437 
L 395.636955 317.479455 
L 558.490488 710.642663 
L 562.916535 708.809334 
z
" style="fill:#004cff;stroke:#004cff;stroke-linejoin:miter;"/>
   </g>
   <g id="patch_32">
    <path clip-path="url(#p0588fde21b)" d="M 568.871546 140.243518 
L 573.914408 155.372104 
L 569.123689 155.372104 
L 569.123689 367.172301 
L 568.619403 367.172301 
L 568.619403 155.372104 
L 563.828684 155.372104 
z
" style="fill:#00ccff;stroke:#00ccff;stroke-linejoin:miter;"/>
   </g>
   <g id="patch_33">
    <path clip-path="url(#p0588fde21b)" d="M 325.643058 136.550968 
L 339.906426 143.682652 
L 336.518876 147.070201 
L 560.135234 370.686559 
L 559.778649 371.043143 
L 336.162292 147.426786 
L 332.774742 150.814335 
z
" style="fill:#0000b6;stroke:#0000b6;stroke-linejoin:miter;"/>
   </g>
   <g id="patch_34">
    <path clip-path="url(#p0588fde21b)" d="M 402.226948 310.753003 
L 418.133758 311.883465 
L 416.300429 316.309512 
L 557.320545 374.721957 
L 557.127563 375.187856 
L 416.107447 316.775412 
L 414.274119 321.201459 
z
" style="fill:#ffde00;stroke:#ffde00;stroke-linejoin:miter;"/>
   </g>
   <g id="patch_35">
    <path clip-path="url(#p0588fde21b)" d="M 735.516144 310.753003 
L 723.468973 321.201459 
L 721.635645 316.775412 
L 580.615529 375.187856 
L 580.422547 374.721957 
L 721.442663 316.309512 
L 719.609334 311.883465 
z
" style="fill:#b60000;stroke:#b60000;stroke-linejoin:miter;"/>
   </g>
   <g id="patch_36">
    <path clip-path="url(#p0588fde21b)" d="M 329.335609 379.779456 
L 344.464194 374.736594 
L 344.464194 379.527313 
L 556.264391 379.527313 
L 556.264391 380.031599 
L 344.464194 380.031599 
L 344.464194 384.822318 
z
" style="fill:#ff3800;stroke:#ff3800;stroke-linejoin:miter;"/>
   </g>
   <g id="patch_37">
    <path clip-path="url(#p0588fde21b)" d="M 399.49406 549.156942 
L 406.625744 534.893574 
L 410.013294 538.281124 
L 559.778649 388.515768 
L 560.135234 388.872352 
L 410.369878 538.637708 
L 413.757428 542.025258 
z
" style="fill:#f10800;stroke:#f10800;stroke-linejoin:miter;"/>
   </g>
   <g id="patch_38">
    <path clip-path="url(#p0588fde21b)" d="M 150.083856 553.246997 
L 162.131027 542.798541 
L 163.964355 547.224588 
L 557.127563 384.371055 
L 557.320545 384.836955 
L 164.157337 547.690488 
L 165.990666 552.116535 
z
" style="fill:#7dff7a;stroke:#7dff7a;stroke-linejoin:miter;"/>
   </g>
   <g id="patch_39">
    <path clip-path="url(#p0588fde21b)" d="M 738.249032 549.156942 
L 723.985665 542.025258 
L 727.373214 538.637708 
L 577.607858 388.872352 
L 577.964443 388.515768 
L 727.729799 538.281124 
L 731.117348 534.893574 
z
" style="fill:#ffae00;stroke:#ffae00;stroke-linejoin:miter;"/>
   </g>
   <g id="patch_40">
    <path clip-path="url(#p0588fde21b)" d="M 499.845093 546.424054 
L 500.975556 530.517244 
L 505.401603 532.350572 
L 563.814047 391.330457 
L 564.279947 391.523439 
L 505.867502 532.543554 
L 510.293549 534.376883 
z
" style="fill:#53ffa4;stroke:#53ffa4;stroke-linejoin:miter;"/>
   </g>
   <g id="patch_41">
    <path clip-path="url(#p0588fde21b)" d="M 568.871546 723.756482 
L 563.828684 708.627896 
L 568.619403 708.627896 
L 568.619403 392.38661 
L 569.123689 392.38661 
L 569.123689 708.627896 
L 573.914408 708.627896 
z
" style="fill:#0000d6;stroke:#0000d6;stroke-linejoin:miter;"/>
   </g>
   <g id="patch_42">
    <path clip-path="url(#p0588fde21b)" d="M 557.224054 132.460913 
L 545.176883 142.909369 
L 543.343554 138.483322 
L 150.180347 301.336855 
L 149.987365 300.870955 
L 543.150572 138.017422 
L 541.317244 133.591375 
z
" style="fill:#7dff7a;stroke:#7dff7a;stroke-linejoin:miter;"/>
   </g>
   <g id="patch_43">
    <path clip-path="url(#p0588fde21b)" d="M 307.813849 136.550968 
L 300.682166 150.814335 
L 297.294616 147.426786 
L 147.52926 297.192142 
L 147.172676 296.835557 
L 296.938032 147.070201 
L 293.550482 143.682652 
z
" style="fill:#f10800;stroke:#f10800;stroke-linejoin:miter;"/>
   </g>
   <g id="patch_44">
    <path clip-path="url(#p0588fde21b)" d="M 377.972301 305.928454 
L 362.843716 310.971316 
L 362.843716 306.180597 
L 151.043518 306.180597 
L 151.043518 305.676311 
L 362.843716 305.676311 
L 362.843716 300.885592 
z
" style="fill:#ff3800;stroke:#ff3800;stroke-linejoin:miter;"/>
   </g>
   <g id="patch_45">
    <path clip-path="url(#p0588fde21b)" d="M 305.080962 374.954907 
L 289.174152 373.824444 
L 291.00748 369.398397 
L 149.987365 310.985953 
L 150.180347 310.520053 
L 291.200462 368.932498 
L 293.033791 364.506451 
z
" style="fill:#ffde00;stroke:#ffde00;stroke-linejoin:miter;"/>
   </g>
   <g id="patch_46">
    <path clip-path="url(#p0588fde21b)" d="M 482.41339 305.928454 
L 467.284804 310.971316 
L 467.284804 306.180597 
L 151.043518 306.180597 
L 151.043518 305.676311 
L 467.284804 305.676311 
L 467.284804 300.885592 
z
" style="fill:#00e4f8;stroke:#00e4f8;stroke-linejoin:miter;"/>
   </g>
   <g id="patch_47">
    <path clip-path="url(#p0588fde21b)" d="M 381.664851 549.156942 
L 367.401484 542.025258 
L 370.789034 538.637708 
L 147.172676 315.021351 
L 147.52926 314.664766 
L 371.145618 538.281124 
L 374.533168 534.893574 
z
" style="fill:#0000b6;stroke:#0000b6;stroke-linejoin:miter;"/>
   </g>
   <g id="patch_48">
    <path clip-path="url(#p0588fde21b)" d="M 138.436364 545.464391 
L 133.393502 530.335806 
L 138.184221 530.335806 
L 138.184221 318.535609 
L 138.688507 318.535609 
L 138.688507 530.335806 
L 143.479225 530.335806 
z
" style="fill:#00ccff;stroke:#00ccff;stroke-linejoin:miter;"/>
   </g>
   <g id="patch_49">
    <path clip-path="url(#p0588fde21b)" d="M 557.224054 479.395995 
L 541.317244 478.265533 
L 543.150572 473.839486 
L 149.987365 310.985953 
L 150.180347 310.520053 
L 543.343554 473.373586 
L 545.176883 468.947539 
z
" style="fill:#000080;stroke:#000080;stroke-linejoin:miter;"/>
   </g>
   <g id="patch_50">
    <path clip-path="url(#p0588fde21b)" d="M 307.813849 475.30594 
L 293.550482 468.174256 
L 296.938032 464.786706 
L 147.172676 315.021351 
L 147.52926 314.664766 
L 297.294616 464.430122 
L 300.682166 461.042572 
z
" style="fill:#e4ff13;stroke:#e4ff13;stroke-linejoin:miter;"/>
   </g>
   <g id="patch_51">
    <path clip-path="url(#p0588fde21b)" d="M 311.903905 724.716144 
L 301.455449 712.668973 
L 305.881496 710.835645 
L 143.027963 317.672437 
L 143.493863 317.479455 
L 306.347396 710.642663 
L 310.773443 708.809334 
z
" style="fill:#004cff;stroke:#004cff;stroke-linejoin:miter;"/>
   </g>
   <g id="patch_52">
    <path clip-path="url(#p0588fde21b)" d="M 577.786151 136.550968 
L 592.049518 143.682652 
L 588.661968 147.070201 
L 738.427324 296.835557 
L 738.07074 297.192142 
L 588.305384 147.426786 
L 584.917834 150.814335 
z
" style="fill:#e4ff13;stroke:#e4ff13;stroke-linejoin:miter;"/>
   </g>
   <g id="patch_53">
    <path clip-path="url(#p0588fde21b)" d="M 328.375946 132.460913 
L 344.282756 133.591375 
L 342.449428 138.017422 
L 735.612635 300.870955 
L 735.419653 301.336855 
L 342.256446 138.483322 
L 340.423117 142.909369 
z
" style="fill:#000080;stroke:#000080;stroke-linejoin:miter;"/>
   </g>
   <g id="patch_54">
    <path clip-path="url(#p0588fde21b)" d="M 403.18661 305.928454 
L 418.315196 300.885592 
L 418.315196 305.676311 
L 734.556482 305.676311 
L 734.556482 306.180597 
L 418.315196 306.180597 
L 418.315196 310.971316 
z
" style="fill:#00e4f8;stroke:#00e4f8;stroke-linejoin:miter;"/>
   </g>
   <g id="patch_55">
    <path clip-path="url(#p0588fde21b)" d="M 580.519038 374.954907 
L 592.566209 364.506451 
L 594.399538 368.932498 
L 735.419653 310.520053 
L 735.612635 310.985953 
L 594.59252 369.398397 
L 596.425848 373.824444 
z
" style="fill:#b60000;stroke:#b60000;stroke-linejoin:miter;"/>
   </g>
   <g id="patch_56">
    <path clip-path="url(#p0588fde21b)" d="M 507.627699 305.928454 
L 522.756284 300.885592 
L 522.756284 305.676311 
L 734.556482 305.676311 
L 734.556482 306.180597 
L 522.756284 306.180597 
L 522.756284 310.971316 
z
" style="fill:#ff3800;stroke:#ff3800;stroke-linejoin:miter;"/>
   </g>
   <g id="patch_57">
    <path clip-path="url(#p0588fde21b)" d="M 577.786151 475.30594 
L 584.917834 461.042572 
L 588.305384 464.430122 
L 738.07074 314.664766 
L 738.427324 315.021351 
L 588.661968 464.786706 
L 592.049518 468.174256 
z
" style="fill:#f10800;stroke:#f10800;stroke-linejoin:miter;"/>
   </g>
   <g id="patch_58">
    <path clip-path="url(#p0588fde21b)" d="M 747.163636 545.464391 
L 742.120775 530.335806 
L 746.911493 530.335806 
L 746.911493 318.535609 
L 747.415779 318.535609 
L 747.415779 530.335806 
L 752.206498 530.335806 
z
" style="fill:#ff4e00;stroke:#ff4e00;stroke-linejoin:miter;"/>
   </g>
   <g id="patch_59">
    <path clip-path="url(#p0588fde21b)" d="M 328.375946 479.395995 
L 340.423117 468.947539 
L 342.256446 473.373586 
L 735.419653 310.520053 
L 735.612635 310.985953 
L 342.449428 473.839486 
L 344.282756 478.265533 
z
" style="fill:#7dff7a;stroke:#7dff7a;stroke-linejoin:miter;"/>
   </g>
   <g id="patch_60">
    <path clip-path="url(#p0588fde21b)" d="M 503.935149 549.156942 
L 511.066832 534.893574 
L 514.454382 538.281124 
L 738.07074 314.664766 
L 738.427324 315.021351 
L 514.810966 538.637708 
L 518.198516 542.025258 
z
" style="fill:#29ffce;stroke:#29ffce;stroke-linejoin:miter;"/>
   </g>
   <g id="patch_61">
    <path clip-path="url(#p0588fde21b)" d="M 573.696095 724.716144 
L 574.826557 708.809334 
L 579.252604 710.642663 
L 742.106137 317.479455 
L 742.572037 317.672437 
L 579.718504 710.835645 
L 584.144551 712.668973 
z
" style="fill:#0000f1;stroke:#0000f1;stroke-linejoin:miter;"/>
   </g>
   <g id="patch_62">
    <path clip-path="url(#p0588fde21b)" d="M 559.956942 136.550968 
L 552.825258 150.814335 
L 549.437708 147.426786 
L 325.821351 371.043143 
L 325.464766 370.686559 
L 549.081124 147.070201 
L 545.693574 143.682652 
z
" style="fill:#29ffce;stroke:#29ffce;stroke-linejoin:miter;"/>
   </g>
   <g id="patch_63">
    <path clip-path="url(#p0588fde21b)" d="M 316.728454 140.243518 
L 321.771316 155.372104 
L 316.980597 155.372104 
L 316.980597 367.172301 
L 316.476311 367.172301 
L 316.476311 155.372104 
L 311.685592 155.372104 
z
" style="fill:#ff4e00;stroke:#ff4e00;stroke-linejoin:miter;"/>
   </g>
   <g id="patch_64">
    <path clip-path="url(#p0588fde21b)" d="M 556.264391 379.779456 
L 541.135806 384.822318 
L 541.135806 380.031599 
L 329.335609 380.031599 
L 329.335609 379.527313 
L 541.135806 379.527313 
L 541.135806 374.736594 
z
" style="fill:#ff3800;stroke:#ff3800;stroke-linejoin:miter;"/>
   </g>
   <g id="patch_65">
    <path clip-path="url(#p0588fde21b)" d="M 150.083856 310.753003 
L 165.990666 311.883465 
L 164.157337 316.309512 
L 305.177453 374.721957 
L 304.984471 375.187856 
L 163.964355 316.775412 
L 162.131027 321.201459 
z
" style="fill:#ffde00;stroke:#ffde00;stroke-linejoin:miter;"/>
   </g>
   <g id="patch_66">
    <path clip-path="url(#p0588fde21b)" d="M 483.373052 310.753003 
L 471.325881 321.201459 
L 469.492553 316.775412 
L 328.472437 375.187856 
L 328.279455 374.721957 
L 469.299571 316.309512 
L 467.466242 311.883465 
z
" style="fill:#b60000;stroke:#b60000;stroke-linejoin:miter;"/>
   </g>
   <g id="patch_67">
    <path clip-path="url(#p0588fde21b)" d="M 385.754907 546.424054 
L 375.306451 534.376883 
L 379.732498 532.543554 
L 321.320053 391.523439 
L 321.785953 391.330457 
L 380.198397 532.350572 
L 384.624444 530.517244 
z
" style="fill:#ff1e00;stroke:#ff1e00;stroke-linejoin:miter;"/>
   </g>
   <g id="patch_68">
    <path clip-path="url(#p0588fde21b)" d="M 147.350968 549.156942 
L 154.482652 534.893574 
L 157.870201 538.281124 
L 307.635557 388.515768 
L 307.992142 388.872352 
L 158.226786 538.637708 
L 161.614335 542.025258 
z
" style="fill:#0018ff;stroke:#0018ff;stroke-linejoin:miter;"/>
   </g>
   <g id="patch_69">
    <path clip-path="url(#p0588fde21b)" d="M 735.516144 553.246997 
L 719.609334 552.116535 
L 721.442663 547.690488 
L 328.279455 384.836955 
L 328.472437 384.371055 
L 721.635645 547.224588 
L 723.468973 542.798541 
z
" style="fill:#000080;stroke:#000080;stroke-linejoin:miter;"/>
   </g>
   <g id="patch_70">
    <path clip-path="url(#p0588fde21b)" d="M 486.10594 549.156942 
L 471.842572 542.025258 
L 475.230122 538.637708 
L 325.464766 388.872352 
L 325.821351 388.515768 
L 475.586706 538.281124 
L 478.974256 534.893574 
z
" style="fill:#e4ff13;stroke:#e4ff13;stroke-linejoin:miter;"/>
   </g>
   <g id="patch_71">
    <path clip-path="url(#p0588fde21b)" d="M 316.728454 723.756482 
L 311.685592 708.627896 
L 316.476311 708.627896 
L 316.476311 392.38661 
L 316.980597 392.38661 
L 316.980597 708.627896 
L 321.771316 708.627896 
z
" style="fill:#0000d6;stroke:#0000d6;stroke-linejoin:miter;"/>
   </g>
   <g id="patch_72">
    <path clip-path="url(#p0588fde21b)" d="M 564.046997 139.283856 
L 562.916535 155.190666 
L 558.490488 153.357337 
L 500.078043 294.377453 
L 499.612144 294.184471 
L 558.024588 153.164355 
L 553.598541 151.331027 
z
" style="fill:#53ffa4;stroke:#53ffa4;stroke-linejoin:miter;"/>
   </g>
   <g id="patch_73">
    <path clip-path="url(#p0588fde21b)" d="M 325.643058 136.550968 
L 339.906426 143.682652 
L 336.518876 147.070201 
L 486.284232 296.835557 
L 485.927648 297.192142 
L 336.162292 147.426786 
L 332.774742 150.814335 
z
" style="fill:#ffae00;stroke:#ffae00;stroke-linejoin:miter;"/>
   </g>
   <g id="patch_74">
    <path clip-path="url(#p0588fde21b)" d="M 151.043518 305.928454 
L 166.172104 300.885592 
L 166.172104 305.676311 
L 482.41339 305.676311 
L 482.41339 306.180597 
L 166.172104 306.180597 
L 166.172104 310.971316 
z
" style="fill:#00e4f8;stroke:#00e4f8;stroke-linejoin:miter;"/>
   </g>
   <g id="patch_75">
    <path clip-path="url(#p0588fde21b)" d="M 734.556482 305.928454 
L 719.427896 310.971316 
L 719.427896 306.180597 
L 507.627699 306.180597 
L 507.627699 305.676311 
L 719.427896 305.676311 
L 719.427896 300.885592 
z
" style="fill:#ff3800;stroke:#ff3800;stroke-linejoin:miter;"/>
   </g>
   <g id="patch_76">
    <path clip-path="url(#p0588fde21b)" d="M 328.375946 374.954907 
L 340.423117 364.506451 
L 342.256446 368.932498 
L 483.276561 310.520053 
L 483.469543 310.985953 
L 342.449428 369.398397 
L 344.282756 373.824444 
z
" style="fill:#b60000;stroke:#b60000;stroke-linejoin:miter;"/>
   </g>
   <g id="patch_77">
    <path clip-path="url(#p0588fde21b)" d="M 564.046997 472.573052 
L 553.598541 460.525881 
L 558.024588 458.692553 
L 499.612144 317.672437 
L 500.078043 317.479455 
L 558.490488 458.499571 
L 562.916535 456.666242 
z
" style="fill:#ff1e00;stroke:#ff1e00;stroke-linejoin:miter;"/>
   </g>
   <g id="patch_78">
    <path clip-path="url(#p0588fde21b)" d="M 738.249032 549.156942 
L 723.985665 542.025258 
L 727.373214 538.637708 
L 503.756857 315.021351 
L 504.113441 314.664766 
L 727.729799 538.281124 
L 731.117348 534.893574 
z
" style="fill:#0000b6;stroke:#0000b6;stroke-linejoin:miter;"/>
   </g>
   <g id="patch_79">
    <path clip-path="url(#p0588fde21b)" d="M 325.643058 475.30594 
L 332.774742 461.042572 
L 336.162292 464.430122 
L 485.927648 314.664766 
L 486.284232 315.021351 
L 336.518876 464.786706 
L 339.906426 468.174256 
z
" style="fill:#0018ff;stroke:#0018ff;stroke-linejoin:miter;"/>
   </g>
   <g id="patch_80">
    <path clip-path="url(#p0588fde21b)" d="M 495.020544 545.464391 
L 489.977682 530.335806 
L 494.768401 530.335806 
L 494.768401 318.535609 
L 495.272687 318.535609 
L 495.272687 530.335806 
L 500.063406 530.335806 
z
" style="fill:#00ccff;stroke:#00ccff;stroke-linejoin:miter;"/>
   </g>
   <g id="patch_81">
    <path clip-path="url(#p0588fde21b)" d="M 321.553003 724.716144 
L 322.683465 708.809334 
L 327.109512 710.642663 
L 489.963045 317.479455 
L 490.428945 317.672437 
L 327.575412 710.835645 
L 332.001459 712.668973 
z
" style="fill:#0000f1;stroke:#0000f1;stroke-linejoin:miter;"/>
   </g>
   <g id="patch_82">
    <path clip-path="url(#p0588fde21b)" d="M 564.046997 139.283856 
L 562.916535 155.190666 
L 558.490488 153.357337 
L 395.636955 546.520545 
L 395.171055 546.327563 
L 558.024588 153.164355 
L 553.598541 151.331027 
z
" style="fill:#0000f1;stroke:#0000f1;stroke-linejoin:miter;"/>
   </g>
   <g id="patch_83">
    <path clip-path="url(#p0588fde21b)" d="M 390.579456 318.535609 
L 395.622318 333.664194 
L 390.831599 333.664194 
L 390.831599 545.464391 
L 390.327313 545.464391 
L 390.327313 333.664194 
L 385.536594 333.664194 
z
" style="fill:#ff4e00;stroke:#ff4e00;stroke-linejoin:miter;"/>
   </g>
   <g id="patch_84">
    <path clip-path="url(#p0588fde21b)" d="M 559.956942 388.69406 
L 552.825258 402.957428 
L 549.437708 399.569878 
L 399.672352 549.335234 
L 399.315768 548.978649 
L 549.081124 399.213294 
L 545.693574 395.825744 
z
" style="fill:#f10800;stroke:#f10800;stroke-linejoin:miter;"/>
   </g>
   <g id="patch_85">
    <path clip-path="url(#p0588fde21b)" d="M 147.350968 314.843058 
L 161.614335 321.974742 
L 158.226786 325.362292 
L 381.843143 548.978649 
L 381.486559 549.335234 
L 157.870201 325.718876 
L 154.482652 329.106426 
z
" style="fill:#0000b6;stroke:#0000b6;stroke-linejoin:miter;"/>
   </g>
   <g id="patch_86">
    <path clip-path="url(#p0588fde21b)" d="M 321.553003 391.426948 
L 332.001459 403.474119 
L 327.575412 405.307447 
L 385.987856 546.327563 
L 385.521957 546.520545 
L 327.109512 405.500429 
L 322.683465 407.333758 
z
" style="fill:#ff1e00;stroke:#ff1e00;stroke-linejoin:miter;"/>
   </g>
   <g id="patch_87">
    <path clip-path="url(#p0588fde21b)" d="M 151.043518 558.071546 
L 166.172104 553.028684 
L 166.172104 557.819403 
L 377.972301 557.819403 
L 377.972301 558.323689 
L 166.172104 558.323689 
L 166.172104 563.114408 
z
" style="fill:#ff7e00;stroke:#ff7e00;stroke-linejoin:miter;"/>
   </g>
   <g id="patch_88">
    <path clip-path="url(#p0588fde21b)" d="M 557.224054 489.045093 
L 545.176883 499.493549 
L 543.343554 495.067502 
L 402.323439 553.479947 
L 402.130457 553.014047 
L 543.150572 494.601603 
L 541.317244 490.175556 
z
" style="fill:#b60000;stroke:#b60000;stroke-linejoin:miter;"/>
   </g>
   <g id="patch_89">
    <path clip-path="url(#p0588fde21b)" d="M 734.556482 558.071546 
L 719.427896 563.114408 
L 719.427896 558.323689 
L 403.18661 558.323689 
L 403.18661 557.819403 
L 719.427896 557.819403 
L 719.427896 553.028684 
z
" style="fill:#00e4f8;stroke:#00e4f8;stroke-linejoin:miter;"/>
   </g>
   <g id="patch_90">
    <path clip-path="url(#p0588fde21b)" d="M 559.956942 727.449032 
L 545.693574 720.317348 
L 549.081124 716.929799 
L 399.315768 567.164443 
L 399.672352 566.807858 
L 549.437708 716.573214 
L 552.825258 713.185665 
z
" style="fill:#e4ff13;stroke:#e4ff13;stroke-linejoin:miter;"/>
   </g>
   <g id="patch_91">
    <path clip-path="url(#p0588fde21b)" d="M 321.553003 724.716144 
L 322.683465 708.809334 
L 327.109512 710.642663 
L 385.521957 569.622547 
L 385.987856 569.815529 
L 327.575412 710.835645 
L 332.001459 712.668973 
z
" style="fill:#53ffa4;stroke:#53ffa4;stroke-linejoin:miter;"/>
   </g>
   <g id="patch_92">
    <path clip-path="url(#p0588fde21b)" d="M 311.903905 139.283856 
L 310.773443 155.190666 
L 306.347396 153.357337 
L 143.493863 546.520545 
L 143.027963 546.327563 
L 305.881496 153.164355 
L 301.455449 151.331027 
z
" style="fill:#0000f1;stroke:#0000f1;stroke-linejoin:miter;"/>
   </g>
   <g id="patch_93">
    <path clip-path="url(#p0588fde21b)" d="M 381.664851 314.843058 
L 374.533168 329.106426 
L 371.145618 325.718876 
L 147.52926 549.335234 
L 147.172676 548.978649 
L 370.789034 325.362292 
L 367.401484 321.974742 
z
" style="fill:#29ffce;stroke:#29ffce;stroke-linejoin:miter;"/>
   </g>
   <g id="patch_94">
    <path clip-path="url(#p0588fde21b)" d="M 557.224054 384.604005 
L 545.176883 395.052461 
L 543.343554 390.626414 
L 150.180347 553.479947 
L 149.987365 553.014047 
L 543.150572 390.160514 
L 541.317244 385.734467 
z
" style="fill:#7dff7a;stroke:#7dff7a;stroke-linejoin:miter;"/>
   </g>
   <g id="patch_95">
    <path clip-path="url(#p0588fde21b)" d="M 138.436364 318.535609 
L 143.479225 333.664194 
L 138.688507 333.664194 
L 138.688507 545.464391 
L 138.184221 545.464391 
L 138.184221 333.664194 
L 133.393502 333.664194 
z
" style="fill:#00ccff;stroke:#00ccff;stroke-linejoin:miter;"/>
   </g>
   <g id="patch_96">
    <path clip-path="url(#p0588fde21b)" d="M 307.813849 388.69406 
L 300.682166 402.957428 
L 297.294616 399.569878 
L 147.52926 549.335234 
L 147.172676 548.978649 
L 296.938032 399.213294 
L 293.550482 395.825744 
z
" style="fill:#0018ff;stroke:#0018ff;stroke-linejoin:miter;"/>
   </g>
   <g id="patch_97">
    <path clip-path="url(#p0588fde21b)" d="M 377.972301 558.071546 
L 362.843716 563.114408 
L 362.843716 558.323689 
L 151.043518 558.323689 
L 151.043518 557.819403 
L 362.843716 557.819403 
L 362.843716 553.028684 
z
" style="fill:#ff7e00;stroke:#ff7e00;stroke-linejoin:miter;"/>
   </g>
   <g id="patch_98">
    <path clip-path="url(#p0588fde21b)" d="M 305.080962 489.045093 
L 293.033791 499.493549 
L 291.200462 495.067502 
L 150.180347 553.479947 
L 149.987365 553.014047 
L 291.00748 494.601603 
L 289.174152 490.175556 
z
" style="fill:#b60000;stroke:#b60000;stroke-linejoin:miter;"/>
   </g>
   <g id="patch_99">
    <path clip-path="url(#p0588fde21b)" d="M 482.41339 558.071546 
L 467.284804 563.114408 
L 467.284804 558.323689 
L 151.043518 558.323689 
L 151.043518 557.819403 
L 467.284804 557.819403 
L 467.284804 553.028684 
z
" style="fill:#00e4f8;stroke:#00e4f8;stroke-linejoin:miter;"/>
   </g>
   <g id="patch_100">
    <path clip-path="url(#p0588fde21b)" d="M 557.224054 731.539087 
L 541.317244 730.408625 
L 543.150572 725.982578 
L 149.987365 563.129045 
L 150.180347 562.663145 
L 543.343554 725.516678 
L 545.176883 721.090631 
z
" style="fill:#000080;stroke:#000080;stroke-linejoin:miter;"/>
   </g>
   <g id="patch_101">
    <path clip-path="url(#p0588fde21b)" d="M 307.813849 727.449032 
L 293.550482 720.317348 
L 296.938032 716.929799 
L 147.172676 567.164443 
L 147.52926 566.807858 
L 297.294616 716.573214 
L 300.682166 713.185665 
z
" style="fill:#ffae00;stroke:#ffae00;stroke-linejoin:miter;"/>
   </g>
   <g id="patch_102">
    <path clip-path="url(#p0588fde21b)" d="M 568.871546 140.243518 
L 573.914408 155.372104 
L 569.123689 155.372104 
L 569.123689 471.61339 
L 568.619403 471.61339 
L 568.619403 155.372104 
L 563.828684 155.372104 
z
" style="fill:#0000d6;stroke:#0000d6;stroke-linejoin:miter;"/>
   </g>
   <g id="patch_103">
    <path clip-path="url(#p0588fde21b)" d="M 399.49406 314.843058 
L 413.757428 321.974742 
L 410.369878 325.362292 
L 560.135234 475.127648 
L 559.778649 475.484232 
L 410.013294 325.718876 
L 406.625744 329.106426 
z
" style="fill:#ffae00;stroke:#ffae00;stroke-linejoin:miter;"/>
   </g>
   <g id="patch_104">
    <path clip-path="url(#p0588fde21b)" d="M 150.083856 310.753003 
L 165.990666 311.883465 
L 164.157337 316.309512 
L 557.320545 479.163045 
L 557.127563 479.628945 
L 163.964355 316.775412 
L 162.131027 321.201459 
z
" style="fill:#000080;stroke:#000080;stroke-linejoin:miter;"/>
   </g>
   <g id="patch_105">
    <path clip-path="url(#p0588fde21b)" d="M 738.249032 314.843058 
L 731.117348 329.106426 
L 727.729799 325.718876 
L 577.964443 475.484232 
L 577.607858 475.127648 
L 727.373214 325.362292 
L 723.985665 321.974742 
z
" style="fill:#f10800;stroke:#f10800;stroke-linejoin:miter;"/>
   </g>
   <g id="patch_106">
    <path clip-path="url(#p0588fde21b)" d="M 499.845093 317.575946 
L 510.293549 329.623117 
L 505.867502 331.456446 
L 564.279947 472.476561 
L 563.814047 472.669543 
L 505.401603 331.649428 
L 500.975556 333.482756 
z
" style="fill:#ff1e00;stroke:#ff1e00;stroke-linejoin:miter;"/>
   </g>
   <g id="patch_107">
    <path clip-path="url(#p0588fde21b)" d="M 402.226948 553.246997 
L 414.274119 542.798541 
L 416.107447 547.224588 
L 557.127563 488.812144 
L 557.320545 489.278043 
L 416.300429 547.690488 
L 418.133758 552.116535 
z
" style="fill:#b60000;stroke:#b60000;stroke-linejoin:miter;"/>
   </g>
   <g id="patch_108">
    <path clip-path="url(#p0588fde21b)" d="M 735.516144 553.246997 
L 719.609334 552.116535 
L 721.442663 547.690488 
L 580.422547 489.278043 
L 580.615529 488.812144 
L 721.635645 547.224588 
L 723.468973 542.798541 
z
" style="fill:#ffde00;stroke:#ffde00;stroke-linejoin:miter;"/>
   </g>
   <g id="patch_109">
    <path clip-path="url(#p0588fde21b)" d="M 329.335609 484.220544 
L 344.464194 479.177682 
L 344.464194 483.968401 
L 556.264391 483.968401 
L 556.264391 484.472687 
L 344.464194 484.472687 
L 344.464194 489.263406 
z
" style="fill:#ff7e00;stroke:#ff7e00;stroke-linejoin:miter;"/>
   </g>
   <g id="patch_110">
    <path clip-path="url(#p0588fde21b)" d="M 568.871546 723.756482 
L 563.828684 708.627896 
L 568.619403 708.627896 
L 568.619403 496.827699 
L 569.123689 496.827699 
L 569.123689 708.627896 
L 573.914408 708.627896 
z
" style="fill:#00ccff;stroke:#00ccff;stroke-linejoin:miter;"/>
   </g>
   <g id="patch_111">
    <path clip-path="url(#p0588fde21b)" d="M 325.643058 727.449032 
L 332.774742 713.185665 
L 336.162292 716.573214 
L 559.778649 492.956857 
L 560.135234 493.313441 
L 336.518876 716.929799 
L 339.906426 720.317348 
z
" style="fill:#29ffce;stroke:#29ffce;stroke-linejoin:miter;"/>
   </g>
   <g id="patch_112">
    <path clip-path="url(#p0588fde21b)" d="M 573.696095 139.283856 
L 584.144551 151.331027 
L 579.718504 153.164355 
L 742.572037 546.327563 
L 742.106137 546.520545 
L 579.252604 153.357337 
L 574.826557 155.190666 
z
" style="fill:#004cff;stroke:#004cff;stroke-linejoin:miter;"/>
   </g>
   <g id="patch_113">
    <path clip-path="url(#p0588fde21b)" d="M 577.786151 388.69406 
L 592.049518 395.825744 
L 588.661968 399.213294 
L 738.427324 548.978649 
L 738.07074 549.335234 
L 588.305384 399.569878 
L 584.917834 402.957428 
z
" style="fill:#ffae00;stroke:#ffae00;stroke-linejoin:miter;"/>
   </g>
   <g id="patch_114">
    <path clip-path="url(#p0588fde21b)" d="M 747.163636 318.535609 
L 752.206498 333.664194 
L 747.415779 333.664194 
L 747.415779 545.464391 
L 746.911493 545.464391 
L 746.911493 333.664194 
L 742.120775 333.664194 
z
" style="fill:#ff4e00;stroke:#ff4e00;stroke-linejoin:miter;"/>
   </g>
   <g id="patch_115">
    <path clip-path="url(#p0588fde21b)" d="M 328.375946 384.604005 
L 344.282756 385.734467 
L 342.449428 390.160514 
L 735.612635 553.014047 
L 735.419653 553.479947 
L 342.256446 390.626414 
L 340.423117 395.052461 
z
" style="fill:#000080;stroke:#000080;stroke-linejoin:miter;"/>
   </g>
   <g id="patch_116">
    <path clip-path="url(#p0588fde21b)" d="M 503.935149 314.843058 
L 518.198516 321.974742 
L 514.810966 325.362292 
L 738.427324 548.978649 
L 738.07074 549.335234 
L 514.454382 325.718876 
L 511.066832 329.106426 
z
" style="fill:#0000b6;stroke:#0000b6;stroke-linejoin:miter;"/>
   </g>
   <g id="patch_117">
    <path clip-path="url(#p0588fde21b)" d="M 403.18661 558.071546 
L 418.315196 553.028684 
L 418.315196 557.819403 
L 734.556482 557.819403 
L 734.556482 558.323689 
L 418.315196 558.323689 
L 418.315196 563.114408 
z
" style="fill:#00e4f8;stroke:#00e4f8;stroke-linejoin:miter;"/>
   </g>
   <g id="patch_118">
    <path clip-path="url(#p0588fde21b)" d="M 580.519038 489.045093 
L 596.425848 490.175556 
L 594.59252 494.601603 
L 735.612635 553.014047 
L 735.419653 553.479947 
L 594.399538 495.067502 
L 592.566209 499.493549 
z
" style="fill:#ffde00;stroke:#ffde00;stroke-linejoin:miter;"/>
   </g>
   <g id="patch_119">
    <path clip-path="url(#p0588fde21b)" d="M 507.627699 558.071546 
L 522.756284 553.028684 
L 522.756284 557.819403 
L 734.556482 557.819403 
L 734.556482 558.323689 
L 522.756284 558.323689 
L 522.756284 563.114408 
z
" style="fill:#ff7e00;stroke:#ff7e00;stroke-linejoin:miter;"/>
   </g>
   <g id="patch_120">
    <path clip-path="url(#p0588fde21b)" d="M 577.786151 727.449032 
L 584.917834 713.185665 
L 588.305384 716.573214 
L 738.07074 566.807858 
L 738.427324 567.164443 
L 588.661968 716.929799 
L 592.049518 720.317348 
z
" style="fill:#0018ff;stroke:#0018ff;stroke-linejoin:miter;"/>
   </g>
   <g id="patch_121">
    <path clip-path="url(#p0588fde21b)" d="M 328.375946 731.539087 
L 340.423117 721.090631 
L 342.256446 725.516678 
L 735.419653 562.663145 
L 735.612635 563.129045 
L 342.449428 725.982578 
L 344.282756 730.408625 
z
" style="fill:#7dff7a;stroke:#7dff7a;stroke-linejoin:miter;"/>
   </g>
   <g id="patch_122">
    <path clip-path="url(#p0588fde21b)" d="M 316.728454 140.243518 
L 321.771316 155.372104 
L 316.980597 155.372104 
L 316.980597 471.61339 
L 316.476311 471.61339 
L 316.476311 155.372104 
L 311.685592 155.372104 
z
" style="fill:#0000d6;stroke:#0000d6;stroke-linejoin:miter;"/>
   </g>
   <g id="patch_123">
    <path clip-path="url(#p0588fde21b)" d="M 385.754907 317.575946 
L 384.624444 333.482756 
L 380.198397 331.649428 
L 321.785953 472.669543 
L 321.320053 472.476561 
L 379.732498 331.456446 
L 375.306451 329.623117 
z
" style="fill:#53ffa4;stroke:#53ffa4;stroke-linejoin:miter;"/>
   </g>
   <g id="patch_124">
    <path clip-path="url(#p0588fde21b)" d="M 147.350968 314.843058 
L 161.614335 321.974742 
L 158.226786 325.362292 
L 307.992142 475.127648 
L 307.635557 475.484232 
L 157.870201 325.718876 
L 154.482652 329.106426 
z
" style="fill:#e4ff13;stroke:#e4ff13;stroke-linejoin:miter;"/>
   </g>
   <g id="patch_125">
    <path clip-path="url(#p0588fde21b)" d="M 735.516144 310.753003 
L 723.468973 321.201459 
L 721.635645 316.775412 
L 328.472437 479.628945 
L 328.279455 479.163045 
L 721.442663 316.309512 
L 719.609334 311.883465 
z
" style="fill:#7dff7a;stroke:#7dff7a;stroke-linejoin:miter;"/>
   </g>
   <g id="patch_126">
    <path clip-path="url(#p0588fde21b)" d="M 486.10594 314.843058 
L 478.974256 329.106426 
L 475.586706 325.718876 
L 325.821351 475.484232 
L 325.464766 475.127648 
L 475.230122 325.362292 
L 471.842572 321.974742 
z
" style="fill:#0018ff;stroke:#0018ff;stroke-linejoin:miter;"/>
   </g>
   <g id="patch_127">
    <path clip-path="url(#p0588fde21b)" d="M 150.083856 553.246997 
L 162.131027 542.798541 
L 163.964355 547.224588 
L 304.984471 488.812144 
L 305.177453 489.278043 
L 164.157337 547.690488 
L 165.990666 552.116535 
z
" style="fill:#b60000;stroke:#b60000;stroke-linejoin:miter;"/>
   </g>
   <g id="patch_128">
    <path clip-path="url(#p0588fde21b)" d="M 556.264391 484.220544 
L 541.135806 489.263406 
L 541.135806 484.472687 
L 329.335609 484.472687 
L 329.335609 483.968401 
L 541.135806 483.968401 
L 541.135806 479.177682 
z
" style="fill:#ff7e00;stroke:#ff7e00;stroke-linejoin:miter;"/>
   </g>
   <g id="patch_129">
    <path clip-path="url(#p0588fde21b)" d="M 483.373052 553.246997 
L 467.466242 552.116535 
L 469.299571 547.690488 
L 328.279455 489.278043 
L 328.472437 488.812144 
L 469.492553 547.224588 
L 471.325881 542.798541 
z
" style="fill:#ffde00;stroke:#ffde00;stroke-linejoin:miter;"/>
   </g>
   <g id="patch_130">
    <path clip-path="url(#p0588fde21b)" d="M 559.956942 727.449032 
L 545.693574 720.317348 
L 549.081124 716.929799 
L 325.464766 493.313441 
L 325.821351 492.956857 
L 549.437708 716.573214 
L 552.825258 713.185665 
z
" style="fill:#0000b6;stroke:#0000b6;stroke-linejoin:miter;"/>
   </g>
   <g id="patch_131">
    <path clip-path="url(#p0588fde21b)" d="M 316.728454 723.756482 
L 311.685592 708.627896 
L 316.476311 708.627896 
L 316.476311 496.827699 
L 316.980597 496.827699 
L 316.980597 708.627896 
L 321.771316 708.627896 
z
" style="fill:#ff4e00;stroke:#ff4e00;stroke-linejoin:miter;"/>
   </g>
   <g id="patch_132">
    <path clip-path="url(#p0588fde21b)" d="M 321.553003 139.283856 
L 332.001459 151.331027 
L 327.575412 153.164355 
L 490.428945 546.327563 
L 489.963045 546.520545 
L 327.109512 153.357337 
L 322.683465 155.190666 
z
" style="fill:#004cff;stroke:#004cff;stroke-linejoin:miter;"/>
   </g>
   <g id="patch_133">
    <path clip-path="url(#p0588fde21b)" d="M 564.046997 391.426948 
L 562.916535 407.333758 
L 558.490488 405.500429 
L 500.078043 546.520545 
L 499.612144 546.327563 
L 558.024588 405.307447 
L 553.598541 403.474119 
z
" style="fill:#53ffa4;stroke:#53ffa4;stroke-linejoin:miter;"/>
   </g>
   <g id="patch_134">
    <path clip-path="url(#p0588fde21b)" d="M 738.249032 314.843058 
L 731.117348 329.106426 
L 727.729799 325.718876 
L 504.113441 549.335234 
L 503.756857 548.978649 
L 727.373214 325.362292 
L 723.985665 321.974742 
z
" style="fill:#29ffce;stroke:#29ffce;stroke-linejoin:miter;"/>
   </g>
   <g id="patch_135">
    <path clip-path="url(#p0588fde21b)" d="M 325.643058 388.69406 
L 339.906426 395.825744 
L 336.518876 399.213294 
L 486.284232 548.978649 
L 485.927648 549.335234 
L 336.162292 399.569878 
L 332.774742 402.957428 
z
" style="fill:#e4ff13;stroke:#e4ff13;stroke-linejoin:miter;"/>
   </g>
   <g id="patch_136">
    <path clip-path="url(#p0588fde21b)" d="M 495.020544 318.535609 
L 500.063406 333.664194 
L 495.272687 333.664194 
L 495.272687 545.464391 
L 494.768401 545.464391 
L 494.768401 333.664194 
L 489.977682 333.664194 
z
" style="fill:#00ccff;stroke:#00ccff;stroke-linejoin:miter;"/>
   </g>
   <g id="patch_137">
    <path clip-path="url(#p0588fde21b)" d="M 151.043518 558.071546 
L 166.172104 553.028684 
L 166.172104 557.819403 
L 482.41339 557.819403 
L 482.41339 558.323689 
L 166.172104 558.323689 
L 166.172104 563.114408 
z
" style="fill:#00e4f8;stroke:#00e4f8;stroke-linejoin:miter;"/>
   </g>
   <g id="patch_138">
    <path clip-path="url(#p0588fde21b)" d="M 734.556482 558.071546 
L 719.427896 563.114408 
L 719.427896 558.323689 
L 507.627699 558.323689 
L 507.627699 557.819403 
L 719.427896 557.819403 
L 719.427896 553.028684 
z
" style="fill:#ff7e00;stroke:#ff7e00;stroke-linejoin:miter;"/>
   </g>
   <g id="patch_139">
    <path clip-path="url(#p0588fde21b)" d="M 328.375946 489.045093 
L 344.282756 490.175556 
L 342.449428 494.601603 
L 483.469543 553.014047 
L 483.276561 553.479947 
L 342.256446 495.067502 
L 340.423117 499.493549 
z
" style="fill:#ffde00;stroke:#ffde00;stroke-linejoin:miter;"/>
   </g>
   <g id="patch_140">
    <path clip-path="url(#p0588fde21b)" d="M 564.046997 724.716144 
L 553.598541 712.668973 
L 558.024588 710.835645 
L 499.612144 569.815529 
L 500.078043 569.622547 
L 558.490488 710.642663 
L 562.916535 708.809334 
z
" style="fill:#ff1e00;stroke:#ff1e00;stroke-linejoin:miter;"/>
   </g>
   <g id="patch_141">
    <path clip-path="url(#p0588fde21b)" d="M 325.643058 727.449032 
L 332.774742 713.185665 
L 336.162292 716.573214 
L 485.927648 566.807858 
L 486.284232 567.164443 
L 336.518876 716.929799 
L 339.906426 720.317348 
z
" style="fill:#f10800;stroke:#f10800;stroke-linejoin:miter;"/>
   </g>
   <g id="patch_142">
    <path clip-path="url(#p0588fde21b)" d="M 395.404005 317.575946 
L 405.852461 329.623117 
L 401.426414 331.456446 
L 564.279947 724.619653 
L 563.814047 724.812635 
L 400.960514 331.649428 
L 396.534467 333.482756 
z
" style="fill:#004cff;stroke:#004cff;stroke-linejoin:miter;"/>
   </g>
   <g id="patch_143">
    <path clip-path="url(#p0588fde21b)" d="M 568.871546 392.38661 
L 573.914408 407.515196 
L 569.123689 407.515196 
L 569.123689 723.756482 
L 568.619403 723.756482 
L 568.619403 407.515196 
L 563.828684 407.515196 
z
" style="fill:#0000d6;stroke:#0000d6;stroke-linejoin:miter;"/>
   </g>
   <g id="patch_144">
    <path clip-path="url(#p0588fde21b)" d="M 742.339087 317.575946 
L 741.208625 333.482756 
L 736.782578 331.649428 
L 573.929045 724.812635 
L 573.463145 724.619653 
L 736.316678 331.456446 
L 731.890631 329.623117 
z
" style="fill:#0000f1;stroke:#0000f1;stroke-linejoin:miter;"/>
   </g>
   <g id="patch_145">
    <path clip-path="url(#p0588fde21b)" d="M 399.49406 566.986151 
L 413.757428 574.117834 
L 410.369878 577.505384 
L 560.135234 727.27074 
L 559.778649 727.627324 
L 410.013294 577.861968 
L 406.625744 581.249518 
z
" style="fill:#e4ff13;stroke:#e4ff13;stroke-linejoin:miter;"/>
   </g>
   <g id="patch_146">
    <path clip-path="url(#p0588fde21b)" d="M 150.083856 562.896095 
L 165.990666 564.026557 
L 164.157337 568.452604 
L 557.320545 731.306137 
L 557.127563 731.772037 
L 163.964355 568.918504 
L 162.131027 573.344551 
z
" style="fill:#000080;stroke:#000080;stroke-linejoin:miter;"/>
   </g>
   <g id="patch_147">
    <path clip-path="url(#p0588fde21b)" d="M 568.871546 496.827699 
L 573.914408 511.956284 
L 569.123689 511.956284 
L 569.123689 723.756482 
L 568.619403 723.756482 
L 568.619403 511.956284 
L 563.828684 511.956284 
z
" style="fill:#00ccff;stroke:#00ccff;stroke-linejoin:miter;"/>
   </g>
   <g id="patch_148">
    <path clip-path="url(#p0588fde21b)" d="M 738.249032 566.986151 
L 731.117348 581.249518 
L 727.729799 577.861968 
L 577.964443 727.627324 
L 577.607858 727.27074 
L 727.373214 577.505384 
L 723.985665 574.117834 
z
" style="fill:#0018ff;stroke:#0018ff;stroke-linejoin:miter;"/>
   </g>
   <g id="patch_149">
    <path clip-path="url(#p0588fde21b)" d="M 325.643058 493.135149 
L 339.906426 500.266832 
L 336.518876 503.654382 
L 560.135234 727.27074 
L 559.778649 727.627324 
L 336.162292 504.010966 
L 332.774742 507.398516 
z
" style="fill:#0000b6;stroke:#0000b6;stroke-linejoin:miter;"/>
   </g>
   <g id="patch_150">
    <path clip-path="url(#p0588fde21b)" d="M 499.845093 569.719038 
L 510.293549 581.766209 
L 505.867502 583.599538 
L 564.279947 724.619653 
L 563.814047 724.812635 
L 505.401603 583.79252 
L 500.975556 585.625848 
z
" style="fill:#ff1e00;stroke:#ff1e00;stroke-linejoin:miter;"/>
   </g>
   <g id="patch_151">
    <path clip-path="url(#p0588fde21b)" d="M 329.335609 736.363636 
L 344.464194 731.320775 
L 344.464194 736.111493 
L 556.264391 736.111493 
L 556.264391 736.615779 
L 344.464194 736.615779 
L 344.464194 741.406498 
z
" style="fill:#ff3800;stroke:#ff3800;stroke-linejoin:miter;"/>
   </g>
   <g id="patch_152">
    <path clip-path="url(#p0588fde21b)" d="M 143.260913 317.575946 
L 153.709369 329.623117 
L 149.283322 331.456446 
L 312.136855 724.619653 
L 311.670955 724.812635 
L 148.817422 331.649428 
L 144.391375 333.482756 
z
" style="fill:#004cff;stroke:#004cff;stroke-linejoin:miter;"/>
   </g>
   <g id="patch_153">
    <path clip-path="url(#p0588fde21b)" d="M 316.728454 392.38661 
L 321.771316 407.515196 
L 316.980597 407.515196 
L 316.980597 723.756482 
L 316.476311 723.756482 
L 316.476311 407.515196 
L 311.685592 407.515196 
z
" style="fill:#0000d6;stroke:#0000d6;stroke-linejoin:miter;"/>
   </g>
   <g id="patch_154">
    <path clip-path="url(#p0588fde21b)" d="M 490.195995 317.575946 
L 489.065533 333.482756 
L 484.639486 331.649428 
L 321.785953 724.812635 
L 321.320053 724.619653 
L 484.173586 331.456446 
L 479.747539 329.623117 
z
" style="fill:#0000f1;stroke:#0000f1;stroke-linejoin:miter;"/>
   </g>
   <g id="patch_155">
    <path clip-path="url(#p0588fde21b)" d="M 385.754907 569.719038 
L 384.624444 585.625848 
L 380.198397 583.79252 
L 321.785953 724.812635 
L 321.320053 724.619653 
L 379.732498 583.599538 
L 375.306451 581.766209 
z
" style="fill:#53ffa4;stroke:#53ffa4;stroke-linejoin:miter;"/>
   </g>
   <g id="patch_156">
    <path clip-path="url(#p0588fde21b)" d="M 147.350968 566.986151 
L 161.614335 574.117834 
L 158.226786 577.505384 
L 307.992142 727.27074 
L 307.635557 727.627324 
L 157.870201 577.861968 
L 154.482652 581.249518 
z
" style="fill:#ffae00;stroke:#ffae00;stroke-linejoin:miter;"/>
   </g>
   <g id="patch_157">
    <path clip-path="url(#p0588fde21b)" d="M 559.956942 493.135149 
L 552.825258 507.398516 
L 549.437708 504.010966 
L 325.821351 727.627324 
L 325.464766 727.27074 
L 549.081124 503.654382 
L 545.693574 500.266832 
z
" style="fill:#29ffce;stroke:#29ffce;stroke-linejoin:miter;"/>
   </g>
   <g id="patch_158">
    <path clip-path="url(#p0588fde21b)" d="M 735.516144 562.896095 
L 723.468973 573.344551 
L 721.635645 568.918504 
L 328.472437 731.772037 
L 328.279455 731.306137 
L 721.442663 568.452604 
L 719.609334 564.026557 
z
" style="fill:#7dff7a;stroke:#7dff7a;stroke-linejoin:miter;"/>
   </g>
   <g id="patch_159">
    <path clip-path="url(#p0588fde21b)" d="M 316.728454 496.827699 
L 321.771316 511.956284 
L 316.980597 511.956284 
L 316.980597 723.756482 
L 316.476311 723.756482 
L 316.476311 511.956284 
L 311.685592 511.956284 
z
" style="fill:#ff4e00;stroke:#ff4e00;stroke-linejoin:miter;"/>
   </g>
   <g id="patch_160">
    <path clip-path="url(#p0588fde21b)" d="M 486.10594 566.986151 
L 478.974256 581.249518 
L 475.586706 577.861968 
L 325.821351 727.627324 
L 325.464766 727.27074 
L 475.230122 577.505384 
L 471.842572 574.117834 
z
" style="fill:#f10800;stroke:#f10800;stroke-linejoin:miter;"/>
   </g>
   <g id="patch_161">
    <path clip-path="url(#p0588fde21b)" d="M 556.264391 736.363636 
L 541.135806 741.406498 
L 541.135806 736.615779 
L 329.335609 736.615779 
L 329.335609 736.111493 
L 541.135806 736.111493 
L 541.135806 731.320775 
z
" style="fill:#ff3800;stroke:#ff3800;stroke-linejoin:miter;"/>
   </g>
   <g id="line2d_1">
    <defs>
     <path d="M 0 12.5 
C 3.315039 12.5 6.494748 11.182921 8.838835 8.838835 
C 11.182921 6.494748 12.5 3.315039 12.5 0 
C 12.5 -3.315039 11.182921 -6.494748 8.838835 -8.838835 
C 6.494748 -11.182921 3.315039 -12.5 0 -12.5 
C -3.315039 -12.5 -6.494748 -11.182921 -8.838835 -8.838835 
C -11.182921 -6.494748 -12.5 -3.315039 -12.5 0 
C -12.5 3.315039 -11.182921 6.494748 -8.838835 8.838835 
C -6.494748 11.182921 -3.315039 12.5 0 12.5 
z
" id="maeba9f86c7" style="stroke:#000000;stroke-width:1.5;"/>
    </defs>
    <g clip-path="url(#p0588fde21b)">
     <use style="fill:#ffffff;stroke:#000000;stroke-width:1.5;" x="568.871546075" xlink:href="#maeba9f86c7" y="127.636363636"/>
    </g>
   </g>
   <g id="line2d_2">
    <g clip-path="url(#p0588fde21b)">
     <use style="fill:#ffffff;stroke:#000000;stroke-width:1.5;" x="316.728453925" xlink:href="#maeba9f86c7" y="127.636363636"/>
    </g>
   </g>
   <g id="line2d_3">
    <g clip-path="url(#p0588fde21b)">
     <use style="fill:#ffffff;stroke:#000000;stroke-width:1.5;" x="390.579455786" xlink:href="#maeba9f86c7" y="305.928453925"/>
    </g>
   </g>
   <g id="line2d_4">
    <g clip-path="url(#p0588fde21b)">
     <use style="fill:#ffffff;stroke:#000000;stroke-width:1.5;" x="568.871546075" xlink:href="#maeba9f86c7" y="379.779455786"/>
    </g>
   </g>
   <g id="line2d_5">
    <g clip-path="url(#p0588fde21b)">
     <use style="fill:#ffffff;stroke:#000000;stroke-width:1.5;" x="138.436363636" xlink:href="#maeba9f86c7" y="305.928453925"/>
    </g>
   </g>
   <g id="line2d_6">
    <g clip-path="url(#p0588fde21b)">
     <use style="fill:#ffffff;stroke:#000000;stroke-width:1.5;" x="747.163636364" xlink:href="#maeba9f86c7" y="305.928453925"/>
    </g>
   </g>
   <g id="line2d_7">
    <g clip-path="url(#p0588fde21b)">
     <use style="fill:#ffffff;stroke:#000000;stroke-width:1.5;" x="316.728453925" xlink:href="#maeba9f86c7" y="379.779455786"/>
    </g>
   </g>
   <g id="line2d_8">
    <g clip-path="url(#p0588fde21b)">
     <use style="fill:#ffffff;stroke:#000000;stroke-width:1.5;" x="495.020544214" xlink:href="#maeba9f86c7" y="305.928453925"/>
    </g>
   </g>
   <g id="line2d_9">
    <g clip-path="url(#p0588fde21b)">
     <use style="fill:#ffffff;stroke:#000000;stroke-width:1.5;" x="390.579455786" xlink:href="#maeba9f86c7" y="558.071546075"/>
    </g>
   </g>
   <g id="line2d_10">
    <g clip-path="url(#p0588fde21b)">
     <use style="fill:#ffffff;stroke:#000000;stroke-width:1.5;" x="138.436363636" xlink:href="#maeba9f86c7" y="558.071546075"/>
    </g>
   </g>
   <g id="line2d_11">
    <g clip-path="url(#p0588fde21b)">
     <use style="fill:#ffffff;stroke:#000000;stroke-width:1.5;" x="568.871546075" xlink:href="#maeba9f86c7" y="484.220544214"/>
    </g>
   </g>
   <g id="line2d_12">
    <g clip-path="url(#p0588fde21b)">
     <use style="fill:#ffffff;stroke:#000000;stroke-width:1.5;" x="747.163636364" xlink:href="#maeba9f86c7" y="558.071546075"/>
    </g>
   </g>
   <g id="line2d_13">
    <g clip-path="url(#p0588fde21b)">
     <use style="fill:#ffffff;stroke:#000000;stroke-width:1.5;" x="316.728453925" xlink:href="#maeba9f86c7" y="484.220544214"/>
    </g>
   </g>
   <g id="line2d_14">
    <g clip-path="url(#p0588fde21b)">
     <use style="fill:#ffffff;stroke:#000000;stroke-width:1.5;" x="495.020544214" xlink:href="#maeba9f86c7" y="558.071546075"/>
    </g>
   </g>
   <g id="line2d_15">
    <g clip-path="url(#p0588fde21b)">
     <use style="fill:#ffffff;stroke:#000000;stroke-width:1.5;" x="568.871546075" xlink:href="#maeba9f86c7" y="736.363636364"/>
    </g>
   </g>
   <g id="line2d_16">
    <g clip-path="url(#p0588fde21b)">
     <use style="fill:#ffffff;stroke:#000000;stroke-width:1.5;" x="316.728453925" xlink:href="#maeba9f86c7" y="736.363636364"/>
    </g>
   </g>
   <g id="text_1">
    <!-- 1 -->
    <defs>
     <path d="M 12.40625 8.296875 
L 28.515625 8.296875 
L 28.515625 63.921875 
L 10.984375 60.40625 
L 10.984375 69.390625 
L 28.421875 72.90625 
L 38.28125 72.90625 
L 38.28125 8.296875 
L 54.390625 8.296875 
L 54.390625 0 
L 12.40625 0 
z
" id="BitstreamVeraSans-Roman-31"/>
    </defs>
    <g transform="translate(566.008421075 130.119801136)scale(0.09 -0.09)">
     <use xlink:href="#BitstreamVeraSans-Roman-31"/>
    </g>
   </g>
   <g id="text_2">
    <!-- 2 -->
    <defs>
     <path d="M 19.1875 8.296875 
L 53.609375 8.296875 
L 53.609375 0 
L 7.328125 0 
L 7.328125 8.296875 
Q 12.9375 14.109375 22.625 23.890625 
Q 32.328125 33.6875 34.8125 36.53125 
Q 39.546875 41.84375 41.421875 45.53125 
Q 43.3125 49.21875 43.3125 52.78125 
Q 43.3125 58.59375 39.234375 62.25 
Q 35.15625 65.921875 28.609375 65.921875 
Q 23.96875 65.921875 18.8125 64.3125 
Q 13.671875 62.703125 7.8125 59.421875 
L 7.8125 69.390625 
Q 13.765625 71.78125 18.9375 73 
Q 24.125 74.21875 28.421875 74.21875 
Q 39.75 74.21875 46.484375 68.546875 
Q 53.21875 62.890625 53.21875 53.421875 
Q 53.21875 48.921875 51.53125 44.890625 
Q 49.859375 40.875 45.40625 35.40625 
Q 44.1875 33.984375 37.640625 27.21875 
Q 31.109375 20.453125 19.1875 8.296875 
" id="BitstreamVeraSans-Roman-32"/>
    </defs>
    <g transform="translate(313.865328925 130.119801136)scale(0.09 -0.09)">
     <use xlink:href="#BitstreamVeraSans-Roman-32"/>
    </g>
   </g>
   <g id="text_3">
    <!-- 3 -->
    <defs>
     <path d="M 40.578125 39.3125 
Q 47.65625 37.796875 51.625 33 
Q 55.609375 28.21875 55.609375 21.1875 
Q 55.609375 10.40625 48.1875 4.484375 
Q 40.765625 -1.421875 27.09375 -1.421875 
Q 22.515625 -1.421875 17.65625 -0.515625 
Q 12.796875 0.390625 7.625 2.203125 
L 7.625 11.71875 
Q 11.71875 9.328125 16.59375 8.109375 
Q 21.484375 6.890625 26.8125 6.890625 
Q 36.078125 6.890625 40.9375 10.546875 
Q 45.796875 14.203125 45.796875 21.1875 
Q 45.796875 27.640625 41.28125 31.265625 
Q 36.765625 34.90625 28.71875 34.90625 
L 20.21875 34.90625 
L 20.21875 43.015625 
L 29.109375 43.015625 
Q 36.375 43.015625 40.234375 45.921875 
Q 44.09375 48.828125 44.09375 54.296875 
Q 44.09375 59.90625 40.109375 62.90625 
Q 36.140625 65.921875 28.71875 65.921875 
Q 24.65625 65.921875 20.015625 65.03125 
Q 15.375 64.15625 9.8125 62.3125 
L 9.8125 71.09375 
Q 15.4375 72.65625 20.34375 73.4375 
Q 25.25 74.21875 29.59375 74.21875 
Q 40.828125 74.21875 47.359375 69.109375 
Q 53.90625 64.015625 53.90625 55.328125 
Q 53.90625 49.265625 50.4375 45.09375 
Q 46.96875 40.921875 40.578125 39.3125 
" id="BitstreamVeraSans-Roman-33"/>
    </defs>
    <g transform="translate(387.716330786 308.411891425)scale(0.09 -0.09)">
     <use xlink:href="#BitstreamVeraSans-Roman-33"/>
    </g>
   </g>
   <g id="text_4">
    <!-- 4 -->
    <defs>
     <path d="M 37.796875 64.3125 
L 12.890625 25.390625 
L 37.796875 25.390625 
z
M 35.203125 72.90625 
L 47.609375 72.90625 
L 47.609375 25.390625 
L 58.015625 25.390625 
L 58.015625 17.1875 
L 47.609375 17.1875 
L 47.609375 0 
L 37.796875 0 
L 37.796875 17.1875 
L 4.890625 17.1875 
L 4.890625 26.703125 
z
" id="BitstreamVeraSans-Roman-34"/>
    </defs>
    <g transform="translate(566.008421075 382.262893286)scale(0.09 -0.09)">
     <use xlink:href="#BitstreamVeraSans-Roman-34"/>
    </g>
   </g>
   <g id="text_5">
    <!-- 5 -->
    <defs>
     <path d="M 10.796875 72.90625 
L 49.515625 72.90625 
L 49.515625 64.59375 
L 19.828125 64.59375 
L 19.828125 46.734375 
Q 21.96875 47.46875 24.109375 47.828125 
Q 26.265625 48.1875 28.421875 48.1875 
Q 40.625 48.1875 47.75 41.5 
Q 54.890625 34.8125 54.890625 23.390625 
Q 54.890625 11.625 47.5625 5.09375 
Q 40.234375 -1.421875 26.90625 -1.421875 
Q 22.3125 -1.421875 17.546875 -0.640625 
Q 12.796875 0.140625 7.71875 1.703125 
L 7.71875 11.625 
Q 12.109375 9.234375 16.796875 8.0625 
Q 21.484375 6.890625 26.703125 6.890625 
Q 35.15625 6.890625 40.078125 11.328125 
Q 45.015625 15.765625 45.015625 23.390625 
Q 45.015625 31 40.078125 35.4375 
Q 35.15625 39.890625 26.703125 39.890625 
Q 22.75 39.890625 18.8125 39.015625 
Q 14.890625 38.140625 10.796875 36.28125 
z
" id="BitstreamVeraSans-Roman-35"/>
    </defs>
    <g transform="translate(135.573238636 308.411891425)scale(0.09 -0.09)">
     <use xlink:href="#BitstreamVeraSans-Roman-35"/>
    </g>
   </g>
   <g id="text_6">
    <!-- 6 -->
    <defs>
     <path d="M 33.015625 40.375 
Q 26.375 40.375 22.484375 35.828125 
Q 18.609375 31.296875 18.609375 23.390625 
Q 18.609375 15.53125 22.484375 10.953125 
Q 26.375 6.390625 33.015625 6.390625 
Q 39.65625 6.390625 43.53125 10.953125 
Q 47.40625 15.53125 47.40625 23.390625 
Q 47.40625 31.296875 43.53125 35.828125 
Q 39.65625 40.375 33.015625 40.375 
M 52.59375 71.296875 
L 52.59375 62.3125 
Q 48.875 64.0625 45.09375 64.984375 
Q 41.3125 65.921875 37.59375 65.921875 
Q 27.828125 65.921875 22.671875 59.328125 
Q 17.53125 52.734375 16.796875 39.40625 
Q 19.671875 43.65625 24.015625 45.921875 
Q 28.375 48.1875 33.59375 48.1875 
Q 44.578125 48.1875 50.953125 41.515625 
Q 57.328125 34.859375 57.328125 23.390625 
Q 57.328125 12.15625 50.6875 5.359375 
Q 44.046875 -1.421875 33.015625 -1.421875 
Q 20.359375 -1.421875 13.671875 8.265625 
Q 6.984375 17.96875 6.984375 36.375 
Q 6.984375 53.65625 15.1875 63.9375 
Q 23.390625 74.21875 37.203125 74.21875 
Q 40.921875 74.21875 44.703125 73.484375 
Q 48.484375 72.75 52.59375 71.296875 
" id="BitstreamVeraSans-Roman-36"/>
    </defs>
    <g transform="translate(744.300511364 308.411891425)scale(0.09 -0.09)">
     <use xlink:href="#BitstreamVeraSans-Roman-36"/>
    </g>
   </g>
   <g id="text_7">
    <!-- 7 -->
    <defs>
     <path d="M 8.203125 72.90625 
L 55.078125 72.90625 
L 55.078125 68.703125 
L 28.609375 0 
L 18.3125 0 
L 43.21875 64.59375 
L 8.203125 64.59375 
z
" id="BitstreamVeraSans-Roman-37"/>
    </defs>
    <g transform="translate(313.865328925 382.262893286)scale(0.09 -0.09)">
     <use xlink:href="#BitstreamVeraSans-Roman-37"/>
    </g>
   </g>
   <g id="text_8">
    <!-- 8 -->
    <defs>
     <path d="M 31.78125 34.625 
Q 24.75 34.625 20.71875 30.859375 
Q 16.703125 27.09375 16.703125 20.515625 
Q 16.703125 13.921875 20.71875 10.15625 
Q 24.75 6.390625 31.78125 6.390625 
Q 38.8125 6.390625 42.859375 10.171875 
Q 46.921875 13.96875 46.921875 20.515625 
Q 46.921875 27.09375 42.890625 30.859375 
Q 38.875 34.625 31.78125 34.625 
M 21.921875 38.8125 
Q 15.578125 40.375 12.03125 44.71875 
Q 8.5 49.078125 8.5 55.328125 
Q 8.5 64.0625 14.71875 69.140625 
Q 20.953125 74.21875 31.78125 74.21875 
Q 42.671875 74.21875 48.875 69.140625 
Q 55.078125 64.0625 55.078125 55.328125 
Q 55.078125 49.078125 51.53125 44.71875 
Q 48 40.375 41.703125 38.8125 
Q 48.828125 37.15625 52.796875 32.3125 
Q 56.78125 27.484375 56.78125 20.515625 
Q 56.78125 9.90625 50.3125 4.234375 
Q 43.84375 -1.421875 31.78125 -1.421875 
Q 19.734375 -1.421875 13.25 4.234375 
Q 6.78125 9.90625 6.78125 20.515625 
Q 6.78125 27.484375 10.78125 32.3125 
Q 14.796875 37.15625 21.921875 38.8125 
M 18.3125 54.390625 
Q 18.3125 48.734375 21.84375 45.5625 
Q 25.390625 42.390625 31.78125 42.390625 
Q 38.140625 42.390625 41.71875 45.5625 
Q 45.3125 48.734375 45.3125 54.390625 
Q 45.3125 60.0625 41.71875 63.234375 
Q 38.140625 66.40625 31.78125 66.40625 
Q 25.390625 66.40625 21.84375 63.234375 
Q 18.3125 60.0625 18.3125 54.390625 
" id="BitstreamVeraSans-Roman-38"/>
    </defs>
    <g transform="translate(492.157419214 308.411891425)scale(0.09 -0.09)">
     <use xlink:href="#BitstreamVeraSans-Roman-38"/>
    </g>
   </g>
   <g id="text_9">
    <!-- 9 -->
    <defs>
     <path d="M 10.984375 1.515625 
L 10.984375 10.5 
Q 14.703125 8.734375 18.5 7.8125 
Q 22.3125 6.890625 25.984375 6.890625 
Q 35.75 6.890625 40.890625 13.453125 
Q 46.046875 20.015625 46.78125 33.40625 
Q 43.953125 29.203125 39.59375 26.953125 
Q 35.25 24.703125 29.984375 24.703125 
Q 19.046875 24.703125 12.671875 31.3125 
Q 6.296875 37.9375 6.296875 49.421875 
Q 6.296875 60.640625 12.9375 67.421875 
Q 19.578125 74.21875 30.609375 74.21875 
Q 43.265625 74.21875 49.921875 64.515625 
Q 56.59375 54.828125 56.59375 36.375 
Q 56.59375 19.140625 48.40625 8.859375 
Q 40.234375 -1.421875 26.421875 -1.421875 
Q 22.703125 -1.421875 18.890625 -0.6875 
Q 15.09375 0.046875 10.984375 1.515625 
M 30.609375 32.421875 
Q 37.25 32.421875 41.125 36.953125 
Q 45.015625 41.5 45.015625 49.421875 
Q 45.015625 57.28125 41.125 61.84375 
Q 37.25 66.40625 30.609375 66.40625 
Q 23.96875 66.40625 20.09375 61.84375 
Q 16.21875 57.28125 16.21875 49.421875 
Q 16.21875 41.5 20.09375 36.953125 
Q 23.96875 32.421875 30.609375 32.421875 
" id="BitstreamVeraSans-Roman-39"/>
    </defs>
    <g transform="translate(387.716330786 560.554983575)scale(0.09 -0.09)">
     <use xlink:href="#BitstreamVeraSans-Roman-39"/>
    </g>
   </g>
   <g id="text_10">
    <!-- 10 -->
    <defs>
     <path d="M 31.78125 66.40625 
Q 24.171875 66.40625 20.328125 58.90625 
Q 16.5 51.421875 16.5 36.375 
Q 16.5 21.390625 20.328125 13.890625 
Q 24.171875 6.390625 31.78125 6.390625 
Q 39.453125 6.390625 43.28125 13.890625 
Q 47.125 21.390625 47.125 36.375 
Q 47.125 51.421875 43.28125 58.90625 
Q 39.453125 66.40625 31.78125 66.40625 
M 31.78125 74.21875 
Q 44.046875 74.21875 50.515625 64.515625 
Q 56.984375 54.828125 56.984375 36.375 
Q 56.984375 17.96875 50.515625 8.265625 
Q 44.046875 -1.421875 31.78125 -1.421875 
Q 19.53125 -1.421875 13.0625 8.265625 
Q 6.59375 17.96875 6.59375 36.375 
Q 6.59375 54.828125 13.0625 64.515625 
Q 19.53125 74.21875 31.78125 74.21875 
" id="BitstreamVeraSans-Roman-30"/>
    </defs>
    <g transform="translate(132.710113636 560.554983575)scale(0.09 -0.09)">
     <use xlink:href="#BitstreamVeraSans-Roman-31"/>
     <use x="63.623046875" xlink:href="#BitstreamVeraSans-Roman-30"/>
    </g>
   </g>
   <g id="text_11">
    <!-- 11 -->
    <g transform="translate(563.145296075 486.703981714)scale(0.09 -0.09)">
     <use xlink:href="#BitstreamVeraSans-Roman-31"/>
     <use x="63.623046875" xlink:href="#BitstreamVeraSans-Roman-31"/>
    </g>
   </g>
   <g id="text_12">
    <!-- 12 -->
    <g transform="translate(741.437386364 560.554983575)scale(0.09 -0.09)">
     <use xlink:href="#BitstreamVeraSans-Roman-31"/>
     <use x="63.623046875" xlink:href="#BitstreamVeraSans-Roman-32"/>
    </g>
   </g>
   <g id="text_13">
    <!-- 13 -->
    <g transform="translate(311.002203925 486.703981714)scale(0.09 -0.09)">
     <use xlink:href="#BitstreamVeraSans-Roman-31"/>
     <use x="63.623046875" xlink:href="#BitstreamVeraSans-Roman-33"/>
    </g>
   </g>
   <g id="text_14">
    <!-- 14 -->
    <g transform="translate(489.294294214 560.554983575)scale(0.09 -0.09)">
     <use xlink:href="#BitstreamVeraSans-Roman-31"/>
     <use x="63.623046875" xlink:href="#BitstreamVeraSans-Roman-34"/>
    </g>
   </g>
   <g id="text_15">
    <!-- 15 -->
    <g transform="translate(563.145296075 738.847073864)scale(0.09 -0.09)">
     <use xlink:href="#BitstreamVeraSans-Roman-31"/>
     <use x="63.623046875" xlink:href="#BitstreamVeraSans-Roman-35"/>
    </g>
   </g>
   <g id="text_16">
    <!-- 16 -->
    <g transform="translate(311.002203925 738.847073864)scale(0.09 -0.09)">
     <use xlink:href="#BitstreamVeraSans-Roman-31"/>
     <use x="63.623046875" xlink:href="#BitstreamVeraSans-Roman-36"/>
    </g>
   </g>
  </g>
 </g>
 <defs>
  <clipPath id="p0588fde21b">
   <rect height="669.6" width="669.6" x="108.0" y="97.2"/>
  </clipPath>
 </defs>
</svg>
