<?xml version="1.0" encoding="utf-8" standalone="no"?>
<!DOCTYPE svg PUBLIC "-//W3C//DTD SVG 1.1//EN"
  "http://www.w3.org/Graphics/SVG/1.1/DTD/svg11.dtd">
<!-- Created with matplotlib (http://matplotlib.org/) -->
<svg height="576pt" version="1.1" viewBox="0 0 576 576" width="576pt" xmlns="http://www.w3.org/2000/svg" xmlns:xlink="http://www.w3.org/1999/xlink">
 <defs>
  <style type="text/css">
*{stroke-linecap:butt;stroke-linejoin:round;}
  </style>
 </defs>
 <g id="figure_1">
  <g id="patch_1">
   <path d="
M0 576
L576 576
L576 0
L0 0
z
" style="fill:#ffffff;"/>
  </g>
  <g id="axes_1">
   <g id="patch_2">
    <path clip-path="url(#p7f68f6dfae)" d="
M381.049 108.094
L365.749 109.012
L366.92 104.643
L310.722 89.5845
L310.889 88.9603
L367.087 104.019
L368.258 99.649
z
" style="fill:#008cff;stroke:#008cff;"/>
   </g>
   <g id="patch_3">
    <path clip-path="url(#p7f68f6dfae)" d="
M456.933 178.467
L441.917 175.395
L444.179 171.477
L309.03 93.4488
L309.353 92.8891
L444.502 170.917
L446.764 167
z
" style="fill:#9dff5a;stroke:#9dff5a;"/>
   </g>
   <g id="patch_4">
    <path clip-path="url(#p7f68f6dfae)" d="
M361.392 199.738
L349.924 189.569
L353.842 187.308
L302.998 99.2441
L303.558 98.921
L354.401 186.984
L358.319 184.723
z
" style="fill:#b4ff43;stroke:#b4ff43;"/>
   </g>
   <g id="patch_5">
    <path clip-path="url(#p7f68f6dfae)" d="
M486.685 276.576
L472.976 269.721
L476.175 266.523
L306.396 96.7435
L306.853 96.2865
L476.632 266.066
L479.831 262.867
z
" style="fill:#0054ff;stroke:#0054ff;"/>
   </g>
   <g id="patch_6">
    <path clip-path="url(#p7f68f6dfae)" d="
M272.197 170.94
L271.279 155.64
L275.648 156.811
L290.706 100.613
L291.331 100.78
L276.272 156.978
L280.642 158.149
z
" style="fill:#00c4ff;stroke:#00c4ff;"/>
   </g>
   <g id="patch_7">
    <path clip-path="url(#p7f68f6dfae)" d="
M388.576 246.824
L377.109 236.655
L381.026 234.393
L302.998 99.2441
L303.558 98.921
L381.586 234.07
L385.504 231.808
z
" style="fill:#009cff;stroke:#009cff;"/>
   </g>
   <g id="patch_8">
    <path clip-path="url(#p7f68f6dfae)" d="
M209.351 108.094
L222.142 99.649
L223.313 104.019
L279.511 88.9603
L279.678 89.5845
L223.48 104.643
L224.651 109.012
z
" style="fill:#0000df;stroke:#0000df;"/>
   </g>
   <g id="patch_9">
    <path clip-path="url(#p7f68f6dfae)" d="
M295.2 271.844
L290.353 257.303
L294.877 257.303
L294.877 101.247
L295.523 101.247
L295.523 257.303
L300.047 257.303
z
" style="fill:#63ff94;stroke:#63ff94;"/>
   </g>
   <g id="patch_10">
    <path clip-path="url(#p7f68f6dfae)" d="
M318.203 170.94
L309.758 158.149
L314.128 156.978
L299.069 100.78
L299.694 100.613
L314.752 156.811
L319.121 155.64
z
" style="fill:#00008d;stroke:#00008d;"/>
   </g>
   <g id="patch_11">
    <path clip-path="url(#p7f68f6dfae)" d="
M365.288 346.664
L356.843 333.874
L361.213 332.703
L299.069 100.78
L299.694 100.613
L361.837 332.536
L366.207 331.365
z
" style="fill:#9f0000;stroke:#9f0000;"/>
   </g>
   <g id="patch_12">
    <path clip-path="url(#p7f68f6dfae)" d="
M229.008 199.738
L232.081 184.723
L235.999 186.984
L286.842 98.921
L287.402 99.2441
L236.558 187.308
L240.476 189.569
z
" style="fill:#0070ff;stroke:#0070ff;"/>
   </g>
   <g id="patch_13">
    <path clip-path="url(#p7f68f6dfae)" d="
M295.2 271.844
L290.353 257.303
L294.877 257.303
L294.877 101.247
L295.523 101.247
L295.523 257.303
L300.047 257.303
z
" style="fill:#ff1e00;stroke:#ff1e00;"/>
   </g>
   <g id="patch_14">
    <path clip-path="url(#p7f68f6dfae)" d="
M133.467 178.467
L143.636 167
L145.898 170.917
L281.047 92.8891
L281.37 93.4488
L146.221 171.477
L148.483 175.395
z
" style="fill:#36ffc1;stroke:#36ffc1;"/>
   </g>
   <g id="patch_15">
    <path clip-path="url(#p7f68f6dfae)" d="
M201.824 246.824
L204.896 231.808
L208.814 234.07
L286.842 98.921
L287.402 99.2441
L209.374 234.393
L213.291 236.655
z
" style="fill:#0000ed;stroke:#0000ed;"/>
   </g>
   <g id="patch_16">
    <path clip-path="url(#p7f68f6dfae)" d="
M103.715 276.576
L110.569 262.867
L113.768 266.066
L283.547 96.2865
L284.004 96.7435
L114.225 266.523
L117.424 269.721
z
" style="fill:#ffa300;stroke:#ffa300;"/>
   </g>
   <g id="patch_17">
    <path clip-path="url(#p7f68f6dfae)" d="
M225.112 346.664
L224.193 331.365
L228.563 332.536
L290.706 100.613
L291.331 100.78
L229.187 332.703
L233.557 333.874
z
" style="fill:#ad0000;stroke:#ad0000;"/>
   </g>
   <g id="line2d_1">
    <defs>
     <path d="
M0 12.5
C3.31504 12.5 6.49475 11.1829 8.83883 8.83883
C11.1829 6.49475 12.5 3.31504 12.5 0
C12.5 -3.31504 11.1829 -6.49475 8.83883 -8.83883
C6.49475 -11.1829 3.31504 -12.5 0 -12.5
C-3.31504 -12.5 -6.49475 -11.1829 -8.83883 -8.83883
C-11.1829 -6.49475 -12.5 -3.31504 -12.5 0
C-12.5 3.31504 -11.1829 6.49475 -8.83883 8.83883
C-6.49475 11.1829 -3.31504 12.5 0 12.5
z
" id="mbbc2cff4b8" style="stroke:#000000;stroke-width:1.5;"/>
    </defs>
    <g clip-path="url(#p7f68f6dfae)">
     <use style="fill:#ffffff;stroke:#000000;stroke-width:1.5;" x="295.2" xlink:href="#mbbc2cff4b8" y="85.0909090909"/>
    </g>
   </g>
   <g id="line2d_2">
    <g clip-path="url(#p7f68f6dfae)">
     <use style="fill:#ffffff;stroke:#000000;stroke-width:1.5;" x="396.654545455" xlink:href="#mbbc2cff4b8" y="112.275572614"/>
    </g>
   </g>
   <g id="line2d_3">
    <g clip-path="url(#p7f68f6dfae)">
     <use style="fill:#ffffff;stroke:#000000;stroke-width:1.5;" x="470.924427386" xlink:href="#mbbc2cff4b8" y="186.545454545"/>
    </g>
   </g>
   <g id="line2d_4">
    <g clip-path="url(#p7f68f6dfae)">
     <use style="fill:#ffffff;stroke:#000000;stroke-width:1.5;" x="369.469881932" xlink:href="#mbbc2cff4b8" y="213.730118068"/>
    </g>
   </g>
   <g id="line2d_5">
    <g clip-path="url(#p7f68f6dfae)">
     <use style="fill:#ffffff;stroke:#000000;stroke-width:1.5;" x="498.109090909" xlink:href="#mbbc2cff4b8" y="288.0"/>
    </g>
   </g>
   <g id="line2d_6">
    <g clip-path="url(#p7f68f6dfae)">
     <use style="fill:#ffffff;stroke:#000000;stroke-width:1.5;" x="268.015336477" xlink:href="#mbbc2cff4b8" y="186.545454545"/>
    </g>
   </g>
   <g id="line2d_7">
    <g clip-path="url(#p7f68f6dfae)">
     <use style="fill:#ffffff;stroke:#000000;stroke-width:1.5;" x="396.654545455" xlink:href="#mbbc2cff4b8" y="260.815336477"/>
    </g>
   </g>
   <g id="line2d_8">
    <g clip-path="url(#p7f68f6dfae)">
     <use style="fill:#ffffff;stroke:#000000;stroke-width:1.5;" x="193.745454545" xlink:href="#mbbc2cff4b8" y="112.275572614"/>
    </g>
   </g>
   <g id="line2d_9">
    <g clip-path="url(#p7f68f6dfae)">
     <use style="fill:#ffffff;stroke:#000000;stroke-width:1.5;" x="295.2" xlink:href="#mbbc2cff4b8" y="288.0"/>
    </g>
   </g>
   <g id="line2d_10">
    <g clip-path="url(#p7f68f6dfae)">
     <use style="fill:#ffffff;stroke:#000000;stroke-width:1.5;" x="322.384663523" xlink:href="#mbbc2cff4b8" y="186.545454545"/>
    </g>
   </g>
   <g id="line2d_11">
    <g clip-path="url(#p7f68f6dfae)">
     <use style="fill:#ffffff;stroke:#000000;stroke-width:1.5;" x="369.469881932" xlink:href="#mbbc2cff4b8" y="362.269881932"/>
    </g>
   </g>
   <g id="line2d_12">
    <g clip-path="url(#p7f68f6dfae)">
     <use style="fill:#ffffff;stroke:#000000;stroke-width:1.5;" x="220.930118068" xlink:href="#mbbc2cff4b8" y="213.730118068"/>
    </g>
   </g>
   <g id="line2d_13">
    <g clip-path="url(#p7f68f6dfae)">
     <use style="fill:#ffffff;stroke:#000000;stroke-width:1.5;" x="470.924427386" xlink:href="#mbbc2cff4b8" y="389.454545455"/>
    </g>
   </g>
   <g id="line2d_14">
    <g clip-path="url(#p7f68f6dfae)">
     <use style="fill:#ffffff;stroke:#000000;stroke-width:1.5;" x="119.475572614" xlink:href="#mbbc2cff4b8" y="186.545454545"/>
    </g>
   </g>
   <g id="line2d_15">
    <g clip-path="url(#p7f68f6dfae)">
     <use style="fill:#ffffff;stroke:#000000;stroke-width:1.5;" x="396.654545455" xlink:href="#mbbc2cff4b8" y="315.184663523"/>
    </g>
   </g>
   <g id="line2d_16">
    <g clip-path="url(#p7f68f6dfae)">
     <use style="fill:#ffffff;stroke:#000000;stroke-width:1.5;" x="193.745454545" xlink:href="#mbbc2cff4b8" y="260.815336477"/>
    </g>
   </g>
   <g id="line2d_17">
    <g clip-path="url(#p7f68f6dfae)">
     <use style="fill:#ffffff;stroke:#000000;stroke-width:1.5;" x="92.2909090909" xlink:href="#mbbc2cff4b8" y="288.0"/>
    </g>
   </g>
   <g id="line2d_18">
    <g clip-path="url(#p7f68f6dfae)">
     <use style="fill:#ffffff;stroke:#000000;stroke-width:1.5;" x="193.745454545" xlink:href="#mbbc2cff4b8" y="315.184663523"/>
    </g>
   </g>
   <g id="line2d_19">
    <g clip-path="url(#p7f68f6dfae)">
     <use style="fill:#ffffff;stroke:#000000;stroke-width:1.5;" x="220.930118068" xlink:href="#mbbc2cff4b8" y="362.269881932"/>
    </g>
   </g>
   <g id="line2d_20">
    <g clip-path="url(#p7f68f6dfae)">
     <use style="fill:#ffffff;stroke:#000000;stroke-width:1.5;" x="322.384663523" xlink:href="#mbbc2cff4b8" y="389.454545455"/>
    </g>
   </g>
   <g id="line2d_21">
    <g clip-path="url(#p7f68f6dfae)">
     <use style="fill:#ffffff;stroke:#000000;stroke-width:1.5;" x="268.015336477" xlink:href="#mbbc2cff4b8" y="389.454545455"/>
    </g>
   </g>
   <g id="line2d_22">
    <g clip-path="url(#p7f68f6dfae)">
     <use style="fill:#ffffff;stroke:#000000;stroke-width:1.5;" x="396.654545455" xlink:href="#mbbc2cff4b8" y="463.724427386"/>
    </g>
   </g>
   <g id="line2d_23">
    <g clip-path="url(#p7f68f6dfae)">
     <use style="fill:#ffffff;stroke:#000000;stroke-width:1.5;" x="295.2" xlink:href="#mbbc2cff4b8" y="490.909090909"/>
    </g>
   </g>
   <g id="line2d_24">
    <g clip-path="url(#p7f68f6dfae)">
     <use style="fill:#ffffff;stroke:#000000;stroke-width:1.5;" x="193.745454545" xlink:href="#mbbc2cff4b8" y="463.724427386"/>
    </g>
   </g>
   <g id="line2d_25">
    <g clip-path="url(#p7f68f6dfae)">
     <use style="fill:#ffffff;stroke:#000000;stroke-width:1.5;" x="119.475572614" xlink:href="#mbbc2cff4b8" y="389.454545455"/>
    </g>
   </g>
   <g id="text_1">
    <!-- 1 -->
    <defs>
     <path d="
M12.4062 8.29688
L28.5156 8.29688
L28.5156 63.9219
L10.9844 60.4062
L10.9844 69.3906
L28.4219 72.9062
L38.2812 72.9062
L38.2812 8.29688
L54.3906 8.29688
L54.3906 0
L12.4062 0
z
" id="DejaVuSans-31"/>
    </defs>
    <g transform="translate(293.24671875 87.5743465909)scale(0.09 -0.09)">
     <use xlink:href="#DejaVuSans-31"/>
    </g>
   </g>
   <g id="text_2">
    <!-- 2 -->
    <defs>
     <path d="
M19.1875 8.29688
L53.6094 8.29688
L53.6094 0
L7.32812 0
L7.32812 8.29688
Q12.9375 14.1094 22.625 23.8906
Q32.3281 33.6875 34.8125 36.5312
Q39.5469 41.8438 41.4219 45.5312
Q43.3125 49.2188 43.3125 52.7812
Q43.3125 58.5938 39.2344 62.25
Q35.1562 65.9219 28.6094 65.9219
Q23.9688 65.9219 18.8125 64.3125
Q13.6719 62.7031 7.8125 59.4219
L7.8125 69.3906
Q13.7656 71.7812 18.9375 73
Q24.125 74.2188 28.4219 74.2188
Q39.75 74.2188 46.4844 68.5469
Q53.2188 62.8906 53.2188 53.4219
Q53.2188 48.9219 51.5312 44.8906
Q49.8594 40.875 45.4062 35.4062
Q44.1875 33.9844 37.6406 27.2188
Q31.1094 20.4531 19.1875 8.29688" id="DejaVuSans-32"/>
    </defs>
    <g transform="translate(394.571889205 114.759010114)scale(0.09 -0.09)">
     <use xlink:href="#DejaVuSans-32"/>
    </g>
   </g>
   <g id="text_3">
    <!-- 3 -->
    <defs>
     <path d="
M40.5781 39.3125
Q47.6562 37.7969 51.625 33
Q55.6094 28.2188 55.6094 21.1875
Q55.6094 10.4062 48.1875 4.48438
Q40.7656 -1.42188 27.0938 -1.42188
Q22.5156 -1.42188 17.6562 -0.515625
Q12.7969 0.390625 7.625 2.20312
L7.625 11.7188
Q11.7188 9.32812 16.5938 8.10938
Q21.4844 6.89062 26.8125 6.89062
Q36.0781 6.89062 40.9375 10.5469
Q45.7969 14.2031 45.7969 21.1875
Q45.7969 27.6406 41.2812 31.2656
Q36.7656 34.9062 28.7188 34.9062
L20.2188 34.9062
L20.2188 43.0156
L29.1094 43.0156
Q36.375 43.0156 40.2344 45.9219
Q44.0938 48.8281 44.0938 54.2969
Q44.0938 59.9062 40.1094 62.9062
Q36.1406 65.9219 28.7188 65.9219
Q24.6562 65.9219 20.0156 65.0312
Q15.375 64.1562 9.8125 62.3125
L9.8125 71.0938
Q15.4375 72.6562 20.3438 73.4375
Q25.25 74.2188 29.5938 74.2188
Q40.8281 74.2188 47.3594 69.1094
Q53.9062 64.0156 53.9062 55.3281
Q53.9062 49.2656 50.4375 45.0938
Q46.9688 40.9219 40.5781 39.3125" id="DejaVuSans-33"/>
    </defs>
    <g transform="translate(468.765130511 189.028892045)scale(0.09 -0.09)">
     <use xlink:href="#DejaVuSans-33"/>
    </g>
   </g>
   <g id="text_4">
    <!-- 4 -->
    <defs>
     <path d="
M37.7969 64.3125
L12.8906 25.3906
L37.7969 25.3906
z

M35.2031 72.9062
L47.6094 72.9062
L47.6094 25.3906
L58.0156 25.3906
L58.0156 17.1875
L47.6094 17.1875
L47.6094 0
L37.7969 0
L37.7969 17.1875
L4.89062 17.1875
L4.89062 26.7031
z
" id="DejaVuSans-34"/>
    </defs>
    <g transform="translate(367.079256932 216.213555568)scale(0.09 -0.09)">
     <use xlink:href="#DejaVuSans-34"/>
    </g>
   </g>
   <g id="text_5">
    <!-- 5 -->
    <defs>
     <path d="
M10.7969 72.9062
L49.5156 72.9062
L49.5156 64.5938
L19.8281 64.5938
L19.8281 46.7344
Q21.9688 47.4688 24.1094 47.8281
Q26.2656 48.1875 28.4219 48.1875
Q40.625 48.1875 47.75 41.5
Q54.8906 34.8125 54.8906 23.3906
Q54.8906 11.625 47.5625 5.09375
Q40.2344 -1.42188 26.9062 -1.42188
Q22.3125 -1.42188 17.5469 -0.640625
Q12.7969 0.140625 7.71875 1.70312
L7.71875 11.625
Q12.1094 9.23438 16.7969 8.0625
Q21.4844 6.89062 26.7031 6.89062
Q35.1562 6.89062 40.0781 11.3281
Q45.0156 15.7656 45.0156 23.3906
Q45.0156 31 40.0781 35.4375
Q35.1562 39.8906 26.7031 39.8906
Q22.75 39.8906 18.8125 39.0156
Q14.8906 38.1406 10.7969 36.2812
z
" id="DejaVuSans-35"/>
    </defs>
    <g transform="translate(495.986356534 290.4834375)scale(0.09 -0.09)">
     <use xlink:href="#DejaVuSans-35"/>
    </g>
   </g>
   <g id="text_6">
    <!-- 6 -->
    <defs>
     <path d="
M33.0156 40.375
Q26.375 40.375 22.4844 35.8281
Q18.6094 31.2969 18.6094 23.3906
Q18.6094 15.5312 22.4844 10.9531
Q26.375 6.39062 33.0156 6.39062
Q39.6562 6.39062 43.5312 10.9531
Q47.4062 15.5312 47.4062 23.3906
Q47.4062 31.2969 43.5312 35.8281
Q39.6562 40.375 33.0156 40.375
M52.5938 71.2969
L52.5938 62.3125
Q48.875 64.0625 45.0938 64.9844
Q41.3125 65.9219 37.5938 65.9219
Q27.8281 65.9219 22.6719 59.3281
Q17.5312 52.7344 16.7969 39.4062
Q19.6719 43.6562 24.0156 45.9219
Q28.375 48.1875 33.5938 48.1875
Q44.5781 48.1875 50.9531 41.5156
Q57.3281 34.8594 57.3281 23.3906
Q57.3281 12.1562 50.6875 5.35938
Q44.0469 -1.42188 33.0156 -1.42188
Q20.3594 -1.42188 13.6719 8.26562
Q6.98438 17.9688 6.98438 36.375
Q6.98438 53.6562 15.1875 63.9375
Q23.3906 74.2188 37.2031 74.2188
Q40.9219 74.2188 44.7031 73.4844
Q48.4844 72.75 52.5938 71.2969" id="DejaVuSans-36"/>
    </defs>
    <g transform="translate(265.749867727 189.028892045)scale(0.09 -0.09)">
     <use xlink:href="#DejaVuSans-36"/>
    </g>
   </g>
   <g id="text_7">
    <!-- 7 -->
    <defs>
     <path d="
M8.20312 72.9062
L55.0781 72.9062
L55.0781 68.7031
L28.6094 0
L18.3125 0
L43.2188 64.5938
L8.20312 64.5938
z
" id="DejaVuSans-37"/>
    </defs>
    <g transform="translate(394.545170455 263.298773977)scale(0.09 -0.09)">
     <use xlink:href="#DejaVuSans-37"/>
    </g>
   </g>
   <g id="text_8">
    <!-- 8 -->
    <defs>
     <path d="
M31.7812 34.625
Q24.75 34.625 20.7188 30.8594
Q16.7031 27.0938 16.7031 20.5156
Q16.7031 13.9219 20.7188 10.1562
Q24.75 6.39062 31.7812 6.39062
Q38.8125 6.39062 42.8594 10.1719
Q46.9219 13.9688 46.9219 20.5156
Q46.9219 27.0938 42.8906 30.8594
Q38.875 34.625 31.7812 34.625
M21.9219 38.8125
Q15.5781 40.375 12.0312 44.7188
Q8.5 49.0781 8.5 55.3281
Q8.5 64.0625 14.7188 69.1406
Q20.9531 74.2188 31.7812 74.2188
Q42.6719 74.2188 48.875 69.1406
Q55.0781 64.0625 55.0781 55.3281
Q55.0781 49.0781 51.5312 44.7188
Q48 40.375 41.7031 38.8125
Q48.8281 37.1562 52.7969 32.3125
Q56.7812 27.4844 56.7812 20.5156
Q56.7812 9.90625 50.3125 4.23438
Q43.8438 -1.42188 31.7812 -1.42188
Q19.7344 -1.42188 13.25 4.23438
Q6.78125 9.90625 6.78125 20.5156
Q6.78125 27.4844 10.7812 32.3125
Q14.7969 37.1562 21.9219 38.8125
M18.3125 54.3906
Q18.3125 48.7344 21.8438 45.5625
Q25.3906 42.3906 31.7812 42.3906
Q38.1406 42.3906 41.7188 45.5625
Q45.3125 48.7344 45.3125 54.3906
Q45.3125 60.0625 41.7188 63.2344
Q38.1406 66.4062 31.7812 66.4062
Q25.3906 66.4062 21.8438 63.2344
Q18.3125 60.0625 18.3125 54.3906" id="DejaVuSans-38"/>
    </defs>
    <g transform="translate(191.495454545 114.759010114)scale(0.09 -0.09)">
     <use xlink:href="#DejaVuSans-38"/>
    </g>
   </g>
   <g id="text_9">
    <!-- 9,14,18 -->
    <defs>
     <path d="
M10.9844 1.51562
L10.9844 10.5
Q14.7031 8.73438 18.5 7.8125
Q22.3125 6.89062 25.9844 6.89062
Q35.75 6.89062 40.8906 13.4531
Q46.0469 20.0156 46.7812 33.4062
Q43.9531 29.2031 39.5938 26.9531
Q35.25 24.7031 29.9844 24.7031
Q19.0469 24.7031 12.6719 31.3125
Q6.29688 37.9375 6.29688 49.4219
Q6.29688 60.6406 12.9375 67.4219
Q19.5781 74.2188 30.6094 74.2188
Q43.2656 74.2188 49.9219 64.5156
Q56.5938 54.8281 56.5938 36.375
Q56.5938 19.1406 48.4062 8.85938
Q40.2344 -1.42188 26.4219 -1.42188
Q22.7031 -1.42188 18.8906 -0.6875
Q15.0938 0.046875 10.9844 1.51562
M30.6094 32.4219
Q37.25 32.4219 41.125 36.9531
Q45.0156 41.5 45.0156 49.4219
Q45.0156 57.2812 41.125 61.8438
Q37.25 66.4062 30.6094 66.4062
Q23.9688 66.4062 20.0938 61.8438
Q16.2188 57.2812 16.2188 49.4219
Q16.2188 41.5 20.0938 36.9531
Q23.9688 32.4219 30.6094 32.4219" id="DejaVuSans-39"/>
     <path d="
M11.7188 12.4062
L22.0156 12.4062
L22.0156 4
L14.0156 -11.625
L7.71875 -11.625
L11.7188 4
z
" id="DejaVuSans-2c"/>
    </defs>
    <g transform="translate(289.671796875 288.8278125)scale(0.03 -0.03)">
     <use xlink:href="#DejaVuSans-39"/>
     <use x="63.623046875" xlink:href="#DejaVuSans-2c"/>
     <use x="95.41015625" xlink:href="#DejaVuSans-31"/>
     <use x="159.033203125" xlink:href="#DejaVuSans-34"/>
     <use x="222.65625" xlink:href="#DejaVuSans-2c"/>
     <use x="254.443359375" xlink:href="#DejaVuSans-31"/>
     <use x="318.06640625" xlink:href="#DejaVuSans-38"/>
    </g>
   </g>
   <g id="text_10">
    <!-- 10 -->
    <defs>
     <path d="
M31.7812 66.4062
Q24.1719 66.4062 20.3281 58.9062
Q16.5 51.4219 16.5 36.375
Q16.5 21.3906 20.3281 13.8906
Q24.1719 6.39062 31.7812 6.39062
Q39.4531 6.39062 43.2812 13.8906
Q47.125 21.3906 47.125 36.375
Q47.125 51.4219 43.2812 58.9062
Q39.4531 66.4062 31.7812 66.4062
M31.7812 74.2188
Q44.0469 74.2188 50.5156 64.5156
Q56.9844 54.8281 56.9844 36.375
Q56.9844 17.9688 50.5156 8.26562
Q44.0469 -1.42188 31.7812 -1.42188
Q19.5312 -1.42188 13.0625 8.26562
Q6.59375 17.9688 6.59375 36.375
Q6.59375 54.8281 13.0625 64.5156
Q19.5312 74.2188 31.7812 74.2188" id="DejaVuSans-30"/>
    </defs>
    <g transform="translate(317.451538523 189.028892045)scale(0.09 -0.09)">
     <use xlink:href="#DejaVuSans-31"/>
     <use x="63.623046875" xlink:href="#DejaVuSans-30"/>
    </g>
   </g>
   <g id="text_11">
    <!-- 11 -->
    <g transform="translate(364.653475682 364.753319432)scale(0.09 -0.09)">
     <use xlink:href="#DejaVuSans-31"/>
     <use x="63.623046875" xlink:href="#DejaVuSans-31"/>
    </g>
   </g>
   <g id="text_12">
    <!-- 12 -->
    <g transform="translate(216.148868068 216.213555568)scale(0.09 -0.09)">
     <use xlink:href="#DejaVuSans-31"/>
     <use x="63.623046875" xlink:href="#DejaVuSans-32"/>
    </g>
   </g>
   <g id="text_13">
    <!-- 13 -->
    <g transform="translate(466.053177386 391.937982955)scale(0.09 -0.09)">
     <use xlink:href="#DejaVuSans-31"/>
     <use x="63.623046875" xlink:href="#DejaVuSans-33"/>
    </g>
   </g>
   <g id="text_14">
    <!-- 15 -->
    <g transform="translate(114.636666364 189.028892045)scale(0.09 -0.09)">
     <use xlink:href="#DejaVuSans-31"/>
     <use x="63.623046875" xlink:href="#DejaVuSans-35"/>
    </g>
   </g>
   <g id="text_15">
    <!-- 16 -->
    <g transform="translate(391.705951705 317.668101023)scale(0.09 -0.09)">
     <use xlink:href="#DejaVuSans-31"/>
     <use x="63.623046875" xlink:href="#DejaVuSans-36"/>
    </g>
   </g>
   <g id="text_16">
    <!-- 17 -->
    <g transform="translate(188.898110795 263.298773977)scale(0.09 -0.09)">
     <use xlink:href="#DejaVuSans-31"/>
     <use x="63.623046875" xlink:href="#DejaVuSans-37"/>
    </g>
   </g>
   <g id="text_17">
    <!-- 19 -->
    <g transform="translate(87.3753622159 290.4834375)scale(0.09 -0.09)">
     <use xlink:href="#DejaVuSans-31"/>
     <use x="63.623046875" xlink:href="#DejaVuSans-39"/>
    </g>
   </g>
   <g id="text_18">
    <!-- 20 -->
    <g transform="translate(188.647798295 317.668101023)scale(0.09 -0.09)">
     <use xlink:href="#DejaVuSans-32"/>
     <use x="63.623046875" xlink:href="#DejaVuSans-30"/>
    </g>
   </g>
   <g id="text_19">
    <!-- 21 -->
    <g transform="translate(215.949180568 364.753319432)scale(0.09 -0.09)">
     <use xlink:href="#DejaVuSans-32"/>
     <use x="63.623046875" xlink:href="#DejaVuSans-31"/>
    </g>
   </g>
   <g id="text_20">
    <!-- 22 -->
    <g transform="translate(317.438882273 391.937982955)scale(0.09 -0.09)">
     <use xlink:href="#DejaVuSans-32"/>
     <use x="63.623046875" xlink:href="#DejaVuSans-32"/>
    </g>
   </g>
   <g id="text_21">
    <!-- 23 -->
    <g transform="translate(262.979555227 391.937982955)scale(0.09 -0.09)">
     <use xlink:href="#DejaVuSans-32"/>
     <use x="63.623046875" xlink:href="#DejaVuSans-33"/>
    </g>
   </g>
   <g id="text_22">
    <!-- 24 -->
    <g transform="translate(391.510482955 466.207864886)scale(0.09 -0.09)">
     <use xlink:href="#DejaVuSans-32"/>
     <use x="63.623046875" xlink:href="#DejaVuSans-34"/>
    </g>
   </g>
   <g id="text_23">
    <!-- 25 -->
    <g transform="translate(290.1965625 493.392528409)scale(0.09 -0.09)">
     <use xlink:href="#DejaVuSans-32"/>
     <use x="63.623046875" xlink:href="#DejaVuSans-35"/>
    </g>
   </g>
   <g id="text_24">
    <!-- 26 -->
    <g transform="translate(188.632329545 466.207864886)scale(0.09 -0.09)">
     <use xlink:href="#DejaVuSans-32"/>
     <use x="63.623046875" xlink:href="#DejaVuSans-36"/>
    </g>
   </g>
   <g id="text_25">
    <!-- 27 -->
    <g transform="translate(114.463697614 391.937982955)scale(0.09 -0.09)">
     <use xlink:href="#DejaVuSans-32"/>
     <use x="63.623046875" xlink:href="#DejaVuSans-37"/>
    </g>
   </g>
  </g>
 </g>
 <defs>
  <clipPath id="p7f68f6dfae">
   <rect height="446.4" width="446.4" x="72.0" y="64.8"/>
  </clipPath>
 </defs>
</svg>
