<?xml version="1.0" encoding="utf-8" standalone="no"?>
<!DOCTYPE svg PUBLIC "-//W3C//DTD SVG 1.1//EN"
  "http://www.w3.org/Graphics/SVG/1.1/DTD/svg11.dtd">
<!-- Created with matplotlib (http://matplotlib.org/) -->
<svg height="864pt" version="1.1" viewBox="0 0 864 864" width="864pt" xmlns="http://www.w3.org/2000/svg" xmlns:xlink="http://www.w3.org/1999/xlink">
 <defs>
  <style type="text/css">
*{stroke-linecap:butt;stroke-linejoin:round;stroke-miterlimit:100000;}
  </style>
 </defs>
 <g id="figure_1">
  <g id="patch_1">
   <path d="M 0 864 
L 864 864 
L 864 0 
L 0 0 
z
" style="fill:#ffffff;"/>
  </g>
  <g id="axes_1">
   <g id="patch_2">
    <path clip-path="url(#p87778580bd)" d="M 442.8 139.753464 
L 447.64684 154.293984 
L 443.042342 154.293984 
L 443.042342 419.8829 
L 442.557658 419.8829 
L 442.557658 154.293984 
L 437.95316 154.293984 
z
" style="fill:#36ffc1;stroke:#36ffc1;stroke-linejoin:miter;"/>
   </g>
   <g id="patch_3">
    <path clip-path="url(#p87778580bd)" d="M 588.923268 178.907075 
L 585.850495 193.922955 
L 581.862882 191.620706 
L 449.068424 421.627454 
L 448.648676 421.385112 
L 581.443134 191.378364 
L 577.455521 189.076115 
z
" style="fill:#ffcc00;stroke:#ffcc00;stroke-linejoin:miter;"/>
   </g>
   <g id="patch_4">
    <path clip-path="url(#p87778580bd)" d="M 545.636739 329.163261 
L 538.782272 342.872195 
L 535.526401 339.616323 
L 451.539445 423.603278 
L 451.196722 423.260555 
L 535.183677 339.273599 
L 531.927805 336.017728 
z
" style="fill:#00009f;stroke:#00009f;stroke-linejoin:miter;"/>
   </g>
   <g id="patch_5">
    <path clip-path="url(#p87778580bd)" d="M 735.046536 432 
L 720.506016 436.84684 
L 720.506016 432.242342 
L 454.9171 432.242342 
L 454.9171 431.757658 
L 720.506016 431.757658 
L 720.506016 427.15316 
z
" style="fill:#43ffb4;stroke:#43ffb4;stroke-linejoin:miter;"/>
   </g>
   <g id="patch_6">
    <path clip-path="url(#p87778580bd)" d="M 405.159141 291.522402 
L 413.604193 304.313011 
L 409.156589 305.504743 
L 439.897948 420.233057 
L 439.429779 420.358503 
L 408.68842 305.630188 
L 404.240817 306.82192 
z
" style="fill:#0000ad;stroke:#0000ad;stroke-linejoin:miter;"/>
   </g>
   <g id="patch_7">
    <path clip-path="url(#p87778580bd)" d="M 583.277598 394.359141 
L 570.486989 402.804193 
L 569.295257 398.356589 
L 454.566943 429.097948 
L 454.441497 428.629779 
L 569.169812 397.88842 
L 567.97808 393.440817 
z
" style="fill:#0054ff;stroke:#0054ff;stroke-linejoin:miter;"/>
   </g>
   <g id="patch_8">
    <path clip-path="url(#p87778580bd)" d="M 545.636739 534.836739 
L 531.927805 527.982272 
L 535.183677 524.726401 
L 451.196722 440.739445 
L 451.539445 440.396722 
L 535.526401 524.383677 
L 538.782272 521.127805 
z
" style="fill:#008cff;stroke:#008cff;stroke-linejoin:miter;"/>
   </g>
   <g id="patch_9">
    <path clip-path="url(#p87778580bd)" d="M 339.963261 329.163261 
L 353.672195 336.017728 
L 350.416323 339.273599 
L 434.403278 423.260555 
L 434.060555 423.603278 
L 350.073599 339.616323 
L 346.817728 342.872195 
z
" style="fill:#ed0400;stroke:#ed0400;stroke-linejoin:miter;"/>
   </g>
   <g id="patch_10">
    <path clip-path="url(#p87778580bd)" d="M 695.892925 578.123268 
L 680.877045 575.050495 
L 683.179294 571.062882 
L 453.172546 438.268424 
L 453.414888 437.848676 
L 683.421636 570.643134 
L 685.723885 566.655521 
z
" style="fill:#000080;stroke:#000080;stroke-linejoin:miter;"/>
   </g>
   <g id="patch_11">
    <path clip-path="url(#p87778580bd)" d="M 189.707075 285.876732 
L 204.722955 288.949505 
L 202.420706 292.937118 
L 432.427454 425.731576 
L 432.185112 426.151324 
L 202.178364 293.356866 
L 199.876115 297.344479 
z
" style="fill:#94ff63;stroke:#94ff63;stroke-linejoin:miter;"/>
   </g>
   <g id="patch_12">
    <path clip-path="url(#p87778580bd)" d="M 150.553464 432 
L 165.093984 427.15316 
L 165.093984 431.757658 
L 430.6829 431.757658 
L 430.6829 432.242342 
L 165.093984 432.242342 
L 165.093984 436.84684 
z
" style="fill:#0000df;stroke:#0000df;stroke-linejoin:miter;"/>
   </g>
   <g id="patch_13">
    <path clip-path="url(#p87778580bd)" d="M 302.322402 469.640859 
L 315.113011 461.195807 
L 316.304743 465.643411 
L 431.033057 434.902052 
L 431.158503 435.370221 
L 316.430188 466.11158 
L 317.62192 470.559183 
z
" style="fill:#df0000;stroke:#df0000;stroke-linejoin:miter;"/>
   </g>
   <g id="patch_14">
    <path clip-path="url(#p87778580bd)" d="M 339.963261 534.836739 
L 346.817728 521.127805 
L 350.073599 524.383677 
L 434.060555 440.396722 
L 434.403278 440.739445 
L 350.416323 524.726401 
L 353.672195 527.982272 
z
" style="fill:#00008d;stroke:#00008d;stroke-linejoin:miter;"/>
   </g>
   <g id="patch_15">
    <path clip-path="url(#p87778580bd)" d="M 480.440859 572.477598 
L 471.995807 559.686989 
L 476.443411 558.495257 
L 445.702052 443.766943 
L 446.170221 443.641497 
L 476.91158 558.369812 
L 481.359183 557.17808 
z
" style="fill:#bf0000;stroke:#bf0000;stroke-linejoin:miter;"/>
   </g>
   <g id="patch_16">
    <path clip-path="url(#p87778580bd)" d="M 442.8 724.246536 
L 437.95316 709.706016 
L 442.557658 709.706016 
L 442.557658 444.1171 
L 443.042342 444.1171 
L 443.042342 709.706016 
L 447.64684 709.706016 
z
" style="fill:#ff4700;stroke:#ff4700;stroke-linejoin:miter;"/>
   </g>
   <g id="patch_17">
    <path clip-path="url(#p87778580bd)" d="M 296.676732 685.092925 
L 299.749505 670.077045 
L 303.737118 672.379294 
L 436.531576 442.372546 
L 436.951324 442.614888 
L 304.156866 672.621636 
L 308.144479 674.923885 
z
" style="fill:#ff2d00;stroke:#ff2d00;stroke-linejoin:miter;"/>
   </g>
   <g id="line2d_1">
    <defs>
     <path d="M 0 12.5 
C 3.315039 12.5 6.494748 11.182921 8.838835 8.838835 
C 11.182921 6.494748 12.5 3.315039 12.5 0 
C 12.5 -3.315039 11.182921 -6.494748 8.838835 -8.838835 
C 6.494748 -11.182921 3.315039 -12.5 0 -12.5 
C -3.315039 -12.5 -6.494748 -11.182921 -8.838835 -8.838835 
C -11.182921 -6.494748 -12.5 -3.315039 -12.5 0 
C -12.5 3.315039 -11.182921 6.494748 -8.838835 8.838835 
C -6.494748 11.182921 -3.315039 12.5 0 12.5 
z
" id="m0e1e531aad" style="stroke:#000000;stroke-width:1.5;"/>
    </defs>
    <g clip-path="url(#p87778580bd)">
     <use style="fill:#ffffff;stroke:#000000;stroke-width:1.5;" x="442.8" xlink:href="#m0e1e531aad" y="127.636363636"/>
    </g>
   </g>
   <g id="line2d_2">
    <g clip-path="url(#p87778580bd)">
     <use style="fill:#ffffff;stroke:#000000;stroke-width:1.5;" x="594.981818182" xlink:href="#m0e1e531aad" y="168.413358921"/>
    </g>
   </g>
   <g id="line2d_3">
    <g clip-path="url(#p87778580bd)">
     <use style="fill:#ffffff;stroke:#000000;stroke-width:1.5;" x="706.386641079" xlink:href="#m0e1e531aad" y="279.818181818"/>
    </g>
   </g>
   <g id="line2d_4">
    <g clip-path="url(#p87778580bd)">
     <use style="fill:#ffffff;stroke:#000000;stroke-width:1.5;" x="554.204822897" xlink:href="#m0e1e531aad" y="320.595177103"/>
    </g>
   </g>
   <g id="line2d_5">
    <g clip-path="url(#p87778580bd)">
     <use style="fill:#ffffff;stroke:#000000;stroke-width:1.5;" x="747.163636364" xlink:href="#m0e1e531aad" y="432.0"/>
    </g>
   </g>
   <g id="line2d_6">
    <g clip-path="url(#p87778580bd)">
     <use style="fill:#ffffff;stroke:#000000;stroke-width:1.5;" x="402.023004715" xlink:href="#m0e1e531aad" y="279.818181818"/>
    </g>
   </g>
   <g id="line2d_7">
    <g clip-path="url(#p87778580bd)">
     <use style="fill:#ffffff;stroke:#000000;stroke-width:1.5;" x="594.981818182" xlink:href="#m0e1e531aad" y="391.223004715"/>
    </g>
   </g>
   <g id="line2d_8">
    <g clip-path="url(#p87778580bd)">
     <use style="fill:#ffffff;stroke:#000000;stroke-width:1.5;" x="290.618181818" xlink:href="#m0e1e531aad" y="168.413358921"/>
    </g>
   </g>
   <g id="line2d_9">
    <g clip-path="url(#p87778580bd)">
     <use style="fill:#ffffff;stroke:#000000;stroke-width:1.5;" x="442.8" xlink:href="#m0e1e531aad" y="432.0"/>
    </g>
   </g>
   <g id="line2d_10">
    <g clip-path="url(#p87778580bd)">
     <use style="fill:#ffffff;stroke:#000000;stroke-width:1.5;" x="483.576995285" xlink:href="#m0e1e531aad" y="279.818181818"/>
    </g>
   </g>
   <g id="line2d_11">
    <g clip-path="url(#p87778580bd)">
     <use style="fill:#ffffff;stroke:#000000;stroke-width:1.5;" x="554.204822897" xlink:href="#m0e1e531aad" y="543.404822897"/>
    </g>
   </g>
   <g id="line2d_12">
    <g clip-path="url(#p87778580bd)">
     <use style="fill:#ffffff;stroke:#000000;stroke-width:1.5;" x="331.395177103" xlink:href="#m0e1e531aad" y="320.595177103"/>
    </g>
   </g>
   <g id="line2d_13">
    <g clip-path="url(#p87778580bd)">
     <use style="fill:#ffffff;stroke:#000000;stroke-width:1.5;" x="706.386641079" xlink:href="#m0e1e531aad" y="584.181818182"/>
    </g>
   </g>
   <g id="line2d_14">
    <g clip-path="url(#p87778580bd)">
     <use style="fill:#ffffff;stroke:#000000;stroke-width:1.5;" x="179.213358921" xlink:href="#m0e1e531aad" y="279.818181818"/>
    </g>
   </g>
   <g id="line2d_15">
    <g clip-path="url(#p87778580bd)">
     <use style="fill:#ffffff;stroke:#000000;stroke-width:1.5;" x="594.981818182" xlink:href="#m0e1e531aad" y="472.776995285"/>
    </g>
   </g>
   <g id="line2d_16">
    <g clip-path="url(#p87778580bd)">
     <use style="fill:#ffffff;stroke:#000000;stroke-width:1.5;" x="290.618181818" xlink:href="#m0e1e531aad" y="391.223004715"/>
    </g>
   </g>
   <g id="line2d_17">
    <g clip-path="url(#p87778580bd)">
     <use style="fill:#ffffff;stroke:#000000;stroke-width:1.5;" x="138.436363636" xlink:href="#m0e1e531aad" y="432.0"/>
    </g>
   </g>
   <g id="line2d_18">
    <g clip-path="url(#p87778580bd)">
     <use style="fill:#ffffff;stroke:#000000;stroke-width:1.5;" x="290.618181818" xlink:href="#m0e1e531aad" y="472.776995285"/>
    </g>
   </g>
   <g id="line2d_19">
    <g clip-path="url(#p87778580bd)">
     <use style="fill:#ffffff;stroke:#000000;stroke-width:1.5;" x="331.395177103" xlink:href="#m0e1e531aad" y="543.404822897"/>
    </g>
   </g>
   <g id="line2d_20">
    <g clip-path="url(#p87778580bd)">
     <use style="fill:#ffffff;stroke:#000000;stroke-width:1.5;" x="483.576995285" xlink:href="#m0e1e531aad" y="584.181818182"/>
    </g>
   </g>
   <g id="line2d_21">
    <g clip-path="url(#p87778580bd)">
     <use style="fill:#ffffff;stroke:#000000;stroke-width:1.5;" x="402.023004715" xlink:href="#m0e1e531aad" y="584.181818182"/>
    </g>
   </g>
   <g id="line2d_22">
    <g clip-path="url(#p87778580bd)">
     <use style="fill:#ffffff;stroke:#000000;stroke-width:1.5;" x="594.981818182" xlink:href="#m0e1e531aad" y="695.586641079"/>
    </g>
   </g>
   <g id="line2d_23">
    <g clip-path="url(#p87778580bd)">
     <use style="fill:#ffffff;stroke:#000000;stroke-width:1.5;" x="442.8" xlink:href="#m0e1e531aad" y="736.363636364"/>
    </g>
   </g>
   <g id="line2d_24">
    <g clip-path="url(#p87778580bd)">
     <use style="fill:#ffffff;stroke:#000000;stroke-width:1.5;" x="290.618181818" xlink:href="#m0e1e531aad" y="695.586641079"/>
    </g>
   </g>
   <g id="line2d_25">
    <g clip-path="url(#p87778580bd)">
     <use style="fill:#ffffff;stroke:#000000;stroke-width:1.5;" x="179.213358921" xlink:href="#m0e1e531aad" y="584.181818182"/>
    </g>
   </g>
   <g id="text_1">
    <!-- 1 -->
    <defs>
     <path d="M 12.40625 8.296875 
L 28.515625 8.296875 
L 28.515625 63.921875 
L 10.984375 60.40625 
L 10.984375 69.390625 
L 28.421875 72.90625 
L 38.28125 72.90625 
L 38.28125 8.296875 
L 54.390625 8.296875 
L 54.390625 0 
L 12.40625 0 
z
" id="BitstreamVeraSans-Roman-31"/>
    </defs>
    <g transform="translate(439.936875 130.119801136)scale(0.09 -0.09)">
     <use xlink:href="#BitstreamVeraSans-Roman-31"/>
    </g>
   </g>
   <g id="text_2">
    <!-- 2 -->
    <defs>
     <path d="M 19.1875 8.296875 
L 53.609375 8.296875 
L 53.609375 0 
L 7.328125 0 
L 7.328125 8.296875 
Q 12.9375 14.109375 22.625 23.890625 
Q 32.328125 33.6875 34.8125 36.53125 
Q 39.546875 41.84375 41.421875 45.53125 
Q 43.3125 49.21875 43.3125 52.78125 
Q 43.3125 58.59375 39.234375 62.25 
Q 35.15625 65.921875 28.609375 65.921875 
Q 23.96875 65.921875 18.8125 64.3125 
Q 13.671875 62.703125 7.8125 59.421875 
L 7.8125 69.390625 
Q 13.765625 71.78125 18.9375 73 
Q 24.125 74.21875 28.421875 74.21875 
Q 39.75 74.21875 46.484375 68.546875 
Q 53.21875 62.890625 53.21875 53.421875 
Q 53.21875 48.921875 51.53125 44.890625 
Q 49.859375 40.875 45.40625 35.40625 
Q 44.1875 33.984375 37.640625 27.21875 
Q 31.109375 20.453125 19.1875 8.296875 
" id="BitstreamVeraSans-Roman-32"/>
    </defs>
    <g transform="translate(592.118693182 170.896796421)scale(0.09 -0.09)">
     <use xlink:href="#BitstreamVeraSans-Roman-32"/>
    </g>
   </g>
   <g id="text_3">
    <!-- 3 -->
    <defs>
     <path d="M 40.578125 39.3125 
Q 47.65625 37.796875 51.625 33 
Q 55.609375 28.21875 55.609375 21.1875 
Q 55.609375 10.40625 48.1875 4.484375 
Q 40.765625 -1.421875 27.09375 -1.421875 
Q 22.515625 -1.421875 17.65625 -0.515625 
Q 12.796875 0.390625 7.625 2.203125 
L 7.625 11.71875 
Q 11.71875 9.328125 16.59375 8.109375 
Q 21.484375 6.890625 26.8125 6.890625 
Q 36.078125 6.890625 40.9375 10.546875 
Q 45.796875 14.203125 45.796875 21.1875 
Q 45.796875 27.640625 41.28125 31.265625 
Q 36.765625 34.90625 28.71875 34.90625 
L 20.21875 34.90625 
L 20.21875 43.015625 
L 29.109375 43.015625 
Q 36.375 43.015625 40.234375 45.921875 
Q 44.09375 48.828125 44.09375 54.296875 
Q 44.09375 59.90625 40.109375 62.90625 
Q 36.140625 65.921875 28.71875 65.921875 
Q 24.65625 65.921875 20.015625 65.03125 
Q 15.375 64.15625 9.8125 62.3125 
L 9.8125 71.09375 
Q 15.4375 72.65625 20.34375 73.4375 
Q 25.25 74.21875 29.59375 74.21875 
Q 40.828125 74.21875 47.359375 69.109375 
Q 53.90625 64.015625 53.90625 55.328125 
Q 53.90625 49.265625 50.4375 45.09375 
Q 46.96875 40.921875 40.578125 39.3125 
" id="BitstreamVeraSans-Roman-33"/>
    </defs>
    <g transform="translate(703.523516079 282.301619318)scale(0.09 -0.09)">
     <use xlink:href="#BitstreamVeraSans-Roman-33"/>
    </g>
   </g>
   <g id="text_4">
    <!-- 4 -->
    <defs>
     <path d="M 37.796875 64.3125 
L 12.890625 25.390625 
L 37.796875 25.390625 
z
M 35.203125 72.90625 
L 47.609375 72.90625 
L 47.609375 25.390625 
L 58.015625 25.390625 
L 58.015625 17.1875 
L 47.609375 17.1875 
L 47.609375 0 
L 37.796875 0 
L 37.796875 17.1875 
L 4.890625 17.1875 
L 4.890625 26.703125 
z
" id="BitstreamVeraSans-Roman-34"/>
    </defs>
    <g transform="translate(551.341697897 323.078614603)scale(0.09 -0.09)">
     <use xlink:href="#BitstreamVeraSans-Roman-34"/>
    </g>
   </g>
   <g id="text_5">
    <!-- 5 -->
    <defs>
     <path d="M 10.796875 72.90625 
L 49.515625 72.90625 
L 49.515625 64.59375 
L 19.828125 64.59375 
L 19.828125 46.734375 
Q 21.96875 47.46875 24.109375 47.828125 
Q 26.265625 48.1875 28.421875 48.1875 
Q 40.625 48.1875 47.75 41.5 
Q 54.890625 34.8125 54.890625 23.390625 
Q 54.890625 11.625 47.5625 5.09375 
Q 40.234375 -1.421875 26.90625 -1.421875 
Q 22.3125 -1.421875 17.546875 -0.640625 
Q 12.796875 0.140625 7.71875 1.703125 
L 7.71875 11.625 
Q 12.109375 9.234375 16.796875 8.0625 
Q 21.484375 6.890625 26.703125 6.890625 
Q 35.15625 6.890625 40.078125 11.328125 
Q 45.015625 15.765625 45.015625 23.390625 
Q 45.015625 31 40.078125 35.4375 
Q 35.15625 39.890625 26.703125 39.890625 
Q 22.75 39.890625 18.8125 39.015625 
Q 14.890625 38.140625 10.796875 36.28125 
z
" id="BitstreamVeraSans-Roman-35"/>
    </defs>
    <g transform="translate(744.300511364 434.4834375)scale(0.09 -0.09)">
     <use xlink:href="#BitstreamVeraSans-Roman-35"/>
    </g>
   </g>
   <g id="text_6">
    <!-- 6 -->
    <defs>
     <path d="M 33.015625 40.375 
Q 26.375 40.375 22.484375 35.828125 
Q 18.609375 31.296875 18.609375 23.390625 
Q 18.609375 15.53125 22.484375 10.953125 
Q 26.375 6.390625 33.015625 6.390625 
Q 39.65625 6.390625 43.53125 10.953125 
Q 47.40625 15.53125 47.40625 23.390625 
Q 47.40625 31.296875 43.53125 35.828125 
Q 39.65625 40.375 33.015625 40.375 
M 52.59375 71.296875 
L 52.59375 62.3125 
Q 48.875 64.0625 45.09375 64.984375 
Q 41.3125 65.921875 37.59375 65.921875 
Q 27.828125 65.921875 22.671875 59.328125 
Q 17.53125 52.734375 16.796875 39.40625 
Q 19.671875 43.65625 24.015625 45.921875 
Q 28.375 48.1875 33.59375 48.1875 
Q 44.578125 48.1875 50.953125 41.515625 
Q 57.328125 34.859375 57.328125 23.390625 
Q 57.328125 12.15625 50.6875 5.359375 
Q 44.046875 -1.421875 33.015625 -1.421875 
Q 20.359375 -1.421875 13.671875 8.265625 
Q 6.984375 17.96875 6.984375 36.375 
Q 6.984375 53.65625 15.1875 63.9375 
Q 23.390625 74.21875 37.203125 74.21875 
Q 40.921875 74.21875 44.703125 73.484375 
Q 48.484375 72.75 52.59375 71.296875 
" id="BitstreamVeraSans-Roman-36"/>
    </defs>
    <g transform="translate(399.159879715 282.301619318)scale(0.09 -0.09)">
     <use xlink:href="#BitstreamVeraSans-Roman-36"/>
    </g>
   </g>
   <g id="text_7">
    <!-- 7 -->
    <defs>
     <path d="M 8.203125 72.90625 
L 55.078125 72.90625 
L 55.078125 68.703125 
L 28.609375 0 
L 18.3125 0 
L 43.21875 64.59375 
L 8.203125 64.59375 
z
" id="BitstreamVeraSans-Roman-37"/>
    </defs>
    <g transform="translate(592.118693182 393.706442215)scale(0.09 -0.09)">
     <use xlink:href="#BitstreamVeraSans-Roman-37"/>
    </g>
   </g>
   <g id="text_8">
    <!-- 8 -->
    <defs>
     <path d="M 31.78125 34.625 
Q 24.75 34.625 20.71875 30.859375 
Q 16.703125 27.09375 16.703125 20.515625 
Q 16.703125 13.921875 20.71875 10.15625 
Q 24.75 6.390625 31.78125 6.390625 
Q 38.8125 6.390625 42.859375 10.171875 
Q 46.921875 13.96875 46.921875 20.515625 
Q 46.921875 27.09375 42.890625 30.859375 
Q 38.875 34.625 31.78125 34.625 
M 21.921875 38.8125 
Q 15.578125 40.375 12.03125 44.71875 
Q 8.5 49.078125 8.5 55.328125 
Q 8.5 64.0625 14.71875 69.140625 
Q 20.953125 74.21875 31.78125 74.21875 
Q 42.671875 74.21875 48.875 69.140625 
Q 55.078125 64.0625 55.078125 55.328125 
Q 55.078125 49.078125 51.53125 44.71875 
Q 48 40.375 41.703125 38.8125 
Q 48.828125 37.15625 52.796875 32.3125 
Q 56.78125 27.484375 56.78125 20.515625 
Q 56.78125 9.90625 50.3125 4.234375 
Q 43.84375 -1.421875 31.78125 -1.421875 
Q 19.734375 -1.421875 13.25 4.234375 
Q 6.78125 9.90625 6.78125 20.515625 
Q 6.78125 27.484375 10.78125 32.3125 
Q 14.796875 37.15625 21.921875 38.8125 
M 18.3125 54.390625 
Q 18.3125 48.734375 21.84375 45.5625 
Q 25.390625 42.390625 31.78125 42.390625 
Q 38.140625 42.390625 41.71875 45.5625 
Q 45.3125 48.734375 45.3125 54.390625 
Q 45.3125 60.0625 41.71875 63.234375 
Q 38.140625 66.40625 31.78125 66.40625 
Q 25.390625 66.40625 21.84375 63.234375 
Q 18.3125 60.0625 18.3125 54.390625 
" id="BitstreamVeraSans-Roman-38"/>
    </defs>
    <g transform="translate(287.755056818 170.896796421)scale(0.09 -0.09)">
     <use xlink:href="#BitstreamVeraSans-Roman-38"/>
    </g>
   </g>
   <g id="text_9">
    <!-- 9,14,18 -->
    <defs>
     <path d="M 11.71875 12.40625 
L 22.015625 12.40625 
L 22.015625 4 
L 14.015625 -11.625 
L 7.71875 -11.625 
L 11.71875 4 
z
" id="BitstreamVeraSans-Roman-2c"/>
     <path d="M 10.984375 1.515625 
L 10.984375 10.5 
Q 14.703125 8.734375 18.5 7.8125 
Q 22.3125 6.890625 25.984375 6.890625 
Q 35.75 6.890625 40.890625 13.453125 
Q 46.046875 20.015625 46.78125 33.40625 
Q 43.953125 29.203125 39.59375 26.953125 
Q 35.25 24.703125 29.984375 24.703125 
Q 19.046875 24.703125 12.671875 31.3125 
Q 6.296875 37.9375 6.296875 49.421875 
Q 6.296875 60.640625 12.9375 67.421875 
Q 19.578125 74.21875 30.609375 74.21875 
Q 43.265625 74.21875 49.921875 64.515625 
Q 56.59375 54.828125 56.59375 36.375 
Q 56.59375 19.140625 48.40625 8.859375 
Q 40.234375 -1.421875 26.421875 -1.421875 
Q 22.703125 -1.421875 18.890625 -0.6875 
Q 15.09375 0.046875 10.984375 1.515625 
M 30.609375 32.421875 
Q 37.25 32.421875 41.125 36.953125 
Q 45.015625 41.5 45.015625 49.421875 
Q 45.015625 57.28125 41.125 61.84375 
Q 37.25 66.40625 30.609375 66.40625 
Q 23.96875 66.40625 20.09375 61.84375 
Q 16.21875 57.28125 16.21875 49.421875 
Q 16.21875 41.5 20.09375 36.953125 
Q 23.96875 32.421875 30.609375 32.421875 
" id="BitstreamVeraSans-Roman-39"/>
    </defs>
    <g transform="translate(437.0746875 432.8278125)scale(0.03 -0.03)">
     <use xlink:href="#BitstreamVeraSans-Roman-39"/>
     <use x="63.623046875" xlink:href="#BitstreamVeraSans-Roman-2c"/>
     <use x="95.41015625" xlink:href="#BitstreamVeraSans-Roman-31"/>
     <use x="159.033203125" xlink:href="#BitstreamVeraSans-Roman-34"/>
     <use x="222.65625" xlink:href="#BitstreamVeraSans-Roman-2c"/>
     <use x="254.443359375" xlink:href="#BitstreamVeraSans-Roman-31"/>
     <use x="318.06640625" xlink:href="#BitstreamVeraSans-Roman-38"/>
    </g>
   </g>
   <g id="text_10">
    <!-- 10 -->
    <defs>
     <path d="M 31.78125 66.40625 
Q 24.171875 66.40625 20.328125 58.90625 
Q 16.5 51.421875 16.5 36.375 
Q 16.5 21.390625 20.328125 13.890625 
Q 24.171875 6.390625 31.78125 6.390625 
Q 39.453125 6.390625 43.28125 13.890625 
Q 47.125 21.390625 47.125 36.375 
Q 47.125 51.421875 43.28125 58.90625 
Q 39.453125 66.40625 31.78125 66.40625 
M 31.78125 74.21875 
Q 44.046875 74.21875 50.515625 64.515625 
Q 56.984375 54.828125 56.984375 36.375 
Q 56.984375 17.96875 50.515625 8.265625 
Q 44.046875 -1.421875 31.78125 -1.421875 
Q 19.53125 -1.421875 13.0625 8.265625 
Q 6.59375 17.96875 6.59375 36.375 
Q 6.59375 54.828125 13.0625 64.515625 
Q 19.53125 74.21875 31.78125 74.21875 
" id="BitstreamVeraSans-Roman-30"/>
    </defs>
    <g transform="translate(477.850745285 282.301619318)scale(0.09 -0.09)">
     <use xlink:href="#BitstreamVeraSans-Roman-31"/>
     <use x="63.623046875" xlink:href="#BitstreamVeraSans-Roman-30"/>
    </g>
   </g>
   <g id="text_11">
    <!-- 11 -->
    <g transform="translate(548.478572897 545.888260397)scale(0.09 -0.09)">
     <use xlink:href="#BitstreamVeraSans-Roman-31"/>
     <use x="63.623046875" xlink:href="#BitstreamVeraSans-Roman-31"/>
    </g>
   </g>
   <g id="text_12">
    <!-- 12 -->
    <g transform="translate(325.668927103 323.078614603)scale(0.09 -0.09)">
     <use xlink:href="#BitstreamVeraSans-Roman-31"/>
     <use x="63.623046875" xlink:href="#BitstreamVeraSans-Roman-32"/>
    </g>
   </g>
   <g id="text_13">
    <!-- 13 -->
    <g transform="translate(700.660391079 586.665255682)scale(0.09 -0.09)">
     <use xlink:href="#BitstreamVeraSans-Roman-31"/>
     <use x="63.623046875" xlink:href="#BitstreamVeraSans-Roman-33"/>
    </g>
   </g>
   <g id="text_14">
    <!-- 15 -->
    <g transform="translate(173.487108921 282.301619318)scale(0.09 -0.09)">
     <use xlink:href="#BitstreamVeraSans-Roman-31"/>
     <use x="63.623046875" xlink:href="#BitstreamVeraSans-Roman-35"/>
    </g>
   </g>
   <g id="text_15">
    <!-- 16 -->
    <g transform="translate(589.255568182 475.260432785)scale(0.09 -0.09)">
     <use xlink:href="#BitstreamVeraSans-Roman-31"/>
     <use x="63.623046875" xlink:href="#BitstreamVeraSans-Roman-36"/>
    </g>
   </g>
   <g id="text_16">
    <!-- 17 -->
    <g transform="translate(284.891931818 393.706442215)scale(0.09 -0.09)">
     <use xlink:href="#BitstreamVeraSans-Roman-31"/>
     <use x="63.623046875" xlink:href="#BitstreamVeraSans-Roman-37"/>
    </g>
   </g>
   <g id="text_17">
    <!-- 19 -->
    <g transform="translate(132.710113636 434.4834375)scale(0.09 -0.09)">
     <use xlink:href="#BitstreamVeraSans-Roman-31"/>
     <use x="63.623046875" xlink:href="#BitstreamVeraSans-Roman-39"/>
    </g>
   </g>
   <g id="text_18">
    <!-- 20 -->
    <g transform="translate(284.891931818 475.260432785)scale(0.09 -0.09)">
     <use xlink:href="#BitstreamVeraSans-Roman-32"/>
     <use x="63.623046875" xlink:href="#BitstreamVeraSans-Roman-30"/>
    </g>
   </g>
   <g id="text_19">
    <!-- 21 -->
    <g transform="translate(325.668927103 545.888260397)scale(0.09 -0.09)">
     <use xlink:href="#BitstreamVeraSans-Roman-32"/>
     <use x="63.623046875" xlink:href="#BitstreamVeraSans-Roman-31"/>
    </g>
   </g>
   <g id="text_20">
    <!-- 22 -->
    <g transform="translate(477.850745285 586.665255682)scale(0.09 -0.09)">
     <use xlink:href="#BitstreamVeraSans-Roman-32"/>
     <use x="63.623046875" xlink:href="#BitstreamVeraSans-Roman-32"/>
    </g>
   </g>
   <g id="text_21">
    <!-- 23 -->
    <g transform="translate(396.296754715 586.665255682)scale(0.09 -0.09)">
     <use xlink:href="#BitstreamVeraSans-Roman-32"/>
     <use x="63.623046875" xlink:href="#BitstreamVeraSans-Roman-33"/>
    </g>
   </g>
   <g id="text_22">
    <!-- 24 -->
    <g transform="translate(589.255568182 698.070078579)scale(0.09 -0.09)">
     <use xlink:href="#BitstreamVeraSans-Roman-32"/>
     <use x="63.623046875" xlink:href="#BitstreamVeraSans-Roman-34"/>
    </g>
   </g>
   <g id="text_23">
    <!-- 25 -->
    <g transform="translate(437.07375 738.847073864)scale(0.09 -0.09)">
     <use xlink:href="#BitstreamVeraSans-Roman-32"/>
     <use x="63.623046875" xlink:href="#BitstreamVeraSans-Roman-35"/>
    </g>
   </g>
   <g id="text_24">
    <!-- 26 -->
    <g transform="translate(284.891931818 698.070078579)scale(0.09 -0.09)">
     <use xlink:href="#BitstreamVeraSans-Roman-32"/>
     <use x="63.623046875" xlink:href="#BitstreamVeraSans-Roman-36"/>
    </g>
   </g>
   <g id="text_25">
    <!-- 27 -->
    <g transform="translate(173.487108921 586.665255682)scale(0.09 -0.09)">
     <use xlink:href="#BitstreamVeraSans-Roman-32"/>
     <use x="63.623046875" xlink:href="#BitstreamVeraSans-Roman-37"/>
    </g>
   </g>
  </g>
 </g>
 <defs>
  <clipPath id="p87778580bd">
   <rect height="669.6" width="669.6" x="108.0" y="97.2"/>
  </clipPath>
 </defs>
</svg>
