<?xml version="1.0" encoding="utf-8" standalone="no"?>
<!DOCTYPE svg PUBLIC "-//W3C//DTD SVG 1.1//EN"
  "http://www.w3.org/Graphics/SVG/1.1/DTD/svg11.dtd">
<!-- Created with matplotlib (http://matplotlib.org/) -->
<svg height="864pt" version="1.1" viewBox="0 0 864 864" width="864pt" xmlns="http://www.w3.org/2000/svg" xmlns:xlink="http://www.w3.org/1999/xlink">
 <defs>
  <style type="text/css">
*{stroke-linecap:butt;stroke-linejoin:round;stroke-miterlimit:100000;}
  </style>
 </defs>
 <g id="figure_1">
  <g id="patch_1">
   <path d="M 0 864 
L 864 864 
L 864 0 
L 0 0 
z
" style="fill:#ffffff;"/>
  </g>
  <g id="axes_1">
   <g id="patch_2">
    <path clip-path="url(#p9ed01659c2)" d="M 667.077839 243.808548 
L 659.403848 256.299507 
L 656.572954 252.925779 
L 451.827227 424.727843 
L 451.529239 424.372713 
L 656.274965 252.57065 
L 653.444071 249.196921 
z
" style="fill:#00e4f8;stroke:#00e4f8;stroke-linejoin:miter;"/>
   </g>
   <g id="patch_3">
    <path clip-path="url(#p9ed01659c2)" d="M 493.639659 143.673968 
L 495.790075 158.175344 
L 491.452893 157.410582 
L 445.040805 420.626614 
L 444.584259 420.546113 
L 490.996348 157.330081 
L 486.659166 156.565318 
z
" style="fill:#f1fc06;stroke:#f1fc06;stroke-linejoin:miter;"/>
   </g>
   <g id="patch_4">
    <path clip-path="url(#p9ed01659c2)" d="M 296.413037 178.450342 
L 307.381656 188.17678 
L 303.567603 190.378825 
L 437.205885 421.84712 
L 436.804405 422.078914 
L 303.166123 190.610619 
L 299.35207 192.812664 
z
" style="fill:#ff7a00;stroke:#ff7a00;stroke-linejoin:miter;"/>
   </g>
   <g id="patch_5">
    <path clip-path="url(#p9ed01659c2)" d="M 410.315714 247.772462 
L 417.296207 260.663813 
L 412.959026 261.428575 
L 441.015741 420.546113 
L 440.559195 420.626614 
L 412.50248 261.509076 
L 408.165298 262.273839 
z
" style="fill:#39ffbe;stroke:#39ffbe;stroke-linejoin:miter;"/>
   </g>
   <g id="patch_6">
    <path clip-path="url(#p9ed01659c2)" d="M 536.334772 269.993022 
L 533.39574 284.355344 
L 529.581686 282.153299 
L 448.795595 422.078914 
L 448.394115 421.84712 
L 529.180207 281.921505 
L 525.366153 279.71946 
z
" style="fill:#000092;stroke:#000092;stroke-linejoin:miter;"/>
   </g>
   <g id="patch_7">
    <path clip-path="url(#p9ed01659c2)" d="M 489.857336 350.494304 
L 486.918303 364.856626 
L 483.104249 362.654581 
L 448.795595 422.078914 
L 448.394115 421.84712 
L 482.70277 362.422787 
L 478.888716 360.220742 
z
" style="fill:#ff7300;stroke:#ff7300;stroke-linejoin:miter;"/>
   </g>
   <g id="patch_8">
    <path clip-path="url(#p9ed01659c2)" d="M 618.587871 368.018448 
L 607.104518 377.131451 
L 605.598231 372.99296 
L 453.770043 428.253901 
L 453.611487 427.81827 
L 605.439674 372.557329 
L 603.933387 368.418839 
z
" style="fill:#0000e3;stroke:#0000e3;stroke-linejoin:miter;"/>
   </g>
   <g id="patch_9">
    <path clip-path="url(#p9ed01659c2)" d="M 735.573926 432 
L 721.666274 436.635884 
L 721.666274 432.231794 
L 454.38971 432.231794 
L 454.38971 431.768206 
L 721.666274 431.768206 
L 721.666274 427.364116 
z
" style="fill:#00bcff;stroke:#00bcff;stroke-linejoin:miter;"/>
   </g>
   <g id="patch_10">
    <path clip-path="url(#p9ed01659c2)" d="M 299.496415 311.754015 
L 313.130183 317.142388 
L 310.299289 320.516116 
L 434.070761 424.372713 
L 433.772773 424.727843 
L 310.0013 320.871246 
L 307.170406 324.244974 
z
" style="fill:#d10000;stroke:#d10000;stroke-linejoin:miter;"/>
   </g>
   <g id="patch_11">
    <path clip-path="url(#p9ed01659c2)" d="M 426.457159 339.315142 
L 433.437652 352.206493 
L 429.10047 352.971255 
L 441.015741 420.546113 
L 440.559195 420.626614 
L 428.643925 353.051756 
L 424.306743 353.816518 
z
" style="fill:#ff9c00;stroke:#ff9c00;stroke-linejoin:miter;"/>
   </g>
   <g id="patch_12">
    <path clip-path="url(#p9ed01659c2)" d="M 531.238862 399.810887 
L 519.75551 408.92389 
L 518.249223 404.785399 
L 453.770043 428.253901 
L 453.611487 427.81827 
L 518.090666 404.349768 
L 516.584379 400.211278 
z
" style="fill:#ff6400;stroke:#ff6400;stroke-linejoin:miter;"/>
   </g>
   <g id="patch_13">
    <path clip-path="url(#p9ed01659c2)" d="M 531.238862 464.189113 
L 516.584379 463.788722 
L 518.090666 459.650232 
L 453.611487 436.18173 
L 453.770043 435.746099 
L 518.249223 459.214601 
L 519.75551 455.07611 
z
" style="fill:#0020ff;stroke:#0020ff;stroke-linejoin:miter;"/>
   </g>
   <g id="patch_14">
    <path clip-path="url(#p9ed01659c2)" d="M 348.685328 432 
L 362.592981 427.364116 
L 362.592981 431.768206 
L 431.21029 431.768206 
L 431.21029 432.231794 
L 362.592981 432.231794 
L 362.592981 436.635884 
z
" style="fill:#ffab00;stroke:#ffab00;stroke-linejoin:miter;"/>
   </g>
   <g id="patch_15">
    <path clip-path="url(#p9ed01659c2)" d="M 370.703979 371.504255 
L 384.337747 376.892629 
L 381.506853 380.266357 
L 434.070761 424.372713 
L 433.772773 424.727843 
L 381.208864 380.621486 
L 378.37797 383.995215 
z
" style="fill:#ff3000;stroke:#ff3000;stroke-linejoin:miter;"/>
   </g>
   <g id="patch_16">
    <path clip-path="url(#p9ed01659c2)" d="M 618.587871 495.981552 
L 603.933387 495.581161 
L 605.439674 491.442671 
L 453.611487 436.18173 
L 453.770043 435.746099 
L 605.598231 491.00704 
L 607.104518 486.868549 
z
" style="fill:#00dcfe;stroke:#00dcfe;stroke-linejoin:miter;"/>
   </g>
   <g id="patch_17">
    <path clip-path="url(#p9ed01659c2)" d="M 426.457159 524.684858 
L 424.306743 510.183482 
L 428.643925 510.948244 
L 440.559195 443.373386 
L 441.015741 443.453887 
L 429.10047 511.028745 
L 433.437652 511.793507 
z
" style="fill:#00acff;stroke:#00acff;stroke-linejoin:miter;"/>
   </g>
   <g id="patch_18">
    <path clip-path="url(#p9ed01659c2)" d="M 167.682502 331.86542 
L 182.336986 332.265811 
L 180.830698 336.404302 
L 431.988513 427.81827 
L 431.829957 428.253901 
L 180.672142 336.839932 
L 179.165854 340.978423 
z
" style="fill:#0070ff;stroke:#0070ff;stroke-linejoin:miter;"/>
   </g>
   <g id="patch_19">
    <path clip-path="url(#p9ed01659c2)" d="M 536.334772 594.006978 
L 525.366153 584.28054 
L 529.180207 582.078495 
L 448.394115 442.15288 
L 448.795595 441.921086 
L 529.581686 581.846701 
L 533.39574 579.644656 
z
" style="fill:#0000b6;stroke:#0000b6;stroke-linejoin:miter;"/>
   </g>
   <g id="patch_20">
    <path clip-path="url(#p9ed01659c2)" d="M 667.077839 620.191452 
L 653.444071 614.803079 
L 656.274965 611.42935 
L 451.529239 439.627287 
L 451.827227 439.272157 
L 656.572954 611.074221 
L 659.403848 607.700493 
z
" style="fill:#bf0000;stroke:#bf0000;stroke-linejoin:miter;"/>
   </g>
   <g id="patch_21">
    <path clip-path="url(#p9ed01659c2)" d="M 255.730455 432 
L 269.638107 427.364116 
L 269.638107 431.768206 
L 431.21029 431.768206 
L 431.21029 432.231794 
L 269.638107 432.231794 
L 269.638107 436.635884 
z
" style="fill:#0094ff;stroke:#0094ff;stroke-linejoin:miter;"/>
   </g>
   <g id="patch_22">
    <path clip-path="url(#p9ed01659c2)" d="M 370.703979 492.495745 
L 378.37797 480.004785 
L 381.208864 483.378514 
L 433.772773 439.272157 
L 434.070761 439.627287 
L 381.506853 483.733643 
L 384.337747 487.107371 
z
" style="fill:#0048ff;stroke:#0048ff;stroke-linejoin:miter;"/>
   </g>
   <g id="patch_23">
    <path clip-path="url(#p9ed01659c2)" d="M 489.857336 513.505696 
L 478.888716 503.779258 
L 482.70277 501.577213 
L 448.394115 442.15288 
L 448.795595 441.921086 
L 483.104249 501.345419 
L 486.918303 499.143374 
z
" style="fill:#ff5500;stroke:#ff5500;stroke-linejoin:miter;"/>
   </g>
   <g id="patch_24">
    <path clip-path="url(#p9ed01659c2)" d="M 167.682502 532.13458 
L 179.165854 523.021577 
L 180.672142 527.160068 
L 431.829957 435.746099 
L 431.988513 436.18173 
L 180.830698 527.595698 
L 182.336986 531.734189 
z
" style="fill:#9dff5a;stroke:#9dff5a;stroke-linejoin:miter;"/>
   </g>
   <g id="patch_25">
    <path clip-path="url(#p9ed01659c2)" d="M 299.496415 552.245985 
L 307.170406 539.755026 
L 310.0013 543.128754 
L 433.772773 439.272157 
L 434.070761 439.627287 
L 310.299289 543.483884 
L 313.130183 546.857612 
z
" style="fill:#ed0400;stroke:#ed0400;stroke-linejoin:miter;"/>
   </g>
   <g id="patch_26">
    <path clip-path="url(#p9ed01659c2)" d="M 410.315714 616.227538 
L 408.165298 601.726161 
L 412.50248 602.490924 
L 440.559195 443.373386 
L 441.015741 443.453887 
L 412.959026 602.571425 
L 417.296207 603.336187 
z
" style="fill:#66ff90;stroke:#66ff90;stroke-linejoin:miter;"/>
   </g>
   <g id="patch_27">
    <path clip-path="url(#p9ed01659c2)" d="M 493.639659 720.326032 
L 486.659166 707.434682 
L 490.996348 706.669919 
L 444.584259 443.453887 
L 445.040805 443.373386 
L 491.452893 706.589418 
L 495.790075 705.824656 
z
" style="fill:#60ff97;stroke:#60ff97;stroke-linejoin:miter;"/>
   </g>
   <g id="patch_28">
    <path clip-path="url(#p9ed01659c2)" d="M 296.413037 685.549658 
L 299.35207 671.187336 
L 303.166123 673.389381 
L 436.804405 441.921086 
L 437.205885 442.15288 
L 303.567603 673.621175 
L 307.381656 675.82322 
z
" style="fill:#da0000;stroke:#da0000;stroke-linejoin:miter;"/>
   </g>
   <g id="line2d_1">
    <defs>
     <path d="M 0 12.5 
C 3.315039 12.5 6.494748 11.182921 8.838835 8.838835 
C 11.182921 6.494748 12.5 3.315039 12.5 0 
C 12.5 -3.315039 11.182921 -6.494748 8.838835 -8.838835 
C 6.494748 -11.182921 3.315039 -12.5 0 -12.5 
C -3.315039 -12.5 -6.494748 -11.182921 -8.838835 -8.838835 
C -11.182921 -6.494748 -12.5 -3.315039 -12.5 0 
C -12.5 3.315039 -11.182921 6.494748 -8.838835 8.838835 
C -6.494748 11.182921 -3.315039 12.5 0 12.5 
z
" id="m74451f4f4a" style="stroke:#000000;stroke-width:1.5;"/>
    </defs>
    <g clip-path="url(#p9ed01659c2)">
     <use style="fill:#ffffff;stroke:#000000;stroke-width:1.5;" x="675.956072324" xlink:href="#m74451f4f4a" y="236.358825706"/>
    </g>
   </g>
   <g id="line2d_2">
    <g clip-path="url(#p9ed01659c2)">
     <use style="fill:#ffffff;stroke:#000000;stroke-width:1.5;" x="594.981818182" xlink:href="#m74451f4f4a" y="168.413358921"/>
    </g>
   </g>
   <g id="line2d_3">
    <g clip-path="url(#p9ed01659c2)">
     <use style="fill:#ffffff;stroke:#000000;stroke-width:1.5;" x="495.652190803" xlink:href="#m74451f4f4a" y="132.260331174"/>
    </g>
   </g>
   <g id="line2d_4">
    <g clip-path="url(#p9ed01659c2)">
     <use style="fill:#ffffff;stroke:#000000;stroke-width:1.5;" x="389.947809197" xlink:href="#m74451f4f4a" y="132.260331174"/>
    </g>
   </g>
   <g id="line2d_5">
    <g clip-path="url(#p9ed01659c2)">
     <use style="fill:#ffffff;stroke:#000000;stroke-width:1.5;" x="290.618181818" xlink:href="#m74451f4f4a" y="168.413358921"/>
    </g>
   </g>
   <g id="line2d_6">
    <g clip-path="url(#p9ed01659c2)">
     <use style="fill:#ffffff;stroke:#000000;stroke-width:1.5;" x="477.296817565" xlink:href="#m74451f4f4a" y="236.358825706"/>
    </g>
   </g>
   <g id="line2d_7">
    <g clip-path="url(#p9ed01659c2)">
     <use style="fill:#ffffff;stroke:#000000;stroke-width:1.5;" x="408.303182435" xlink:href="#m74451f4f4a" y="236.358825706"/>
    </g>
   </g>
   <g id="line2d_8">
    <g clip-path="url(#p9ed01659c2)">
     <use style="fill:#ffffff;stroke:#000000;stroke-width:1.5;" x="542.129627379" xlink:href="#m74451f4f4a" y="259.956038682"/>
    </g>
   </g>
   <g id="line2d_9">
    <g clip-path="url(#p9ed01659c2)">
     <use style="fill:#ffffff;stroke:#000000;stroke-width:1.5;" x="594.981818182" xlink:href="#m74451f4f4a" y="304.304292492"/>
    </g>
   </g>
   <g id="line2d_10">
    <g clip-path="url(#p9ed01659c2)">
     <use style="fill:#ffffff;stroke:#000000;stroke-width:1.5;" x="728.808263126" xlink:href="#m74451f4f4a" y="327.901505468"/>
    </g>
   </g>
   <g id="line2d_11">
    <g clip-path="url(#p9ed01659c2)">
     <use style="fill:#ffffff;stroke:#000000;stroke-width:1.5;" x="495.652190803" xlink:href="#m74451f4f4a" y="340.457320239"/>
    </g>
   </g>
   <g id="line2d_12">
    <g clip-path="url(#p9ed01659c2)">
     <use style="fill:#ffffff;stroke:#000000;stroke-width:1.5;" x="389.947809197" xlink:href="#m74451f4f4a" y="340.457320239"/>
    </g>
   </g>
   <g id="line2d_13">
    <g clip-path="url(#p9ed01659c2)">
     <use style="fill:#ffffff;stroke:#000000;stroke-width:1.5;" x="629.478635747" xlink:href="#m74451f4f4a" y="364.054533215"/>
    </g>
   </g>
   <g id="line2d_14">
    <g clip-path="url(#p9ed01659c2)">
     <use style="fill:#ffffff;stroke:#000000;stroke-width:1.5;" x="747.163636364" xlink:href="#m74451f4f4a" y="432.0"/>
    </g>
   </g>
   <g id="line2d_15">
    <g clip-path="url(#p9ed01659c2)">
     <use style="fill:#ffffff;stroke:#000000;stroke-width:1.5;" x="523.774254142" xlink:href="#m74451f4f4a" y="364.054533215"/>
    </g>
   </g>
   <g id="line2d_16">
    <g clip-path="url(#p9ed01659c2)">
     <use style="fill:#ffffff;stroke:#000000;stroke-width:1.5;" x="290.618181818" xlink:href="#m74451f4f4a" y="304.304292492"/>
    </g>
   </g>
   <g id="line2d_17">
    <g clip-path="url(#p9ed01659c2)">
     <use style="fill:#ffffff;stroke:#000000;stroke-width:1.5;" x="424.444626763" xlink:href="#m74451f4f4a" y="327.901505468"/>
    </g>
   </g>
   <g id="line2d_18">
    <g clip-path="url(#p9ed01659c2)">
     <use style="fill:#ffffff;stroke:#000000;stroke-width:1.5;" x="641.459254758" xlink:href="#m74451f4f4a" y="432.0"/>
    </g>
   </g>
   <g id="line2d_19">
    <g clip-path="url(#p9ed01659c2)">
     <use style="fill:#ffffff;stroke:#000000;stroke-width:1.5;" x="209.643927676" xlink:href="#m74451f4f4a" y="236.358825706"/>
    </g>
   </g>
   <g id="line2d_20">
    <g clip-path="url(#p9ed01659c2)">
     <use style="fill:#ffffff;stroke:#000000;stroke-width:1.5;" x="343.470372621" xlink:href="#m74451f4f4a" y="259.956038682"/>
    </g>
   </g>
   <g id="line2d_21">
    <g clip-path="url(#p9ed01659c2)">
     <use style="fill:#ffffff;stroke:#000000;stroke-width:1.5;" x="542.129627379" xlink:href="#m74451f4f4a" y="395.846972253"/>
    </g>
   </g>
   <g id="line2d_22">
    <g clip-path="url(#p9ed01659c2)">
     <use style="fill:#ffffff;stroke:#000000;stroke-width:1.5;" x="542.129627379" xlink:href="#m74451f4f4a" y="468.153027747"/>
    </g>
   </g>
   <g id="line2d_23">
    <g clip-path="url(#p9ed01659c2)">
     <use style="fill:#ffffff;stroke:#000000;stroke-width:1.5;" x="461.155373237" xlink:href="#m74451f4f4a" y="327.901505468"/>
    </g>
   </g>
   <g id="line2d_24">
    <g clip-path="url(#p9ed01659c2)">
     <use style="fill:#ffffff;stroke:#000000;stroke-width:1.5;" x="442.8" xlink:href="#m74451f4f4a" y="432.0"/>
    </g>
   </g>
   <g id="line2d_25">
    <g clip-path="url(#p9ed01659c2)">
     <use style="fill:#ffffff;stroke:#000000;stroke-width:1.5;" x="728.808263126" xlink:href="#m74451f4f4a" y="536.098494532"/>
    </g>
   </g>
   <g id="line2d_26">
    <g clip-path="url(#p9ed01659c2)">
     <use style="fill:#ffffff;stroke:#000000;stroke-width:1.5;" x="337.095618395" xlink:href="#m74451f4f4a" y="432.0"/>
    </g>
   </g>
   <g id="line2d_27">
    <g clip-path="url(#p9ed01659c2)">
     <use style="fill:#ffffff;stroke:#000000;stroke-width:1.5;" x="361.825745858" xlink:href="#m74451f4f4a" y="364.054533215"/>
    </g>
   </g>
   <g id="line2d_28">
    <g clip-path="url(#p9ed01659c2)">
     <use style="fill:#ffffff;stroke:#000000;stroke-width:1.5;" x="629.478635747" xlink:href="#m74451f4f4a" y="499.945466785"/>
    </g>
   </g>
   <g id="line2d_29">
    <g clip-path="url(#p9ed01659c2)">
     <use style="fill:#ffffff;stroke:#000000;stroke-width:1.5;" x="523.774254142" xlink:href="#m74451f4f4a" y="499.945466785"/>
    </g>
   </g>
   <g id="line2d_30">
    <g clip-path="url(#p9ed01659c2)">
     <use style="fill:#ffffff;stroke:#000000;stroke-width:1.5;" x="256.121364253" xlink:href="#m74451f4f4a" y="364.054533215"/>
    </g>
   </g>
   <g id="line2d_31">
    <g clip-path="url(#p9ed01659c2)">
     <use style="fill:#ffffff;stroke:#000000;stroke-width:1.5;" x="548.504381605" xlink:href="#m74451f4f4a" y="432.0"/>
    </g>
   </g>
   <g id="line2d_32">
    <g clip-path="url(#p9ed01659c2)">
     <use style="fill:#ffffff;stroke:#000000;stroke-width:1.5;" x="424.444626763" xlink:href="#m74451f4f4a" y="536.098494532"/>
    </g>
   </g>
   <g id="line2d_33">
    <g clip-path="url(#p9ed01659c2)">
     <use style="fill:#ffffff;stroke:#000000;stroke-width:1.5;" x="156.791736874" xlink:href="#m74451f4f4a" y="327.901505468"/>
    </g>
   </g>
   <g id="line2d_34">
    <g clip-path="url(#p9ed01659c2)">
     <use style="fill:#ffffff;stroke:#000000;stroke-width:1.5;" x="542.129627379" xlink:href="#m74451f4f4a" y="604.043961318"/>
    </g>
   </g>
   <g id="line2d_35">
    <g clip-path="url(#p9ed01659c2)">
     <use style="fill:#ffffff;stroke:#000000;stroke-width:1.5;" x="343.470372621" xlink:href="#m74451f4f4a" y="395.846972253"/>
    </g>
   </g>
   <g id="line2d_36">
    <g clip-path="url(#p9ed01659c2)">
     <use style="fill:#ffffff;stroke:#000000;stroke-width:1.5;" x="343.470372621" xlink:href="#m74451f4f4a" y="468.153027747"/>
    </g>
   </g>
   <g id="line2d_37">
    <g clip-path="url(#p9ed01659c2)">
     <use style="fill:#ffffff;stroke:#000000;stroke-width:1.5;" x="675.956072324" xlink:href="#m74451f4f4a" y="627.641174294"/>
    </g>
   </g>
   <g id="line2d_38">
    <g clip-path="url(#p9ed01659c2)">
     <use style="fill:#ffffff;stroke:#000000;stroke-width:1.5;" x="461.155373237" xlink:href="#m74451f4f4a" y="536.098494532"/>
    </g>
   </g>
   <g id="line2d_39">
    <g clip-path="url(#p9ed01659c2)">
     <use style="fill:#ffffff;stroke:#000000;stroke-width:1.5;" x="244.140745242" xlink:href="#m74451f4f4a" y="432.0"/>
    </g>
   </g>
   <g id="line2d_40">
    <g clip-path="url(#p9ed01659c2)">
     <use style="fill:#ffffff;stroke:#000000;stroke-width:1.5;" x="138.436363636" xlink:href="#m74451f4f4a" y="432.0"/>
    </g>
   </g>
   <g id="line2d_41">
    <g clip-path="url(#p9ed01659c2)">
     <use style="fill:#ffffff;stroke:#000000;stroke-width:1.5;" x="361.825745858" xlink:href="#m74451f4f4a" y="499.945466785"/>
    </g>
   </g>
   <g id="line2d_42">
    <g clip-path="url(#p9ed01659c2)">
     <use style="fill:#ffffff;stroke:#000000;stroke-width:1.5;" x="594.981818182" xlink:href="#m74451f4f4a" y="559.695707508"/>
    </g>
   </g>
   <g id="line2d_43">
    <g clip-path="url(#p9ed01659c2)">
     <use style="fill:#ffffff;stroke:#000000;stroke-width:1.5;" x="256.121364253" xlink:href="#m74451f4f4a" y="499.945466785"/>
    </g>
   </g>
   <g id="line2d_44">
    <g clip-path="url(#p9ed01659c2)">
     <use style="fill:#ffffff;stroke:#000000;stroke-width:1.5;" x="495.652190803" xlink:href="#m74451f4f4a" y="523.542679761"/>
    </g>
   </g>
   <g id="line2d_45">
    <g clip-path="url(#p9ed01659c2)">
     <use style="fill:#ffffff;stroke:#000000;stroke-width:1.5;" x="389.947809197" xlink:href="#m74451f4f4a" y="523.542679761"/>
    </g>
   </g>
   <g id="line2d_46">
    <g clip-path="url(#p9ed01659c2)">
     <use style="fill:#ffffff;stroke:#000000;stroke-width:1.5;" x="156.791736874" xlink:href="#m74451f4f4a" y="536.098494532"/>
    </g>
   </g>
   <g id="line2d_47">
    <g clip-path="url(#p9ed01659c2)">
     <use style="fill:#ffffff;stroke:#000000;stroke-width:1.5;" x="343.470372621" xlink:href="#m74451f4f4a" y="604.043961318"/>
    </g>
   </g>
   <g id="line2d_48">
    <g clip-path="url(#p9ed01659c2)">
     <use style="fill:#ffffff;stroke:#000000;stroke-width:1.5;" x="290.618181818" xlink:href="#m74451f4f4a" y="559.695707508"/>
    </g>
   </g>
   <g id="line2d_49">
    <g clip-path="url(#p9ed01659c2)">
     <use style="fill:#ffffff;stroke:#000000;stroke-width:1.5;" x="477.296817565" xlink:href="#m74451f4f4a" y="627.641174294"/>
    </g>
   </g>
   <g id="line2d_50">
    <g clip-path="url(#p9ed01659c2)">
     <use style="fill:#ffffff;stroke:#000000;stroke-width:1.5;" x="408.303182435" xlink:href="#m74451f4f4a" y="627.641174294"/>
    </g>
   </g>
   <g id="line2d_51">
    <g clip-path="url(#p9ed01659c2)">
     <use style="fill:#ffffff;stroke:#000000;stroke-width:1.5;" x="594.981818182" xlink:href="#m74451f4f4a" y="695.586641079"/>
    </g>
   </g>
   <g id="line2d_52">
    <g clip-path="url(#p9ed01659c2)">
     <use style="fill:#ffffff;stroke:#000000;stroke-width:1.5;" x="495.652190803" xlink:href="#m74451f4f4a" y="731.739668826"/>
    </g>
   </g>
   <g id="line2d_53">
    <g clip-path="url(#p9ed01659c2)">
     <use style="fill:#ffffff;stroke:#000000;stroke-width:1.5;" x="389.947809197" xlink:href="#m74451f4f4a" y="731.739668826"/>
    </g>
   </g>
   <g id="line2d_54">
    <g clip-path="url(#p9ed01659c2)">
     <use style="fill:#ffffff;stroke:#000000;stroke-width:1.5;" x="290.618181818" xlink:href="#m74451f4f4a" y="695.586641079"/>
    </g>
   </g>
   <g id="line2d_55">
    <g clip-path="url(#p9ed01659c2)">
     <use style="fill:#ffffff;stroke:#000000;stroke-width:1.5;" x="209.643927676" xlink:href="#m74451f4f4a" y="627.641174294"/>
    </g>
   </g>
   <g id="text_1">
    <!-- 1 -->
    <defs>
     <path d="M 12.40625 8.296875 
L 28.515625 8.296875 
L 28.515625 63.921875 
L 10.984375 60.40625 
L 10.984375 69.390625 
L 28.421875 72.90625 
L 38.28125 72.90625 
L 38.28125 8.296875 
L 54.390625 8.296875 
L 54.390625 0 
L 12.40625 0 
z
" id="BitstreamVeraSans-Roman-31"/>
    </defs>
    <g transform="translate(673.092947324 238.842263206)scale(0.09 -0.09)">
     <use xlink:href="#BitstreamVeraSans-Roman-31"/>
    </g>
   </g>
   <g id="text_2">
    <!-- 2 -->
    <defs>
     <path d="M 19.1875 8.296875 
L 53.609375 8.296875 
L 53.609375 0 
L 7.328125 0 
L 7.328125 8.296875 
Q 12.9375 14.109375 22.625 23.890625 
Q 32.328125 33.6875 34.8125 36.53125 
Q 39.546875 41.84375 41.421875 45.53125 
Q 43.3125 49.21875 43.3125 52.78125 
Q 43.3125 58.59375 39.234375 62.25 
Q 35.15625 65.921875 28.609375 65.921875 
Q 23.96875 65.921875 18.8125 64.3125 
Q 13.671875 62.703125 7.8125 59.421875 
L 7.8125 69.390625 
Q 13.765625 71.78125 18.9375 73 
Q 24.125 74.21875 28.421875 74.21875 
Q 39.75 74.21875 46.484375 68.546875 
Q 53.21875 62.890625 53.21875 53.421875 
Q 53.21875 48.921875 51.53125 44.890625 
Q 49.859375 40.875 45.40625 35.40625 
Q 44.1875 33.984375 37.640625 27.21875 
Q 31.109375 20.453125 19.1875 8.296875 
" id="BitstreamVeraSans-Roman-32"/>
    </defs>
    <g transform="translate(592.118693182 170.896796421)scale(0.09 -0.09)">
     <use xlink:href="#BitstreamVeraSans-Roman-32"/>
    </g>
   </g>
   <g id="text_3">
    <!-- 3 -->
    <defs>
     <path d="M 40.578125 39.3125 
Q 47.65625 37.796875 51.625 33 
Q 55.609375 28.21875 55.609375 21.1875 
Q 55.609375 10.40625 48.1875 4.484375 
Q 40.765625 -1.421875 27.09375 -1.421875 
Q 22.515625 -1.421875 17.65625 -0.515625 
Q 12.796875 0.390625 7.625 2.203125 
L 7.625 11.71875 
Q 11.71875 9.328125 16.59375 8.109375 
Q 21.484375 6.890625 26.8125 6.890625 
Q 36.078125 6.890625 40.9375 10.546875 
Q 45.796875 14.203125 45.796875 21.1875 
Q 45.796875 27.640625 41.28125 31.265625 
Q 36.765625 34.90625 28.71875 34.90625 
L 20.21875 34.90625 
L 20.21875 43.015625 
L 29.109375 43.015625 
Q 36.375 43.015625 40.234375 45.921875 
Q 44.09375 48.828125 44.09375 54.296875 
Q 44.09375 59.90625 40.109375 62.90625 
Q 36.140625 65.921875 28.71875 65.921875 
Q 24.65625 65.921875 20.015625 65.03125 
Q 15.375 64.15625 9.8125 62.3125 
L 9.8125 71.09375 
Q 15.4375 72.65625 20.34375 73.4375 
Q 25.25 74.21875 29.59375 74.21875 
Q 40.828125 74.21875 47.359375 69.109375 
Q 53.90625 64.015625 53.90625 55.328125 
Q 53.90625 49.265625 50.4375 45.09375 
Q 46.96875 40.921875 40.578125 39.3125 
" id="BitstreamVeraSans-Roman-33"/>
    </defs>
    <g transform="translate(492.789065803 134.743768674)scale(0.09 -0.09)">
     <use xlink:href="#BitstreamVeraSans-Roman-33"/>
    </g>
   </g>
   <g id="text_4">
    <!-- 4 -->
    <defs>
     <path d="M 37.796875 64.3125 
L 12.890625 25.390625 
L 37.796875 25.390625 
z
M 35.203125 72.90625 
L 47.609375 72.90625 
L 47.609375 25.390625 
L 58.015625 25.390625 
L 58.015625 17.1875 
L 47.609375 17.1875 
L 47.609375 0 
L 37.796875 0 
L 37.796875 17.1875 
L 4.890625 17.1875 
L 4.890625 26.703125 
z
" id="BitstreamVeraSans-Roman-34"/>
    </defs>
    <g transform="translate(387.084684197 134.743768674)scale(0.09 -0.09)">
     <use xlink:href="#BitstreamVeraSans-Roman-34"/>
    </g>
   </g>
   <g id="text_5">
    <!-- 5 -->
    <defs>
     <path d="M 10.796875 72.90625 
L 49.515625 72.90625 
L 49.515625 64.59375 
L 19.828125 64.59375 
L 19.828125 46.734375 
Q 21.96875 47.46875 24.109375 47.828125 
Q 26.265625 48.1875 28.421875 48.1875 
Q 40.625 48.1875 47.75 41.5 
Q 54.890625 34.8125 54.890625 23.390625 
Q 54.890625 11.625 47.5625 5.09375 
Q 40.234375 -1.421875 26.90625 -1.421875 
Q 22.3125 -1.421875 17.546875 -0.640625 
Q 12.796875 0.140625 7.71875 1.703125 
L 7.71875 11.625 
Q 12.109375 9.234375 16.796875 8.0625 
Q 21.484375 6.890625 26.703125 6.890625 
Q 35.15625 6.890625 40.078125 11.328125 
Q 45.015625 15.765625 45.015625 23.390625 
Q 45.015625 31 40.078125 35.4375 
Q 35.15625 39.890625 26.703125 39.890625 
Q 22.75 39.890625 18.8125 39.015625 
Q 14.890625 38.140625 10.796875 36.28125 
z
" id="BitstreamVeraSans-Roman-35"/>
    </defs>
    <g transform="translate(287.755056818 170.896796421)scale(0.09 -0.09)">
     <use xlink:href="#BitstreamVeraSans-Roman-35"/>
    </g>
   </g>
   <g id="text_6">
    <!-- 6 -->
    <defs>
     <path d="M 33.015625 40.375 
Q 26.375 40.375 22.484375 35.828125 
Q 18.609375 31.296875 18.609375 23.390625 
Q 18.609375 15.53125 22.484375 10.953125 
Q 26.375 6.390625 33.015625 6.390625 
Q 39.65625 6.390625 43.53125 10.953125 
Q 47.40625 15.53125 47.40625 23.390625 
Q 47.40625 31.296875 43.53125 35.828125 
Q 39.65625 40.375 33.015625 40.375 
M 52.59375 71.296875 
L 52.59375 62.3125 
Q 48.875 64.0625 45.09375 64.984375 
Q 41.3125 65.921875 37.59375 65.921875 
Q 27.828125 65.921875 22.671875 59.328125 
Q 17.53125 52.734375 16.796875 39.40625 
Q 19.671875 43.65625 24.015625 45.921875 
Q 28.375 48.1875 33.59375 48.1875 
Q 44.578125 48.1875 50.953125 41.515625 
Q 57.328125 34.859375 57.328125 23.390625 
Q 57.328125 12.15625 50.6875 5.359375 
Q 44.046875 -1.421875 33.015625 -1.421875 
Q 20.359375 -1.421875 13.671875 8.265625 
Q 6.984375 17.96875 6.984375 36.375 
Q 6.984375 53.65625 15.1875 63.9375 
Q 23.390625 74.21875 37.203125 74.21875 
Q 40.921875 74.21875 44.703125 73.484375 
Q 48.484375 72.75 52.59375 71.296875 
" id="BitstreamVeraSans-Roman-36"/>
    </defs>
    <g transform="translate(474.433692565 238.842263206)scale(0.09 -0.09)">
     <use xlink:href="#BitstreamVeraSans-Roman-36"/>
    </g>
   </g>
   <g id="text_7">
    <!-- 7 -->
    <defs>
     <path d="M 8.203125 72.90625 
L 55.078125 72.90625 
L 55.078125 68.703125 
L 28.609375 0 
L 18.3125 0 
L 43.21875 64.59375 
L 8.203125 64.59375 
z
" id="BitstreamVeraSans-Roman-37"/>
    </defs>
    <g transform="translate(405.440057435 238.842263206)scale(0.09 -0.09)">
     <use xlink:href="#BitstreamVeraSans-Roman-37"/>
    </g>
   </g>
   <g id="text_8">
    <!-- 8 -->
    <defs>
     <path d="M 31.78125 34.625 
Q 24.75 34.625 20.71875 30.859375 
Q 16.703125 27.09375 16.703125 20.515625 
Q 16.703125 13.921875 20.71875 10.15625 
Q 24.75 6.390625 31.78125 6.390625 
Q 38.8125 6.390625 42.859375 10.171875 
Q 46.921875 13.96875 46.921875 20.515625 
Q 46.921875 27.09375 42.890625 30.859375 
Q 38.875 34.625 31.78125 34.625 
M 21.921875 38.8125 
Q 15.578125 40.375 12.03125 44.71875 
Q 8.5 49.078125 8.5 55.328125 
Q 8.5 64.0625 14.71875 69.140625 
Q 20.953125 74.21875 31.78125 74.21875 
Q 42.671875 74.21875 48.875 69.140625 
Q 55.078125 64.0625 55.078125 55.328125 
Q 55.078125 49.078125 51.53125 44.71875 
Q 48 40.375 41.703125 38.8125 
Q 48.828125 37.15625 52.796875 32.3125 
Q 56.78125 27.484375 56.78125 20.515625 
Q 56.78125 9.90625 50.3125 4.234375 
Q 43.84375 -1.421875 31.78125 -1.421875 
Q 19.734375 -1.421875 13.25 4.234375 
Q 6.78125 9.90625 6.78125 20.515625 
Q 6.78125 27.484375 10.78125 32.3125 
Q 14.796875 37.15625 21.921875 38.8125 
M 18.3125 54.390625 
Q 18.3125 48.734375 21.84375 45.5625 
Q 25.390625 42.390625 31.78125 42.390625 
Q 38.140625 42.390625 41.71875 45.5625 
Q 45.3125 48.734375 45.3125 54.390625 
Q 45.3125 60.0625 41.71875 63.234375 
Q 38.140625 66.40625 31.78125 66.40625 
Q 25.390625 66.40625 21.84375 63.234375 
Q 18.3125 60.0625 18.3125 54.390625 
" id="BitstreamVeraSans-Roman-38"/>
    </defs>
    <g transform="translate(539.266502379 262.439476182)scale(0.09 -0.09)">
     <use xlink:href="#BitstreamVeraSans-Roman-38"/>
    </g>
   </g>
   <g id="text_9">
    <!-- 9 -->
    <defs>
     <path d="M 10.984375 1.515625 
L 10.984375 10.5 
Q 14.703125 8.734375 18.5 7.8125 
Q 22.3125 6.890625 25.984375 6.890625 
Q 35.75 6.890625 40.890625 13.453125 
Q 46.046875 20.015625 46.78125 33.40625 
Q 43.953125 29.203125 39.59375 26.953125 
Q 35.25 24.703125 29.984375 24.703125 
Q 19.046875 24.703125 12.671875 31.3125 
Q 6.296875 37.9375 6.296875 49.421875 
Q 6.296875 60.640625 12.9375 67.421875 
Q 19.578125 74.21875 30.609375 74.21875 
Q 43.265625 74.21875 49.921875 64.515625 
Q 56.59375 54.828125 56.59375 36.375 
Q 56.59375 19.140625 48.40625 8.859375 
Q 40.234375 -1.421875 26.421875 -1.421875 
Q 22.703125 -1.421875 18.890625 -0.6875 
Q 15.09375 0.046875 10.984375 1.515625 
M 30.609375 32.421875 
Q 37.25 32.421875 41.125 36.953125 
Q 45.015625 41.5 45.015625 49.421875 
Q 45.015625 57.28125 41.125 61.84375 
Q 37.25 66.40625 30.609375 66.40625 
Q 23.96875 66.40625 20.09375 61.84375 
Q 16.21875 57.28125 16.21875 49.421875 
Q 16.21875 41.5 20.09375 36.953125 
Q 23.96875 32.421875 30.609375 32.421875 
" id="BitstreamVeraSans-Roman-39"/>
    </defs>
    <g transform="translate(592.118693182 306.787729992)scale(0.09 -0.09)">
     <use xlink:href="#BitstreamVeraSans-Roman-39"/>
    </g>
   </g>
   <g id="text_10">
    <!-- 10 -->
    <defs>
     <path d="M 31.78125 66.40625 
Q 24.171875 66.40625 20.328125 58.90625 
Q 16.5 51.421875 16.5 36.375 
Q 16.5 21.390625 20.328125 13.890625 
Q 24.171875 6.390625 31.78125 6.390625 
Q 39.453125 6.390625 43.28125 13.890625 
Q 47.125 21.390625 47.125 36.375 
Q 47.125 51.421875 43.28125 58.90625 
Q 39.453125 66.40625 31.78125 66.40625 
M 31.78125 74.21875 
Q 44.046875 74.21875 50.515625 64.515625 
Q 56.984375 54.828125 56.984375 36.375 
Q 56.984375 17.96875 50.515625 8.265625 
Q 44.046875 -1.421875 31.78125 -1.421875 
Q 19.53125 -1.421875 13.0625 8.265625 
Q 6.59375 17.96875 6.59375 36.375 
Q 6.59375 54.828125 13.0625 64.515625 
Q 19.53125 74.21875 31.78125 74.21875 
" id="BitstreamVeraSans-Roman-30"/>
    </defs>
    <g transform="translate(723.082013126 330.384942968)scale(0.09 -0.09)">
     <use xlink:href="#BitstreamVeraSans-Roman-31"/>
     <use x="63.623046875" xlink:href="#BitstreamVeraSans-Roman-30"/>
    </g>
   </g>
   <g id="text_11">
    <!-- 11 -->
    <g transform="translate(489.925940803 342.940757739)scale(0.09 -0.09)">
     <use xlink:href="#BitstreamVeraSans-Roman-31"/>
     <use x="63.623046875" xlink:href="#BitstreamVeraSans-Roman-31"/>
    </g>
   </g>
   <g id="text_12">
    <!-- 12 -->
    <g transform="translate(384.221559197 342.940757739)scale(0.09 -0.09)">
     <use xlink:href="#BitstreamVeraSans-Roman-31"/>
     <use x="63.623046875" xlink:href="#BitstreamVeraSans-Roman-32"/>
    </g>
   </g>
   <g id="text_13">
    <!-- 13 -->
    <g transform="translate(623.752385747 366.537970715)scale(0.09 -0.09)">
     <use xlink:href="#BitstreamVeraSans-Roman-31"/>
     <use x="63.623046875" xlink:href="#BitstreamVeraSans-Roman-33"/>
    </g>
   </g>
   <g id="text_14">
    <!-- 14 -->
    <g transform="translate(741.437386364 434.4834375)scale(0.09 -0.09)">
     <use xlink:href="#BitstreamVeraSans-Roman-31"/>
     <use x="63.623046875" xlink:href="#BitstreamVeraSans-Roman-34"/>
    </g>
   </g>
   <g id="text_15">
    <!-- 15 -->
    <g transform="translate(518.048004142 366.537970715)scale(0.09 -0.09)">
     <use xlink:href="#BitstreamVeraSans-Roman-31"/>
     <use x="63.623046875" xlink:href="#BitstreamVeraSans-Roman-35"/>
    </g>
   </g>
   <g id="text_16">
    <!-- 16 -->
    <g transform="translate(284.891931818 306.787729992)scale(0.09 -0.09)">
     <use xlink:href="#BitstreamVeraSans-Roman-31"/>
     <use x="63.623046875" xlink:href="#BitstreamVeraSans-Roman-36"/>
    </g>
   </g>
   <g id="text_17">
    <!-- 17 -->
    <g transform="translate(418.718376763 330.384942968)scale(0.09 -0.09)">
     <use xlink:href="#BitstreamVeraSans-Roman-31"/>
     <use x="63.623046875" xlink:href="#BitstreamVeraSans-Roman-37"/>
    </g>
   </g>
   <g id="text_18">
    <!-- 18 -->
    <g transform="translate(635.733004758 434.4834375)scale(0.09 -0.09)">
     <use xlink:href="#BitstreamVeraSans-Roman-31"/>
     <use x="63.623046875" xlink:href="#BitstreamVeraSans-Roman-38"/>
    </g>
   </g>
   <g id="text_19">
    <!-- 19 -->
    <g transform="translate(203.917677676 238.842263206)scale(0.09 -0.09)">
     <use xlink:href="#BitstreamVeraSans-Roman-31"/>
     <use x="63.623046875" xlink:href="#BitstreamVeraSans-Roman-39"/>
    </g>
   </g>
   <g id="text_20">
    <!-- 20 -->
    <g transform="translate(337.744122621 262.439476182)scale(0.09 -0.09)">
     <use xlink:href="#BitstreamVeraSans-Roman-32"/>
     <use x="63.623046875" xlink:href="#BitstreamVeraSans-Roman-30"/>
    </g>
   </g>
   <g id="text_21">
    <!-- 21 -->
    <g transform="translate(536.403377379 398.330409753)scale(0.09 -0.09)">
     <use xlink:href="#BitstreamVeraSans-Roman-32"/>
     <use x="63.623046875" xlink:href="#BitstreamVeraSans-Roman-31"/>
    </g>
   </g>
   <g id="text_22">
    <!-- 22 -->
    <g transform="translate(536.403377379 470.636465247)scale(0.09 -0.09)">
     <use xlink:href="#BitstreamVeraSans-Roman-32"/>
     <use x="63.623046875" xlink:href="#BitstreamVeraSans-Roman-32"/>
    </g>
   </g>
   <g id="text_23">
    <!-- 23 -->
    <g transform="translate(455.429123237 330.384942968)scale(0.09 -0.09)">
     <use xlink:href="#BitstreamVeraSans-Roman-32"/>
     <use x="63.623046875" xlink:href="#BitstreamVeraSans-Roman-33"/>
    </g>
   </g>
   <g id="text_24">
    <!-- 24,34 -->
    <defs>
     <path d="M 11.71875 12.40625 
L 22.015625 12.40625 
L 22.015625 4 
L 14.015625 -11.625 
L 7.71875 -11.625 
L 11.71875 4 
z
" id="BitstreamVeraSans-Roman-2c"/>
    </defs>
    <g transform="translate(436.358671875 433.24171875)scale(0.045 -0.045)">
     <use xlink:href="#BitstreamVeraSans-Roman-32"/>
     <use x="63.623046875" xlink:href="#BitstreamVeraSans-Roman-34"/>
     <use x="127.24609375" xlink:href="#BitstreamVeraSans-Roman-2c"/>
     <use x="159.033203125" xlink:href="#BitstreamVeraSans-Roman-33"/>
     <use x="222.65625" xlink:href="#BitstreamVeraSans-Roman-34"/>
    </g>
   </g>
   <g id="text_25">
    <!-- 25 -->
    <g transform="translate(723.082013126 538.581932032)scale(0.09 -0.09)">
     <use xlink:href="#BitstreamVeraSans-Roman-32"/>
     <use x="63.623046875" xlink:href="#BitstreamVeraSans-Roman-35"/>
    </g>
   </g>
   <g id="text_26">
    <!-- 26 -->
    <g transform="translate(331.369368395 434.4834375)scale(0.09 -0.09)">
     <use xlink:href="#BitstreamVeraSans-Roman-32"/>
     <use x="63.623046875" xlink:href="#BitstreamVeraSans-Roman-36"/>
    </g>
   </g>
   <g id="text_27">
    <!-- 27 -->
    <g transform="translate(356.099495858 366.537970715)scale(0.09 -0.09)">
     <use xlink:href="#BitstreamVeraSans-Roman-32"/>
     <use x="63.623046875" xlink:href="#BitstreamVeraSans-Roman-37"/>
    </g>
   </g>
   <g id="text_28">
    <!-- 28 -->
    <g transform="translate(623.752385747 502.428904285)scale(0.09 -0.09)">
     <use xlink:href="#BitstreamVeraSans-Roman-32"/>
     <use x="63.623046875" xlink:href="#BitstreamVeraSans-Roman-38"/>
    </g>
   </g>
   <g id="text_29">
    <!-- 29 -->
    <g transform="translate(518.048004142 502.428904285)scale(0.09 -0.09)">
     <use xlink:href="#BitstreamVeraSans-Roman-32"/>
     <use x="63.623046875" xlink:href="#BitstreamVeraSans-Roman-39"/>
    </g>
   </g>
   <g id="text_30">
    <!-- 30 -->
    <g transform="translate(250.395114253 366.537970715)scale(0.09 -0.09)">
     <use xlink:href="#BitstreamVeraSans-Roman-33"/>
     <use x="63.623046875" xlink:href="#BitstreamVeraSans-Roman-30"/>
    </g>
   </g>
   <g id="text_31">
    <!-- 31 -->
    <g transform="translate(542.778131605 434.4834375)scale(0.09 -0.09)">
     <use xlink:href="#BitstreamVeraSans-Roman-33"/>
     <use x="63.623046875" xlink:href="#BitstreamVeraSans-Roman-31"/>
    </g>
   </g>
   <g id="text_32">
    <!-- 32 -->
    <g transform="translate(418.718376763 538.581932032)scale(0.09 -0.09)">
     <use xlink:href="#BitstreamVeraSans-Roman-33"/>
     <use x="63.623046875" xlink:href="#BitstreamVeraSans-Roman-32"/>
    </g>
   </g>
   <g id="text_33">
    <!-- 33 -->
    <g transform="translate(151.065486874 330.384942968)scale(0.09 -0.09)">
     <use xlink:href="#BitstreamVeraSans-Roman-33"/>
     <use x="63.623046875" xlink:href="#BitstreamVeraSans-Roman-33"/>
    </g>
   </g>
   <g id="text_34">
    <!-- 35 -->
    <g transform="translate(536.403377379 606.527398818)scale(0.09 -0.09)">
     <use xlink:href="#BitstreamVeraSans-Roman-33"/>
     <use x="63.623046875" xlink:href="#BitstreamVeraSans-Roman-35"/>
    </g>
   </g>
   <g id="text_35">
    <!-- 36 -->
    <g transform="translate(337.744122621 398.330409753)scale(0.09 -0.09)">
     <use xlink:href="#BitstreamVeraSans-Roman-33"/>
     <use x="63.623046875" xlink:href="#BitstreamVeraSans-Roman-36"/>
    </g>
   </g>
   <g id="text_36">
    <!-- 37 -->
    <g transform="translate(337.744122621 470.636465247)scale(0.09 -0.09)">
     <use xlink:href="#BitstreamVeraSans-Roman-33"/>
     <use x="63.623046875" xlink:href="#BitstreamVeraSans-Roman-37"/>
    </g>
   </g>
   <g id="text_37">
    <!-- 38 -->
    <g transform="translate(670.229822324 630.124611794)scale(0.09 -0.09)">
     <use xlink:href="#BitstreamVeraSans-Roman-33"/>
     <use x="63.623046875" xlink:href="#BitstreamVeraSans-Roman-38"/>
    </g>
   </g>
   <g id="text_38">
    <!-- 39 -->
    <g transform="translate(455.429123237 538.581932032)scale(0.09 -0.09)">
     <use xlink:href="#BitstreamVeraSans-Roman-33"/>
     <use x="63.623046875" xlink:href="#BitstreamVeraSans-Roman-39"/>
    </g>
   </g>
   <g id="text_39">
    <!-- 40 -->
    <g transform="translate(238.414495242 434.4834375)scale(0.09 -0.09)">
     <use xlink:href="#BitstreamVeraSans-Roman-34"/>
     <use x="63.623046875" xlink:href="#BitstreamVeraSans-Roman-30"/>
    </g>
   </g>
   <g id="text_40">
    <!-- 41 -->
    <g transform="translate(132.710113636 434.4834375)scale(0.09 -0.09)">
     <use xlink:href="#BitstreamVeraSans-Roman-34"/>
     <use x="63.623046875" xlink:href="#BitstreamVeraSans-Roman-31"/>
    </g>
   </g>
   <g id="text_41">
    <!-- 42 -->
    <g transform="translate(356.099495858 502.428904285)scale(0.09 -0.09)">
     <use xlink:href="#BitstreamVeraSans-Roman-34"/>
     <use x="63.623046875" xlink:href="#BitstreamVeraSans-Roman-32"/>
    </g>
   </g>
   <g id="text_42">
    <!-- 43 -->
    <g transform="translate(589.255568182 562.179145008)scale(0.09 -0.09)">
     <use xlink:href="#BitstreamVeraSans-Roman-34"/>
     <use x="63.623046875" xlink:href="#BitstreamVeraSans-Roman-33"/>
    </g>
   </g>
   <g id="text_43">
    <!-- 44 -->
    <g transform="translate(250.395114253 502.428904285)scale(0.09 -0.09)">
     <use xlink:href="#BitstreamVeraSans-Roman-34"/>
     <use x="63.623046875" xlink:href="#BitstreamVeraSans-Roman-34"/>
    </g>
   </g>
   <g id="text_44">
    <!-- 45 -->
    <g transform="translate(489.925940803 526.026117261)scale(0.09 -0.09)">
     <use xlink:href="#BitstreamVeraSans-Roman-34"/>
     <use x="63.623046875" xlink:href="#BitstreamVeraSans-Roman-35"/>
    </g>
   </g>
   <g id="text_45">
    <!-- 46 -->
    <g transform="translate(384.221559197 526.026117261)scale(0.09 -0.09)">
     <use xlink:href="#BitstreamVeraSans-Roman-34"/>
     <use x="63.623046875" xlink:href="#BitstreamVeraSans-Roman-36"/>
    </g>
   </g>
   <g id="text_46">
    <!-- 47 -->
    <g transform="translate(151.065486874 538.581932032)scale(0.09 -0.09)">
     <use xlink:href="#BitstreamVeraSans-Roman-34"/>
     <use x="63.623046875" xlink:href="#BitstreamVeraSans-Roman-37"/>
    </g>
   </g>
   <g id="text_47">
    <!-- 48 -->
    <g transform="translate(337.744122621 606.527398818)scale(0.09 -0.09)">
     <use xlink:href="#BitstreamVeraSans-Roman-34"/>
     <use x="63.623046875" xlink:href="#BitstreamVeraSans-Roman-38"/>
    </g>
   </g>
   <g id="text_48">
    <!-- 49 -->
    <g transform="translate(284.891931818 562.179145008)scale(0.09 -0.09)">
     <use xlink:href="#BitstreamVeraSans-Roman-34"/>
     <use x="63.623046875" xlink:href="#BitstreamVeraSans-Roman-39"/>
    </g>
   </g>
   <g id="text_49">
    <!-- 50 -->
    <g transform="translate(471.570567565 630.124611794)scale(0.09 -0.09)">
     <use xlink:href="#BitstreamVeraSans-Roman-35"/>
     <use x="63.623046875" xlink:href="#BitstreamVeraSans-Roman-30"/>
    </g>
   </g>
   <g id="text_50">
    <!-- 51 -->
    <g transform="translate(402.576932435 630.124611794)scale(0.09 -0.09)">
     <use xlink:href="#BitstreamVeraSans-Roman-35"/>
     <use x="63.623046875" xlink:href="#BitstreamVeraSans-Roman-31"/>
    </g>
   </g>
   <g id="text_51">
    <!-- 52 -->
    <g transform="translate(589.255568182 698.070078579)scale(0.09 -0.09)">
     <use xlink:href="#BitstreamVeraSans-Roman-35"/>
     <use x="63.623046875" xlink:href="#BitstreamVeraSans-Roman-32"/>
    </g>
   </g>
   <g id="text_52">
    <!-- 53 -->
    <g transform="translate(489.925940803 734.223106326)scale(0.09 -0.09)">
     <use xlink:href="#BitstreamVeraSans-Roman-35"/>
     <use x="63.623046875" xlink:href="#BitstreamVeraSans-Roman-33"/>
    </g>
   </g>
   <g id="text_53">
    <!-- 54 -->
    <g transform="translate(384.221559197 734.223106326)scale(0.09 -0.09)">
     <use xlink:href="#BitstreamVeraSans-Roman-35"/>
     <use x="63.623046875" xlink:href="#BitstreamVeraSans-Roman-34"/>
    </g>
   </g>
   <g id="text_54">
    <!-- 55 -->
    <g transform="translate(284.891931818 698.070078579)scale(0.09 -0.09)">
     <use xlink:href="#BitstreamVeraSans-Roman-35"/>
     <use x="63.623046875" xlink:href="#BitstreamVeraSans-Roman-35"/>
    </g>
   </g>
   <g id="text_55">
    <!-- 56 -->
    <g transform="translate(203.917677676 630.124611794)scale(0.09 -0.09)">
     <use xlink:href="#BitstreamVeraSans-Roman-35"/>
     <use x="63.623046875" xlink:href="#BitstreamVeraSans-Roman-36"/>
    </g>
   </g>
  </g>
 </g>
 <defs>
  <clipPath id="p9ed01659c2">
   <rect height="659.427271417" width="669.6" x="108.0" y="102.286364292"/>
  </clipPath>
 </defs>
</svg>
